%TF.GenerationSoftware,KiCad,Pcbnew,7.0.2*%
%TF.CreationDate,2023-07-17T10:41:54+03:00*%
%TF.ProjectId,DeskSmartFan,4465736b-536d-4617-9274-46616e2e6b69,rev?*%
%TF.SameCoordinates,Original*%
%TF.FileFunction,Copper,L2,Bot*%
%TF.FilePolarity,Positive*%
%FSLAX46Y46*%
G04 Gerber Fmt 4.6, Leading zero omitted, Abs format (unit mm)*
G04 Created by KiCad (PCBNEW 7.0.2) date 2023-07-17 10:41:54*
%MOMM*%
%LPD*%
G01*
G04 APERTURE LIST*
%TA.AperFunction,ComponentPad*%
%ADD10C,0.700000*%
%TD*%
%TA.AperFunction,ComponentPad*%
%ADD11C,4.400000*%
%TD*%
%TA.AperFunction,ComponentPad*%
%ADD12R,1.700000X1.700000*%
%TD*%
%TA.AperFunction,ComponentPad*%
%ADD13O,1.700000X1.700000*%
%TD*%
%TA.AperFunction,ComponentPad*%
%ADD14R,2.000000X2.000000*%
%TD*%
%TA.AperFunction,ComponentPad*%
%ADD15C,2.000000*%
%TD*%
%TA.AperFunction,ComponentPad*%
%ADD16R,2.000000X3.200000*%
%TD*%
%TA.AperFunction,ComponentPad*%
%ADD17R,1.000000X1.000000*%
%TD*%
%TA.AperFunction,ComponentPad*%
%ADD18O,1.000000X1.000000*%
%TD*%
%TA.AperFunction,ComponentPad*%
%ADD19R,4.400000X1.800000*%
%TD*%
%TA.AperFunction,ComponentPad*%
%ADD20O,4.000000X1.800000*%
%TD*%
%TA.AperFunction,ComponentPad*%
%ADD21O,1.800000X4.000000*%
%TD*%
%TA.AperFunction,ComponentPad*%
%ADD22O,2.100000X1.000000*%
%TD*%
%TA.AperFunction,ComponentPad*%
%ADD23O,1.600000X1.000000*%
%TD*%
%TA.AperFunction,ViaPad*%
%ADD24C,0.600000*%
%TD*%
%TA.AperFunction,ViaPad*%
%ADD25C,0.800000*%
%TD*%
%TA.AperFunction,Conductor*%
%ADD26C,0.150000*%
%TD*%
%TA.AperFunction,Conductor*%
%ADD27C,0.300000*%
%TD*%
%TA.AperFunction,Conductor*%
%ADD28C,0.500000*%
%TD*%
G04 APERTURE END LIST*
D10*
%TO.P,REF\u002A\u002A,1*%
%TO.N,N/C*%
X125490000Y-40655000D03*
X125973274Y-39488274D03*
X125973274Y-41821726D03*
X127140000Y-39005000D03*
D11*
X127140000Y-40655000D03*
D10*
X127140000Y-42305000D03*
X128306726Y-39488274D03*
X128306726Y-41821726D03*
X128790000Y-40655000D03*
%TD*%
D12*
%TO.P,J5,1,Pin_1*%
%TO.N,/Fan Control/ENGINE_B_2*%
X159790000Y-62925000D03*
D13*
%TO.P,J5,2,Pin_2*%
%TO.N,/Fan Control/ENGINE_B_1*%
X159790000Y-65465000D03*
%TO.P,J5,3,Pin_3*%
%TO.N,/Fan Control/ENGINE_A_2*%
X159790000Y-68005000D03*
%TO.P,J5,4,Pin_4*%
%TO.N,/Fan Control/ENGINE_A_1*%
X159790000Y-70545000D03*
%TD*%
D12*
%TO.P,J3,1,Pin_1*%
%TO.N,GND*%
X159940000Y-51255000D03*
D13*
%TO.P,J3,2,Pin_2*%
%TO.N,+5V*%
X159940000Y-53795000D03*
%TO.P,J3,3,Pin_3*%
%TO.N,/RP2040/GPIO13*%
X159940000Y-56335000D03*
%TD*%
D12*
%TO.P,J4,1,Pin_1*%
%TO.N,GND*%
X159870000Y-41015000D03*
D13*
%TO.P,J4,2,Pin_2*%
%TO.N,+5V*%
X159870000Y-43555000D03*
%TO.P,J4,3,Pin_3*%
%TO.N,/RP2040/GPIO6*%
X159870000Y-46095000D03*
%TD*%
D14*
%TO.P,SW2,A,A*%
%TO.N,/RP2040/GPIO11*%
X152220000Y-93545000D03*
D15*
%TO.P,SW2,B,B*%
%TO.N,/RP2040/GPIO12*%
X157220000Y-93545000D03*
%TO.P,SW2,C,C*%
%TO.N,GND*%
X154720000Y-93545000D03*
D16*
%TO.P,SW2,MP*%
%TO.N,N/C*%
X149120000Y-86045000D03*
X160320000Y-86045000D03*
D15*
%TO.P,SW2,S1,S1*%
%TO.N,/RP2040/GPIO10*%
X157220000Y-79045000D03*
%TO.P,SW2,S2,S2*%
%TO.N,GND*%
X152220000Y-79045000D03*
%TD*%
D10*
%TO.P,REF\u002A\u002A,1*%
%TO.N,N/C*%
X158490000Y-121655000D03*
X158973274Y-120488274D03*
X158973274Y-122821726D03*
X160140000Y-120005000D03*
D11*
X160140000Y-121655000D03*
D10*
X160140000Y-123305000D03*
X161306726Y-120488274D03*
X161306726Y-122821726D03*
X161790000Y-121655000D03*
%TD*%
D17*
%TO.P,J6,1,Pin_1*%
%TO.N,+3V3*%
X121135000Y-77850000D03*
D18*
%TO.P,J6,2,Pin_2*%
%TO.N,/NRF52811/SWDIO*%
X121135000Y-79120000D03*
%TO.P,J6,3,Pin_3*%
%TO.N,GND*%
X122405000Y-77850000D03*
%TO.P,J6,4,Pin_4*%
%TO.N,/NRF52811/SWDCLK*%
X122405000Y-79120000D03*
%TO.P,J6,5,Pin_5*%
%TO.N,GND*%
X123675000Y-77850000D03*
%TO.P,J6,6,Pin_6*%
%TO.N,unconnected-(J6-Pin_6-Pad6)*%
X123675000Y-79120000D03*
%TO.P,J6,7,Pin_7*%
%TO.N,unconnected-(J6-Pin_7-Pad7)*%
X124945000Y-77850000D03*
%TO.P,J6,8,Pin_8*%
%TO.N,unconnected-(J6-Pin_8-Pad8)*%
X124945000Y-79120000D03*
%TO.P,J6,9,Pin_9*%
%TO.N,unconnected-(J6-Pin_9-Pad9)*%
X126215000Y-77850000D03*
%TO.P,J6,10,Pin_10*%
%TO.N,/NRF52811/NRESET*%
X126215000Y-79120000D03*
%TD*%
D19*
%TO.P,J2,1*%
%TO.N,+12V*%
X129140000Y-115355000D03*
D20*
%TO.P,J2,2*%
%TO.N,GND*%
X129140000Y-121155000D03*
D21*
%TO.P,J2,3*%
%TO.N,N/C*%
X133940000Y-118355000D03*
%TD*%
D10*
%TO.P,REF\u002A\u002A,1*%
%TO.N,N/C*%
X123650000Y-101600000D03*
X124133274Y-100433274D03*
X124133274Y-102766726D03*
X125300000Y-99950000D03*
D11*
X125300000Y-101600000D03*
D10*
X125300000Y-103250000D03*
X126466726Y-100433274D03*
X126466726Y-102766726D03*
X126950000Y-101600000D03*
%TD*%
D22*
%TO.P,J1,S1,SHIELD*%
%TO.N,Net-(J1-SHIELD)*%
X128140000Y-60655000D03*
D23*
X123960000Y-60655000D03*
D22*
X128140000Y-69295000D03*
D23*
X123960000Y-69295000D03*
%TD*%
D24*
%TO.N,GND*%
X143000000Y-51500000D03*
X142000000Y-51500000D03*
X141000000Y-51500000D03*
X140000000Y-51500000D03*
X139000000Y-51500000D03*
X139000000Y-50500000D03*
X140000000Y-50500000D03*
X141000000Y-50500000D03*
X142000000Y-50500000D03*
X143000000Y-50500000D03*
X143000000Y-49500000D03*
X142000000Y-49500000D03*
X141000000Y-49500000D03*
X140000000Y-49500000D03*
X139000000Y-49500000D03*
X139000000Y-48500000D03*
X140000000Y-48500000D03*
X141000000Y-48500000D03*
X142000000Y-48500000D03*
X143000000Y-48500000D03*
X143000000Y-47500000D03*
X142000000Y-47500000D03*
X141000000Y-47500000D03*
X140000000Y-47500000D03*
X139000000Y-47500000D03*
X125500000Y-88250000D03*
X126250000Y-88250000D03*
X127000000Y-88250000D03*
X127750000Y-88250000D03*
X127750000Y-87500000D03*
X127000000Y-87500000D03*
X126250000Y-87500000D03*
X125500000Y-87500000D03*
X125500000Y-86750000D03*
X126250000Y-86750000D03*
X127000000Y-86750000D03*
X127750000Y-86750000D03*
X127750000Y-86000000D03*
X127000000Y-86000000D03*
X126250000Y-86000000D03*
X125500000Y-86000000D03*
X125890000Y-91210000D03*
X156740000Y-65155000D03*
X118800000Y-76400000D03*
X118800000Y-77100000D03*
X155940000Y-68555000D03*
X158540000Y-74655000D03*
X153840000Y-68955000D03*
X118800000Y-93800000D03*
X153740000Y-73755000D03*
X153140000Y-69355000D03*
X147440000Y-73555000D03*
X157740000Y-66955000D03*
X148440000Y-74555000D03*
X147440000Y-72855000D03*
X153540000Y-72055000D03*
X144140000Y-45785000D03*
X157240000Y-64655000D03*
X157240000Y-109895000D03*
X149940000Y-73355000D03*
X144930000Y-45795000D03*
X145670000Y-45055000D03*
X153840000Y-75555000D03*
X152940000Y-73755000D03*
X157740000Y-70155000D03*
X154860000Y-51875000D03*
X160540000Y-72555000D03*
X137620000Y-44565000D03*
X118800000Y-87500000D03*
X152340000Y-75555000D03*
X150040000Y-72455000D03*
X118800000Y-95200000D03*
X160040000Y-73155000D03*
X145680000Y-53595000D03*
X118800000Y-97300000D03*
X118800000Y-88200000D03*
X150240000Y-75555000D03*
X153840000Y-69655000D03*
X136880000Y-52825000D03*
X118800000Y-77800000D03*
X155940000Y-69255000D03*
X160640000Y-71755000D03*
X137580000Y-53575000D03*
X118800000Y-91700000D03*
X155240000Y-66655000D03*
X118800000Y-78500000D03*
X154340000Y-72055000D03*
X148940000Y-75055000D03*
D25*
X116850000Y-89350000D03*
D24*
X124400000Y-81450000D03*
X155940000Y-75555000D03*
X151340000Y-73755000D03*
X118800000Y-88900000D03*
X118800000Y-90300000D03*
X157740000Y-70955000D03*
X144170000Y-45025000D03*
X118800000Y-83400000D03*
X118800000Y-80600000D03*
X154240000Y-67655000D03*
X144140000Y-52815000D03*
X155940000Y-70655000D03*
X158240000Y-68855000D03*
X158040000Y-75255000D03*
X157140000Y-67355000D03*
X120200000Y-83400000D03*
X135130000Y-50425000D03*
X118800000Y-82700000D03*
X154540000Y-75555000D03*
X135970000Y-55785000D03*
X144900000Y-53595000D03*
X144920000Y-45045000D03*
X137610000Y-45355000D03*
X151640000Y-75555000D03*
X150540000Y-73755000D03*
X155740000Y-72055000D03*
X154740000Y-67155000D03*
X118800000Y-79900000D03*
X118800000Y-82000000D03*
X149340000Y-72155000D03*
X123950000Y-90800000D03*
X119500000Y-83400000D03*
X136870000Y-46095000D03*
X151600000Y-64975000D03*
X151440000Y-57345000D03*
X157840000Y-64155000D03*
X118800000Y-98700000D03*
X144140000Y-53595000D03*
X155940000Y-69955000D03*
X149510000Y-65205000D03*
X157740000Y-71755000D03*
X157540000Y-73155000D03*
X152140000Y-73755000D03*
X156640000Y-51855000D03*
X156140000Y-73755000D03*
X158440000Y-66955000D03*
X157340000Y-75555000D03*
X118800000Y-96600000D03*
X152040000Y-72055000D03*
X145660000Y-52835000D03*
X118800000Y-79200000D03*
X147440000Y-72155000D03*
X159040000Y-74155000D03*
X149540000Y-75455000D03*
X156940000Y-73655000D03*
X149440000Y-72855000D03*
X118800000Y-91000000D03*
X147940000Y-74055000D03*
X118800000Y-98000000D03*
X156240000Y-65655000D03*
X119500000Y-87500000D03*
X155340000Y-73755000D03*
X118800000Y-92400000D03*
X118800000Y-93100000D03*
X155740000Y-66155000D03*
X120900000Y-83400000D03*
X136880000Y-53575000D03*
X156420000Y-58725000D03*
X137590000Y-52835000D03*
X144890000Y-52805000D03*
X156440000Y-67955000D03*
X150940000Y-75555000D03*
X136860000Y-45355000D03*
X137610000Y-46085000D03*
X155940000Y-71355000D03*
X118800000Y-94500000D03*
X155240000Y-75555000D03*
X159540000Y-73655000D03*
X152840000Y-72055000D03*
X118800000Y-95900000D03*
X136860000Y-44565000D03*
X157740000Y-72455000D03*
X154540000Y-73755000D03*
X156640000Y-75555000D03*
X153140000Y-68555000D03*
X155040000Y-72055000D03*
X153040000Y-75555000D03*
X157740000Y-69355000D03*
X118800000Y-89600000D03*
X118800000Y-81300000D03*
X153840000Y-68255000D03*
%TO.N,+1V1*%
X136350000Y-47600000D03*
X141704500Y-55205000D03*
X138330000Y-55215000D03*
%TO.N,+3V3*%
X129186158Y-90491906D03*
X149440000Y-98155000D03*
X150610000Y-65495000D03*
X158780000Y-98160000D03*
X146115000Y-84725000D03*
X134485000Y-48465000D03*
X149730000Y-66724500D03*
X139920000Y-42660000D03*
X144430000Y-76865000D03*
X150570000Y-61100000D03*
X160840000Y-74930000D03*
X137360000Y-57305000D03*
X144515000Y-93555000D03*
X143565000Y-57402500D03*
X124200000Y-92825000D03*
X128425000Y-82575000D03*
X149730000Y-69185000D03*
X145340000Y-111655000D03*
X142025000Y-57397500D03*
%TO.N,/Fan Control/VIN*%
X148040000Y-60275000D03*
X128187500Y-106827500D03*
X154637500Y-105805000D03*
%TO.N,Net-(U3-BOOT)*%
X132612500Y-109555000D03*
X139540000Y-109555000D03*
%TO.N,+5V*%
X159947500Y-112945000D03*
%TO.N,/RP2040/GPIO11*%
X158220000Y-47045000D03*
X156315500Y-47055000D03*
X161190000Y-97034500D03*
%TO.N,/RP2040/GPIO10*%
X155566980Y-47016647D03*
%TO.N,/RP2040/GPIO2*%
X147819795Y-48953125D03*
X144460000Y-86265000D03*
%TO.N,/RP2040/GPIO3*%
X144465000Y-84725000D03*
X147881557Y-48206171D03*
%TO.N,VBUS*%
X123340000Y-106155000D03*
X131140000Y-60655000D03*
%TO.N,/RP2040/GPIO6*%
X151821496Y-46932785D03*
%TO.N,/RP2040/QSPI_SS*%
X150510000Y-52235000D03*
X150510000Y-53284500D03*
%TO.N,/Fan Control/STBY*%
X147870000Y-50450500D03*
X151270000Y-62465000D03*
%TO.N,/Fan Control/PWMA*%
X147820595Y-49702627D03*
X152110000Y-58255000D03*
%TO.N,/Fan Control/PWMB*%
X148409961Y-47674623D03*
X154100000Y-62605000D03*
%TO.N,/Fan Control/AIN1*%
X151070000Y-46919500D03*
X149940362Y-62219413D03*
%TO.N,/Fan Control/AIN2*%
X152060000Y-62435000D03*
X154264500Y-60385024D03*
X149345220Y-62675000D03*
X152570999Y-46932785D03*
%TO.N,/Fan Control/BIN1*%
X154068457Y-47021455D03*
X154289122Y-61134122D03*
%TO.N,/Fan Control/BIN2*%
X154590000Y-61935000D03*
X154817779Y-47037900D03*
%TO.N,/RP2040/QSPI_SCLK*%
X151424500Y-55305000D03*
X150300000Y-55295000D03*
%TO.N,/RP2040/QSPI_SD0*%
X149710000Y-56575000D03*
X151424500Y-56585000D03*
%TO.N,/NRF52811/P0.06*%
X139115097Y-44379500D03*
X133200000Y-82649500D03*
%TO.N,/NRF52811/P0.09*%
X138365594Y-44379500D03*
X132350000Y-82599500D03*
%TD*%
D26*
%TO.N,GND*%
X116850000Y-90000000D02*
X117150000Y-90300000D01*
X116850000Y-89350000D02*
X116850000Y-90000000D01*
X117150000Y-90300000D02*
X118800000Y-90300000D01*
%TO.N,+1V1*%
X136350000Y-47600000D02*
X136350000Y-54365000D01*
X136350000Y-54365000D02*
X137200000Y-55215000D01*
X138340000Y-55205000D02*
X138330000Y-55215000D01*
X137200000Y-55215000D02*
X138330000Y-55215000D01*
X141704500Y-55205000D02*
X138340000Y-55205000D01*
D27*
%TO.N,+3V3*%
X145240000Y-98155000D02*
X144515000Y-97430000D01*
D26*
X129186158Y-82886158D02*
X128875000Y-82575000D01*
X141932500Y-57305000D02*
X142025000Y-57397500D01*
X135545000Y-42660000D02*
X134485000Y-43720000D01*
D28*
X158780000Y-110215000D02*
X158780000Y-98160000D01*
D27*
X146115000Y-81290000D02*
X144430000Y-79605000D01*
D26*
X137360000Y-57305000D02*
X141932500Y-57305000D01*
X149178528Y-69185000D02*
X144430000Y-73933528D01*
D27*
X144430000Y-76865000D02*
X157630000Y-76865000D01*
X144430000Y-79605000D02*
X144430000Y-76865000D01*
D26*
X127875000Y-92825000D02*
X128300000Y-92400000D01*
D27*
X157630000Y-76865000D02*
X159565000Y-74930000D01*
X159565000Y-74930000D02*
X160840000Y-74930000D01*
X146115000Y-84725000D02*
X146115000Y-81290000D01*
D26*
X150570000Y-61100000D02*
X150570000Y-58385000D01*
D27*
X144515000Y-97430000D02*
X144515000Y-93555000D01*
D28*
X157340000Y-111655000D02*
X158780000Y-110215000D01*
D26*
X129186158Y-91513842D02*
X129186158Y-90491906D01*
X129186158Y-90491906D02*
X129186158Y-82886158D01*
X134485000Y-43720000D02*
X134485000Y-48465000D01*
X139920000Y-42660000D02*
X135545000Y-42660000D01*
D28*
X145340000Y-111655000D02*
X157340000Y-111655000D01*
D26*
X150570000Y-58385000D02*
X149587500Y-57402500D01*
X149730000Y-69185000D02*
X149178528Y-69185000D01*
X149730000Y-66724500D02*
X149730000Y-66375000D01*
D27*
X149440000Y-98155000D02*
X145240000Y-98155000D01*
D26*
X149730000Y-66375000D02*
X150610000Y-65495000D01*
X128875000Y-82575000D02*
X128425000Y-82575000D01*
X124200000Y-92825000D02*
X127875000Y-92825000D01*
X149587500Y-57402500D02*
X143565000Y-57402500D01*
X144430000Y-73933528D02*
X144430000Y-76865000D01*
X128300000Y-92400000D02*
X129186158Y-91513842D01*
D28*
%TO.N,/Fan Control/VIN*%
X154637500Y-105805000D02*
X154637500Y-103322500D01*
X153470000Y-102155000D02*
X137490000Y-102155000D01*
X135450000Y-100115000D02*
X135450000Y-63045000D01*
X131612500Y-106827500D02*
X133540000Y-108755000D01*
X153840000Y-108755000D02*
X154637500Y-107957500D01*
X133540000Y-108755000D02*
X153840000Y-108755000D01*
X137490000Y-102155000D02*
X135450000Y-100115000D01*
X128187500Y-106827500D02*
X131612500Y-106827500D01*
X154637500Y-107957500D02*
X154637500Y-105805000D01*
X135450000Y-63045000D02*
X138220000Y-60275000D01*
X154637500Y-103322500D02*
X153470000Y-102155000D01*
X138220000Y-60275000D02*
X148040000Y-60275000D01*
%TO.N,Net-(U3-BOOT)*%
X139540000Y-109555000D02*
X132612500Y-109555000D01*
D27*
%TO.N,+5V*%
X161690000Y-112945000D02*
X159947500Y-112945000D01*
X162900000Y-53795000D02*
X163170000Y-53795000D01*
X163170000Y-111465000D02*
X161690000Y-112945000D01*
X163170000Y-53795000D02*
X163170000Y-54075000D01*
X163170000Y-45125000D02*
X163170000Y-53475000D01*
X163170000Y-54075000D02*
X163170000Y-111465000D01*
X163170000Y-53475000D02*
X163170000Y-53795000D01*
X161600000Y-43555000D02*
X163170000Y-45125000D01*
X159940000Y-53795000D02*
X162900000Y-53795000D01*
X162900000Y-53745000D02*
X163170000Y-54015000D01*
X162900000Y-53795000D02*
X162900000Y-53745000D01*
X163170000Y-54015000D02*
X163170000Y-54075000D01*
X162900000Y-53745000D02*
X163170000Y-53475000D01*
X159870000Y-43555000D02*
X161600000Y-43555000D01*
D26*
%TO.N,/RP2040/GPIO11*%
X152670000Y-95815000D02*
X152220000Y-95365000D01*
X160770000Y-95815000D02*
X152670000Y-95815000D01*
X158210000Y-47055000D02*
X156315500Y-47055000D01*
X152220000Y-95365000D02*
X152220000Y-93545000D01*
X158220000Y-47045000D02*
X158210000Y-47055000D01*
X161190000Y-97034500D02*
X161190000Y-96235000D01*
X161190000Y-96235000D02*
X160770000Y-95815000D01*
%TO.N,/RP2040/GPIO10*%
X161500000Y-79045000D02*
X157220000Y-79045000D01*
X157660000Y-58405000D02*
X158670000Y-59415000D01*
X155566980Y-47016647D02*
X155566980Y-47471980D01*
X157660000Y-49565000D02*
X157660000Y-58405000D01*
X155566980Y-47471980D02*
X157660000Y-49565000D01*
X162795000Y-60140000D02*
X162795000Y-77750000D01*
X162070000Y-59415000D02*
X162795000Y-60140000D01*
X162795000Y-77750000D02*
X161500000Y-79045000D01*
X158670000Y-59415000D02*
X162070000Y-59415000D01*
%TO.N,/RP2040/GPIO2*%
X147819795Y-48953125D02*
X152668125Y-48953125D01*
X143040000Y-85435000D02*
X143870000Y-86265000D01*
X143870000Y-86265000D02*
X144460000Y-86265000D01*
X152668125Y-48953125D02*
X153140000Y-49425000D01*
X143040000Y-74475000D02*
X143040000Y-85435000D01*
X153140000Y-49425000D02*
X153140000Y-64375000D01*
X153140000Y-64375000D02*
X143040000Y-74475000D01*
%TO.N,/RP2040/GPIO3*%
X152851171Y-48206171D02*
X153440000Y-48795000D01*
X153440000Y-48795000D02*
X153440000Y-64499264D01*
X153440000Y-64499264D02*
X143340000Y-74599264D01*
X143340000Y-84475000D02*
X143590000Y-84725000D01*
X143340000Y-74599264D02*
X143340000Y-84475000D01*
X147881557Y-48206171D02*
X152851171Y-48206171D01*
X143590000Y-84725000D02*
X144465000Y-84725000D01*
D28*
%TO.N,VBUS*%
X129790000Y-90845000D02*
X129790000Y-102310000D01*
X131140000Y-60655000D02*
X131140000Y-89495000D01*
X129790000Y-102310000D02*
X125945000Y-106155000D01*
X131140000Y-89495000D02*
X129790000Y-90845000D01*
X125945000Y-106155000D02*
X123340000Y-106155000D01*
D26*
%TO.N,/RP2040/GPIO6*%
X151821496Y-46563504D02*
X152290000Y-46095000D01*
X152290000Y-46095000D02*
X159870000Y-46095000D01*
X151821496Y-46932785D02*
X151821496Y-46563504D01*
%TO.N,/RP2040/QSPI_SS*%
X150510000Y-53284500D02*
X150510000Y-52235000D01*
%TO.N,/Fan Control/STBY*%
X151815500Y-50450500D02*
X147870000Y-50450500D01*
X152540000Y-57075000D02*
X152540000Y-51175000D01*
X151270000Y-58345000D02*
X152540000Y-57075000D01*
X151270000Y-62465000D02*
X151270000Y-58345000D01*
X152540000Y-51175000D02*
X151815500Y-50450500D01*
%TO.N,/Fan Control/PWMA*%
X147820595Y-49702627D02*
X152357627Y-49702627D01*
X152357627Y-49702627D02*
X152840000Y-50185000D01*
X152840000Y-50185000D02*
X152840000Y-57525000D01*
X152840000Y-57525000D02*
X152110000Y-58255000D01*
%TO.N,/Fan Control/PWMB*%
X154100000Y-62605000D02*
X153740000Y-62245000D01*
X153740000Y-48670736D02*
X152743887Y-47674623D01*
X152743887Y-47674623D02*
X148409961Y-47674623D01*
X153740000Y-62245000D02*
X153740000Y-48670736D01*
%TO.N,/Fan Control/AIN1*%
X152190000Y-51495000D02*
X151700000Y-51005000D01*
X147865500Y-46919500D02*
X151070000Y-46919500D01*
X152190000Y-54335000D02*
X152190000Y-51495000D01*
X149680000Y-54735000D02*
X151790000Y-54735000D01*
X146990000Y-47795000D02*
X147865500Y-46919500D01*
X143170000Y-58105000D02*
X142800000Y-57735000D01*
X151790000Y-54735000D02*
X152190000Y-54335000D01*
X149940000Y-58275000D02*
X149430000Y-57765000D01*
X143060000Y-56675000D02*
X148920000Y-56675000D01*
X147510000Y-51005000D02*
X146990000Y-50485000D01*
X149940000Y-62219051D02*
X149940000Y-58275000D01*
X145360000Y-57765000D02*
X145020000Y-58105000D01*
X149430000Y-57765000D02*
X145360000Y-57765000D01*
X148920000Y-56675000D02*
X149185000Y-56410000D01*
X149940362Y-62219413D02*
X149940000Y-62219051D01*
X146990000Y-50485000D02*
X146990000Y-47795000D01*
X149185000Y-56410000D02*
X149185000Y-55230000D01*
X145020000Y-58105000D02*
X143170000Y-58105000D01*
X142800000Y-56935000D02*
X143060000Y-56675000D01*
X142800000Y-57735000D02*
X142800000Y-56935000D01*
X151700000Y-51005000D02*
X147510000Y-51005000D01*
X149185000Y-55230000D02*
X149680000Y-54735000D01*
%TO.N,/Fan Control/AIN2*%
X152060000Y-63235000D02*
X152060000Y-62435000D01*
X154040000Y-48295000D02*
X152677785Y-46932785D01*
X151630000Y-63665000D02*
X152060000Y-63235000D01*
X149345220Y-62675000D02*
X149345220Y-63310220D01*
X152677785Y-46932785D02*
X152570999Y-46932785D01*
X154040000Y-60160524D02*
X154040000Y-48295000D01*
X149345220Y-63310220D02*
X149700000Y-63665000D01*
X154264500Y-60385024D02*
X154040000Y-60160524D01*
X149700000Y-63665000D02*
X151630000Y-63665000D01*
%TO.N,/Fan Control/BIN1*%
X155560000Y-48522584D02*
X154292779Y-47255363D01*
X155170878Y-61134122D02*
X155560000Y-60745000D01*
X154292779Y-47255363D02*
X154292779Y-47245777D01*
X154292779Y-47245777D02*
X154068457Y-47021455D01*
X155560000Y-60745000D02*
X155560000Y-48522584D01*
X154289122Y-61134122D02*
X155170878Y-61134122D01*
%TO.N,/Fan Control/BIN2*%
X154817779Y-47147043D02*
X154817779Y-47037900D01*
X155860000Y-48189264D02*
X154817779Y-47147043D01*
X155450000Y-61935000D02*
X155860000Y-61525000D01*
X154590000Y-61935000D02*
X155450000Y-61935000D01*
X155860000Y-61525000D02*
X155860000Y-48189264D01*
%TO.N,/RP2040/QSPI_SCLK*%
X151414500Y-55295000D02*
X151424500Y-55305000D01*
X150300000Y-55295000D02*
X151414500Y-55295000D01*
%TO.N,/RP2040/QSPI_SD0*%
X151414500Y-56575000D02*
X151424500Y-56585000D01*
X149710000Y-56575000D02*
X151414500Y-56575000D01*
%TO.N,/NRF52811/P0.06*%
X132050000Y-81800000D02*
X132050000Y-52025736D01*
X132650000Y-83400000D02*
X132150000Y-83400000D01*
X132150000Y-83400000D02*
X131800000Y-83050000D01*
X138650000Y-43150000D02*
X139115097Y-43615097D01*
X133200000Y-82850000D02*
X132650000Y-83400000D01*
X135200000Y-48875736D02*
X135200000Y-43675736D01*
X135725736Y-43150000D02*
X138650000Y-43150000D01*
X131800000Y-83050000D02*
X131800000Y-82050000D01*
X131800000Y-82050000D02*
X132050000Y-81800000D01*
X135200000Y-43675736D02*
X135725736Y-43150000D01*
X139115097Y-43615097D02*
X139115097Y-44379500D01*
X132050000Y-52025736D02*
X135200000Y-48875736D01*
X133200000Y-82649500D02*
X133200000Y-82850000D01*
%TO.N,/NRF52811/P0.09*%
X132350000Y-52150000D02*
X135500000Y-49000000D01*
X135850000Y-43450000D02*
X138050000Y-43450000D01*
X138365594Y-43765594D02*
X138365594Y-44379500D01*
X135500000Y-43800000D02*
X135850000Y-43450000D01*
X138050000Y-43450000D02*
X138365594Y-43765594D01*
X132350000Y-82599500D02*
X132350000Y-52150000D01*
X135500000Y-49000000D02*
X135500000Y-43800000D01*
%TD*%
%TA.AperFunction,Conductor*%
%TO.N,GND*%
G36*
X152280033Y-54655145D02*
G01*
X152309538Y-54697282D01*
X152312100Y-54716745D01*
X152312100Y-56949451D01*
X152294507Y-56997789D01*
X152290074Y-57002625D01*
X151114456Y-58178242D01*
X151111602Y-58180952D01*
X151081505Y-58208051D01*
X151071506Y-58230510D01*
X151065878Y-58240875D01*
X151052483Y-58261502D01*
X151051148Y-58269935D01*
X151045574Y-58288754D01*
X151042100Y-58296557D01*
X151042100Y-58321152D01*
X151041174Y-58332916D01*
X151037328Y-58357192D01*
X151039538Y-58365437D01*
X151042100Y-58384901D01*
X151042100Y-60751616D01*
X151024507Y-60799954D01*
X150979958Y-60825674D01*
X150929300Y-60816741D01*
X150910068Y-60800861D01*
X150869638Y-60754202D01*
X150832443Y-60730298D01*
X150801291Y-60689364D01*
X150797900Y-60667036D01*
X150797900Y-58392936D01*
X150798003Y-58389000D01*
X150800123Y-58348551D01*
X150791310Y-58325595D01*
X150787957Y-58314275D01*
X150787650Y-58312832D01*
X150782848Y-58290234D01*
X150777828Y-58283325D01*
X150768463Y-58266075D01*
X150765402Y-58258102D01*
X150748018Y-58240718D01*
X150740355Y-58231747D01*
X150725901Y-58211854D01*
X150719314Y-58208051D01*
X150718503Y-58207582D01*
X150702933Y-58195634D01*
X149754258Y-57246958D01*
X149751547Y-57244102D01*
X149724448Y-57214005D01*
X149701985Y-57204004D01*
X149691616Y-57198374D01*
X149670996Y-57184983D01*
X149662564Y-57183648D01*
X149643742Y-57178073D01*
X149635942Y-57174600D01*
X149630960Y-57172382D01*
X149626239Y-57174449D01*
X149621470Y-57174600D01*
X149611348Y-57174600D01*
X149599584Y-57173674D01*
X149575306Y-57169828D01*
X149567061Y-57172038D01*
X149547598Y-57174600D01*
X144001138Y-57174600D01*
X143952800Y-57157007D01*
X143944305Y-57148645D01*
X143939121Y-57142662D01*
X143864636Y-57056701D01*
X143864635Y-57056700D01*
X143864634Y-57056699D01*
X143840769Y-57041362D01*
X143809616Y-57000428D01*
X143812064Y-56949047D01*
X143846966Y-56911260D01*
X143881425Y-56902900D01*
X148912064Y-56902900D01*
X148916000Y-56903003D01*
X148956448Y-56905123D01*
X148979406Y-56896308D01*
X148990706Y-56892961D01*
X149014766Y-56887848D01*
X149021674Y-56882828D01*
X149038920Y-56873464D01*
X149046896Y-56870403D01*
X149064290Y-56853008D01*
X149073249Y-56845356D01*
X149093146Y-56830901D01*
X149097417Y-56823502D01*
X149109362Y-56807935D01*
X149176338Y-56740959D01*
X149222957Y-56719220D01*
X149272644Y-56732534D01*
X149297915Y-56762894D01*
X149325078Y-56822373D01*
X149328151Y-56825919D01*
X149410364Y-56920799D01*
X149519924Y-56991208D01*
X149642657Y-57027246D01*
X149648655Y-57031662D01*
X149660236Y-57027900D01*
X149775116Y-57027900D01*
X149775117Y-57027900D01*
X149900076Y-56991208D01*
X150009636Y-56920799D01*
X150089305Y-56828854D01*
X150134256Y-56803845D01*
X150146138Y-56802900D01*
X150979697Y-56802900D01*
X151028035Y-56820493D01*
X151036530Y-56828855D01*
X151107933Y-56911260D01*
X151124864Y-56930799D01*
X151234424Y-57001208D01*
X151359383Y-57037900D01*
X151359384Y-57037900D01*
X151489616Y-57037900D01*
X151489617Y-57037900D01*
X151614576Y-57001208D01*
X151724136Y-56930799D01*
X151809421Y-56832374D01*
X151863523Y-56713909D01*
X151882057Y-56585000D01*
X151863523Y-56456091D01*
X151809421Y-56337626D01*
X151724136Y-56239201D01*
X151614576Y-56168792D01*
X151614575Y-56168791D01*
X151614574Y-56168791D01*
X151511062Y-56138397D01*
X151489617Y-56132100D01*
X151359383Y-56132100D01*
X151337938Y-56138397D01*
X151234425Y-56168791D01*
X151124863Y-56239201D01*
X151085655Y-56284451D01*
X151058665Y-56315600D01*
X151053860Y-56321145D01*
X151008909Y-56346155D01*
X150997027Y-56347100D01*
X150146138Y-56347100D01*
X150097800Y-56329507D01*
X150089305Y-56321145D01*
X150084500Y-56315600D01*
X150009636Y-56229201D01*
X149900076Y-56158792D01*
X149900075Y-56158791D01*
X149900074Y-56158791D01*
X149809173Y-56132100D01*
X149775117Y-56122100D01*
X149644883Y-56122100D01*
X149519924Y-56158792D01*
X149519923Y-56158792D01*
X149509551Y-56161838D01*
X149508345Y-56157733D01*
X149478448Y-56164431D01*
X149432768Y-56140779D01*
X149412979Y-56093298D01*
X149412900Y-56089853D01*
X149412900Y-55355548D01*
X149430493Y-55307210D01*
X149434926Y-55302373D01*
X149752375Y-54984925D01*
X149798995Y-54963186D01*
X149805549Y-54962900D01*
X149836758Y-54962900D01*
X149885096Y-54980493D01*
X149910816Y-55025042D01*
X149905162Y-55069339D01*
X149860977Y-55166088D01*
X149842443Y-55295000D01*
X149860977Y-55423910D01*
X149915078Y-55542373D01*
X149922378Y-55550798D01*
X150000364Y-55640799D01*
X150109924Y-55711208D01*
X150234883Y-55747900D01*
X150234884Y-55747900D01*
X150365116Y-55747900D01*
X150365117Y-55747900D01*
X150490076Y-55711208D01*
X150599636Y-55640799D01*
X150679305Y-55548854D01*
X150724256Y-55523845D01*
X150736138Y-55522900D01*
X150979697Y-55522900D01*
X151028035Y-55540493D01*
X151036530Y-55548855D01*
X151039578Y-55552373D01*
X151039579Y-55552374D01*
X151124864Y-55650799D01*
X151234424Y-55721208D01*
X151359383Y-55757900D01*
X151359384Y-55757900D01*
X151489616Y-55757900D01*
X151489617Y-55757900D01*
X151614576Y-55721208D01*
X151724136Y-55650799D01*
X151809421Y-55552374D01*
X151863523Y-55433909D01*
X151882057Y-55305000D01*
X151863523Y-55176091D01*
X151809421Y-55057626D01*
X151809420Y-55057625D01*
X151809344Y-55057458D01*
X151805267Y-55006180D01*
X151835105Y-54964278D01*
X151862110Y-54952662D01*
X151884766Y-54947848D01*
X151891674Y-54942828D01*
X151908920Y-54933464D01*
X151916896Y-54930403D01*
X151934290Y-54913008D01*
X151943249Y-54905356D01*
X151963146Y-54890901D01*
X151967417Y-54883502D01*
X151979362Y-54867935D01*
X152183727Y-54663570D01*
X152230346Y-54641831D01*
X152280033Y-54655145D01*
G37*
%TD.AperFunction*%
%TA.AperFunction,Conductor*%
G36*
X123321372Y-77879302D02*
G01*
X123333248Y-77926200D01*
X122749886Y-77926200D01*
X122758628Y-77820698D01*
X122746752Y-77773800D01*
X123330114Y-77773800D01*
X123321372Y-77879302D01*
G37*
%TD.AperFunction*%
%TA.AperFunction,Conductor*%
G36*
X159141546Y-35655564D02*
G01*
X159150183Y-35655921D01*
X159357659Y-35664502D01*
X159555411Y-35673137D01*
X159561394Y-35673640D01*
X159681117Y-35688563D01*
X159776680Y-35700476D01*
X159812697Y-35705217D01*
X159976795Y-35726821D01*
X159982387Y-35727775D01*
X160194173Y-35772182D01*
X160278321Y-35790836D01*
X160392079Y-35816056D01*
X160397226Y-35817390D01*
X160604544Y-35879112D01*
X160798214Y-35940177D01*
X160798220Y-35940179D01*
X160802939Y-35941841D01*
X160886253Y-35974349D01*
X161003773Y-36020206D01*
X161005065Y-36020725D01*
X161192412Y-36098326D01*
X161196620Y-36100225D01*
X161382392Y-36191043D01*
X161390160Y-36194841D01*
X161391855Y-36195697D01*
X161571675Y-36289305D01*
X161575421Y-36291393D01*
X161683221Y-36355628D01*
X161760424Y-36401631D01*
X161762335Y-36402809D01*
X161933371Y-36511771D01*
X161936659Y-36513990D01*
X162111871Y-36639090D01*
X162113939Y-36640620D01*
X162274849Y-36764091D01*
X162277671Y-36766367D01*
X162441951Y-36905504D01*
X162444136Y-36907429D01*
X162593687Y-37044467D01*
X162596057Y-37046736D01*
X162748262Y-37198941D01*
X162750531Y-37201311D01*
X162887553Y-37350844D01*
X162889494Y-37353047D01*
X163028631Y-37517327D01*
X163030907Y-37520149D01*
X163154378Y-37681059D01*
X163155919Y-37683141D01*
X163281005Y-37858335D01*
X163283227Y-37861627D01*
X163392189Y-38032663D01*
X163393367Y-38034574D01*
X163503598Y-38219565D01*
X163505700Y-38223336D01*
X163599301Y-38403143D01*
X163600157Y-38404838D01*
X163694764Y-38598358D01*
X163696681Y-38602608D01*
X163774237Y-38789844D01*
X163774817Y-38791286D01*
X163853157Y-38992056D01*
X163854820Y-38996779D01*
X163915899Y-39190496D01*
X163977606Y-39397765D01*
X163978948Y-39402943D01*
X164022818Y-39600826D01*
X164067224Y-39812612D01*
X164068181Y-39818226D01*
X164094524Y-40018319D01*
X164121358Y-40233598D01*
X164121863Y-40239619D01*
X164130513Y-40437728D01*
X164139436Y-40653452D01*
X164139500Y-40656560D01*
X164139500Y-121653439D01*
X164139436Y-121656547D01*
X164130513Y-121872271D01*
X164121863Y-122070379D01*
X164121358Y-122076401D01*
X164094524Y-122291680D01*
X164068181Y-122491771D01*
X164067224Y-122497387D01*
X164022818Y-122709173D01*
X163978948Y-122907055D01*
X163977605Y-122912234D01*
X163915899Y-123119503D01*
X163854819Y-123313221D01*
X163853157Y-123317939D01*
X163774817Y-123518711D01*
X163774237Y-123520154D01*
X163696681Y-123707390D01*
X163694764Y-123711640D01*
X163600157Y-123905160D01*
X163599301Y-123906855D01*
X163505700Y-124086662D01*
X163503598Y-124090433D01*
X163393367Y-124275424D01*
X163392189Y-124277335D01*
X163283227Y-124448371D01*
X163281005Y-124451663D01*
X163155919Y-124626857D01*
X163154378Y-124628939D01*
X163030907Y-124789849D01*
X163028631Y-124792671D01*
X162889494Y-124956951D01*
X162887553Y-124959154D01*
X162750531Y-125108687D01*
X162748262Y-125111057D01*
X162596057Y-125263262D01*
X162593687Y-125265531D01*
X162444154Y-125402553D01*
X162441951Y-125404494D01*
X162277671Y-125543631D01*
X162274849Y-125545907D01*
X162113939Y-125669378D01*
X162111857Y-125670919D01*
X161936663Y-125796005D01*
X161933371Y-125798227D01*
X161762335Y-125907189D01*
X161760424Y-125908367D01*
X161575433Y-126018598D01*
X161571662Y-126020700D01*
X161391855Y-126114301D01*
X161390160Y-126115157D01*
X161196640Y-126209764D01*
X161192390Y-126211681D01*
X161005154Y-126289237D01*
X161003712Y-126289817D01*
X160802942Y-126368157D01*
X160798219Y-126369820D01*
X160604503Y-126430899D01*
X160397233Y-126492606D01*
X160392055Y-126493948D01*
X160194173Y-126537818D01*
X159982386Y-126582224D01*
X159976772Y-126583181D01*
X159776680Y-126609524D01*
X159561400Y-126636358D01*
X159555379Y-126636863D01*
X159357271Y-126645513D01*
X159141547Y-126654436D01*
X159138439Y-126654500D01*
X127141561Y-126654500D01*
X127138453Y-126654436D01*
X126922728Y-126645513D01*
X126724619Y-126636863D01*
X126718597Y-126636358D01*
X126503319Y-126609524D01*
X126303227Y-126583181D01*
X126297611Y-126582224D01*
X126085826Y-126537818D01*
X125887943Y-126493948D01*
X125882764Y-126492605D01*
X125675496Y-126430899D01*
X125481777Y-126369819D01*
X125477059Y-126368157D01*
X125276287Y-126289817D01*
X125274844Y-126289237D01*
X125087608Y-126211681D01*
X125083358Y-126209764D01*
X124889838Y-126115157D01*
X124888143Y-126114301D01*
X124708336Y-126020700D01*
X124704565Y-126018598D01*
X124519574Y-125908367D01*
X124517663Y-125907189D01*
X124346627Y-125798227D01*
X124343335Y-125796005D01*
X124168141Y-125670919D01*
X124166059Y-125669378D01*
X124005149Y-125545907D01*
X124002327Y-125543631D01*
X123838047Y-125404494D01*
X123835844Y-125402553D01*
X123686311Y-125265531D01*
X123683941Y-125263262D01*
X123531736Y-125111057D01*
X123529467Y-125108687D01*
X123392429Y-124959136D01*
X123390504Y-124956951D01*
X123251367Y-124792671D01*
X123249091Y-124789849D01*
X123125620Y-124628939D01*
X123124079Y-124626857D01*
X122998993Y-124451663D01*
X122996771Y-124448371D01*
X122887809Y-124277335D01*
X122886631Y-124275424D01*
X122776400Y-124090433D01*
X122774305Y-124086675D01*
X122680697Y-123906855D01*
X122679841Y-123905160D01*
X122676043Y-123897392D01*
X122585225Y-123711620D01*
X122583326Y-123707412D01*
X122505724Y-123520063D01*
X122505219Y-123518807D01*
X122426834Y-123317924D01*
X122425193Y-123313264D01*
X122364100Y-123119503D01*
X122302385Y-122912206D01*
X122301056Y-122907079D01*
X122257175Y-122709145D01*
X122212771Y-122497369D01*
X122211821Y-122491795D01*
X122185476Y-122291680D01*
X122158637Y-122076372D01*
X122158137Y-122070411D01*
X122149486Y-121872271D01*
X122140564Y-121656546D01*
X122140500Y-121653439D01*
X122140500Y-121624963D01*
X122140432Y-121623460D01*
X122139595Y-121231200D01*
X126990013Y-121231200D01*
X127002827Y-121361305D01*
X127063006Y-121559688D01*
X127160726Y-121742508D01*
X127292239Y-121902760D01*
X127452491Y-122034273D01*
X127635311Y-122131993D01*
X127833694Y-122192173D01*
X127986472Y-122207220D01*
X127990135Y-122207400D01*
X129063800Y-122207400D01*
X129063800Y-121555000D01*
X129216200Y-121555000D01*
X129216200Y-122207400D01*
X130289865Y-122207400D01*
X130293527Y-122207220D01*
X130446305Y-122192173D01*
X130644688Y-122131993D01*
X130827508Y-122034273D01*
X130987760Y-121902760D01*
X131119273Y-121742508D01*
X131166047Y-121655000D01*
X157782051Y-121655000D01*
X157802224Y-121962774D01*
X157802704Y-121965188D01*
X157802705Y-121965194D01*
X157861915Y-122262868D01*
X157861918Y-122262880D01*
X157862396Y-122265282D01*
X157863185Y-122267609D01*
X157863187Y-122267613D01*
X157941184Y-122497386D01*
X157961539Y-122557348D01*
X158097956Y-122833975D01*
X158099322Y-122836019D01*
X158099323Y-122836021D01*
X158150246Y-122912233D01*
X158269313Y-123090428D01*
X158270939Y-123092282D01*
X158434102Y-123278335D01*
X158472678Y-123322322D01*
X158704572Y-123525687D01*
X158961025Y-123697044D01*
X159237652Y-123833461D01*
X159529718Y-123932604D01*
X159832226Y-123992776D01*
X160140000Y-124012949D01*
X160447774Y-123992776D01*
X160750282Y-123932604D01*
X161042348Y-123833461D01*
X161318975Y-123697044D01*
X161575428Y-123525687D01*
X161807322Y-123322322D01*
X162010687Y-123090428D01*
X162182044Y-122833975D01*
X162318461Y-122557348D01*
X162417604Y-122265282D01*
X162477776Y-121962774D01*
X162497949Y-121655000D01*
X162477776Y-121347226D01*
X162417604Y-121044718D01*
X162318461Y-120752652D01*
X162182044Y-120476026D01*
X162010687Y-120219572D01*
X161807322Y-119987678D01*
X161575428Y-119784313D01*
X161318975Y-119612956D01*
X161042348Y-119476539D01*
X161040018Y-119475748D01*
X161040013Y-119475746D01*
X160752613Y-119378187D01*
X160752609Y-119378185D01*
X160750282Y-119377396D01*
X160747880Y-119376918D01*
X160747868Y-119376915D01*
X160450194Y-119317705D01*
X160450188Y-119317704D01*
X160447774Y-119317224D01*
X160445317Y-119317062D01*
X160445310Y-119317062D01*
X160142456Y-119297212D01*
X160140000Y-119297051D01*
X160137544Y-119297212D01*
X159834689Y-119317062D01*
X159834680Y-119317063D01*
X159832226Y-119317224D01*
X159829813Y-119317703D01*
X159829805Y-119317705D01*
X159532131Y-119376915D01*
X159532116Y-119376918D01*
X159529718Y-119377396D01*
X159527394Y-119378184D01*
X159527386Y-119378187D01*
X159239986Y-119475746D01*
X159239976Y-119475749D01*
X159237652Y-119476539D01*
X159235447Y-119477626D01*
X159235443Y-119477628D01*
X158963233Y-119611867D01*
X158963230Y-119611869D01*
X158961026Y-119612956D01*
X158958990Y-119614316D01*
X158958982Y-119614321D01*
X158706615Y-119782947D01*
X158706605Y-119782954D01*
X158704572Y-119784313D01*
X158702730Y-119785927D01*
X158702720Y-119785936D01*
X158474523Y-119986059D01*
X158474515Y-119986066D01*
X158472678Y-119987678D01*
X158471066Y-119989515D01*
X158471059Y-119989523D01*
X158270936Y-120217720D01*
X158270927Y-120217730D01*
X158269313Y-120219572D01*
X158267954Y-120221605D01*
X158267947Y-120221615D01*
X158099321Y-120473982D01*
X158099316Y-120473990D01*
X158097956Y-120476026D01*
X158096871Y-120478225D01*
X158096867Y-120478233D01*
X158052850Y-120567491D01*
X157961539Y-120752652D01*
X157960749Y-120754976D01*
X157960746Y-120754986D01*
X157863187Y-121042386D01*
X157863184Y-121042394D01*
X157862396Y-121044718D01*
X157861918Y-121047116D01*
X157861915Y-121047131D01*
X157802705Y-121344805D01*
X157802703Y-121344813D01*
X157802224Y-121347226D01*
X157802063Y-121349680D01*
X157802062Y-121349689D01*
X157793348Y-121482641D01*
X157782051Y-121655000D01*
X131166047Y-121655000D01*
X131216993Y-121559688D01*
X131277172Y-121361305D01*
X131289987Y-121231200D01*
X130632917Y-121231200D01*
X130644986Y-121155000D01*
X130632917Y-121078800D01*
X131289987Y-121078800D01*
X131277172Y-120948694D01*
X131216993Y-120750311D01*
X131119273Y-120567491D01*
X130987760Y-120407239D01*
X130827508Y-120275726D01*
X130644688Y-120178006D01*
X130446305Y-120117826D01*
X130293527Y-120102779D01*
X130289865Y-120102600D01*
X129216200Y-120102600D01*
X129216200Y-120755000D01*
X129063800Y-120755000D01*
X129063800Y-120102600D01*
X127990135Y-120102600D01*
X127986472Y-120102779D01*
X127833694Y-120117826D01*
X127635311Y-120178006D01*
X127452491Y-120275726D01*
X127292239Y-120407239D01*
X127160726Y-120567491D01*
X127063006Y-120750311D01*
X127002827Y-120948694D01*
X126990013Y-121078800D01*
X127647083Y-121078800D01*
X127635014Y-121155000D01*
X127647083Y-121231200D01*
X126990013Y-121231200D01*
X122139595Y-121231200D01*
X122135917Y-119506731D01*
X132887100Y-119506731D01*
X132887278Y-119508539D01*
X132887279Y-119508557D01*
X132897697Y-119614323D01*
X132902334Y-119661405D01*
X132962540Y-119859877D01*
X133030851Y-119987678D01*
X133060310Y-120042792D01*
X133191884Y-120203115D01*
X133280361Y-120275726D01*
X133352209Y-120334691D01*
X133535123Y-120432460D01*
X133733595Y-120492666D01*
X133940000Y-120512995D01*
X134146405Y-120492666D01*
X134344877Y-120432460D01*
X134527791Y-120334691D01*
X134688115Y-120203115D01*
X134819691Y-120042791D01*
X134917460Y-119859877D01*
X134977666Y-119661405D01*
X134992900Y-119506731D01*
X134992900Y-117203269D01*
X134977666Y-117048595D01*
X134917460Y-116850123D01*
X134819691Y-116667209D01*
X134779677Y-116618453D01*
X134688115Y-116506884D01*
X134527792Y-116375310D01*
X134527791Y-116375309D01*
X134344877Y-116277540D01*
X134146405Y-116217334D01*
X134146404Y-116217334D01*
X133940000Y-116197004D01*
X133733594Y-116217334D01*
X133535125Y-116277539D01*
X133352207Y-116375310D01*
X133191884Y-116506884D01*
X133060310Y-116667207D01*
X132962539Y-116850125D01*
X132902334Y-117048594D01*
X132887279Y-117201442D01*
X132887278Y-117201461D01*
X132887100Y-117203269D01*
X132887100Y-119506731D01*
X122135917Y-119506731D01*
X122129015Y-116270057D01*
X126787100Y-116270057D01*
X126795972Y-116314658D01*
X126829766Y-116365234D01*
X126880341Y-116399028D01*
X126889213Y-116400792D01*
X126924943Y-116407900D01*
X131355056Y-116407899D01*
X131355057Y-116407899D01*
X131362456Y-116406427D01*
X131399658Y-116399028D01*
X131450234Y-116365234D01*
X131484028Y-116314658D01*
X131492900Y-116270057D01*
X131492899Y-114439944D01*
X131484028Y-114395342D01*
X131450234Y-114344766D01*
X131450233Y-114344765D01*
X131399658Y-114310971D01*
X131355057Y-114302100D01*
X126924942Y-114302100D01*
X126880341Y-114310972D01*
X126829765Y-114344766D01*
X126795971Y-114395341D01*
X126787100Y-114439942D01*
X126787100Y-116270057D01*
X122129015Y-116270057D01*
X122119172Y-111655000D01*
X144882443Y-111655000D01*
X144900977Y-111783910D01*
X144955078Y-111902373D01*
X144955079Y-111902374D01*
X145040364Y-112000799D01*
X145149924Y-112071208D01*
X145274883Y-112107900D01*
X145274884Y-112107900D01*
X145405116Y-112107900D01*
X145405117Y-112107900D01*
X145530076Y-112071208D01*
X145530214Y-112071118D01*
X145532211Y-112069837D01*
X145572865Y-112057900D01*
X157403813Y-112057900D01*
X157428722Y-112049805D01*
X157440173Y-112047055D01*
X157466055Y-112042957D01*
X157489391Y-112031066D01*
X157500284Y-112026554D01*
X157525193Y-112018461D01*
X157546378Y-112003068D01*
X157556430Y-111996907D01*
X157579771Y-111985016D01*
X157670016Y-111894771D01*
X157670016Y-111894770D01*
X157680592Y-111884194D01*
X157680592Y-111884192D01*
X159087315Y-110477472D01*
X159087315Y-110477471D01*
X159098664Y-110466121D01*
X159110016Y-110454771D01*
X159121908Y-110431429D01*
X159128064Y-110421383D01*
X159143462Y-110400192D01*
X159151555Y-110375280D01*
X159156068Y-110364387D01*
X159167957Y-110341055D01*
X159172054Y-110315179D01*
X159174804Y-110303728D01*
X159182901Y-110278813D01*
X159182901Y-110151187D01*
X159182901Y-110141934D01*
X159182900Y-110141924D01*
X159182900Y-98384365D01*
X159189696Y-98353125D01*
X159196582Y-98338047D01*
X159219023Y-98288909D01*
X159237557Y-98160000D01*
X159219023Y-98031091D01*
X159164921Y-97912626D01*
X159079636Y-97814201D01*
X158970076Y-97743792D01*
X158970075Y-97743791D01*
X158970074Y-97743791D01*
X158897060Y-97722352D01*
X158845117Y-97707100D01*
X158714883Y-97707100D01*
X158678191Y-97717873D01*
X158589925Y-97743791D01*
X158535144Y-97778996D01*
X158480364Y-97814201D01*
X158480363Y-97814201D01*
X158480363Y-97814202D01*
X158395078Y-97912626D01*
X158340977Y-98031089D01*
X158322443Y-98160000D01*
X158340977Y-98288909D01*
X158370304Y-98353125D01*
X158377100Y-98384365D01*
X158377100Y-110016965D01*
X158359507Y-110065303D01*
X158355074Y-110070139D01*
X157195140Y-111230074D01*
X157148520Y-111251814D01*
X157141966Y-111252100D01*
X145572865Y-111252100D01*
X145532211Y-111240163D01*
X145530079Y-111238793D01*
X145530076Y-111238792D01*
X145405117Y-111202100D01*
X145274883Y-111202100D01*
X145238192Y-111212873D01*
X145149925Y-111238791D01*
X145129661Y-111251814D01*
X145040364Y-111309201D01*
X145040363Y-111309201D01*
X145040363Y-111309202D01*
X144955078Y-111407626D01*
X144900977Y-111526089D01*
X144882443Y-111655000D01*
X122119172Y-111655000D01*
X122108876Y-106827499D01*
X127729943Y-106827499D01*
X127748477Y-106956410D01*
X127802578Y-107074873D01*
X127802579Y-107074874D01*
X127887864Y-107173299D01*
X127997424Y-107243708D01*
X128122383Y-107280400D01*
X128122384Y-107280400D01*
X128252616Y-107280400D01*
X128252617Y-107280400D01*
X128377576Y-107243708D01*
X128377714Y-107243618D01*
X128379711Y-107242337D01*
X128420365Y-107230400D01*
X131414466Y-107230400D01*
X131462804Y-107247993D01*
X131467639Y-107252425D01*
X132357905Y-108142692D01*
X133209983Y-108994770D01*
X133238939Y-109023726D01*
X133260679Y-109070346D01*
X133247365Y-109120033D01*
X133205228Y-109149538D01*
X133185765Y-109152100D01*
X132845365Y-109152100D01*
X132804711Y-109140163D01*
X132802579Y-109138793D01*
X132802576Y-109138792D01*
X132677617Y-109102100D01*
X132547383Y-109102100D01*
X132510692Y-109112873D01*
X132422425Y-109138791D01*
X132401716Y-109152100D01*
X132312864Y-109209201D01*
X132312863Y-109209201D01*
X132312863Y-109209202D01*
X132227578Y-109307626D01*
X132173477Y-109426089D01*
X132154943Y-109554999D01*
X132173477Y-109683910D01*
X132227578Y-109802373D01*
X132227579Y-109802374D01*
X132312864Y-109900799D01*
X132422424Y-109971208D01*
X132547383Y-110007900D01*
X132547384Y-110007900D01*
X132677616Y-110007900D01*
X132677617Y-110007900D01*
X132802576Y-109971208D01*
X132802714Y-109971118D01*
X132804711Y-109969837D01*
X132845365Y-109957900D01*
X139307135Y-109957900D01*
X139347789Y-109969837D01*
X139349920Y-109971206D01*
X139349921Y-109971206D01*
X139349924Y-109971208D01*
X139474883Y-110007900D01*
X139474884Y-110007900D01*
X139605116Y-110007900D01*
X139605117Y-110007900D01*
X139730076Y-109971208D01*
X139839636Y-109900799D01*
X139924921Y-109802374D01*
X139979023Y-109683909D01*
X139997557Y-109555000D01*
X139979023Y-109426091D01*
X139924921Y-109307626D01*
X139903014Y-109282344D01*
X139884657Y-109234293D01*
X139901482Y-109185682D01*
X139945617Y-109159259D01*
X139959848Y-109157900D01*
X153903813Y-109157900D01*
X153928722Y-109149805D01*
X153940173Y-109147055D01*
X153966055Y-109142957D01*
X153989391Y-109131066D01*
X154000284Y-109126554D01*
X154025193Y-109118461D01*
X154046378Y-109103068D01*
X154056430Y-109096907D01*
X154079771Y-109085016D01*
X154170016Y-108994771D01*
X154170016Y-108994769D01*
X154944814Y-108219973D01*
X154944814Y-108219972D01*
X154967516Y-108197271D01*
X154979405Y-108173934D01*
X154985567Y-108163878D01*
X155000961Y-108142693D01*
X155009054Y-108117784D01*
X155013566Y-108106891D01*
X155025457Y-108083555D01*
X155029555Y-108057673D01*
X155032305Y-108046222D01*
X155040400Y-108021313D01*
X155040400Y-107893687D01*
X155040400Y-106029364D01*
X155047196Y-105998125D01*
X155076523Y-105933909D01*
X155095057Y-105805000D01*
X155076523Y-105676091D01*
X155076522Y-105676088D01*
X155047196Y-105611873D01*
X155040400Y-105580634D01*
X155040400Y-103258688D01*
X155040400Y-103258687D01*
X155032304Y-103233771D01*
X155029555Y-103222322D01*
X155025457Y-103196445D01*
X155013566Y-103173109D01*
X155009052Y-103162210D01*
X155000961Y-103137307D01*
X154985566Y-103116118D01*
X154979405Y-103106064D01*
X154967516Y-103082729D01*
X154877271Y-102992484D01*
X154877270Y-102992483D01*
X153810592Y-101925806D01*
X153800016Y-101915229D01*
X153709771Y-101824984D01*
X153709770Y-101824983D01*
X153686435Y-101813093D01*
X153676374Y-101806928D01*
X153662796Y-101797063D01*
X153655193Y-101791539D01*
X153655191Y-101791538D01*
X153630288Y-101783446D01*
X153619387Y-101778931D01*
X153596054Y-101767042D01*
X153570189Y-101762945D01*
X153558720Y-101760191D01*
X153533815Y-101752100D01*
X153533813Y-101752100D01*
X153501708Y-101752100D01*
X137688034Y-101752100D01*
X137639696Y-101734507D01*
X137634860Y-101730074D01*
X135874926Y-99970140D01*
X135853186Y-99923520D01*
X135852900Y-99916966D01*
X135852900Y-95304444D01*
X137044444Y-95304444D01*
X137062335Y-95417406D01*
X137062335Y-95417407D01*
X137062336Y-95417408D01*
X137091919Y-95475468D01*
X137096037Y-95485183D01*
X137100496Y-95498173D01*
X137104609Y-95501274D01*
X137108524Y-95508057D01*
X137114259Y-95519313D01*
X137114260Y-95519314D01*
X137114261Y-95519315D01*
X137166509Y-95571563D01*
X137172678Y-95578548D01*
X137179343Y-95587111D01*
X137182412Y-95588141D01*
X137188732Y-95593786D01*
X137195132Y-95600186D01*
X137270190Y-95638430D01*
X137277171Y-95642473D01*
X137282550Y-95645987D01*
X137283816Y-95645989D01*
X137292150Y-95649619D01*
X137297037Y-95652109D01*
X137392820Y-95667280D01*
X137399510Y-95668654D01*
X137401053Y-95669044D01*
X137408085Y-95669697D01*
X137410000Y-95670001D01*
X137522460Y-95652188D01*
X137522913Y-95652134D01*
X137522961Y-95652109D01*
X137522963Y-95652109D01*
X137624868Y-95600186D01*
X137705741Y-95519313D01*
X137757664Y-95417408D01*
X137775556Y-95304445D01*
X137757664Y-95191482D01*
X137705741Y-95089577D01*
X137624868Y-95008704D01*
X137522963Y-94956781D01*
X137522962Y-94956780D01*
X137522910Y-94956754D01*
X137522444Y-94956698D01*
X137409998Y-94938888D01*
X137408091Y-94939191D01*
X137405569Y-94938700D01*
X137399504Y-94940237D01*
X137392808Y-94941612D01*
X137297037Y-94956780D01*
X137292150Y-94959271D01*
X137287168Y-94959882D01*
X137277157Y-94966423D01*
X137270170Y-94970469D01*
X137195132Y-95008704D01*
X137188732Y-95015104D01*
X137182148Y-95018173D01*
X137172676Y-95030343D01*
X137166509Y-95037327D01*
X137114258Y-95089578D01*
X137108532Y-95100817D01*
X137101712Y-95107176D01*
X137096037Y-95123707D01*
X137091916Y-95133428D01*
X137062335Y-95191482D01*
X137044444Y-95304444D01*
X135852900Y-95304444D01*
X135852900Y-93554999D01*
X144057443Y-93554999D01*
X144075977Y-93683910D01*
X144130078Y-93802373D01*
X144193733Y-93875835D01*
X144212091Y-93923887D01*
X144212100Y-93925080D01*
X144212100Y-97368322D01*
X144209626Y-97383488D01*
X144212020Y-97435271D01*
X144212100Y-97438744D01*
X144212100Y-97458074D01*
X144212434Y-97459862D01*
X144213634Y-97470202D01*
X144215037Y-97500550D01*
X144220190Y-97512220D01*
X144225316Y-97528774D01*
X144227660Y-97541315D01*
X144243652Y-97567142D01*
X144248507Y-97576351D01*
X144260780Y-97604145D01*
X144269798Y-97613163D01*
X144280558Y-97626746D01*
X144287277Y-97637597D01*
X144311522Y-97655906D01*
X144319378Y-97662743D01*
X144982203Y-98325568D01*
X144991182Y-98338047D01*
X145029503Y-98372981D01*
X145031994Y-98375359D01*
X145045666Y-98389031D01*
X145047170Y-98390061D01*
X145055334Y-98396528D01*
X145077782Y-98416992D01*
X145089672Y-98421598D01*
X145105006Y-98429681D01*
X145115533Y-98436892D01*
X145145103Y-98443846D01*
X145155052Y-98446926D01*
X145183378Y-98457900D01*
X145196133Y-98457900D01*
X145213349Y-98459897D01*
X145225769Y-98462818D01*
X145255857Y-98458620D01*
X145266246Y-98457900D01*
X149068849Y-98457900D01*
X149117187Y-98475493D01*
X149125682Y-98483855D01*
X149140364Y-98500799D01*
X149249924Y-98571208D01*
X149374883Y-98607900D01*
X149374884Y-98607900D01*
X149505116Y-98607900D01*
X149505117Y-98607900D01*
X149630076Y-98571208D01*
X149739636Y-98500799D01*
X149824921Y-98402374D01*
X149879023Y-98283909D01*
X149897557Y-98155000D01*
X149879023Y-98026091D01*
X149824921Y-97907626D01*
X149739636Y-97809201D01*
X149630076Y-97738792D01*
X149630075Y-97738791D01*
X149630074Y-97738791D01*
X149557060Y-97717352D01*
X149505117Y-97702100D01*
X149374883Y-97702100D01*
X149357855Y-97707100D01*
X149249925Y-97738791D01*
X149195144Y-97773996D01*
X149140364Y-97809201D01*
X149140363Y-97809201D01*
X149140363Y-97809202D01*
X149125682Y-97826145D01*
X149080731Y-97851155D01*
X149068849Y-97852100D01*
X145396614Y-97852100D01*
X145348276Y-97834507D01*
X145343440Y-97830074D01*
X144839926Y-97326559D01*
X144818186Y-97279939D01*
X144817900Y-97273385D01*
X144817900Y-94560057D01*
X151067100Y-94560057D01*
X151075972Y-94604658D01*
X151109766Y-94655234D01*
X151160341Y-94689028D01*
X151169213Y-94690792D01*
X151204943Y-94697900D01*
X151916900Y-94697899D01*
X151965238Y-94715492D01*
X151990958Y-94760041D01*
X151992100Y-94773099D01*
X151992100Y-95357062D01*
X151991997Y-95360998D01*
X151989876Y-95401447D01*
X151998688Y-95424400D01*
X152002040Y-95435716D01*
X152007152Y-95459766D01*
X152012169Y-95466672D01*
X152021535Y-95483921D01*
X152024597Y-95491896D01*
X152041986Y-95509285D01*
X152049644Y-95518251D01*
X152064099Y-95538146D01*
X152071493Y-95542415D01*
X152087066Y-95554365D01*
X152503231Y-95970530D01*
X152505942Y-95973386D01*
X152533049Y-96003493D01*
X152533050Y-96003493D01*
X152533051Y-96003494D01*
X152555521Y-96013498D01*
X152565880Y-96019123D01*
X152586503Y-96032516D01*
X152594929Y-96033850D01*
X152613757Y-96039427D01*
X152621557Y-96042900D01*
X152621558Y-96042900D01*
X152646152Y-96042900D01*
X152657916Y-96043826D01*
X152682193Y-96047671D01*
X152682193Y-96047670D01*
X152682194Y-96047671D01*
X152686983Y-96046387D01*
X152690439Y-96045462D01*
X152709902Y-96042900D01*
X160644453Y-96042900D01*
X160692791Y-96060493D01*
X160697627Y-96064926D01*
X160940074Y-96307373D01*
X160961814Y-96353993D01*
X160962100Y-96360547D01*
X160962100Y-96601536D01*
X160944507Y-96649874D01*
X160927557Y-96664798D01*
X160890364Y-96688700D01*
X160805078Y-96787126D01*
X160750977Y-96905589D01*
X160732443Y-97034500D01*
X160750977Y-97163410D01*
X160805078Y-97281873D01*
X160805079Y-97281874D01*
X160890364Y-97380299D01*
X160999924Y-97450708D01*
X161124883Y-97487400D01*
X161124884Y-97487400D01*
X161255116Y-97487400D01*
X161255117Y-97487400D01*
X161380076Y-97450708D01*
X161489636Y-97380299D01*
X161574921Y-97281874D01*
X161629023Y-97163409D01*
X161647557Y-97034500D01*
X161629023Y-96905591D01*
X161574921Y-96787126D01*
X161489636Y-96688701D01*
X161489635Y-96688700D01*
X161489634Y-96688699D01*
X161452443Y-96664798D01*
X161421290Y-96623865D01*
X161417900Y-96601542D01*
X161417900Y-96242935D01*
X161418003Y-96239000D01*
X161420123Y-96198552D01*
X161411308Y-96175589D01*
X161407958Y-96164278D01*
X161402848Y-96140236D01*
X161402848Y-96140234D01*
X161397830Y-96133327D01*
X161388464Y-96116076D01*
X161385403Y-96108102D01*
X161368013Y-96090712D01*
X161360349Y-96081740D01*
X161345901Y-96061854D01*
X161338506Y-96057584D01*
X161322934Y-96045634D01*
X160936758Y-95659458D01*
X160934047Y-95656602D01*
X160906948Y-95626505D01*
X160884485Y-95616504D01*
X160874116Y-95610874D01*
X160853496Y-95597483D01*
X160845064Y-95596148D01*
X160826245Y-95590574D01*
X160818442Y-95587100D01*
X160818441Y-95587100D01*
X160793848Y-95587100D01*
X160782084Y-95586174D01*
X160757806Y-95582328D01*
X160749561Y-95584538D01*
X160730098Y-95587100D01*
X152795548Y-95587100D01*
X152747210Y-95569507D01*
X152742373Y-95565074D01*
X152469925Y-95292625D01*
X152448186Y-95246005D01*
X152447900Y-95239451D01*
X152447900Y-94773099D01*
X152465493Y-94724761D01*
X152510042Y-94699041D01*
X152523100Y-94697899D01*
X153235057Y-94697899D01*
X153242456Y-94696427D01*
X153279658Y-94689028D01*
X153330234Y-94655234D01*
X153364028Y-94604658D01*
X153372900Y-94560057D01*
X153372899Y-93545000D01*
X153562663Y-93545000D01*
X153582369Y-93757661D01*
X153640814Y-93963076D01*
X153736012Y-94154258D01*
X153850875Y-94306361D01*
X154316016Y-93841219D01*
X154338239Y-93875798D01*
X154423277Y-93949483D01*
X153960631Y-94412129D01*
X154022551Y-94468576D01*
X154204130Y-94581006D01*
X154403277Y-94658154D01*
X154613217Y-94697400D01*
X154826783Y-94697400D01*
X155036722Y-94658154D01*
X155235869Y-94581006D01*
X155417448Y-94468576D01*
X155479367Y-94412129D01*
X155016721Y-93949483D01*
X155101761Y-93875798D01*
X155123982Y-93841220D01*
X155589123Y-94306361D01*
X155703990Y-94154254D01*
X155799184Y-93963078D01*
X155857630Y-93757661D01*
X155877336Y-93545000D01*
X155877336Y-93544999D01*
X156062160Y-93544999D01*
X156081875Y-93757752D01*
X156140294Y-93963076D01*
X156140347Y-93963260D01*
X156235585Y-94154524D01*
X156364347Y-94325031D01*
X156522246Y-94468975D01*
X156591425Y-94511809D01*
X156703906Y-94581455D01*
X156763801Y-94604658D01*
X156903142Y-94658639D01*
X157113168Y-94697900D01*
X157113171Y-94697900D01*
X157326829Y-94697900D01*
X157326832Y-94697900D01*
X157536858Y-94658639D01*
X157736093Y-94581455D01*
X157917754Y-94468975D01*
X158075653Y-94325031D01*
X158204415Y-94154524D01*
X158299653Y-93963260D01*
X158358125Y-93757752D01*
X158377839Y-93545000D01*
X158358125Y-93332248D01*
X158299653Y-93126740D01*
X158204415Y-92935476D01*
X158075653Y-92764969D01*
X158000097Y-92696091D01*
X157917754Y-92621025D01*
X157736093Y-92508544D01*
X157545647Y-92434766D01*
X157536858Y-92431361D01*
X157326832Y-92392100D01*
X157113168Y-92392100D01*
X156903142Y-92431361D01*
X156903139Y-92431361D01*
X156903139Y-92431362D01*
X156703906Y-92508544D01*
X156522245Y-92621025D01*
X156364348Y-92764967D01*
X156235585Y-92935476D01*
X156140346Y-93126741D01*
X156081875Y-93332247D01*
X156062160Y-93544999D01*
X155877336Y-93544999D01*
X155857630Y-93332338D01*
X155799185Y-93126923D01*
X155703987Y-92935741D01*
X155589123Y-92783637D01*
X155123981Y-93248778D01*
X155101761Y-93214202D01*
X155016721Y-93140515D01*
X155479367Y-92677870D01*
X155479367Y-92677869D01*
X155417448Y-92621423D01*
X155235869Y-92508993D01*
X155036722Y-92431845D01*
X154826783Y-92392600D01*
X154613217Y-92392600D01*
X154403277Y-92431845D01*
X154204130Y-92508993D01*
X154022548Y-92621425D01*
X153960632Y-92677868D01*
X153960631Y-92677869D01*
X154423278Y-93140516D01*
X154338239Y-93214202D01*
X154316017Y-93248779D01*
X153850875Y-92783637D01*
X153736012Y-92935741D01*
X153640814Y-93126923D01*
X153582369Y-93332338D01*
X153562663Y-93545000D01*
X153372899Y-93545000D01*
X153372899Y-92529944D01*
X153364028Y-92485342D01*
X153330234Y-92434766D01*
X153330233Y-92434765D01*
X153279658Y-92400971D01*
X153235057Y-92392100D01*
X151204942Y-92392100D01*
X151160341Y-92400972D01*
X151109765Y-92434766D01*
X151075971Y-92485341D01*
X151067100Y-92529942D01*
X151067100Y-94560057D01*
X144817900Y-94560057D01*
X144817900Y-93925080D01*
X144835493Y-93876742D01*
X144836267Y-93875835D01*
X144836299Y-93875798D01*
X144899921Y-93802374D01*
X144954023Y-93683909D01*
X144972557Y-93555000D01*
X144954023Y-93426091D01*
X144899921Y-93307626D01*
X144814636Y-93209201D01*
X144705076Y-93138792D01*
X144705075Y-93138791D01*
X144705074Y-93138791D01*
X144632060Y-93117352D01*
X144580117Y-93102100D01*
X144449883Y-93102100D01*
X144413192Y-93112873D01*
X144324925Y-93138791D01*
X144275123Y-93170797D01*
X144215364Y-93209201D01*
X144215363Y-93209201D01*
X144215363Y-93209202D01*
X144130078Y-93307626D01*
X144075977Y-93426089D01*
X144057443Y-93554999D01*
X135852900Y-93554999D01*
X135852900Y-87660057D01*
X147967100Y-87660057D01*
X147975972Y-87704658D01*
X148009766Y-87755234D01*
X148060341Y-87789028D01*
X148069213Y-87790792D01*
X148104943Y-87797900D01*
X150135056Y-87797899D01*
X150135057Y-87797899D01*
X150142456Y-87796427D01*
X150179658Y-87789028D01*
X150230234Y-87755234D01*
X150264028Y-87704658D01*
X150272900Y-87660057D01*
X159167100Y-87660057D01*
X159175972Y-87704658D01*
X159209766Y-87755234D01*
X159260341Y-87789028D01*
X159269213Y-87790792D01*
X159304943Y-87797900D01*
X161335056Y-87797899D01*
X161335057Y-87797899D01*
X161342456Y-87796427D01*
X161379658Y-87789028D01*
X161430234Y-87755234D01*
X161464028Y-87704658D01*
X161472900Y-87660057D01*
X161472899Y-84429944D01*
X161464028Y-84385342D01*
X161430234Y-84334766D01*
X161430233Y-84334765D01*
X161379658Y-84300971D01*
X161335057Y-84292100D01*
X159304942Y-84292100D01*
X159260341Y-84300972D01*
X159209765Y-84334766D01*
X159175971Y-84385341D01*
X159167100Y-84429942D01*
X159167100Y-87660057D01*
X150272900Y-87660057D01*
X150272899Y-84429944D01*
X150264028Y-84385342D01*
X150230234Y-84334766D01*
X150230233Y-84334765D01*
X150179658Y-84300971D01*
X150135057Y-84292100D01*
X148104942Y-84292100D01*
X148060341Y-84300972D01*
X148009765Y-84334766D01*
X147975971Y-84385341D01*
X147967100Y-84429942D01*
X147967100Y-87660057D01*
X135852900Y-87660057D01*
X135852900Y-79305000D01*
X137004444Y-79305000D01*
X137022335Y-79417961D01*
X137022335Y-79417962D01*
X137022336Y-79417963D01*
X137051919Y-79476023D01*
X137056037Y-79485738D01*
X137060496Y-79498728D01*
X137064609Y-79501829D01*
X137068524Y-79508612D01*
X137074259Y-79519868D01*
X137074261Y-79519869D01*
X137074261Y-79519870D01*
X137126509Y-79572118D01*
X137132678Y-79579103D01*
X137139343Y-79587666D01*
X137142412Y-79588696D01*
X137148733Y-79594341D01*
X137155132Y-79600741D01*
X137230190Y-79638985D01*
X137237171Y-79643028D01*
X137242550Y-79646542D01*
X137243816Y-79646544D01*
X137252150Y-79650174D01*
X137257037Y-79652664D01*
X137352820Y-79667835D01*
X137359510Y-79669209D01*
X137361053Y-79669599D01*
X137368085Y-79670252D01*
X137370000Y-79670556D01*
X137482460Y-79652743D01*
X137482913Y-79652689D01*
X137482961Y-79652664D01*
X137482963Y-79652664D01*
X137584868Y-79600741D01*
X137665741Y-79519868D01*
X137717664Y-79417963D01*
X137735556Y-79305000D01*
X137717664Y-79192037D01*
X137665741Y-79090132D01*
X137584868Y-79009259D01*
X137482963Y-78957336D01*
X137482962Y-78957335D01*
X137482910Y-78957309D01*
X137482444Y-78957253D01*
X137369998Y-78939443D01*
X137368091Y-78939746D01*
X137365569Y-78939255D01*
X137359504Y-78940792D01*
X137352808Y-78942167D01*
X137257037Y-78957335D01*
X137252150Y-78959826D01*
X137247168Y-78960437D01*
X137237157Y-78966978D01*
X137230170Y-78971024D01*
X137155132Y-79009259D01*
X137148732Y-79015659D01*
X137142148Y-79018728D01*
X137132676Y-79030898D01*
X137126509Y-79037882D01*
X137074258Y-79090133D01*
X137068532Y-79101372D01*
X137061712Y-79107731D01*
X137056037Y-79124262D01*
X137051916Y-79133983D01*
X137022335Y-79192037D01*
X137004444Y-79305000D01*
X135852900Y-79305000D01*
X135852900Y-63243034D01*
X135870493Y-63194696D01*
X135874926Y-63189860D01*
X138364861Y-60699926D01*
X138411481Y-60678186D01*
X138418035Y-60677900D01*
X147807135Y-60677900D01*
X147847789Y-60689837D01*
X147849920Y-60691206D01*
X147849921Y-60691206D01*
X147849924Y-60691208D01*
X147974883Y-60727900D01*
X147974884Y-60727900D01*
X148105116Y-60727900D01*
X148105117Y-60727900D01*
X148230076Y-60691208D01*
X148339636Y-60620799D01*
X148424921Y-60522374D01*
X148479023Y-60403909D01*
X148497557Y-60275000D01*
X148479023Y-60146091D01*
X148424921Y-60027626D01*
X148339636Y-59929201D01*
X148230076Y-59858792D01*
X148230075Y-59858791D01*
X148230074Y-59858791D01*
X148157060Y-59837352D01*
X148105117Y-59822100D01*
X147974883Y-59822100D01*
X147896506Y-59845113D01*
X147849920Y-59858793D01*
X147847789Y-59860163D01*
X147807135Y-59872100D01*
X138296019Y-59872100D01*
X138296013Y-59872099D01*
X138283813Y-59872099D01*
X138156187Y-59872099D01*
X138156184Y-59872099D01*
X138131273Y-59880192D01*
X138119805Y-59882946D01*
X138093942Y-59887043D01*
X138070611Y-59898930D01*
X138059715Y-59903443D01*
X138034810Y-59911536D01*
X138013621Y-59926930D01*
X138003565Y-59933092D01*
X137980230Y-59944982D01*
X137968879Y-59956333D01*
X137957528Y-59967685D01*
X135870848Y-62054364D01*
X135201601Y-62723611D01*
X135119983Y-62805228D01*
X135108091Y-62828567D01*
X135101929Y-62838623D01*
X135086537Y-62859809D01*
X135078445Y-62884711D01*
X135073932Y-62895607D01*
X135062043Y-62918942D01*
X135057945Y-62944812D01*
X135055191Y-62956282D01*
X135047100Y-62981186D01*
X135047100Y-100178815D01*
X135055191Y-100203720D01*
X135057945Y-100215189D01*
X135062042Y-100241054D01*
X135073931Y-100264387D01*
X135078446Y-100275288D01*
X135086538Y-100300191D01*
X135101928Y-100321374D01*
X135108093Y-100331435D01*
X135119984Y-100354771D01*
X135210229Y-100445016D01*
X135210230Y-100445016D01*
X135218858Y-100453644D01*
X135218857Y-100453644D01*
X135218860Y-100453646D01*
X137154714Y-102389500D01*
X137154723Y-102389511D01*
X137250226Y-102485014D01*
X137250228Y-102485015D01*
X137250229Y-102485016D01*
X137273564Y-102496905D01*
X137283618Y-102503066D01*
X137304808Y-102518462D01*
X137329715Y-102526554D01*
X137340607Y-102531065D01*
X137363945Y-102542957D01*
X137389805Y-102547052D01*
X137401270Y-102549804D01*
X137426187Y-102557900D01*
X137458292Y-102557900D01*
X153271966Y-102557900D01*
X153320304Y-102575493D01*
X153325140Y-102579926D01*
X154212574Y-103467360D01*
X154234314Y-103513980D01*
X154234600Y-103520534D01*
X154234600Y-105580634D01*
X154227804Y-105611873D01*
X154198477Y-105676088D01*
X154179943Y-105804999D01*
X154198477Y-105933909D01*
X154227804Y-105998125D01*
X154234600Y-106029365D01*
X154234600Y-107759465D01*
X154217007Y-107807803D01*
X154212574Y-107812639D01*
X153695140Y-108330074D01*
X153648520Y-108351814D01*
X153641966Y-108352100D01*
X133738035Y-108352100D01*
X133689697Y-108334507D01*
X133684861Y-108330074D01*
X131852270Y-106497483D01*
X131828935Y-106485593D01*
X131818874Y-106479428D01*
X131797693Y-106464039D01*
X131797691Y-106464038D01*
X131772788Y-106455946D01*
X131761887Y-106451431D01*
X131738554Y-106439542D01*
X131712689Y-106435445D01*
X131701220Y-106432691D01*
X131676315Y-106424600D01*
X131676313Y-106424600D01*
X131644208Y-106424600D01*
X128420365Y-106424600D01*
X128379711Y-106412663D01*
X128377579Y-106411293D01*
X128377576Y-106411292D01*
X128252617Y-106374600D01*
X128122383Y-106374600D01*
X128085691Y-106385373D01*
X127997425Y-106411291D01*
X127953464Y-106439543D01*
X127887864Y-106481701D01*
X127887863Y-106481701D01*
X127887863Y-106481702D01*
X127802578Y-106580126D01*
X127748477Y-106698589D01*
X127729943Y-106827499D01*
X122108876Y-106827499D01*
X122107442Y-106155000D01*
X122882443Y-106155000D01*
X122900977Y-106283910D01*
X122955078Y-106402373D01*
X122955079Y-106402374D01*
X123040364Y-106500799D01*
X123149924Y-106571208D01*
X123274883Y-106607900D01*
X123274884Y-106607900D01*
X123405116Y-106607900D01*
X123405117Y-106607900D01*
X123530076Y-106571208D01*
X123530214Y-106571118D01*
X123532211Y-106569837D01*
X123572865Y-106557900D01*
X126008813Y-106557900D01*
X126033722Y-106549805D01*
X126045173Y-106547055D01*
X126071055Y-106542957D01*
X126094391Y-106531066D01*
X126105284Y-106526554D01*
X126130193Y-106518461D01*
X126151378Y-106503068D01*
X126161430Y-106496907D01*
X126184771Y-106485016D01*
X126275016Y-106394771D01*
X126281201Y-106388586D01*
X126281208Y-106388576D01*
X130023576Y-102646208D01*
X130023586Y-102646201D01*
X130120014Y-102549773D01*
X130120013Y-102549773D01*
X130120016Y-102549771D01*
X130131907Y-102526430D01*
X130138068Y-102516378D01*
X130153461Y-102495193D01*
X130161554Y-102470284D01*
X130166066Y-102459391D01*
X130177957Y-102436055D01*
X130182055Y-102410173D01*
X130184805Y-102398722D01*
X130192900Y-102373813D01*
X130192900Y-102246187D01*
X130192900Y-102246186D01*
X130192900Y-91043034D01*
X130210493Y-90994696D01*
X130214926Y-90989860D01*
X131447313Y-89757474D01*
X131458664Y-89746121D01*
X131470016Y-89734771D01*
X131481905Y-89711434D01*
X131488067Y-89701378D01*
X131503461Y-89680193D01*
X131511554Y-89655284D01*
X131516066Y-89644391D01*
X131527957Y-89621055D01*
X131532055Y-89595173D01*
X131534805Y-89583722D01*
X131542900Y-89558813D01*
X131542900Y-89431187D01*
X131542900Y-83296748D01*
X131560493Y-83248410D01*
X131605042Y-83222690D01*
X131655700Y-83231623D01*
X131671274Y-83243574D01*
X131983240Y-83555540D01*
X131985951Y-83558396D01*
X132013051Y-83588494D01*
X132035513Y-83598495D01*
X132045884Y-83604126D01*
X132066502Y-83617515D01*
X132066504Y-83617516D01*
X132074935Y-83618851D01*
X132093754Y-83624425D01*
X132101558Y-83627900D01*
X132126147Y-83627900D01*
X132137910Y-83628825D01*
X132146104Y-83630123D01*
X132162193Y-83632672D01*
X132162193Y-83632671D01*
X132162194Y-83632672D01*
X132170442Y-83630461D01*
X132189905Y-83627900D01*
X132642064Y-83627900D01*
X132646000Y-83628003D01*
X132686448Y-83630123D01*
X132709406Y-83621308D01*
X132720706Y-83617961D01*
X132744766Y-83612848D01*
X132751674Y-83607828D01*
X132768920Y-83598464D01*
X132776896Y-83595403D01*
X132794290Y-83578008D01*
X132803249Y-83570356D01*
X132823146Y-83555901D01*
X132827417Y-83548502D01*
X132839362Y-83532935D01*
X133258315Y-83113982D01*
X133290298Y-83095005D01*
X133390076Y-83065708D01*
X133499636Y-82995299D01*
X133584921Y-82896874D01*
X133639023Y-82778409D01*
X133657557Y-82649500D01*
X133639023Y-82520591D01*
X133584921Y-82402126D01*
X133499636Y-82303701D01*
X133390076Y-82233292D01*
X133390075Y-82233291D01*
X133390074Y-82233291D01*
X133302575Y-82207599D01*
X133265117Y-82196600D01*
X133134883Y-82196600D01*
X133098191Y-82207373D01*
X133009925Y-82233291D01*
X132900362Y-82303702D01*
X132853494Y-82357791D01*
X132808543Y-82382800D01*
X132758033Y-82373065D01*
X132739829Y-82357790D01*
X132649635Y-82253700D01*
X132612443Y-82229798D01*
X132581291Y-82188864D01*
X132577900Y-82166536D01*
X132577900Y-57305000D01*
X136902443Y-57305000D01*
X136920977Y-57433910D01*
X136975078Y-57552373D01*
X136975079Y-57552374D01*
X137060364Y-57650799D01*
X137169924Y-57721208D01*
X137294883Y-57757900D01*
X137294884Y-57757900D01*
X137425116Y-57757900D01*
X137425117Y-57757900D01*
X137550076Y-57721208D01*
X137659636Y-57650799D01*
X137739305Y-57558854D01*
X137784256Y-57533845D01*
X137796138Y-57532900D01*
X141540613Y-57532900D01*
X141588951Y-57550493D01*
X141609017Y-57576860D01*
X141640078Y-57644873D01*
X141644411Y-57649874D01*
X141725364Y-57743299D01*
X141834924Y-57813708D01*
X141959883Y-57850400D01*
X141959884Y-57850400D01*
X142090116Y-57850400D01*
X142090117Y-57850400D01*
X142215076Y-57813708D01*
X142324636Y-57743299D01*
X142409921Y-57644874D01*
X142428495Y-57604202D01*
X142464580Y-57567541D01*
X142515787Y-57562651D01*
X142558156Y-57591821D01*
X142572100Y-57635441D01*
X142572100Y-57727062D01*
X142571997Y-57730998D01*
X142569876Y-57771447D01*
X142578688Y-57794400D01*
X142582040Y-57805716D01*
X142587152Y-57829766D01*
X142592169Y-57836672D01*
X142601535Y-57853921D01*
X142604597Y-57861896D01*
X142621986Y-57879285D01*
X142629644Y-57888251D01*
X142640775Y-57903572D01*
X142644099Y-57908146D01*
X142651493Y-57912415D01*
X142667065Y-57924365D01*
X143003240Y-58260540D01*
X143005951Y-58263396D01*
X143016712Y-58275348D01*
X143033051Y-58293494D01*
X143055513Y-58303494D01*
X143065883Y-58309125D01*
X143071591Y-58312832D01*
X143086503Y-58322516D01*
X143094929Y-58323850D01*
X143113757Y-58329427D01*
X143121557Y-58332900D01*
X143121558Y-58332900D01*
X143146152Y-58332900D01*
X143157916Y-58333826D01*
X143182193Y-58337671D01*
X143182193Y-58337670D01*
X143182194Y-58337671D01*
X143186983Y-58336387D01*
X143190439Y-58335462D01*
X143209902Y-58332900D01*
X145012064Y-58332900D01*
X145016000Y-58333003D01*
X145056448Y-58335123D01*
X145079406Y-58326308D01*
X145090706Y-58322961D01*
X145114766Y-58317848D01*
X145121674Y-58312828D01*
X145138920Y-58303464D01*
X145146896Y-58300403D01*
X145164290Y-58283008D01*
X145173249Y-58275356D01*
X145193146Y-58260901D01*
X145197414Y-58253507D01*
X145209360Y-58237937D01*
X145432373Y-58014925D01*
X145478994Y-57993186D01*
X145485548Y-57992900D01*
X149304453Y-57992900D01*
X149352791Y-58010493D01*
X149357615Y-58014914D01*
X149690075Y-58347374D01*
X149711814Y-58393992D01*
X149712100Y-58400546D01*
X149712100Y-61786682D01*
X149694507Y-61835020D01*
X149677556Y-61849944D01*
X149640727Y-61873612D01*
X149555440Y-61972039D01*
X149501339Y-62090503D01*
X149497213Y-62119200D01*
X149493095Y-62147847D01*
X149491692Y-62157602D01*
X149467398Y-62202944D01*
X149419643Y-62222062D01*
X149417257Y-62222100D01*
X149410337Y-62222100D01*
X149280103Y-62222100D01*
X149243412Y-62232873D01*
X149155145Y-62258791D01*
X149120900Y-62280799D01*
X149045584Y-62329201D01*
X149045583Y-62329201D01*
X149045583Y-62329202D01*
X148960298Y-62427626D01*
X148906197Y-62546089D01*
X148891261Y-62649977D01*
X148887663Y-62675000D01*
X148893412Y-62714984D01*
X148906197Y-62803910D01*
X148960298Y-62922373D01*
X148960299Y-62922374D01*
X149045584Y-63020799D01*
X149082776Y-63044700D01*
X149113928Y-63085634D01*
X149117320Y-63107963D01*
X149117320Y-63302282D01*
X149117217Y-63306218D01*
X149115096Y-63346667D01*
X149123908Y-63369620D01*
X149127260Y-63380936D01*
X149132372Y-63404986D01*
X149137389Y-63411892D01*
X149146755Y-63429141D01*
X149149817Y-63437116D01*
X149167206Y-63454505D01*
X149174864Y-63463471D01*
X149189319Y-63483366D01*
X149196713Y-63487635D01*
X149212285Y-63499585D01*
X149533240Y-63820540D01*
X149535951Y-63823396D01*
X149563051Y-63853494D01*
X149585513Y-63863495D01*
X149595884Y-63869126D01*
X149616502Y-63882515D01*
X149616504Y-63882516D01*
X149624935Y-63883851D01*
X149643754Y-63889425D01*
X149651558Y-63892900D01*
X149676147Y-63892900D01*
X149687910Y-63893825D01*
X149696104Y-63895123D01*
X149712193Y-63897672D01*
X149712193Y-63897671D01*
X149712194Y-63897672D01*
X149720442Y-63895461D01*
X149739905Y-63892900D01*
X151622064Y-63892900D01*
X151626000Y-63893003D01*
X151666448Y-63895123D01*
X151689406Y-63886308D01*
X151700706Y-63882961D01*
X151724766Y-63877848D01*
X151731674Y-63872828D01*
X151748920Y-63863464D01*
X151756896Y-63860403D01*
X151774290Y-63843008D01*
X151783249Y-63835356D01*
X151803146Y-63820901D01*
X151807415Y-63813506D01*
X151819362Y-63797936D01*
X152215558Y-63401740D01*
X152218374Y-63399066D01*
X152248494Y-63371949D01*
X152258496Y-63349480D01*
X152264124Y-63339115D01*
X152277516Y-63318496D01*
X152278850Y-63310067D01*
X152284429Y-63291237D01*
X152287900Y-63283442D01*
X152287900Y-63258846D01*
X152288826Y-63247083D01*
X152292671Y-63222804D01*
X152290462Y-63214559D01*
X152287900Y-63195099D01*
X152287900Y-62867963D01*
X152305493Y-62819625D01*
X152322442Y-62804701D01*
X152359636Y-62780799D01*
X152444921Y-62682374D01*
X152499023Y-62563909D01*
X152517557Y-62435000D01*
X152499023Y-62306091D01*
X152444921Y-62187626D01*
X152359636Y-62089201D01*
X152250076Y-62018792D01*
X152250075Y-62018791D01*
X152250074Y-62018791D01*
X152177060Y-61997352D01*
X152125117Y-61982100D01*
X151994883Y-61982100D01*
X151958191Y-61992873D01*
X151869925Y-62018791D01*
X151760362Y-62089202D01*
X151708834Y-62148669D01*
X151663883Y-62173678D01*
X151613373Y-62163943D01*
X151595169Y-62148668D01*
X151594890Y-62148346D01*
X151569636Y-62119201D01*
X151569635Y-62119200D01*
X151532443Y-62095298D01*
X151501291Y-62054364D01*
X151497900Y-62032036D01*
X151497900Y-58470545D01*
X151515493Y-58422207D01*
X151519914Y-58417383D01*
X151557527Y-58379770D01*
X151604146Y-58358031D01*
X151653833Y-58371345D01*
X151679104Y-58401705D01*
X151725078Y-58502373D01*
X151725079Y-58502374D01*
X151810364Y-58600799D01*
X151919924Y-58671208D01*
X152044883Y-58707900D01*
X152044884Y-58707900D01*
X152175116Y-58707900D01*
X152175117Y-58707900D01*
X152300076Y-58671208D01*
X152409636Y-58600799D01*
X152494921Y-58502374D01*
X152549023Y-58383909D01*
X152567557Y-58255000D01*
X152555911Y-58174003D01*
X152566445Y-58123654D01*
X152577166Y-58110131D01*
X152783727Y-57903571D01*
X152830346Y-57881833D01*
X152880033Y-57895147D01*
X152909538Y-57937284D01*
X152912100Y-57956747D01*
X152912100Y-64249451D01*
X152894507Y-64297789D01*
X152890074Y-64302625D01*
X150300194Y-66892505D01*
X150253574Y-66914245D01*
X150203887Y-66900931D01*
X150174382Y-66858794D01*
X150172585Y-66828632D01*
X150187557Y-66724500D01*
X150169023Y-66595591D01*
X150114921Y-66477126D01*
X150084286Y-66441771D01*
X150065928Y-66393719D01*
X150082753Y-66345108D01*
X150087925Y-66339372D01*
X150462715Y-65964583D01*
X150509332Y-65942846D01*
X150537073Y-65945606D01*
X150544883Y-65947900D01*
X150675116Y-65947900D01*
X150675117Y-65947900D01*
X150800076Y-65911208D01*
X150909636Y-65840799D01*
X150994921Y-65742374D01*
X151049023Y-65623909D01*
X151067557Y-65495000D01*
X151049023Y-65366091D01*
X150994921Y-65247626D01*
X150909636Y-65149201D01*
X150800076Y-65078792D01*
X150800075Y-65078791D01*
X150800074Y-65078791D01*
X150727060Y-65057352D01*
X150675117Y-65042100D01*
X150544883Y-65042100D01*
X150508191Y-65052873D01*
X150419925Y-65078791D01*
X150365143Y-65113996D01*
X150310364Y-65149201D01*
X150310363Y-65149201D01*
X150310363Y-65149202D01*
X150225078Y-65247626D01*
X150170977Y-65366089D01*
X150152443Y-65495000D01*
X150164088Y-65575997D01*
X150153552Y-65626346D01*
X150142827Y-65639872D01*
X149574456Y-66208242D01*
X149571602Y-66210952D01*
X149541505Y-66238051D01*
X149531506Y-66260510D01*
X149525878Y-66270875D01*
X149512483Y-66291502D01*
X149511685Y-66296545D01*
X149486747Y-66341535D01*
X149478068Y-66348043D01*
X149430364Y-66378700D01*
X149345078Y-66477126D01*
X149290977Y-66595589D01*
X149272443Y-66724499D01*
X149290977Y-66853410D01*
X149345078Y-66971873D01*
X149345079Y-66971874D01*
X149430364Y-67070299D01*
X149539924Y-67140708D01*
X149664883Y-67177400D01*
X149664884Y-67177400D01*
X149795115Y-67177400D01*
X149795117Y-67177400D01*
X149824132Y-67168880D01*
X149875466Y-67172142D01*
X149912695Y-67207639D01*
X149918397Y-67258762D01*
X149898491Y-67294208D01*
X142884456Y-74308242D01*
X142881602Y-74310952D01*
X142851505Y-74338051D01*
X142841506Y-74360510D01*
X142835878Y-74370875D01*
X142822483Y-74391502D01*
X142821148Y-74399935D01*
X142815574Y-74418754D01*
X142812100Y-74426557D01*
X142812100Y-74451152D01*
X142811174Y-74462916D01*
X142807328Y-74487192D01*
X142809538Y-74495437D01*
X142812100Y-74514901D01*
X142812100Y-85427062D01*
X142811997Y-85430998D01*
X142809876Y-85471447D01*
X142818688Y-85494400D01*
X142822040Y-85505716D01*
X142827152Y-85529766D01*
X142832169Y-85536672D01*
X142841535Y-85553921D01*
X142844597Y-85561896D01*
X142861986Y-85579285D01*
X142869644Y-85588251D01*
X142884099Y-85608146D01*
X142891493Y-85612415D01*
X142907066Y-85624365D01*
X143703231Y-86420530D01*
X143705942Y-86423386D01*
X143733049Y-86453493D01*
X143733050Y-86453493D01*
X143733051Y-86453494D01*
X143755521Y-86463498D01*
X143765880Y-86469123D01*
X143786503Y-86482516D01*
X143794929Y-86483850D01*
X143813757Y-86489427D01*
X143821557Y-86492900D01*
X143821558Y-86492900D01*
X143846152Y-86492900D01*
X143857916Y-86493826D01*
X143882193Y-86497671D01*
X143882193Y-86497670D01*
X143882194Y-86497671D01*
X143886983Y-86496387D01*
X143890439Y-86495462D01*
X143909902Y-86492900D01*
X144023862Y-86492900D01*
X144072200Y-86510493D01*
X144080693Y-86518853D01*
X144160364Y-86610799D01*
X144269924Y-86681208D01*
X144394883Y-86717900D01*
X144394884Y-86717900D01*
X144525116Y-86717900D01*
X144525117Y-86717900D01*
X144650076Y-86681208D01*
X144759636Y-86610799D01*
X144844921Y-86512374D01*
X144899023Y-86393909D01*
X144917557Y-86265000D01*
X144899023Y-86136091D01*
X144844921Y-86017626D01*
X144759636Y-85919201D01*
X144650076Y-85848792D01*
X144650075Y-85848791D01*
X144650074Y-85848791D01*
X144577060Y-85827352D01*
X144525117Y-85812100D01*
X144394883Y-85812100D01*
X144358192Y-85822873D01*
X144269925Y-85848791D01*
X144160363Y-85919201D01*
X144080695Y-86011145D01*
X144035744Y-86036155D01*
X144023862Y-86037100D01*
X143995547Y-86037100D01*
X143947209Y-86019507D01*
X143942373Y-86015074D01*
X143289926Y-85362626D01*
X143268186Y-85316006D01*
X143267900Y-85309452D01*
X143267900Y-84906747D01*
X143285493Y-84858409D01*
X143330042Y-84832689D01*
X143380700Y-84841622D01*
X143396274Y-84853573D01*
X143423231Y-84880530D01*
X143425942Y-84883386D01*
X143453049Y-84913493D01*
X143453050Y-84913493D01*
X143453051Y-84913494D01*
X143475521Y-84923498D01*
X143485880Y-84929123D01*
X143506503Y-84942516D01*
X143514929Y-84943850D01*
X143533757Y-84949427D01*
X143541557Y-84952900D01*
X143541558Y-84952900D01*
X143566152Y-84952900D01*
X143577916Y-84953826D01*
X143602193Y-84957671D01*
X143602193Y-84957670D01*
X143602194Y-84957671D01*
X143606983Y-84956387D01*
X143610439Y-84955462D01*
X143629902Y-84952900D01*
X144028862Y-84952900D01*
X144077200Y-84970493D01*
X144085693Y-84978853D01*
X144165364Y-85070799D01*
X144274924Y-85141208D01*
X144399883Y-85177900D01*
X144399884Y-85177900D01*
X144530116Y-85177900D01*
X144530117Y-85177900D01*
X144655076Y-85141208D01*
X144764636Y-85070799D01*
X144849921Y-84972374D01*
X144904023Y-84853909D01*
X144922557Y-84725000D01*
X144904023Y-84596091D01*
X144849921Y-84477626D01*
X144764636Y-84379201D01*
X144655076Y-84308792D01*
X144655075Y-84308791D01*
X144655074Y-84308791D01*
X144582060Y-84287352D01*
X144530117Y-84272100D01*
X144399883Y-84272100D01*
X144363191Y-84282873D01*
X144274925Y-84308791D01*
X144165363Y-84379201D01*
X144085695Y-84471145D01*
X144040744Y-84496155D01*
X144028862Y-84497100D01*
X143715548Y-84497100D01*
X143667210Y-84479507D01*
X143662373Y-84475074D01*
X143589925Y-84402625D01*
X143568186Y-84356005D01*
X143567900Y-84349451D01*
X143567900Y-74724811D01*
X143585493Y-74676473D01*
X143589926Y-74671637D01*
X144073726Y-74187837D01*
X144120346Y-74166097D01*
X144170033Y-74179411D01*
X144199538Y-74221548D01*
X144202100Y-74241011D01*
X144202100Y-76432036D01*
X144184507Y-76480374D01*
X144167557Y-76495298D01*
X144130364Y-76519200D01*
X144045078Y-76617626D01*
X143990977Y-76736089D01*
X143972443Y-76865000D01*
X143990977Y-76993910D01*
X144045078Y-77112373D01*
X144108733Y-77185835D01*
X144127091Y-77233887D01*
X144127100Y-77235080D01*
X144127100Y-79543322D01*
X144124626Y-79558488D01*
X144124808Y-79562426D01*
X144124808Y-79562427D01*
X144126284Y-79594342D01*
X144127020Y-79610271D01*
X144127100Y-79613744D01*
X144127100Y-79633074D01*
X144127434Y-79634862D01*
X144128634Y-79645202D01*
X144130037Y-79675550D01*
X144135190Y-79687220D01*
X144140316Y-79703774D01*
X144142660Y-79716315D01*
X144158652Y-79742142D01*
X144163507Y-79751351D01*
X144175780Y-79779145D01*
X144184798Y-79788163D01*
X144195558Y-79801746D01*
X144202277Y-79812597D01*
X144226522Y-79830906D01*
X144234378Y-79837743D01*
X145790074Y-81393439D01*
X145811814Y-81440058D01*
X145812100Y-81446612D01*
X145812100Y-84354919D01*
X145794507Y-84403257D01*
X145793733Y-84404164D01*
X145730078Y-84477626D01*
X145675977Y-84596089D01*
X145657443Y-84725000D01*
X145675977Y-84853910D01*
X145730078Y-84972373D01*
X145730079Y-84972374D01*
X145815364Y-85070799D01*
X145924924Y-85141208D01*
X146049883Y-85177900D01*
X146049884Y-85177900D01*
X146180116Y-85177900D01*
X146180117Y-85177900D01*
X146305076Y-85141208D01*
X146414636Y-85070799D01*
X146499921Y-84972374D01*
X146554023Y-84853909D01*
X146572557Y-84725000D01*
X146554023Y-84596091D01*
X146499921Y-84477626D01*
X146436267Y-84404164D01*
X146417909Y-84356111D01*
X146417900Y-84354919D01*
X146417900Y-81351678D01*
X146420373Y-81336512D01*
X146420191Y-81332575D01*
X146420192Y-81332573D01*
X146417980Y-81284727D01*
X146417900Y-81281254D01*
X146417900Y-81261932D01*
X146417900Y-81261930D01*
X146417564Y-81260138D01*
X146416364Y-81249796D01*
X146414962Y-81219449D01*
X146409809Y-81207779D01*
X146404683Y-81191225D01*
X146402339Y-81178684D01*
X146386346Y-81152856D01*
X146381489Y-81143640D01*
X146369222Y-81115856D01*
X146369221Y-81115855D01*
X146360196Y-81106830D01*
X146349437Y-81093247D01*
X146342723Y-81082403D01*
X146318476Y-81064092D01*
X146310622Y-81057256D01*
X144754926Y-79501560D01*
X144733186Y-79454940D01*
X144732900Y-79448386D01*
X144732900Y-79045000D01*
X151062663Y-79045000D01*
X151082369Y-79257661D01*
X151140814Y-79463076D01*
X151236012Y-79654258D01*
X151350875Y-79806361D01*
X151816016Y-79341219D01*
X151838239Y-79375798D01*
X151923277Y-79449483D01*
X151460631Y-79912129D01*
X151522551Y-79968576D01*
X151704130Y-80081006D01*
X151903277Y-80158154D01*
X152113217Y-80197400D01*
X152326783Y-80197400D01*
X152536722Y-80158154D01*
X152735869Y-80081006D01*
X152917448Y-79968576D01*
X152979367Y-79912129D01*
X152516721Y-79449483D01*
X152601761Y-79375798D01*
X152623982Y-79341220D01*
X153089123Y-79806361D01*
X153203990Y-79654254D01*
X153299184Y-79463078D01*
X153357630Y-79257661D01*
X153377336Y-79045000D01*
X153357630Y-78832338D01*
X153299185Y-78626923D01*
X153203987Y-78435741D01*
X153089123Y-78283637D01*
X152623981Y-78748778D01*
X152601761Y-78714202D01*
X152516721Y-78640515D01*
X152979367Y-78177870D01*
X152979367Y-78177869D01*
X152917448Y-78121423D01*
X152735869Y-78008993D01*
X152536722Y-77931845D01*
X152326783Y-77892600D01*
X152113217Y-77892600D01*
X151903277Y-77931845D01*
X151704130Y-78008993D01*
X151522548Y-78121425D01*
X151460632Y-78177868D01*
X151460631Y-78177869D01*
X151923278Y-78640516D01*
X151838239Y-78714202D01*
X151816017Y-78748779D01*
X151350875Y-78283637D01*
X151236012Y-78435741D01*
X151140814Y-78626923D01*
X151082369Y-78832338D01*
X151062663Y-79045000D01*
X144732900Y-79045000D01*
X144732900Y-77243100D01*
X144750493Y-77194762D01*
X144795042Y-77169042D01*
X144808100Y-77167900D01*
X157568322Y-77167900D01*
X157583487Y-77170373D01*
X157587424Y-77170191D01*
X157587427Y-77170192D01*
X157635273Y-77167979D01*
X157638745Y-77167900D01*
X157658065Y-77167900D01*
X157658070Y-77167900D01*
X157659863Y-77167564D01*
X157670203Y-77166364D01*
X157700551Y-77164962D01*
X157712223Y-77159807D01*
X157728774Y-77154683D01*
X157741316Y-77152339D01*
X157767152Y-77136340D01*
X157776351Y-77131491D01*
X157804145Y-77119220D01*
X157813167Y-77110196D01*
X157826749Y-77099439D01*
X157837597Y-77092723D01*
X157855913Y-77068467D01*
X157862736Y-77060627D01*
X159668438Y-75254926D01*
X159715059Y-75233186D01*
X159721613Y-75232900D01*
X160468849Y-75232900D01*
X160517187Y-75250493D01*
X160525682Y-75258855D01*
X160540364Y-75275799D01*
X160649924Y-75346208D01*
X160774883Y-75382900D01*
X160774884Y-75382900D01*
X160905116Y-75382900D01*
X160905117Y-75382900D01*
X161030076Y-75346208D01*
X161139636Y-75275799D01*
X161224921Y-75177374D01*
X161279023Y-75058909D01*
X161297557Y-74930000D01*
X161279023Y-74801091D01*
X161224921Y-74682626D01*
X161139636Y-74584201D01*
X161030076Y-74513792D01*
X161030075Y-74513791D01*
X161030074Y-74513791D01*
X160939493Y-74487194D01*
X160905117Y-74477100D01*
X160774883Y-74477100D01*
X160740507Y-74487194D01*
X160649925Y-74513791D01*
X160648198Y-74514901D01*
X160540364Y-74584201D01*
X160540363Y-74584201D01*
X160540363Y-74584202D01*
X160525682Y-74601145D01*
X160480731Y-74626155D01*
X160468849Y-74627100D01*
X159626678Y-74627100D01*
X159611512Y-74624626D01*
X159607573Y-74624808D01*
X159559726Y-74627020D01*
X159556255Y-74627100D01*
X159536927Y-74627100D01*
X159535128Y-74627436D01*
X159524796Y-74628634D01*
X159494447Y-74630037D01*
X159482775Y-74635191D01*
X159466225Y-74640316D01*
X159453683Y-74642660D01*
X159427845Y-74658658D01*
X159418638Y-74663511D01*
X159390854Y-74675780D01*
X159381830Y-74684803D01*
X159368253Y-74695557D01*
X159357403Y-74702275D01*
X159339089Y-74726526D01*
X159332254Y-74734379D01*
X157526561Y-76540074D01*
X157479941Y-76561814D01*
X157473387Y-76562100D01*
X144801151Y-76562100D01*
X144752813Y-76544507D01*
X144744318Y-76536145D01*
X144729635Y-76519200D01*
X144692443Y-76495298D01*
X144661291Y-76454364D01*
X144657900Y-76432036D01*
X144657900Y-74059075D01*
X144675493Y-74010737D01*
X144679926Y-74005901D01*
X146386327Y-72299500D01*
X148140828Y-70544999D01*
X158782246Y-70544999D01*
X158801611Y-70741603D01*
X158858958Y-70930650D01*
X158934751Y-71072451D01*
X158952086Y-71104882D01*
X159077410Y-71257589D01*
X159230117Y-71382913D01*
X159230120Y-71382915D01*
X159230122Y-71382916D01*
X159404350Y-71476042D01*
X159593397Y-71533389D01*
X159790000Y-71552753D01*
X159986603Y-71533389D01*
X160175650Y-71476042D01*
X160349878Y-71382916D01*
X160502589Y-71257589D01*
X160627916Y-71104878D01*
X160721042Y-70930650D01*
X160778389Y-70741603D01*
X160797753Y-70545000D01*
X160778389Y-70348397D01*
X160721042Y-70159350D01*
X160627916Y-69985122D01*
X160627915Y-69985120D01*
X160627913Y-69985117D01*
X160502589Y-69832410D01*
X160349882Y-69707086D01*
X160238631Y-69647622D01*
X160175650Y-69613958D01*
X159986603Y-69556611D01*
X159790000Y-69537246D01*
X159593396Y-69556611D01*
X159404352Y-69613957D01*
X159230117Y-69707086D01*
X159077410Y-69832410D01*
X158952086Y-69985117D01*
X158858957Y-70159352D01*
X158801611Y-70348396D01*
X158782246Y-70544999D01*
X148140828Y-70544999D01*
X149245430Y-69440397D01*
X149292049Y-69418658D01*
X149341736Y-69431972D01*
X149355436Y-69444327D01*
X149430364Y-69530799D01*
X149539924Y-69601208D01*
X149664883Y-69637900D01*
X149664884Y-69637900D01*
X149795116Y-69637900D01*
X149795117Y-69637900D01*
X149920076Y-69601208D01*
X150029636Y-69530799D01*
X150114921Y-69432374D01*
X150169023Y-69313909D01*
X150187557Y-69185000D01*
X150169023Y-69056091D01*
X150114921Y-68937626D01*
X150029636Y-68839201D01*
X149920076Y-68768792D01*
X149920075Y-68768791D01*
X149920074Y-68768791D01*
X149847060Y-68747352D01*
X149795117Y-68732100D01*
X149711012Y-68732100D01*
X149662674Y-68714507D01*
X149636954Y-68669958D01*
X149645887Y-68619300D01*
X149657838Y-68603726D01*
X150256564Y-68005000D01*
X158782246Y-68005000D01*
X158801611Y-68201603D01*
X158851995Y-68367698D01*
X158858958Y-68390650D01*
X158934751Y-68532451D01*
X158952086Y-68564882D01*
X159077410Y-68717589D01*
X159230117Y-68842913D01*
X159230120Y-68842915D01*
X159230122Y-68842916D01*
X159404350Y-68936042D01*
X159593397Y-68993389D01*
X159790000Y-69012753D01*
X159986603Y-68993389D01*
X160175650Y-68936042D01*
X160349878Y-68842916D01*
X160447751Y-68762594D01*
X160502589Y-68717589D01*
X160627913Y-68564882D01*
X160627913Y-68564881D01*
X160627916Y-68564878D01*
X160721042Y-68390650D01*
X160778389Y-68201603D01*
X160797753Y-68005000D01*
X160778389Y-67808397D01*
X160721042Y-67619350D01*
X160627916Y-67445122D01*
X160627915Y-67445120D01*
X160627913Y-67445117D01*
X160502589Y-67292410D01*
X160349882Y-67167086D01*
X160317451Y-67149751D01*
X160175650Y-67073958D01*
X160163581Y-67070297D01*
X159986603Y-67016611D01*
X159789999Y-66997246D01*
X159593396Y-67016611D01*
X159404352Y-67073957D01*
X159230117Y-67167086D01*
X159077410Y-67292410D01*
X158952086Y-67445117D01*
X158858957Y-67619352D01*
X158801611Y-67808396D01*
X158782246Y-68005000D01*
X150256564Y-68005000D01*
X150642214Y-67619350D01*
X152796564Y-65464999D01*
X158782246Y-65464999D01*
X158798138Y-65626346D01*
X158801611Y-65661603D01*
X158858958Y-65850650D01*
X158909713Y-65945607D01*
X158952086Y-66024882D01*
X159077410Y-66177589D01*
X159230117Y-66302913D01*
X159230120Y-66302915D01*
X159230122Y-66302916D01*
X159404350Y-66396042D01*
X159593397Y-66453389D01*
X159790000Y-66472753D01*
X159986603Y-66453389D01*
X160175650Y-66396042D01*
X160349878Y-66302916D01*
X160502589Y-66177589D01*
X160627916Y-66024878D01*
X160721042Y-65850650D01*
X160778389Y-65661603D01*
X160797753Y-65465000D01*
X160778389Y-65268397D01*
X160721042Y-65079350D01*
X160627916Y-64905122D01*
X160627915Y-64905120D01*
X160627913Y-64905117D01*
X160502589Y-64752410D01*
X160349882Y-64627086D01*
X160305527Y-64603378D01*
X160175650Y-64533958D01*
X159986603Y-64476611D01*
X159986602Y-64476610D01*
X159789999Y-64457246D01*
X159593396Y-64476611D01*
X159404352Y-64533957D01*
X159230117Y-64627086D01*
X159077410Y-64752410D01*
X158952086Y-64905117D01*
X158858957Y-65079352D01*
X158801611Y-65268396D01*
X158782246Y-65464999D01*
X152796564Y-65464999D01*
X153595558Y-64666004D01*
X153598374Y-64663330D01*
X153628494Y-64636213D01*
X153638494Y-64613748D01*
X153644126Y-64603378D01*
X153657516Y-64582761D01*
X153658850Y-64574332D01*
X153664429Y-64555501D01*
X153667900Y-64547706D01*
X153667900Y-64523110D01*
X153668826Y-64511347D01*
X153672671Y-64487068D01*
X153670462Y-64478823D01*
X153667900Y-64459363D01*
X153667900Y-63790057D01*
X158787100Y-63790057D01*
X158795972Y-63834658D01*
X158829766Y-63885234D01*
X158880341Y-63919028D01*
X158889213Y-63920792D01*
X158924943Y-63927900D01*
X160655056Y-63927899D01*
X160655057Y-63927899D01*
X160662456Y-63926427D01*
X160699658Y-63919028D01*
X160750234Y-63885234D01*
X160784028Y-63834658D01*
X160792900Y-63790057D01*
X160792899Y-62059944D01*
X160784028Y-62015342D01*
X160750234Y-61964766D01*
X160750233Y-61964765D01*
X160699658Y-61930971D01*
X160655057Y-61922100D01*
X158924942Y-61922100D01*
X158880341Y-61930972D01*
X158829765Y-61964766D01*
X158795971Y-62015341D01*
X158787100Y-62059942D01*
X158787100Y-63790057D01*
X153667900Y-63790057D01*
X153667900Y-62999546D01*
X153685493Y-62951208D01*
X153730042Y-62925488D01*
X153780700Y-62934421D01*
X153799934Y-62950303D01*
X153800364Y-62950799D01*
X153909924Y-63021208D01*
X154034883Y-63057900D01*
X154034884Y-63057900D01*
X154165116Y-63057900D01*
X154165117Y-63057900D01*
X154290076Y-63021208D01*
X154399636Y-62950799D01*
X154484921Y-62852374D01*
X154539023Y-62733909D01*
X154557557Y-62605000D01*
X154539023Y-62476091D01*
X154538694Y-62473801D01*
X154549230Y-62423452D01*
X154589665Y-62391654D01*
X154613129Y-62387900D01*
X154655116Y-62387900D01*
X154655117Y-62387900D01*
X154780076Y-62351208D01*
X154889636Y-62280799D01*
X154969305Y-62188854D01*
X155014256Y-62163845D01*
X155026138Y-62162900D01*
X155442064Y-62162900D01*
X155446000Y-62163003D01*
X155486448Y-62165123D01*
X155509406Y-62156308D01*
X155520706Y-62152961D01*
X155544766Y-62147848D01*
X155551674Y-62142828D01*
X155568920Y-62133464D01*
X155576896Y-62130403D01*
X155594290Y-62113008D01*
X155603249Y-62105356D01*
X155623146Y-62090901D01*
X155627417Y-62083502D01*
X155639362Y-62067935D01*
X156015548Y-61691749D01*
X156018364Y-61689075D01*
X156048494Y-61661949D01*
X156058496Y-61639481D01*
X156064123Y-61629117D01*
X156077516Y-61608496D01*
X156078852Y-61600059D01*
X156084428Y-61581239D01*
X156087900Y-61573441D01*
X156087900Y-61548852D01*
X156088826Y-61537087D01*
X156092672Y-61512805D01*
X156090462Y-61504556D01*
X156087900Y-61485094D01*
X156087900Y-48496746D01*
X156105493Y-48448408D01*
X156150042Y-48422688D01*
X156200700Y-48431621D01*
X156216273Y-48443571D01*
X157410074Y-49637373D01*
X157431814Y-49683992D01*
X157432100Y-49690546D01*
X157432100Y-58397062D01*
X157431997Y-58400998D01*
X157429876Y-58441447D01*
X157438688Y-58464400D01*
X157442040Y-58475716D01*
X157447152Y-58499766D01*
X157452169Y-58506672D01*
X157461535Y-58523921D01*
X157464597Y-58531896D01*
X157481986Y-58549285D01*
X157489644Y-58558251D01*
X157504099Y-58578146D01*
X157511493Y-58582415D01*
X157527066Y-58594365D01*
X158503240Y-59570540D01*
X158505951Y-59573396D01*
X158533051Y-59603494D01*
X158555513Y-59613495D01*
X158565884Y-59619126D01*
X158586502Y-59632515D01*
X158586504Y-59632516D01*
X158594935Y-59633851D01*
X158613754Y-59639425D01*
X158621558Y-59642900D01*
X158646147Y-59642900D01*
X158657910Y-59643825D01*
X158666104Y-59645123D01*
X158682193Y-59647672D01*
X158682193Y-59647671D01*
X158682194Y-59647672D01*
X158690442Y-59645461D01*
X158709905Y-59642900D01*
X161944453Y-59642900D01*
X161992791Y-59660493D01*
X161997626Y-59664925D01*
X162545074Y-60212373D01*
X162566814Y-60258992D01*
X162567100Y-60265546D01*
X162567100Y-77624451D01*
X162549507Y-77672789D01*
X162545074Y-77677625D01*
X161427626Y-78795074D01*
X161381006Y-78816814D01*
X161374452Y-78817100D01*
X158410603Y-78817100D01*
X158362265Y-78799507D01*
X158338274Y-78762479D01*
X158315907Y-78683868D01*
X158299653Y-78626740D01*
X158204415Y-78435476D01*
X158075653Y-78264969D01*
X158004385Y-78200000D01*
X157917754Y-78121025D01*
X157736093Y-78008544D01*
X157573479Y-77945548D01*
X157536858Y-77931361D01*
X157326832Y-77892100D01*
X157113168Y-77892100D01*
X156903142Y-77931361D01*
X156903139Y-77931361D01*
X156903139Y-77931362D01*
X156703906Y-78008544D01*
X156522245Y-78121025D01*
X156364348Y-78264967D01*
X156235585Y-78435476D01*
X156140346Y-78626741D01*
X156081875Y-78832247D01*
X156062160Y-79045000D01*
X156081875Y-79257752D01*
X156140294Y-79463076D01*
X156140347Y-79463260D01*
X156235585Y-79654524D01*
X156341165Y-79794333D01*
X156364348Y-79825032D01*
X156374239Y-79834049D01*
X156522246Y-79968975D01*
X156591426Y-80011809D01*
X156703906Y-80081455D01*
X156766902Y-80105859D01*
X156903142Y-80158639D01*
X157113168Y-80197900D01*
X157113171Y-80197900D01*
X157326829Y-80197900D01*
X157326832Y-80197900D01*
X157536858Y-80158639D01*
X157736093Y-80081455D01*
X157917754Y-79968975D01*
X158075653Y-79825031D01*
X158204415Y-79654524D01*
X158299653Y-79463260D01*
X158338274Y-79327520D01*
X158368424Y-79285843D01*
X158410603Y-79272900D01*
X161492064Y-79272900D01*
X161496000Y-79273003D01*
X161536448Y-79275123D01*
X161559406Y-79266308D01*
X161570706Y-79262961D01*
X161594766Y-79257848D01*
X161601674Y-79252828D01*
X161618920Y-79243464D01*
X161626896Y-79240403D01*
X161644290Y-79223008D01*
X161653249Y-79215356D01*
X161673146Y-79200901D01*
X161677417Y-79193502D01*
X161689362Y-79177935D01*
X162738727Y-78128571D01*
X162785346Y-78106832D01*
X162835033Y-78120146D01*
X162864538Y-78162283D01*
X162867100Y-78181746D01*
X162867100Y-111308386D01*
X162849507Y-111356724D01*
X162845074Y-111361560D01*
X161586561Y-112620074D01*
X161539941Y-112641814D01*
X161533387Y-112642100D01*
X160318651Y-112642100D01*
X160270313Y-112624507D01*
X160261818Y-112616145D01*
X160261527Y-112615809D01*
X160247136Y-112599201D01*
X160137576Y-112528792D01*
X160137575Y-112528791D01*
X160137574Y-112528791D01*
X160064560Y-112507352D01*
X160012617Y-112492100D01*
X159882383Y-112492100D01*
X159845691Y-112502873D01*
X159757425Y-112528791D01*
X159702644Y-112563996D01*
X159647864Y-112599201D01*
X159647863Y-112599201D01*
X159647863Y-112599202D01*
X159562578Y-112697626D01*
X159508477Y-112816089D01*
X159489943Y-112944999D01*
X159508477Y-113073910D01*
X159562578Y-113192373D01*
X159562579Y-113192374D01*
X159647864Y-113290799D01*
X159757424Y-113361208D01*
X159882383Y-113397900D01*
X159882384Y-113397900D01*
X160012616Y-113397900D01*
X160012617Y-113397900D01*
X160137576Y-113361208D01*
X160247136Y-113290799D01*
X160261817Y-113273855D01*
X160306769Y-113248845D01*
X160318651Y-113247900D01*
X161628322Y-113247900D01*
X161643487Y-113250373D01*
X161647424Y-113250191D01*
X161647427Y-113250192D01*
X161695273Y-113247979D01*
X161698745Y-113247900D01*
X161718065Y-113247900D01*
X161718070Y-113247900D01*
X161719863Y-113247564D01*
X161730203Y-113246364D01*
X161760551Y-113244962D01*
X161772223Y-113239807D01*
X161788774Y-113234683D01*
X161801316Y-113232339D01*
X161827152Y-113216340D01*
X161836351Y-113211491D01*
X161864145Y-113199220D01*
X161873167Y-113190196D01*
X161886749Y-113179439D01*
X161897597Y-113172723D01*
X161915913Y-113148467D01*
X161922736Y-113140627D01*
X163340567Y-111722796D01*
X163353041Y-111713822D01*
X163355696Y-111710908D01*
X163355700Y-111710907D01*
X163387983Y-111675492D01*
X163390362Y-111673002D01*
X163404031Y-111659334D01*
X163405060Y-111657831D01*
X163411521Y-111649672D01*
X163431992Y-111627218D01*
X163436600Y-111615321D01*
X163444678Y-111599997D01*
X163451892Y-111589467D01*
X163458847Y-111559892D01*
X163461925Y-111549949D01*
X163472900Y-111521622D01*
X163472900Y-111508866D01*
X163474897Y-111491649D01*
X163477818Y-111479231D01*
X163473621Y-111449142D01*
X163472900Y-111438753D01*
X163472900Y-54076678D01*
X163475373Y-54061512D01*
X163475191Y-54057575D01*
X163475192Y-54057573D01*
X163472980Y-54009727D01*
X163472900Y-54006254D01*
X163472900Y-53847740D01*
X163475771Y-53827160D01*
X163476832Y-53823431D01*
X163473221Y-53784459D01*
X163472900Y-53777521D01*
X163472900Y-53518866D01*
X163474897Y-53501649D01*
X163477818Y-53489231D01*
X163473621Y-53459142D01*
X163472900Y-53448753D01*
X163472900Y-45186678D01*
X163475373Y-45171512D01*
X163475191Y-45167575D01*
X163475192Y-45167573D01*
X163472980Y-45119727D01*
X163472900Y-45116254D01*
X163472900Y-45096932D01*
X163472900Y-45096930D01*
X163472564Y-45095138D01*
X163471364Y-45084796D01*
X163469962Y-45054449D01*
X163464809Y-45042779D01*
X163459683Y-45026225D01*
X163457339Y-45013684D01*
X163457338Y-45013684D01*
X163441339Y-44987843D01*
X163436493Y-44978651D01*
X163424220Y-44950855D01*
X163415197Y-44941832D01*
X163404441Y-44928253D01*
X163397723Y-44917403D01*
X163397721Y-44917401D01*
X163373476Y-44899092D01*
X163365621Y-44892256D01*
X161857798Y-43384433D01*
X161848818Y-43371953D01*
X161810494Y-43337016D01*
X161808002Y-43334637D01*
X161794334Y-43320969D01*
X161794333Y-43320968D01*
X161794330Y-43320965D01*
X161792826Y-43319935D01*
X161784667Y-43313472D01*
X161762218Y-43293008D01*
X161750324Y-43288400D01*
X161734996Y-43280320D01*
X161724466Y-43273107D01*
X161694887Y-43266150D01*
X161684940Y-43263070D01*
X161656622Y-43252100D01*
X161643867Y-43252100D01*
X161626651Y-43250103D01*
X161625444Y-43249819D01*
X161614231Y-43247182D01*
X161614230Y-43247182D01*
X161584143Y-43251379D01*
X161573754Y-43252100D01*
X160881916Y-43252100D01*
X160833578Y-43234507D01*
X160809954Y-43198729D01*
X160801042Y-43169350D01*
X160707916Y-42995122D01*
X160707915Y-42995120D01*
X160707913Y-42995117D01*
X160582589Y-42842410D01*
X160429882Y-42717086D01*
X160323080Y-42660000D01*
X160255650Y-42623958D01*
X160066603Y-42566611D01*
X160066602Y-42566611D01*
X159869999Y-42547246D01*
X159673396Y-42566611D01*
X159484352Y-42623957D01*
X159310117Y-42717086D01*
X159157410Y-42842410D01*
X159032086Y-42995117D01*
X158938957Y-43169352D01*
X158881611Y-43358396D01*
X158862246Y-43554999D01*
X158881611Y-43751603D01*
X158923939Y-43891141D01*
X158938958Y-43940650D01*
X159008137Y-44070075D01*
X159032086Y-44114882D01*
X159157410Y-44267589D01*
X159310117Y-44392913D01*
X159310120Y-44392915D01*
X159310122Y-44392916D01*
X159484350Y-44486042D01*
X159673397Y-44543389D01*
X159850634Y-44560845D01*
X159869999Y-44562753D01*
X159869999Y-44562752D01*
X159870000Y-44562753D01*
X160066603Y-44543389D01*
X160255650Y-44486042D01*
X160429878Y-44392916D01*
X160446226Y-44379500D01*
X160582589Y-44267589D01*
X160707913Y-44114882D01*
X160707913Y-44114881D01*
X160707916Y-44114878D01*
X160801042Y-43940650D01*
X160809954Y-43911270D01*
X160840821Y-43870122D01*
X160881916Y-43857900D01*
X161443387Y-43857900D01*
X161491725Y-43875493D01*
X161496561Y-43879926D01*
X162845074Y-45228439D01*
X162866814Y-45275059D01*
X162867100Y-45281613D01*
X162867100Y-53318385D01*
X162849507Y-53366723D01*
X162845075Y-53371559D01*
X162746561Y-53470074D01*
X162699940Y-53491814D01*
X162693386Y-53492100D01*
X160951916Y-53492100D01*
X160903578Y-53474507D01*
X160879954Y-53438729D01*
X160871042Y-53409350D01*
X160777916Y-53235122D01*
X160777915Y-53235120D01*
X160777913Y-53235117D01*
X160652589Y-53082410D01*
X160499882Y-52957086D01*
X160465484Y-52938700D01*
X160325650Y-52863958D01*
X160284700Y-52851536D01*
X160136603Y-52806611D01*
X159940000Y-52787246D01*
X159743396Y-52806611D01*
X159554352Y-52863957D01*
X159380117Y-52957086D01*
X159227410Y-53082410D01*
X159102086Y-53235117D01*
X159008957Y-53409352D01*
X158951611Y-53598396D01*
X158932246Y-53794999D01*
X158951151Y-53986930D01*
X158951611Y-53991603D01*
X159008958Y-54180650D01*
X159024353Y-54209452D01*
X159102086Y-54354882D01*
X159227410Y-54507589D01*
X159380117Y-54632913D01*
X159380120Y-54632915D01*
X159380122Y-54632916D01*
X159554350Y-54726042D01*
X159743397Y-54783389D01*
X159940000Y-54802753D01*
X160136603Y-54783389D01*
X160325650Y-54726042D01*
X160499878Y-54632916D01*
X160537473Y-54602063D01*
X160652589Y-54507589D01*
X160777913Y-54354882D01*
X160777913Y-54354881D01*
X160777916Y-54354878D01*
X160871042Y-54180650D01*
X160879954Y-54151270D01*
X160910821Y-54110122D01*
X160951916Y-54097900D01*
X162791900Y-54097900D01*
X162840238Y-54115493D01*
X162865958Y-54160042D01*
X162867100Y-54173100D01*
X162867100Y-59708251D01*
X162849507Y-59756589D01*
X162804958Y-59782309D01*
X162754300Y-59773376D01*
X162738726Y-59761425D01*
X162236758Y-59259458D01*
X162234047Y-59256602D01*
X162206948Y-59226505D01*
X162184485Y-59216504D01*
X162174116Y-59210874D01*
X162153496Y-59197483D01*
X162145064Y-59196148D01*
X162126245Y-59190574D01*
X162118442Y-59187100D01*
X162118441Y-59187100D01*
X162093848Y-59187100D01*
X162082084Y-59186174D01*
X162057806Y-59182328D01*
X162049561Y-59184538D01*
X162030098Y-59187100D01*
X158795548Y-59187100D01*
X158747210Y-59169507D01*
X158742374Y-59165074D01*
X157909926Y-58332626D01*
X157888186Y-58286006D01*
X157887900Y-58279452D01*
X157887900Y-56335000D01*
X158932246Y-56335000D01*
X158948202Y-56496989D01*
X158951611Y-56531603D01*
X159008958Y-56720650D01*
X159062325Y-56820493D01*
X159102086Y-56894882D01*
X159227410Y-57047589D01*
X159380117Y-57172913D01*
X159380120Y-57172915D01*
X159380122Y-57172916D01*
X159554350Y-57266042D01*
X159743397Y-57323389D01*
X159940000Y-57342753D01*
X160136603Y-57323389D01*
X160325650Y-57266042D01*
X160499878Y-57172916D01*
X160529453Y-57148645D01*
X160652589Y-57047589D01*
X160777913Y-56894882D01*
X160777913Y-56894881D01*
X160777916Y-56894878D01*
X160871042Y-56720650D01*
X160928389Y-56531603D01*
X160947753Y-56335000D01*
X160928389Y-56138397D01*
X160871042Y-55949350D01*
X160777916Y-55775122D01*
X160777915Y-55775120D01*
X160777913Y-55775117D01*
X160652589Y-55622410D01*
X160499882Y-55497086D01*
X160447065Y-55468855D01*
X160325650Y-55403958D01*
X160324120Y-55403494D01*
X160136603Y-55346611D01*
X159940000Y-55327246D01*
X159743396Y-55346611D01*
X159554352Y-55403957D01*
X159380117Y-55497086D01*
X159227410Y-55622410D01*
X159102086Y-55775117D01*
X159008957Y-55949352D01*
X158951611Y-56138396D01*
X158932246Y-56335000D01*
X157887900Y-56335000D01*
X157887900Y-52120012D01*
X158937600Y-52120012D01*
X158946441Y-52164463D01*
X158980126Y-52214873D01*
X159030536Y-52248558D01*
X159074987Y-52257400D01*
X159863800Y-52257400D01*
X159863800Y-51749185D01*
X159904237Y-51755000D01*
X159975763Y-51755000D01*
X160016200Y-51749185D01*
X160016200Y-52257400D01*
X160805013Y-52257400D01*
X160849463Y-52248558D01*
X160899873Y-52214873D01*
X160933558Y-52164463D01*
X160942400Y-52120012D01*
X160942400Y-51331200D01*
X160438734Y-51331200D01*
X160440000Y-51326889D01*
X160440000Y-51183111D01*
X160438734Y-51178800D01*
X160942400Y-51178800D01*
X160942400Y-50389987D01*
X160933558Y-50345536D01*
X160899873Y-50295126D01*
X160849463Y-50261441D01*
X160805013Y-50252600D01*
X160016200Y-50252600D01*
X160016200Y-50760814D01*
X159975763Y-50755000D01*
X159904237Y-50755000D01*
X159863800Y-50760814D01*
X159863800Y-50252600D01*
X159074987Y-50252600D01*
X159030536Y-50261441D01*
X158980126Y-50295126D01*
X158946441Y-50345536D01*
X158937600Y-50389987D01*
X158937600Y-51178800D01*
X159441266Y-51178800D01*
X159440000Y-51183111D01*
X159440000Y-51326889D01*
X159441266Y-51331200D01*
X158937600Y-51331200D01*
X158937600Y-52120012D01*
X157887900Y-52120012D01*
X157887900Y-49572928D01*
X157888003Y-49568991D01*
X157890123Y-49528551D01*
X157881310Y-49505595D01*
X157877957Y-49494275D01*
X157876009Y-49485110D01*
X157872848Y-49470234D01*
X157867828Y-49463325D01*
X157858463Y-49446075D01*
X157855402Y-49438102D01*
X157838018Y-49420718D01*
X157830355Y-49411747D01*
X157815901Y-49391854D01*
X157808503Y-49387582D01*
X157792933Y-49375634D01*
X155957015Y-47539716D01*
X155935275Y-47493096D01*
X155948589Y-47443409D01*
X155990726Y-47413904D01*
X156041970Y-47418388D01*
X156050845Y-47423280D01*
X156125422Y-47471207D01*
X156125424Y-47471208D01*
X156250383Y-47507900D01*
X156250384Y-47507900D01*
X156380616Y-47507900D01*
X156380617Y-47507900D01*
X156505576Y-47471208D01*
X156615136Y-47400799D01*
X156694805Y-47308854D01*
X156739756Y-47283845D01*
X156751638Y-47282900D01*
X157792527Y-47282900D01*
X157840865Y-47300493D01*
X157849358Y-47308853D01*
X157920364Y-47390799D01*
X158029924Y-47461208D01*
X158154883Y-47497900D01*
X158154884Y-47497900D01*
X158285116Y-47497900D01*
X158285117Y-47497900D01*
X158410076Y-47461208D01*
X158519636Y-47390799D01*
X158604921Y-47292374D01*
X158659023Y-47173909D01*
X158677557Y-47045000D01*
X158659023Y-46916091D01*
X158604921Y-46797626D01*
X158519636Y-46699201D01*
X158410076Y-46628792D01*
X158410075Y-46628791D01*
X158410074Y-46628791D01*
X158329887Y-46605246D01*
X158285117Y-46592100D01*
X158154883Y-46592100D01*
X158126487Y-46600438D01*
X158029925Y-46628791D01*
X157920363Y-46699201D01*
X157832030Y-46801145D01*
X157787079Y-46826155D01*
X157775197Y-46827100D01*
X156751638Y-46827100D01*
X156703300Y-46809507D01*
X156694805Y-46801145D01*
X156674987Y-46778274D01*
X156615136Y-46709201D01*
X156505576Y-46638792D01*
X156505575Y-46638791D01*
X156505574Y-46638791D01*
X156391334Y-46605247D01*
X156380617Y-46602100D01*
X156250383Y-46602100D01*
X156239666Y-46605247D01*
X156125425Y-46638791D01*
X156015860Y-46709203D01*
X156014686Y-46710559D01*
X156007729Y-46714429D01*
X156006768Y-46715047D01*
X156006728Y-46714985D01*
X155969734Y-46735567D01*
X155919224Y-46725829D01*
X155901023Y-46710556D01*
X155885033Y-46692103D01*
X155866616Y-46670848D01*
X155757056Y-46600439D01*
X155757055Y-46600438D01*
X155757054Y-46600438D01*
X155666000Y-46573702D01*
X155632097Y-46563747D01*
X155501863Y-46563747D01*
X155467960Y-46573702D01*
X155376905Y-46600438D01*
X155267342Y-46670849D01*
X155240003Y-46702400D01*
X155195052Y-46727410D01*
X155144542Y-46717674D01*
X155126338Y-46702399D01*
X155117415Y-46692101D01*
X155018901Y-46628791D01*
X155007855Y-46621692D01*
X155007854Y-46621691D01*
X155007853Y-46621691D01*
X154934839Y-46600252D01*
X154882896Y-46585000D01*
X154752662Y-46585000D01*
X154728482Y-46592100D01*
X154627704Y-46621691D01*
X154518140Y-46692103D01*
X154507073Y-46704875D01*
X154462122Y-46729884D01*
X154411612Y-46720147D01*
X154393409Y-46704873D01*
X154391266Y-46702400D01*
X154368093Y-46675656D01*
X154258533Y-46605247D01*
X154258532Y-46605246D01*
X154258531Y-46605246D01*
X154185517Y-46583807D01*
X154133574Y-46568555D01*
X154003340Y-46568555D01*
X153966649Y-46579328D01*
X153878382Y-46605246D01*
X153843594Y-46627603D01*
X153768821Y-46675656D01*
X153768820Y-46675656D01*
X153768820Y-46675657D01*
X153683535Y-46774081D01*
X153629434Y-46892544D01*
X153620070Y-46957677D01*
X153610900Y-47021455D01*
X153614285Y-47045000D01*
X153629434Y-47150365D01*
X153683535Y-47268828D01*
X153683536Y-47268829D01*
X153768821Y-47367254D01*
X153878381Y-47437663D01*
X154003340Y-47474355D01*
X154003341Y-47474355D01*
X154133573Y-47474355D01*
X154133574Y-47474355D01*
X154133972Y-47474238D01*
X154135813Y-47474355D01*
X154144386Y-47474355D01*
X154144386Y-47474899D01*
X154185307Y-47477498D01*
X154208334Y-47493217D01*
X155310074Y-48594956D01*
X155331814Y-48641576D01*
X155332100Y-48648130D01*
X155332100Y-60619451D01*
X155314507Y-60667789D01*
X155310074Y-60672625D01*
X155098503Y-60884196D01*
X155051884Y-60905936D01*
X155045330Y-60906222D01*
X154725260Y-60906222D01*
X154676922Y-60888629D01*
X154668428Y-60880267D01*
X154594206Y-60794610D01*
X154575847Y-60746558D01*
X154592672Y-60697947D01*
X154594177Y-60696152D01*
X154649421Y-60632398D01*
X154703523Y-60513933D01*
X154722057Y-60385024D01*
X154703523Y-60256115D01*
X154649421Y-60137650D01*
X154564136Y-60039225D01*
X154454576Y-59968816D01*
X154454575Y-59968815D01*
X154454574Y-59968815D01*
X154356106Y-59939902D01*
X154329617Y-59932124D01*
X154321913Y-59929862D01*
X154280491Y-59899362D01*
X154267900Y-59857708D01*
X154267900Y-48302936D01*
X154268003Y-48299000D01*
X154270123Y-48258551D01*
X154261310Y-48235595D01*
X154257957Y-48224275D01*
X154254109Y-48206170D01*
X154252848Y-48200234D01*
X154247828Y-48193325D01*
X154238463Y-48176075D01*
X154235402Y-48168102D01*
X154218018Y-48150718D01*
X154210355Y-48141747D01*
X154195901Y-48121854D01*
X154191304Y-48119200D01*
X154188503Y-48117582D01*
X154172933Y-48105634D01*
X153051035Y-46983735D01*
X153029774Y-46941263D01*
X153028555Y-46932788D01*
X153028556Y-46932785D01*
X153010022Y-46803876D01*
X152955920Y-46685411D01*
X152870635Y-46586986D01*
X152761075Y-46516577D01*
X152761074Y-46516576D01*
X152761073Y-46516576D01*
X152688059Y-46495137D01*
X152636116Y-46479885D01*
X152505882Y-46479885D01*
X152394355Y-46512632D01*
X152343019Y-46509369D01*
X152305790Y-46473872D01*
X152300089Y-46422749D01*
X152319994Y-46387305D01*
X152362375Y-46344924D01*
X152408997Y-46323186D01*
X152415549Y-46322900D01*
X158835333Y-46322900D01*
X158883671Y-46340493D01*
X158907295Y-46376271D01*
X158932505Y-46459379D01*
X158938958Y-46480650D01*
X159002986Y-46600439D01*
X159032086Y-46654882D01*
X159157410Y-46807589D01*
X159310117Y-46932913D01*
X159310120Y-46932915D01*
X159310122Y-46932916D01*
X159484350Y-47026042D01*
X159673397Y-47083389D01*
X159870000Y-47102753D01*
X160066603Y-47083389D01*
X160255650Y-47026042D01*
X160429878Y-46932916D01*
X160450380Y-46916091D01*
X160582589Y-46807589D01*
X160707913Y-46654882D01*
X160707913Y-46654881D01*
X160707916Y-46654878D01*
X160801042Y-46480650D01*
X160858389Y-46291603D01*
X160877753Y-46095000D01*
X160858389Y-45898397D01*
X160801042Y-45709350D01*
X160707916Y-45535122D01*
X160707915Y-45535120D01*
X160707913Y-45535117D01*
X160582589Y-45382410D01*
X160429882Y-45257086D01*
X160397451Y-45239751D01*
X160255650Y-45163958D01*
X160109840Y-45119727D01*
X160066603Y-45106611D01*
X159869999Y-45087246D01*
X159673396Y-45106611D01*
X159484352Y-45163957D01*
X159310117Y-45257086D01*
X159157410Y-45382410D01*
X159032086Y-45535117D01*
X158938957Y-45709352D01*
X158907295Y-45813729D01*
X158876427Y-45854878D01*
X158835333Y-45867100D01*
X152297936Y-45867100D01*
X152294000Y-45866997D01*
X152292192Y-45866902D01*
X152253551Y-45864876D01*
X152230589Y-45873690D01*
X152219279Y-45877040D01*
X152195233Y-45882151D01*
X152188327Y-45887169D01*
X152171083Y-45896532D01*
X152163103Y-45899595D01*
X152145709Y-45916989D01*
X152136740Y-45924649D01*
X152116853Y-45939098D01*
X152112583Y-45946494D01*
X152100635Y-45962063D01*
X151665952Y-46396746D01*
X151663098Y-46399456D01*
X151633001Y-46426555D01*
X151623002Y-46449014D01*
X151617374Y-46459379D01*
X151603979Y-46480006D01*
X151602644Y-46488439D01*
X151597070Y-46507258D01*
X151587096Y-46529662D01*
X151583343Y-46527991D01*
X151576003Y-46548159D01*
X151559053Y-46563083D01*
X151521858Y-46586986D01*
X151508334Y-46602594D01*
X151463382Y-46627603D01*
X151412873Y-46617866D01*
X151394670Y-46602592D01*
X151390187Y-46597418D01*
X151369636Y-46573701D01*
X151260076Y-46503292D01*
X151260075Y-46503291D01*
X151260074Y-46503291D01*
X151180361Y-46479885D01*
X151135117Y-46466600D01*
X151004883Y-46466600D01*
X150968191Y-46477373D01*
X150879925Y-46503291D01*
X150770363Y-46573701D01*
X150690695Y-46665645D01*
X150645744Y-46690655D01*
X150633862Y-46691600D01*
X147873436Y-46691600D01*
X147869500Y-46691497D01*
X147867692Y-46691402D01*
X147829051Y-46689376D01*
X147806097Y-46698188D01*
X147794786Y-46701538D01*
X147770735Y-46706650D01*
X147763825Y-46711671D01*
X147746582Y-46721033D01*
X147738604Y-46724096D01*
X147721213Y-46741486D01*
X147712244Y-46749146D01*
X147692353Y-46763598D01*
X147688082Y-46770996D01*
X147676134Y-46786565D01*
X146834456Y-47628242D01*
X146831602Y-47630952D01*
X146801505Y-47658051D01*
X146791506Y-47680510D01*
X146785878Y-47690875D01*
X146772483Y-47711502D01*
X146771148Y-47719935D01*
X146765574Y-47738754D01*
X146762100Y-47746557D01*
X146762100Y-47771152D01*
X146761174Y-47782916D01*
X146757328Y-47807192D01*
X146759538Y-47815437D01*
X146762100Y-47834901D01*
X146762100Y-50477062D01*
X146761997Y-50480998D01*
X146759876Y-50521447D01*
X146768688Y-50544400D01*
X146772040Y-50555716D01*
X146777152Y-50579766D01*
X146782169Y-50586672D01*
X146791535Y-50603921D01*
X146794597Y-50611896D01*
X146811986Y-50629285D01*
X146819644Y-50638251D01*
X146834099Y-50658146D01*
X146841493Y-50662415D01*
X146857065Y-50674365D01*
X147343240Y-51160540D01*
X147345951Y-51163396D01*
X147373051Y-51193494D01*
X147395513Y-51203494D01*
X147405883Y-51209125D01*
X147426503Y-51222516D01*
X147434929Y-51223850D01*
X147453757Y-51229427D01*
X147461557Y-51232900D01*
X147461558Y-51232900D01*
X147486152Y-51232900D01*
X147497916Y-51233826D01*
X147522193Y-51237671D01*
X147522193Y-51237670D01*
X147522194Y-51237671D01*
X147526983Y-51236387D01*
X147530439Y-51235462D01*
X147549902Y-51232900D01*
X151574453Y-51232900D01*
X151622791Y-51250493D01*
X151627615Y-51254914D01*
X151940075Y-51567374D01*
X151961814Y-51613992D01*
X151962100Y-51620546D01*
X151962100Y-54209452D01*
X151944507Y-54257790D01*
X151940074Y-54262626D01*
X151717626Y-54485074D01*
X151671006Y-54506814D01*
X151664452Y-54507100D01*
X149687936Y-54507100D01*
X149684000Y-54506997D01*
X149682192Y-54506902D01*
X149643551Y-54504876D01*
X149620589Y-54513690D01*
X149609279Y-54517040D01*
X149585233Y-54522151D01*
X149578327Y-54527169D01*
X149561083Y-54536532D01*
X149553103Y-54539595D01*
X149535709Y-54556989D01*
X149526740Y-54564649D01*
X149506853Y-54579098D01*
X149502583Y-54586494D01*
X149490635Y-54602063D01*
X149029456Y-55063242D01*
X149026602Y-55065952D01*
X148996505Y-55093051D01*
X148986506Y-55115510D01*
X148980878Y-55125875D01*
X148967483Y-55146502D01*
X148966148Y-55154935D01*
X148960574Y-55173754D01*
X148957100Y-55181557D01*
X148957100Y-55206152D01*
X148956174Y-55217916D01*
X148952328Y-55242192D01*
X148954538Y-55250437D01*
X148957100Y-55269901D01*
X148957100Y-56284451D01*
X148939507Y-56332789D01*
X148935075Y-56337625D01*
X148847625Y-56425074D01*
X148801007Y-56446814D01*
X148794452Y-56447100D01*
X143067937Y-56447100D01*
X143064001Y-56446997D01*
X143062092Y-56446896D01*
X143023551Y-56444876D01*
X143000593Y-56453689D01*
X142989282Y-56457039D01*
X142965234Y-56462150D01*
X142958327Y-56467169D01*
X142941083Y-56476532D01*
X142933103Y-56479595D01*
X142915709Y-56496989D01*
X142906740Y-56504649D01*
X142886853Y-56519098D01*
X142882583Y-56526494D01*
X142870635Y-56542063D01*
X142644456Y-56768242D01*
X142641602Y-56770952D01*
X142611505Y-56798051D01*
X142601506Y-56820510D01*
X142595878Y-56830875D01*
X142582483Y-56851502D01*
X142581148Y-56859935D01*
X142575574Y-56878754D01*
X142572100Y-56886557D01*
X142572100Y-56911152D01*
X142571174Y-56922916D01*
X142567328Y-56947192D01*
X142569538Y-56955437D01*
X142572100Y-56974901D01*
X142572100Y-57159558D01*
X142554507Y-57207896D01*
X142509958Y-57233616D01*
X142459300Y-57224683D01*
X142428496Y-57190798D01*
X142409921Y-57150126D01*
X142345825Y-57076155D01*
X142324636Y-57051701D01*
X142215076Y-56981292D01*
X142215075Y-56981291D01*
X142215074Y-56981291D01*
X142139842Y-56959201D01*
X142090117Y-56944600D01*
X141959883Y-56944600D01*
X141942855Y-56949600D01*
X141834925Y-56981291D01*
X141786816Y-57012209D01*
X141725364Y-57051701D01*
X141725363Y-57051701D01*
X141716268Y-57057547D01*
X141715759Y-57056756D01*
X141680896Y-57076155D01*
X141669013Y-57077100D01*
X137796138Y-57077100D01*
X137747800Y-57059507D01*
X137739305Y-57051145D01*
X137719163Y-57027900D01*
X137659636Y-56959201D01*
X137550076Y-56888792D01*
X137550075Y-56888791D01*
X137550074Y-56888791D01*
X137451800Y-56859935D01*
X137425117Y-56852100D01*
X137294883Y-56852100D01*
X137268200Y-56859935D01*
X137169925Y-56888791D01*
X137120596Y-56920493D01*
X137060364Y-56959201D01*
X137060363Y-56959201D01*
X137060363Y-56959202D01*
X136975078Y-57057626D01*
X136920977Y-57176089D01*
X136902443Y-57305000D01*
X132577900Y-57305000D01*
X132577900Y-52275546D01*
X132595493Y-52227208D01*
X132599915Y-52222383D01*
X135655558Y-49166740D01*
X135658374Y-49164066D01*
X135688494Y-49136949D01*
X135688495Y-49136947D01*
X135698497Y-49114482D01*
X135704130Y-49104108D01*
X135707931Y-49098253D01*
X135717516Y-49083496D01*
X135718852Y-49075059D01*
X135724428Y-49056239D01*
X135727900Y-49048441D01*
X135727900Y-49023852D01*
X135728826Y-49012087D01*
X135730635Y-49000665D01*
X135732672Y-48987806D01*
X135730462Y-48979556D01*
X135727900Y-48960094D01*
X135727900Y-47600000D01*
X135892443Y-47600000D01*
X135910977Y-47728910D01*
X135965078Y-47847373D01*
X135965079Y-47847374D01*
X136050364Y-47945799D01*
X136087556Y-47969700D01*
X136118708Y-48010634D01*
X136122100Y-48032963D01*
X136122100Y-54357062D01*
X136121997Y-54360998D01*
X136119876Y-54401447D01*
X136128688Y-54424400D01*
X136132040Y-54435716D01*
X136137152Y-54459766D01*
X136142169Y-54466672D01*
X136151535Y-54483921D01*
X136154597Y-54491896D01*
X136171986Y-54509285D01*
X136179644Y-54518251D01*
X136194099Y-54538146D01*
X136201493Y-54542415D01*
X136217066Y-54554365D01*
X137033231Y-55370530D01*
X137035942Y-55373386D01*
X137063051Y-55403494D01*
X137085517Y-55413497D01*
X137095884Y-55419125D01*
X137103252Y-55423910D01*
X137116504Y-55432516D01*
X137124932Y-55433851D01*
X137143750Y-55439424D01*
X137151558Y-55442900D01*
X137176147Y-55442900D01*
X137187910Y-55443825D01*
X137196104Y-55445123D01*
X137212193Y-55447672D01*
X137212193Y-55447671D01*
X137212194Y-55447672D01*
X137220442Y-55445461D01*
X137239905Y-55442900D01*
X137893862Y-55442900D01*
X137942200Y-55460493D01*
X137950695Y-55468855D01*
X138020014Y-55548855D01*
X138030364Y-55560799D01*
X138139924Y-55631208D01*
X138264883Y-55667900D01*
X138264884Y-55667900D01*
X138395116Y-55667900D01*
X138395117Y-55667900D01*
X138520076Y-55631208D01*
X138629636Y-55560799D01*
X138714921Y-55462374D01*
X138714921Y-55462373D01*
X138717970Y-55458855D01*
X138762921Y-55433845D01*
X138774803Y-55432900D01*
X141268362Y-55432900D01*
X141316700Y-55450493D01*
X141325195Y-55458855D01*
X141403179Y-55548855D01*
X141404864Y-55550799D01*
X141514424Y-55621208D01*
X141639383Y-55657900D01*
X141639384Y-55657900D01*
X141769616Y-55657900D01*
X141769617Y-55657900D01*
X141894576Y-55621208D01*
X142004136Y-55550799D01*
X142089421Y-55452374D01*
X142143523Y-55333909D01*
X142162057Y-55205000D01*
X142143523Y-55076091D01*
X142089421Y-54957626D01*
X142004136Y-54859201D01*
X141894576Y-54788792D01*
X141894575Y-54788791D01*
X141894574Y-54788791D01*
X141803673Y-54762100D01*
X141769617Y-54752100D01*
X141639383Y-54752100D01*
X141605327Y-54762100D01*
X141514425Y-54788791D01*
X141404863Y-54859201D01*
X141343168Y-54930403D01*
X141328053Y-54947847D01*
X141325195Y-54951145D01*
X141280244Y-54976155D01*
X141268362Y-54977100D01*
X138757473Y-54977100D01*
X138709135Y-54959507D01*
X138700640Y-54951145D01*
X138697782Y-54947847D01*
X138629636Y-54869201D01*
X138520076Y-54798792D01*
X138520075Y-54798791D01*
X138520074Y-54798791D01*
X138447060Y-54777352D01*
X138395117Y-54762100D01*
X138264883Y-54762100D01*
X138228191Y-54772873D01*
X138139925Y-54798791D01*
X138030363Y-54869201D01*
X137974682Y-54933462D01*
X137962218Y-54947847D01*
X137950695Y-54961145D01*
X137905744Y-54986155D01*
X137893862Y-54987100D01*
X137325548Y-54987100D01*
X137277210Y-54969507D01*
X137272374Y-54965074D01*
X136599926Y-54292625D01*
X136578186Y-54246005D01*
X136577900Y-54239451D01*
X136577900Y-53284499D01*
X150052443Y-53284499D01*
X150070977Y-53413410D01*
X150125078Y-53531873D01*
X150125079Y-53531874D01*
X150210364Y-53630299D01*
X150319924Y-53700708D01*
X150444883Y-53737400D01*
X150444884Y-53737400D01*
X150575116Y-53737400D01*
X150575117Y-53737400D01*
X150700076Y-53700708D01*
X150809636Y-53630299D01*
X150894921Y-53531874D01*
X150949023Y-53413409D01*
X150967557Y-53284500D01*
X150949023Y-53155591D01*
X150894921Y-53037126D01*
X150809636Y-52938701D01*
X150809635Y-52938700D01*
X150772443Y-52914798D01*
X150741291Y-52873864D01*
X150737900Y-52851536D01*
X150737900Y-52667963D01*
X150755493Y-52619625D01*
X150772442Y-52604701D01*
X150809636Y-52580799D01*
X150894921Y-52482374D01*
X150949023Y-52363909D01*
X150967557Y-52235000D01*
X150949023Y-52106091D01*
X150894921Y-51987626D01*
X150809636Y-51889201D01*
X150700076Y-51818792D01*
X150700075Y-51818791D01*
X150700074Y-51818791D01*
X150627060Y-51797352D01*
X150575117Y-51782100D01*
X150444883Y-51782100D01*
X150408192Y-51792873D01*
X150319925Y-51818791D01*
X150265143Y-51853996D01*
X150210364Y-51889201D01*
X150210363Y-51889201D01*
X150210363Y-51889202D01*
X150125078Y-51987626D01*
X150070977Y-52106089D01*
X150052443Y-52235000D01*
X150070977Y-52363910D01*
X150125078Y-52482373D01*
X150125079Y-52482374D01*
X150210364Y-52580799D01*
X150247556Y-52604700D01*
X150278708Y-52645634D01*
X150282100Y-52667963D01*
X150282100Y-52851536D01*
X150264507Y-52899874D01*
X150247557Y-52914798D01*
X150210364Y-52938700D01*
X150125078Y-53037126D01*
X150070977Y-53155589D01*
X150052443Y-53284499D01*
X136577900Y-53284499D01*
X136577900Y-48032963D01*
X136595493Y-47984625D01*
X136612442Y-47969701D01*
X136649636Y-47945799D01*
X136734921Y-47847374D01*
X136789023Y-47728909D01*
X136807557Y-47600000D01*
X136789023Y-47471091D01*
X136734921Y-47352626D01*
X136649636Y-47254201D01*
X136540076Y-47183792D01*
X136540075Y-47183791D01*
X136540074Y-47183791D01*
X136467060Y-47162352D01*
X136415117Y-47147100D01*
X136284883Y-47147100D01*
X136248192Y-47157873D01*
X136159925Y-47183791D01*
X136119856Y-47209542D01*
X136050364Y-47254201D01*
X136050363Y-47254201D01*
X136050363Y-47254202D01*
X135965078Y-47352626D01*
X135910977Y-47471089D01*
X135892443Y-47600000D01*
X135727900Y-47600000D01*
X135727900Y-43925548D01*
X135745493Y-43877210D01*
X135749926Y-43872373D01*
X135922375Y-43699925D01*
X135968995Y-43678186D01*
X135975549Y-43677900D01*
X137924452Y-43677900D01*
X137972790Y-43695493D01*
X137977626Y-43699925D01*
X138115668Y-43837966D01*
X138137408Y-43884587D01*
X138137694Y-43891141D01*
X138137694Y-43946536D01*
X138120101Y-43994874D01*
X138103151Y-44009798D01*
X138065958Y-44033700D01*
X137980672Y-44132126D01*
X137926571Y-44250589D01*
X137908037Y-44379500D01*
X137926571Y-44508410D01*
X137980672Y-44626873D01*
X137980673Y-44626874D01*
X138065958Y-44725299D01*
X138175518Y-44795708D01*
X138300477Y-44832400D01*
X138300478Y-44832400D01*
X138430710Y-44832400D01*
X138430711Y-44832400D01*
X138555670Y-44795708D01*
X138665230Y-44725299D01*
X138683512Y-44704198D01*
X138728461Y-44679189D01*
X138778972Y-44688923D01*
X138797177Y-44704198D01*
X138815461Y-44725299D01*
X138925021Y-44795708D01*
X139049980Y-44832400D01*
X139049981Y-44832400D01*
X139180213Y-44832400D01*
X139180214Y-44832400D01*
X139305173Y-44795708D01*
X139414733Y-44725299D01*
X139500018Y-44626874D01*
X139554120Y-44508409D01*
X139572654Y-44379500D01*
X139554120Y-44250591D01*
X139500018Y-44132126D01*
X139414733Y-44033701D01*
X139414732Y-44033700D01*
X139377540Y-44009798D01*
X139346388Y-43968864D01*
X139342997Y-43946536D01*
X139342997Y-43623025D01*
X139343100Y-43619088D01*
X139345220Y-43578648D01*
X139336407Y-43555692D01*
X139333054Y-43544372D01*
X139327945Y-43520331D01*
X139322925Y-43513422D01*
X139313560Y-43496172D01*
X139310500Y-43488202D01*
X139310500Y-43488201D01*
X139293109Y-43470810D01*
X139285451Y-43461843D01*
X139270999Y-43441951D01*
X139263603Y-43437681D01*
X139248031Y-43425731D01*
X138838574Y-43016274D01*
X138816834Y-42969654D01*
X138830148Y-42919967D01*
X138872285Y-42890462D01*
X138891748Y-42887900D01*
X139483862Y-42887900D01*
X139532200Y-42905493D01*
X139540693Y-42913853D01*
X139620364Y-43005799D01*
X139729924Y-43076208D01*
X139854883Y-43112900D01*
X139854884Y-43112900D01*
X139985116Y-43112900D01*
X139985117Y-43112900D01*
X140110076Y-43076208D01*
X140219636Y-43005799D01*
X140304921Y-42907374D01*
X140359023Y-42788909D01*
X140377557Y-42660000D01*
X140359023Y-42531091D01*
X140304921Y-42412626D01*
X140219636Y-42314201D01*
X140110076Y-42243792D01*
X140110075Y-42243791D01*
X140110074Y-42243791D01*
X140037060Y-42222352D01*
X139985117Y-42207100D01*
X139854883Y-42207100D01*
X139818192Y-42217873D01*
X139729925Y-42243791D01*
X139620363Y-42314201D01*
X139540695Y-42406145D01*
X139495744Y-42431155D01*
X139483862Y-42432100D01*
X135552929Y-42432100D01*
X135548992Y-42431997D01*
X135508551Y-42429876D01*
X135485597Y-42438688D01*
X135474286Y-42442038D01*
X135450235Y-42447150D01*
X135443325Y-42452171D01*
X135426082Y-42461533D01*
X135418104Y-42464596D01*
X135400713Y-42481986D01*
X135391744Y-42489646D01*
X135371853Y-42504098D01*
X135367582Y-42511496D01*
X135355634Y-42527065D01*
X134329456Y-43553242D01*
X134326602Y-43555952D01*
X134296505Y-43583051D01*
X134286506Y-43605510D01*
X134280878Y-43615875D01*
X134267483Y-43636502D01*
X134266148Y-43644935D01*
X134260574Y-43663754D01*
X134257100Y-43671557D01*
X134257100Y-43696152D01*
X134256174Y-43707916D01*
X134252328Y-43732192D01*
X134254538Y-43740437D01*
X134257100Y-43759901D01*
X134257100Y-48032036D01*
X134239507Y-48080374D01*
X134222557Y-48095298D01*
X134185364Y-48119200D01*
X134100078Y-48217626D01*
X134045977Y-48336089D01*
X134027443Y-48464999D01*
X134045977Y-48593910D01*
X134100078Y-48712373D01*
X134100079Y-48712374D01*
X134185364Y-48810799D01*
X134294924Y-48881208D01*
X134419883Y-48917900D01*
X134419884Y-48917900D01*
X134550115Y-48917900D01*
X134550117Y-48917900D01*
X134671486Y-48882262D01*
X134722820Y-48885524D01*
X134760049Y-48921022D01*
X134765751Y-48972145D01*
X134745845Y-49007590D01*
X131894456Y-51858978D01*
X131891602Y-51861688D01*
X131861505Y-51888787D01*
X131851506Y-51911246D01*
X131845878Y-51921611D01*
X131832483Y-51942238D01*
X131831148Y-51950671D01*
X131825574Y-51969490D01*
X131822100Y-51977293D01*
X131822100Y-52001888D01*
X131821174Y-52013652D01*
X131817328Y-52037928D01*
X131819538Y-52046173D01*
X131822100Y-52065637D01*
X131822100Y-81674450D01*
X131804507Y-81722788D01*
X131800074Y-81727624D01*
X131671274Y-81856424D01*
X131624654Y-81878164D01*
X131574967Y-81864850D01*
X131545462Y-81822713D01*
X131542900Y-81803250D01*
X131542900Y-71382913D01*
X131542900Y-60879360D01*
X131549694Y-60848129D01*
X131579023Y-60783909D01*
X131597557Y-60655000D01*
X131579023Y-60526091D01*
X131524921Y-60407626D01*
X131439636Y-60309201D01*
X131330076Y-60238792D01*
X131330075Y-60238791D01*
X131330074Y-60238791D01*
X131257060Y-60217352D01*
X131205117Y-60202100D01*
X131074883Y-60202100D01*
X131038191Y-60212873D01*
X130949925Y-60238791D01*
X130918492Y-60258992D01*
X130840364Y-60309201D01*
X130840363Y-60309201D01*
X130840363Y-60309202D01*
X130755078Y-60407626D01*
X130700977Y-60526089D01*
X130682443Y-60655000D01*
X130700977Y-60783911D01*
X130730303Y-60848126D01*
X130737099Y-60879365D01*
X130737099Y-89296965D01*
X130719506Y-89345303D01*
X130715073Y-89350139D01*
X129725917Y-90339295D01*
X129679297Y-90361035D01*
X129629610Y-90347721D01*
X129604339Y-90317360D01*
X129571080Y-90244533D01*
X129485793Y-90146106D01*
X129448601Y-90122204D01*
X129417449Y-90081270D01*
X129414058Y-90058942D01*
X129414058Y-82894094D01*
X129414161Y-82890158D01*
X129416281Y-82849709D01*
X129407468Y-82826753D01*
X129404115Y-82815433D01*
X129399006Y-82791392D01*
X129393986Y-82784483D01*
X129384621Y-82767233D01*
X129381561Y-82759263D01*
X129381561Y-82759262D01*
X129364170Y-82741871D01*
X129356512Y-82732904D01*
X129342059Y-82713012D01*
X129334667Y-82708744D01*
X129319092Y-82696793D01*
X129041748Y-82419448D01*
X129039038Y-82416592D01*
X129011948Y-82386505D01*
X128989485Y-82376504D01*
X128979116Y-82370874D01*
X128958496Y-82357483D01*
X128950064Y-82356148D01*
X128931245Y-82350574D01*
X128923442Y-82347100D01*
X128923441Y-82347100D01*
X128898848Y-82347100D01*
X128887084Y-82346174D01*
X128847018Y-82339828D01*
X128847558Y-82336412D01*
X128824437Y-82334385D01*
X128799398Y-82315482D01*
X128724636Y-82229201D01*
X128673907Y-82196600D01*
X128615076Y-82158792D01*
X128615075Y-82158791D01*
X128615074Y-82158791D01*
X128542060Y-82137352D01*
X128490117Y-82122100D01*
X128359883Y-82122100D01*
X128323191Y-82132873D01*
X128234925Y-82158791D01*
X128222874Y-82166536D01*
X128125364Y-82229201D01*
X128125363Y-82229201D01*
X128125363Y-82229202D01*
X128040078Y-82327626D01*
X127985977Y-82446089D01*
X127967443Y-82575000D01*
X127985977Y-82703910D01*
X128040078Y-82822373D01*
X128040079Y-82822374D01*
X128125364Y-82920799D01*
X128234924Y-82991208D01*
X128359883Y-83027900D01*
X128359884Y-83027900D01*
X128490116Y-83027900D01*
X128490117Y-83027900D01*
X128615076Y-82991208D01*
X128724636Y-82920799D01*
X128752456Y-82888691D01*
X128797404Y-82863682D01*
X128847915Y-82873416D01*
X128862462Y-82884762D01*
X128936232Y-82958531D01*
X128957972Y-83005151D01*
X128958258Y-83011706D01*
X128958258Y-90058942D01*
X128940665Y-90107280D01*
X128923715Y-90122204D01*
X128886522Y-90146106D01*
X128801236Y-90244532D01*
X128747135Y-90362995D01*
X128728601Y-90491905D01*
X128747135Y-90620816D01*
X128801236Y-90739279D01*
X128801237Y-90739280D01*
X128886522Y-90837705D01*
X128923714Y-90861606D01*
X128954866Y-90902540D01*
X128958258Y-90924869D01*
X128958258Y-91388294D01*
X128940665Y-91436632D01*
X128936232Y-91441468D01*
X127802626Y-92575074D01*
X127756006Y-92596814D01*
X127749452Y-92597100D01*
X124636138Y-92597100D01*
X124587800Y-92579507D01*
X124579305Y-92571145D01*
X124555969Y-92544214D01*
X124499636Y-92479201D01*
X124390076Y-92408792D01*
X124390075Y-92408791D01*
X124390074Y-92408791D01*
X124317060Y-92387352D01*
X124265117Y-92372100D01*
X124134883Y-92372100D01*
X124098192Y-92382873D01*
X124009925Y-92408791D01*
X123974805Y-92431361D01*
X123900364Y-92479201D01*
X123900363Y-92479201D01*
X123900363Y-92479202D01*
X123815078Y-92577626D01*
X123760977Y-92696089D01*
X123742443Y-92825000D01*
X123760977Y-92953910D01*
X123815078Y-93072373D01*
X123815079Y-93072374D01*
X123900364Y-93170799D01*
X124009924Y-93241208D01*
X124134883Y-93277900D01*
X124134884Y-93277900D01*
X124265116Y-93277900D01*
X124265117Y-93277900D01*
X124390076Y-93241208D01*
X124499636Y-93170799D01*
X124579305Y-93078854D01*
X124624256Y-93053845D01*
X124636138Y-93052900D01*
X127867064Y-93052900D01*
X127871000Y-93053003D01*
X127911448Y-93055123D01*
X127934406Y-93046308D01*
X127945706Y-93042961D01*
X127969766Y-93037848D01*
X127976674Y-93032828D01*
X127993920Y-93023464D01*
X128001896Y-93020403D01*
X128019290Y-93003008D01*
X128028249Y-92995356D01*
X128048146Y-92980901D01*
X128052414Y-92973507D01*
X128064362Y-92957936D01*
X128478086Y-92544214D01*
X128478086Y-92544212D01*
X128484274Y-92538025D01*
X128484278Y-92538020D01*
X129258726Y-91763572D01*
X129305346Y-91741832D01*
X129355033Y-91755146D01*
X129384538Y-91797283D01*
X129387100Y-91816746D01*
X129387099Y-102111966D01*
X129369506Y-102160304D01*
X129365073Y-102165140D01*
X125800140Y-105730074D01*
X125753520Y-105751814D01*
X125746966Y-105752100D01*
X123572865Y-105752100D01*
X123532211Y-105740163D01*
X123530079Y-105738793D01*
X123530076Y-105738792D01*
X123405117Y-105702100D01*
X123274883Y-105702100D01*
X123238191Y-105712873D01*
X123149925Y-105738791D01*
X123129661Y-105751814D01*
X123040364Y-105809201D01*
X123040363Y-105809201D01*
X123040363Y-105809202D01*
X122955078Y-105907626D01*
X122900977Y-106026089D01*
X122882443Y-106155000D01*
X122107442Y-106155000D01*
X122100500Y-102899900D01*
X122100500Y-102713293D01*
X122078686Y-102491818D01*
X122078428Y-102488388D01*
X122076858Y-102458429D01*
X122076519Y-102457958D01*
X122074072Y-102444968D01*
X122063899Y-102341678D01*
X122013952Y-102090581D01*
X122013439Y-102087710D01*
X122010953Y-102072017D01*
X122008801Y-102064687D01*
X121991049Y-101975440D01*
X121882653Y-101618106D01*
X121875153Y-101600000D01*
X122942051Y-101600000D01*
X122942212Y-101602456D01*
X122956797Y-101824984D01*
X122962224Y-101907774D01*
X122962704Y-101910188D01*
X122962705Y-101910194D01*
X123021915Y-102207868D01*
X123021918Y-102207880D01*
X123022396Y-102210282D01*
X123023185Y-102212609D01*
X123023187Y-102212613D01*
X123119109Y-102495192D01*
X123121539Y-102502348D01*
X123257956Y-102778975D01*
X123259322Y-102781019D01*
X123259323Y-102781021D01*
X123400618Y-102992484D01*
X123429313Y-103035428D01*
X123430939Y-103037282D01*
X123540497Y-103162210D01*
X123632678Y-103267322D01*
X123864572Y-103470687D01*
X124121025Y-103642044D01*
X124397652Y-103778461D01*
X124689718Y-103877604D01*
X124992226Y-103937776D01*
X125300000Y-103957949D01*
X125607774Y-103937776D01*
X125910282Y-103877604D01*
X126202348Y-103778461D01*
X126478975Y-103642044D01*
X126735428Y-103470687D01*
X126967322Y-103267322D01*
X127170687Y-103035428D01*
X127342044Y-102778975D01*
X127478461Y-102502348D01*
X127577604Y-102210282D01*
X127637776Y-101907774D01*
X127657949Y-101600000D01*
X127637776Y-101292226D01*
X127577604Y-100989718D01*
X127478461Y-100697652D01*
X127342044Y-100421026D01*
X127170687Y-100164572D01*
X127098209Y-100081927D01*
X126968940Y-99934523D01*
X126967322Y-99932678D01*
X126735428Y-99729313D01*
X126596181Y-99636271D01*
X126481021Y-99559323D01*
X126481018Y-99559321D01*
X126478975Y-99557956D01*
X126202348Y-99421539D01*
X126200018Y-99420748D01*
X126200013Y-99420746D01*
X125912613Y-99323187D01*
X125912609Y-99323185D01*
X125910282Y-99322396D01*
X125907880Y-99321918D01*
X125907868Y-99321915D01*
X125610194Y-99262705D01*
X125610188Y-99262704D01*
X125607774Y-99262224D01*
X125605317Y-99262062D01*
X125605310Y-99262062D01*
X125302456Y-99242212D01*
X125300000Y-99242051D01*
X125297544Y-99242212D01*
X124994689Y-99262062D01*
X124994680Y-99262063D01*
X124992226Y-99262224D01*
X124989813Y-99262703D01*
X124989805Y-99262705D01*
X124692131Y-99321915D01*
X124692116Y-99321918D01*
X124689718Y-99322396D01*
X124687394Y-99323184D01*
X124687386Y-99323187D01*
X124399986Y-99420746D01*
X124399976Y-99420749D01*
X124397652Y-99421539D01*
X124395447Y-99422626D01*
X124395443Y-99422628D01*
X124123233Y-99556867D01*
X124123230Y-99556869D01*
X124121026Y-99557956D01*
X124118990Y-99559316D01*
X124118982Y-99559321D01*
X123866615Y-99727947D01*
X123866605Y-99727954D01*
X123864572Y-99729313D01*
X123862730Y-99730927D01*
X123862720Y-99730936D01*
X123634523Y-99931059D01*
X123634515Y-99931066D01*
X123632678Y-99932678D01*
X123631066Y-99934515D01*
X123631059Y-99934523D01*
X123430936Y-100162720D01*
X123430927Y-100162730D01*
X123429313Y-100164572D01*
X123427954Y-100166605D01*
X123427947Y-100166615D01*
X123259321Y-100418982D01*
X123259316Y-100418990D01*
X123257956Y-100421026D01*
X123256871Y-100423225D01*
X123256867Y-100423233D01*
X123122628Y-100695443D01*
X123121539Y-100697652D01*
X123120749Y-100699976D01*
X123120746Y-100699986D01*
X123023187Y-100987386D01*
X123023184Y-100987394D01*
X123022396Y-100989718D01*
X123021918Y-100992116D01*
X123021915Y-100992131D01*
X122962705Y-101289805D01*
X122962703Y-101289813D01*
X122962224Y-101292226D01*
X122962063Y-101294680D01*
X122962062Y-101294689D01*
X122952145Y-101445994D01*
X122942051Y-101600000D01*
X121875153Y-101600000D01*
X121739754Y-101273117D01*
X121563729Y-100943796D01*
X121356271Y-100633315D01*
X121208821Y-100453646D01*
X121120549Y-100346085D01*
X121120547Y-100346082D01*
X121119381Y-100344662D01*
X120855338Y-100080619D01*
X120819474Y-100051186D01*
X120568115Y-99844902D01*
X120568107Y-99844896D01*
X120566685Y-99843729D01*
X120565141Y-99842697D01*
X120257746Y-99637301D01*
X120257741Y-99637298D01*
X120256204Y-99636271D01*
X120254579Y-99635402D01*
X120254575Y-99635400D01*
X119928511Y-99461116D01*
X119928508Y-99461114D01*
X119926883Y-99460246D01*
X119581894Y-99317347D01*
X119580141Y-99316815D01*
X119580132Y-99316812D01*
X119226319Y-99209484D01*
X119226307Y-99209481D01*
X119224560Y-99208951D01*
X119217298Y-99207506D01*
X119135314Y-99191198D01*
X119133101Y-99189855D01*
X119112268Y-99186555D01*
X119109363Y-99186036D01*
X118860136Y-99136461D01*
X118860119Y-99136458D01*
X118858322Y-99136101D01*
X118856497Y-99135921D01*
X118856482Y-99135919D01*
X118755031Y-99125927D01*
X118750161Y-99123591D01*
X118711596Y-99121570D01*
X118708161Y-99121311D01*
X118567829Y-99107489D01*
X118521449Y-99085242D01*
X118500219Y-99038387D01*
X118500000Y-99032651D01*
X118500000Y-87175200D01*
X118517593Y-87126862D01*
X118562142Y-87101142D01*
X118575200Y-87100000D01*
X123600000Y-87100000D01*
X123600000Y-86000000D01*
X122275200Y-86000000D01*
X122226862Y-85982407D01*
X122201142Y-85937858D01*
X122200000Y-85924800D01*
X122200000Y-83800000D01*
X118575200Y-83800000D01*
X118526862Y-83782407D01*
X118501142Y-83737858D01*
X118500000Y-83724800D01*
X118499999Y-79120000D01*
X120477305Y-79120000D01*
X120496416Y-79277398D01*
X120533735Y-79375798D01*
X120552640Y-79425646D01*
X120642708Y-79556132D01*
X120761387Y-79661272D01*
X120901778Y-79734956D01*
X121055724Y-79772900D01*
X121214276Y-79772900D01*
X121368222Y-79734956D01*
X121508613Y-79661272D01*
X121627292Y-79556132D01*
X121708112Y-79439043D01*
X121750050Y-79409257D01*
X121801323Y-79413396D01*
X121831887Y-79439043D01*
X121912708Y-79556132D01*
X122031387Y-79661272D01*
X122171778Y-79734956D01*
X122325724Y-79772900D01*
X122484276Y-79772900D01*
X122638222Y-79734956D01*
X122778613Y-79661272D01*
X122897292Y-79556132D01*
X122978112Y-79439043D01*
X123020050Y-79409257D01*
X123071323Y-79413396D01*
X123101887Y-79439043D01*
X123182708Y-79556132D01*
X123301387Y-79661272D01*
X123441778Y-79734956D01*
X123595724Y-79772900D01*
X123754276Y-79772900D01*
X123908222Y-79734956D01*
X124048613Y-79661272D01*
X124167292Y-79556132D01*
X124248112Y-79439043D01*
X124290050Y-79409257D01*
X124341323Y-79413396D01*
X124371887Y-79439043D01*
X124452708Y-79556132D01*
X124571387Y-79661272D01*
X124711778Y-79734956D01*
X124865724Y-79772900D01*
X125024276Y-79772900D01*
X125178222Y-79734956D01*
X125318613Y-79661272D01*
X125437292Y-79556132D01*
X125518112Y-79439043D01*
X125560050Y-79409257D01*
X125611323Y-79413396D01*
X125641887Y-79439043D01*
X125722708Y-79556132D01*
X125841387Y-79661272D01*
X125981778Y-79734956D01*
X126135724Y-79772900D01*
X126294276Y-79772900D01*
X126448222Y-79734956D01*
X126588613Y-79661272D01*
X126707292Y-79556132D01*
X126797360Y-79425646D01*
X126853584Y-79277397D01*
X126872695Y-79120000D01*
X126853584Y-78962603D01*
X126797360Y-78814354D01*
X126707292Y-78683868D01*
X126588613Y-78578728D01*
X126588611Y-78578726D01*
X126536899Y-78551586D01*
X126502274Y-78513544D01*
X126500203Y-78462146D01*
X126531654Y-78421442D01*
X126536899Y-78418414D01*
X126588611Y-78391273D01*
X126588610Y-78391273D01*
X126588613Y-78391272D01*
X126707292Y-78286132D01*
X126797360Y-78155646D01*
X126853584Y-78007397D01*
X126872695Y-77850000D01*
X126853584Y-77692603D01*
X126797360Y-77544354D01*
X126707292Y-77413868D01*
X126588613Y-77308728D01*
X126588612Y-77308727D01*
X126448221Y-77235043D01*
X126294276Y-77197100D01*
X126135724Y-77197100D01*
X125981778Y-77235043D01*
X125841387Y-77308727D01*
X125722708Y-77413868D01*
X125641888Y-77530956D01*
X125599950Y-77560742D01*
X125548677Y-77556603D01*
X125518112Y-77530956D01*
X125437292Y-77413868D01*
X125318613Y-77308728D01*
X125318612Y-77308727D01*
X125178221Y-77235043D01*
X125024276Y-77197100D01*
X124865724Y-77197100D01*
X124711778Y-77235043D01*
X124571387Y-77308727D01*
X124452707Y-77413868D01*
X124371584Y-77531395D01*
X124329646Y-77561181D01*
X124278373Y-77557042D01*
X124247808Y-77531395D01*
X124166914Y-77414201D01*
X124048326Y-77309140D01*
X123908044Y-77235515D01*
X123754216Y-77197600D01*
X123751200Y-77197600D01*
X123751200Y-77506109D01*
X123733405Y-77500000D01*
X123645995Y-77500000D01*
X123598800Y-77507875D01*
X123598800Y-77197600D01*
X123595784Y-77197600D01*
X123441955Y-77235515D01*
X123301673Y-77309140D01*
X123183085Y-77414201D01*
X123101888Y-77531835D01*
X123059950Y-77561621D01*
X123008677Y-77557482D01*
X122978112Y-77531835D01*
X122896914Y-77414201D01*
X122778326Y-77309140D01*
X122638044Y-77235515D01*
X122484216Y-77197600D01*
X122481200Y-77197600D01*
X122481200Y-77506109D01*
X122463405Y-77500000D01*
X122375995Y-77500000D01*
X122328800Y-77507875D01*
X122328800Y-77197600D01*
X122325784Y-77197600D01*
X122171955Y-77235515D01*
X122031673Y-77309140D01*
X121912966Y-77414307D01*
X121865118Y-77433192D01*
X121816326Y-77416903D01*
X121789419Y-77373061D01*
X121787899Y-77358019D01*
X121787899Y-77334942D01*
X121784955Y-77320143D01*
X121779028Y-77290342D01*
X121745234Y-77239766D01*
X121745233Y-77239765D01*
X121694658Y-77205971D01*
X121650057Y-77197100D01*
X120619942Y-77197100D01*
X120575341Y-77205972D01*
X120524765Y-77239766D01*
X120490971Y-77290341D01*
X120482100Y-77334942D01*
X120482100Y-78365057D01*
X120490972Y-78409658D01*
X120524766Y-78460234D01*
X120575341Y-78494028D01*
X120586415Y-78496230D01*
X120619943Y-78502900D01*
X120648693Y-78502899D01*
X120697029Y-78520491D01*
X120722750Y-78565039D01*
X120713819Y-78615697D01*
X120698560Y-78634387D01*
X120642708Y-78683868D01*
X120552640Y-78814353D01*
X120496416Y-78962601D01*
X120477305Y-79120000D01*
X118499999Y-79120000D01*
X118499999Y-76167347D01*
X118517592Y-76119009D01*
X118562141Y-76093289D01*
X118567813Y-76092511D01*
X118708192Y-76078685D01*
X118711604Y-76078428D01*
X118741549Y-76076858D01*
X118742008Y-76076529D01*
X118755031Y-76074071D01*
X118858322Y-76063899D01*
X119109418Y-76013952D01*
X119112290Y-76013439D01*
X119128009Y-76010949D01*
X119135312Y-76008801D01*
X119224560Y-75991049D01*
X119581894Y-75882653D01*
X119926883Y-75739754D01*
X120256204Y-75563729D01*
X120566685Y-75356271D01*
X120855338Y-75119381D01*
X121119381Y-74855338D01*
X121356271Y-74566685D01*
X121563729Y-74256204D01*
X121739754Y-73926883D01*
X121882653Y-73581894D01*
X121991049Y-73224560D01*
X122008800Y-73135316D01*
X122010142Y-73133104D01*
X122013439Y-73112290D01*
X122013952Y-73109418D01*
X122063899Y-72858322D01*
X122074071Y-72755035D01*
X122076407Y-72750165D01*
X122078428Y-72711611D01*
X122078687Y-72708175D01*
X122100320Y-72488533D01*
X122100500Y-72486707D01*
X122100500Y-72300000D01*
X122104350Y-69253678D01*
X123003210Y-69253678D01*
X123013568Y-69418314D01*
X123050116Y-69530799D01*
X123064544Y-69575204D01*
X123152933Y-69714481D01*
X123273184Y-69827405D01*
X123345462Y-69867140D01*
X123417741Y-69906876D01*
X123471000Y-69920550D01*
X123577518Y-69947900D01*
X123577520Y-69947900D01*
X124298705Y-69947900D01*
X124301075Y-69947900D01*
X124423660Y-69932414D01*
X124577037Y-69871688D01*
X124710493Y-69774726D01*
X124815643Y-69647622D01*
X124885880Y-69498361D01*
X124916790Y-69336322D01*
X124911590Y-69253678D01*
X126933210Y-69253678D01*
X126943568Y-69418314D01*
X126980116Y-69530799D01*
X126994544Y-69575204D01*
X127082933Y-69714481D01*
X127203184Y-69827405D01*
X127275463Y-69867140D01*
X127347741Y-69906876D01*
X127401000Y-69920550D01*
X127507518Y-69947900D01*
X127507520Y-69947900D01*
X128728705Y-69947900D01*
X128731075Y-69947900D01*
X128853660Y-69932414D01*
X129007037Y-69871688D01*
X129140493Y-69774726D01*
X129245643Y-69647622D01*
X129315880Y-69498361D01*
X129346790Y-69336322D01*
X129336432Y-69171686D01*
X129285457Y-69014799D01*
X129285455Y-69014796D01*
X129285455Y-69014795D01*
X129197066Y-68875518D01*
X129076815Y-68762594D01*
X128932257Y-68683123D01*
X128772482Y-68642100D01*
X128772480Y-68642100D01*
X127548925Y-68642100D01*
X127546574Y-68642396D01*
X127546573Y-68642397D01*
X127426339Y-68657586D01*
X127272964Y-68718311D01*
X127139506Y-68815274D01*
X127034357Y-68942377D01*
X126964119Y-69091639D01*
X126933210Y-69253676D01*
X126933210Y-69253678D01*
X124911590Y-69253678D01*
X124906432Y-69171686D01*
X124855457Y-69014799D01*
X124855455Y-69014796D01*
X124855455Y-69014795D01*
X124767066Y-68875518D01*
X124646815Y-68762594D01*
X124502257Y-68683123D01*
X124342482Y-68642100D01*
X124342480Y-68642100D01*
X123618925Y-68642100D01*
X123616574Y-68642396D01*
X123616573Y-68642397D01*
X123496339Y-68657586D01*
X123342964Y-68718311D01*
X123209506Y-68815274D01*
X123104357Y-68942377D01*
X123034119Y-69091639D01*
X123003210Y-69253676D01*
X123003210Y-69253678D01*
X122104350Y-69253678D01*
X122106105Y-67864999D01*
X127029534Y-67864999D01*
X127049313Y-68015236D01*
X127107302Y-68155234D01*
X127142883Y-68201603D01*
X127199549Y-68275451D01*
X127277882Y-68335558D01*
X127319765Y-68367697D01*
X127319766Y-68367697D01*
X127319767Y-68367698D01*
X127459764Y-68425687D01*
X127572280Y-68440500D01*
X127574737Y-68440500D01*
X127645263Y-68440500D01*
X127647720Y-68440500D01*
X127760236Y-68425687D01*
X127900233Y-68367698D01*
X128020451Y-68275451D01*
X128112698Y-68155233D01*
X128170687Y-68015236D01*
X128190466Y-67865000D01*
X128170687Y-67714764D01*
X128112698Y-67574767D01*
X128112697Y-67574766D01*
X128112697Y-67574765D01*
X128080559Y-67532882D01*
X128020451Y-67454549D01*
X127960342Y-67408425D01*
X127900234Y-67362302D01*
X127830234Y-67333307D01*
X127760236Y-67304313D01*
X127727439Y-67299995D01*
X127650153Y-67289820D01*
X127650148Y-67289819D01*
X127647720Y-67289500D01*
X127572280Y-67289500D01*
X127569852Y-67289819D01*
X127569846Y-67289820D01*
X127459764Y-67304313D01*
X127319765Y-67362302D01*
X127199549Y-67454549D01*
X127107302Y-67574765D01*
X127049313Y-67714763D01*
X127029534Y-67864999D01*
X122106105Y-67864999D01*
X122113411Y-62085000D01*
X127029534Y-62085000D01*
X127049313Y-62235236D01*
X127107302Y-62375234D01*
X127119902Y-62391654D01*
X127199549Y-62495451D01*
X127265544Y-62546091D01*
X127319765Y-62587697D01*
X127319766Y-62587697D01*
X127319767Y-62587698D01*
X127459764Y-62645687D01*
X127572280Y-62660500D01*
X127574737Y-62660500D01*
X127645263Y-62660500D01*
X127647720Y-62660500D01*
X127760236Y-62645687D01*
X127900233Y-62587698D01*
X128020451Y-62495451D01*
X128112698Y-62375233D01*
X128170687Y-62235236D01*
X128190466Y-62085000D01*
X128170687Y-61934764D01*
X128112698Y-61794767D01*
X128112697Y-61794766D01*
X128112697Y-61794765D01*
X128045428Y-61707100D01*
X128020451Y-61674549D01*
X127934370Y-61608496D01*
X127900234Y-61582302D01*
X127819478Y-61548852D01*
X127760236Y-61524313D01*
X127709755Y-61517667D01*
X127650153Y-61509820D01*
X127650148Y-61509819D01*
X127647720Y-61509500D01*
X127572280Y-61509500D01*
X127569852Y-61509819D01*
X127569846Y-61509820D01*
X127459764Y-61524313D01*
X127319765Y-61582302D01*
X127199549Y-61674549D01*
X127107302Y-61794765D01*
X127049313Y-61934763D01*
X127029534Y-62085000D01*
X122113411Y-62085000D01*
X122115271Y-60613678D01*
X123003210Y-60613678D01*
X123011570Y-60746558D01*
X123013568Y-60778313D01*
X123064544Y-60935204D01*
X123152933Y-61074481D01*
X123273184Y-61187405D01*
X123345462Y-61227140D01*
X123417741Y-61266876D01*
X123471000Y-61280550D01*
X123577518Y-61307900D01*
X123577520Y-61307900D01*
X124298705Y-61307900D01*
X124301075Y-61307900D01*
X124423660Y-61292414D01*
X124577037Y-61231688D01*
X124710493Y-61134726D01*
X124815643Y-61007622D01*
X124885880Y-60858361D01*
X124916790Y-60696322D01*
X124911590Y-60613678D01*
X126933210Y-60613678D01*
X126941570Y-60746558D01*
X126943568Y-60778313D01*
X126994544Y-60935204D01*
X127082933Y-61074481D01*
X127203184Y-61187405D01*
X127275462Y-61227140D01*
X127347741Y-61266876D01*
X127401000Y-61280550D01*
X127507518Y-61307900D01*
X127507520Y-61307900D01*
X128728705Y-61307900D01*
X128731075Y-61307900D01*
X128853660Y-61292414D01*
X129007037Y-61231688D01*
X129140493Y-61134726D01*
X129245643Y-61007622D01*
X129315880Y-60858361D01*
X129346790Y-60696322D01*
X129336432Y-60531686D01*
X129285457Y-60374799D01*
X129285455Y-60374796D01*
X129285455Y-60374795D01*
X129197066Y-60235518D01*
X129076815Y-60122594D01*
X128932257Y-60043123D01*
X128772482Y-60002100D01*
X128772480Y-60002100D01*
X127548925Y-60002100D01*
X127546574Y-60002396D01*
X127546573Y-60002397D01*
X127426339Y-60017586D01*
X127272964Y-60078311D01*
X127139506Y-60175274D01*
X127034357Y-60302377D01*
X126964119Y-60451639D01*
X126933210Y-60613676D01*
X126933210Y-60613678D01*
X124911590Y-60613678D01*
X124906432Y-60531686D01*
X124855457Y-60374799D01*
X124855455Y-60374796D01*
X124855455Y-60374795D01*
X124767066Y-60235518D01*
X124646815Y-60122594D01*
X124502257Y-60043123D01*
X124342482Y-60002100D01*
X124342480Y-60002100D01*
X123618925Y-60002100D01*
X123616574Y-60002396D01*
X123616573Y-60002397D01*
X123496339Y-60017586D01*
X123342964Y-60078311D01*
X123209506Y-60175274D01*
X123104357Y-60302377D01*
X123034119Y-60451639D01*
X123003210Y-60613676D01*
X123003210Y-60613678D01*
X122115271Y-60613678D01*
X122140459Y-40686592D01*
X122140500Y-40686481D01*
X122140500Y-40656559D01*
X122140532Y-40655000D01*
X124782051Y-40655000D01*
X124782212Y-40657456D01*
X124800652Y-40938800D01*
X124802224Y-40962774D01*
X124802704Y-40965188D01*
X124802705Y-40965194D01*
X124861915Y-41262868D01*
X124861918Y-41262880D01*
X124862396Y-41265282D01*
X124863185Y-41267609D01*
X124863187Y-41267613D01*
X124947163Y-41515000D01*
X124961539Y-41557348D01*
X125097956Y-41833975D01*
X125269313Y-42090428D01*
X125472678Y-42322322D01*
X125704572Y-42525687D01*
X125961025Y-42697044D01*
X126237652Y-42833461D01*
X126529718Y-42932604D01*
X126832226Y-42992776D01*
X127140000Y-43012949D01*
X127447774Y-42992776D01*
X127750282Y-42932604D01*
X128042348Y-42833461D01*
X128318975Y-42697044D01*
X128575428Y-42525687D01*
X128807322Y-42322322D01*
X129010687Y-42090428D01*
X129151283Y-41880012D01*
X158867600Y-41880012D01*
X158876441Y-41924463D01*
X158910126Y-41974873D01*
X158960536Y-42008558D01*
X159004987Y-42017400D01*
X159793800Y-42017400D01*
X159793800Y-41509185D01*
X159834237Y-41515000D01*
X159905763Y-41515000D01*
X159946200Y-41509185D01*
X159946200Y-42017400D01*
X160735013Y-42017400D01*
X160779463Y-42008558D01*
X160829873Y-41974873D01*
X160863558Y-41924463D01*
X160872400Y-41880012D01*
X160872400Y-41091200D01*
X160368734Y-41091200D01*
X160370000Y-41086889D01*
X160370000Y-40943111D01*
X160368734Y-40938800D01*
X160872400Y-40938800D01*
X160872400Y-40149987D01*
X160863558Y-40105536D01*
X160829873Y-40055126D01*
X160779463Y-40021441D01*
X160735013Y-40012600D01*
X159946200Y-40012600D01*
X159946200Y-40520814D01*
X159905763Y-40515000D01*
X159834237Y-40515000D01*
X159793800Y-40520814D01*
X159793800Y-40012600D01*
X159004987Y-40012600D01*
X158960536Y-40021441D01*
X158910126Y-40055126D01*
X158876441Y-40105536D01*
X158867600Y-40149987D01*
X158867600Y-40938800D01*
X159371266Y-40938800D01*
X159370000Y-40943111D01*
X159370000Y-41086889D01*
X159371266Y-41091200D01*
X158867600Y-41091200D01*
X158867600Y-41880012D01*
X129151283Y-41880012D01*
X129182044Y-41833975D01*
X129318461Y-41557348D01*
X129417604Y-41265282D01*
X129477776Y-40962774D01*
X129497949Y-40655000D01*
X129477776Y-40347226D01*
X129417604Y-40044718D01*
X129318461Y-39752652D01*
X129182044Y-39476026D01*
X129010687Y-39219572D01*
X128985221Y-39190534D01*
X128808940Y-38989523D01*
X128807322Y-38987678D01*
X128575428Y-38784313D01*
X128318975Y-38612956D01*
X128042348Y-38476539D01*
X128040018Y-38475748D01*
X128040013Y-38475746D01*
X127752613Y-38378187D01*
X127752609Y-38378185D01*
X127750282Y-38377396D01*
X127747880Y-38376918D01*
X127747868Y-38376915D01*
X127450194Y-38317705D01*
X127450188Y-38317704D01*
X127447774Y-38317224D01*
X127445317Y-38317062D01*
X127445310Y-38317062D01*
X127142456Y-38297212D01*
X127140000Y-38297051D01*
X127137544Y-38297212D01*
X126834689Y-38317062D01*
X126834680Y-38317063D01*
X126832226Y-38317224D01*
X126829813Y-38317703D01*
X126829805Y-38317705D01*
X126532131Y-38376915D01*
X126532116Y-38376918D01*
X126529718Y-38377396D01*
X126527394Y-38378184D01*
X126527386Y-38378187D01*
X126239986Y-38475746D01*
X126239976Y-38475749D01*
X126237652Y-38476539D01*
X126235447Y-38477626D01*
X126235443Y-38477628D01*
X125963233Y-38611867D01*
X125963230Y-38611869D01*
X125961026Y-38612956D01*
X125958990Y-38614316D01*
X125958982Y-38614321D01*
X125706615Y-38782947D01*
X125706605Y-38782954D01*
X125704572Y-38784313D01*
X125702730Y-38785927D01*
X125702720Y-38785936D01*
X125474523Y-38986059D01*
X125474515Y-38986066D01*
X125472678Y-38987678D01*
X125471066Y-38989515D01*
X125471059Y-38989523D01*
X125270936Y-39217720D01*
X125270927Y-39217730D01*
X125269313Y-39219572D01*
X125267954Y-39221605D01*
X125267947Y-39221615D01*
X125099321Y-39473982D01*
X125099316Y-39473990D01*
X125097956Y-39476026D01*
X125096871Y-39478225D01*
X125096867Y-39478233D01*
X124962628Y-39750443D01*
X124961539Y-39752652D01*
X124960749Y-39754976D01*
X124960746Y-39754986D01*
X124863187Y-40042386D01*
X124863184Y-40042394D01*
X124862396Y-40044718D01*
X124861918Y-40047116D01*
X124861915Y-40047131D01*
X124802705Y-40344805D01*
X124802703Y-40344813D01*
X124802224Y-40347226D01*
X124802063Y-40349680D01*
X124802062Y-40349689D01*
X124795607Y-40448178D01*
X124782051Y-40655000D01*
X122140532Y-40655000D01*
X122140564Y-40653452D01*
X122143186Y-40590048D01*
X122149493Y-40437569D01*
X122158137Y-40239584D01*
X122158641Y-40233598D01*
X122185476Y-40018319D01*
X122187036Y-40006462D01*
X122211822Y-39818195D01*
X122212775Y-39812611D01*
X122257182Y-39600826D01*
X122268178Y-39551223D01*
X122301059Y-39402906D01*
X122302386Y-39397787D01*
X122364112Y-39190457D01*
X122425193Y-38996733D01*
X122426841Y-38992059D01*
X122427831Y-38989523D01*
X122505235Y-38791152D01*
X122505698Y-38789999D01*
X122583337Y-38602563D01*
X122585213Y-38598403D01*
X122679871Y-38404777D01*
X122680665Y-38403205D01*
X122774321Y-38223294D01*
X122776376Y-38219607D01*
X122886670Y-38034509D01*
X122887768Y-38032729D01*
X122996797Y-37861588D01*
X122998965Y-37858375D01*
X123124131Y-37683070D01*
X123125568Y-37681128D01*
X123249120Y-37520112D01*
X123251352Y-37517344D01*
X123390543Y-37353001D01*
X123392383Y-37350913D01*
X123529513Y-37201262D01*
X123531690Y-37198988D01*
X123683988Y-37046690D01*
X123686262Y-37044513D01*
X123835913Y-36907383D01*
X123838001Y-36905543D01*
X124002344Y-36766352D01*
X124005112Y-36764120D01*
X124166128Y-36640568D01*
X124168070Y-36639131D01*
X124343375Y-36513965D01*
X124346588Y-36511797D01*
X124517729Y-36402768D01*
X124519509Y-36401670D01*
X124704607Y-36291376D01*
X124708294Y-36289321D01*
X124888205Y-36195665D01*
X124889777Y-36194871D01*
X125083403Y-36100213D01*
X125087563Y-36098337D01*
X125275003Y-36020696D01*
X125276116Y-36020249D01*
X125477093Y-35941827D01*
X125481716Y-35940199D01*
X125675455Y-35879112D01*
X125882806Y-35817381D01*
X125887880Y-35816065D01*
X126085811Y-35772184D01*
X126297639Y-35727769D01*
X126303195Y-35726822D01*
X126503189Y-35700492D01*
X126718632Y-35673637D01*
X126724584Y-35673137D01*
X126922569Y-35664493D01*
X127138453Y-35655563D01*
X127141559Y-35655500D01*
X159138439Y-35655500D01*
X159141546Y-35655564D01*
G37*
%TD.AperFunction*%
%TD*%
M02*
