M48
; DRILL file {KiCad 7.0.2} date Mon Jul 17 10:41:56 2023
; FORMAT={-:-/ absolute / inch / decimal}
; #@! TF.CreationDate,2023-07-17T10:41:56+03:00
; #@! TF.GenerationSoftware,Kicad,Pcbnew,7.0.2
; #@! TF.FileFunction,Plated,1,2,PTH
FMAT,2
INCH
; #@! TA.AperFunction,Plated,PTH,ViaDrill
T1C0.0118
; #@! TA.AperFunction,Plated,PTH,ViaDrill
T2C0.0157
; #@! TA.AperFunction,Plated,PTH,ComponentDrill
T3C0.0157
; #@! TA.AperFunction,Plated,PTH,ComponentDrill
T4C0.0236
; #@! TA.AperFunction,Plated,PTH,ComponentDrill
T5C0.0276
; #@! TA.AperFunction,Plated,PTH,ComponentDrill
T6C0.0315
; #@! TA.AperFunction,Plated,PTH,ComponentDrill
T7C0.0394
; #@! TA.AperFunction,Plated,PTH,ComponentDrill
T8C0.0591
; #@! TA.AperFunction,Plated,PTH,ComponentDrill
T9C0.0866
%
G90
G05
T1
X4.6772Y-3.0079
X4.6772Y-3.0354
X4.6772Y-3.063
X4.6772Y-3.0906
X4.6772Y-3.1181
X4.6772Y-3.1457
X4.6772Y-3.1732
X4.6772Y-3.2008
X4.6772Y-3.2283
X4.6772Y-3.2559
X4.6772Y-3.2835
X4.6772Y-3.4449
X4.6772Y-3.4724
X4.6772Y-3.5
X4.6772Y-3.5276
X4.6772Y-3.5551
X4.6772Y-3.5827
X4.6772Y-3.6102
X4.6772Y-3.6378
X4.6772Y-3.6654
X4.6772Y-3.6929
X4.6772Y-3.7205
X4.6772Y-3.748
X4.6772Y-3.7756
X4.6772Y-3.8031
X4.6772Y-3.8307
X4.6772Y-3.8583
X4.6772Y-3.8858
X4.7047Y-3.2835
X4.7047Y-3.4449
X4.7323Y-3.2835
X4.7598Y-3.2835
X4.8559Y-4.1793
X4.8799Y-3.5748
X4.8898Y-3.6545
X4.8976Y-3.2067
X4.9409Y-3.3858
X4.9409Y-3.4154
X4.9409Y-3.4449
X4.9409Y-3.4744
X4.9563Y-3.5909
X4.9705Y-3.3858
X4.9705Y-3.4154
X4.9705Y-3.4449
X4.9705Y-3.4744
X5.0Y-3.3858
X5.0Y-3.4154
X5.0Y-3.4449
X5.0Y-3.4744
X5.0295Y-3.3858
X5.0295Y-3.4154
X5.0295Y-3.4449
X5.0295Y-3.4744
X5.0468Y-4.2058
X5.0561Y-3.251
X5.0861Y-3.5627
X5.163Y-2.388
X5.2106Y-3.2519
X5.221Y-4.3132
X5.2441Y-3.2539
X5.2947Y-1.9081
X5.3201Y-1.9852
X5.3531Y-2.1963
X5.3681Y-1.874
X5.3882Y-1.7545
X5.3882Y-1.7856
X5.3886Y-1.8148
X5.389Y-2.0797
X5.389Y-2.1093
X5.4079Y-2.2561
X5.4165Y-2.1093
X5.4169Y-2.0801
X5.4177Y-1.7856
X5.4177Y-1.8144
X5.4181Y-1.7545
X5.4461Y-2.1738
X5.4475Y-1.7472
X5.4724Y-1.8701
X5.4724Y-1.9094
X5.4724Y-1.9488
X5.4724Y-1.9882
X5.4724Y-2.0276
X5.477Y-1.7472
X5.4937Y-4.3132
X5.5087Y-1.6795
X5.5118Y-1.8701
X5.5118Y-1.9094
X5.5118Y-1.9488
X5.5118Y-1.9882
X5.5118Y-2.0276
X5.5512Y-1.8701
X5.5512Y-1.9094
X5.5512Y-1.9488
X5.5512Y-1.9882
X5.5512Y-2.0276
X5.5789Y-2.1734
X5.5906Y-1.8701
X5.5906Y-1.9094
X5.5906Y-1.9488
X5.5906Y-1.9882
X5.5906Y-2.0276
X5.5915Y-2.2597
X5.6299Y-1.8701
X5.6299Y-1.9094
X5.6299Y-1.9488
X5.6299Y-1.9882
X5.6299Y-2.0276
X5.6522Y-2.2599
X5.6748Y-1.8026
X5.6748Y-2.0793
X5.6748Y-2.11
X5.676Y-1.7726
X5.6862Y-3.0262
X5.6874Y-3.3963
X5.6876Y-3.3356
X5.6896Y-3.6833
X5.7043Y-2.0789
X5.7047Y-2.11
X5.7055Y-1.7734
X5.7059Y-1.803
X5.722Y-4.3959
X5.7346Y-2.0801
X5.735Y-1.7738
X5.7354Y-2.11
X5.7526Y-3.3356
X5.8047Y-2.8407
X5.8047Y-2.8683
X5.8047Y-2.8959
X5.8197Y-1.9273
X5.8197Y-1.9568
X5.8217Y-1.9862
X5.8221Y-1.8979
X5.8244Y-2.9156
X5.8283Y-2.373
X5.8429Y-1.877
X5.8441Y-2.9352
X5.8638Y-2.9549
X5.8795Y-2.8407
X5.8797Y-2.4675
X5.8835Y-2.8683
X5.8835Y-3.8644
X5.8862Y-2.5671
X5.8874Y-2.9707
X5.8941Y-2.2274
X5.8949Y-2.6269
X5.8949Y-2.7238
X5.9031Y-2.888
X5.9032Y-2.4496
X5.9071Y-2.8526
X5.915Y-2.9746
X5.9173Y-2.177
X5.9256Y-2.0565
X5.9256Y-2.0978
X5.9268Y-2.9037
X5.928Y-2.4055
X5.9295Y-2.5785
X5.9425Y-2.9746
X5.9476Y-1.8472
X5.9555Y-2.4593
X5.9583Y-2.9037
X5.9616Y-2.1774
X5.9616Y-2.2278
X5.9622Y-2.2577
X5.9685Y-2.5581
X5.9701Y-2.9746
X5.9772Y-1.8477
X5.9858Y-2.8368
X5.9866Y-2.4581
X5.9886Y-2.2935
X5.9898Y-2.9037
X5.9976Y-2.9746
X6.0067Y-1.8477
X6.0173Y-2.8368
X6.0213Y-2.9037
X6.0252Y-2.9746
X6.0291Y-2.699
X6.0291Y-2.7305
X6.0449Y-2.8368
X6.0528Y-2.9037
X6.0567Y-2.6872
X6.0567Y-2.7148
X6.0567Y-2.7423
X6.0567Y-2.9746
X6.0657Y-1.8512
X6.0669Y-2.4648
X6.0724Y-2.6636
X6.0734Y-2.3774
X6.0744Y-2.4069
X6.0764Y-2.8368
X6.0843Y-2.9037
X6.0843Y-2.9746
X6.0862Y-2.4384
X6.0881Y-4.1656
X6.0921Y-2.6439
X6.0952Y-1.8519
X6.0969Y-2.0423
X6.1039Y-2.8368
X6.1118Y-2.6242
X6.1118Y-2.9746
X6.1157Y-2.9037
X6.1247Y-1.851
X6.1315Y-2.6045
X6.1315Y-2.8368
X6.1394Y-2.699
X6.1394Y-2.7266
X6.1394Y-2.7541
X6.1394Y-2.7817
X6.1394Y-2.8093
X6.1394Y-2.9746
X6.1472Y-2.9037
X6.1512Y-2.5848
X6.1542Y-1.8526
X6.1583Y-2.312
X6.1591Y-2.6754
X6.1669Y-2.0415
X6.1669Y-2.9746
X6.1709Y-2.5652
X6.1787Y-2.8998
X6.1866Y-2.6518
X6.1906Y-2.5455
X6.1906Y-4.3266
X6.1945Y-2.9746
X6.2024Y-2.8801
X6.2102Y-2.636
X6.2102Y-2.7305
X6.2102Y-2.762
X6.2102Y-2.7935
X6.2102Y-2.825
X6.2102Y-2.8526
X6.2142Y-2.5258
X6.222Y-2.9628
X6.2291Y-1.8522
X6.2299Y-2.7108
X6.2378Y-2.636
X6.2417Y-2.9392
X6.2512Y-3.8646
X6.2614Y-2.9195
X6.2811Y-2.8998
X6.2971Y-4.4467
X6.3008Y-2.8801
X6.3205Y-2.8565
X6.3244Y-2.825
X6.3323Y-2.95
X6.3461Y-3.8203
T2
X4.6004Y-3.5177
T3
X4.8681Y-4.0
X4.8871Y-3.9541
X4.8871Y-4.0459
X4.9331Y-3.935
X4.9331Y-4.065
X4.9406Y-1.6006
X4.9596Y-1.5547
X4.9596Y-1.6465
X4.979Y-3.9541
X4.979Y-4.0459
X4.998Y-4.0
X5.0055Y-1.5356
X5.0055Y-1.6656
X5.0514Y-1.5547
X5.0514Y-1.6465
X5.0705Y-1.6006
X6.2398Y-4.7896
X6.2588Y-4.7436
X6.2588Y-4.8355
X6.3047Y-4.7246
X6.3047Y-4.8545
X6.3507Y-4.7436
X6.3507Y-4.8355
X6.3697Y-4.7896
T5
X4.7691Y-3.065
X4.7691Y-3.115
X4.8191Y-3.065
X4.8191Y-3.115
X4.8691Y-3.065
X4.8691Y-3.115
X4.9191Y-3.065
X4.9191Y-3.115
X4.9691Y-3.065
X4.9691Y-3.115
T7
X5.9929Y-3.112
X5.9929Y-3.6829
X6.0913Y-3.6829
X6.1898Y-3.112
X6.1898Y-3.6829
X6.2909Y-2.4774
X6.2909Y-2.5774
X6.2909Y-2.6774
X6.2909Y-2.7774
X6.2941Y-1.6148
X6.2941Y-1.7148
X6.2941Y-1.8148
X6.2969Y-2.0179
X6.2969Y-2.1179
X6.2969Y-2.2179
T9
X4.9331Y-4.0
X5.0055Y-1.6006
X6.3047Y-4.7896
T4
G00X4.8921Y-2.388
M15
G01X4.8685Y-2.388
M16
G05
G00X4.8921Y-2.7281
M15
G01X4.8685Y-2.7281
M16
G05
G00X5.0665Y-2.388
M15
G01X5.0232Y-2.388
M16
G05
G00X5.0665Y-2.7281
M15
G01X5.0232Y-2.7281
M16
G05
T6
G00X5.0331Y-4.5415
M15
G01X5.1354Y-4.5415
M16
G05
G00X5.0409Y-4.7699
M15
G01X5.1276Y-4.7699
M16
G05
G00X5.2732Y-4.703
M15
G01X5.2732Y-4.6163
M16
G05
T8
G00X5.8709Y-3.4132
M15
G01X5.8709Y-3.362
M16
G05
G00X6.3118Y-3.4132
M15
G01X6.3118Y-3.362
M16
G05
T0
M30
