%TF.GenerationSoftware,KiCad,Pcbnew,7.0.2*%
%TF.CreationDate,2023-07-17T10:41:56+03:00*%
%TF.ProjectId,DeskSmartFan,4465736b-536d-4617-9274-46616e2e6b69,rev?*%
%TF.SameCoordinates,Original*%
%TF.FileFunction,Drillmap*%
%TF.FilePolarity,Positive*%
%FSLAX45Y45*%
G04 Gerber Fmt 4.5, Leading zero omitted, Abs format (unit mm)*
G04 Created by KiCad (PCBNEW 7.0.2) date 2023-07-17 10:41:56*
%MOMM*%
%LPD*%
G01*
G04 APERTURE LIST*
%ADD10C,0.100000*%
%ADD11C,0.200000*%
%ADD12C,0.065000*%
G04 APERTURE END LIST*
D10*
X16414000Y-12165500D02*
X16414000Y-4065500D01*
X11530000Y-9610000D02*
G75*
G03*
X11830000Y-9910000I300000J0D01*
G01*
X12714000Y-12665500D02*
X15914000Y-12665500D01*
X12210000Y-10290000D02*
X12214000Y-12165500D01*
X15914000Y-12665500D02*
G75*
G03*
X16414000Y-12165500I0J500000D01*
G01*
X12214000Y-12165500D02*
G75*
G03*
X12714000Y-12665500I500000J0D01*
G01*
X13777055Y-9530445D02*
G75*
G03*
X13777055Y-9530445I-36056J0D01*
G01*
X11830000Y-7610000D02*
G75*
G03*
X11530000Y-7910000I0J-300000D01*
G01*
X12714000Y-3565500D02*
G75*
G03*
X12214000Y-4065500I0J-500000D01*
G01*
X11830000Y-7610000D02*
G75*
G03*
X12210000Y-7230000I0J380000D01*
G01*
X12210000Y-10290000D02*
G75*
G03*
X11830000Y-9910000I-380000J0D01*
G01*
X16414000Y-4065500D02*
G75*
G03*
X15914000Y-3565500I-500000J0D01*
G01*
X11530000Y-9610000D02*
X11530000Y-7910000D01*
X13773055Y-7930500D02*
G75*
G03*
X13773055Y-7930500I-36056J0D01*
G01*
X15914000Y-3565500D02*
X12714000Y-3565500D01*
X12210000Y-7230000D02*
X12214000Y-4065500D01*
D11*
D12*
X12728500Y-6176000D02*
X12793500Y-6241000D01*
X12793500Y-6176000D02*
X12728500Y-6241000D01*
X12728500Y-6754000D02*
X12793500Y-6819000D01*
X12793500Y-6754000D02*
X12728500Y-6819000D01*
D11*
X11772619Y-12983024D02*
X11772619Y-12783024D01*
X11772619Y-12783024D02*
X11820238Y-12783024D01*
X11820238Y-12783024D02*
X11848809Y-12792548D01*
X11848809Y-12792548D02*
X11867857Y-12811595D01*
X11867857Y-12811595D02*
X11877381Y-12830643D01*
X11877381Y-12830643D02*
X11886905Y-12868738D01*
X11886905Y-12868738D02*
X11886905Y-12897309D01*
X11886905Y-12897309D02*
X11877381Y-12935405D01*
X11877381Y-12935405D02*
X11867857Y-12954452D01*
X11867857Y-12954452D02*
X11848809Y-12973500D01*
X11848809Y-12973500D02*
X11820238Y-12983024D01*
X11820238Y-12983024D02*
X11772619Y-12983024D01*
X11972619Y-12983024D02*
X11972619Y-12849690D01*
X11972619Y-12887786D02*
X11982143Y-12868738D01*
X11982143Y-12868738D02*
X11991667Y-12859214D01*
X11991667Y-12859214D02*
X12010714Y-12849690D01*
X12010714Y-12849690D02*
X12029762Y-12849690D01*
X12096428Y-12983024D02*
X12096428Y-12849690D01*
X12096428Y-12783024D02*
X12086905Y-12792548D01*
X12086905Y-12792548D02*
X12096428Y-12802071D01*
X12096428Y-12802071D02*
X12105952Y-12792548D01*
X12105952Y-12792548D02*
X12096428Y-12783024D01*
X12096428Y-12783024D02*
X12096428Y-12802071D01*
X12220238Y-12983024D02*
X12201190Y-12973500D01*
X12201190Y-12973500D02*
X12191667Y-12954452D01*
X12191667Y-12954452D02*
X12191667Y-12783024D01*
X12325000Y-12983024D02*
X12305952Y-12973500D01*
X12305952Y-12973500D02*
X12296428Y-12954452D01*
X12296428Y-12954452D02*
X12296428Y-12783024D01*
X12553571Y-12983024D02*
X12553571Y-12783024D01*
X12553571Y-12783024D02*
X12620238Y-12925881D01*
X12620238Y-12925881D02*
X12686905Y-12783024D01*
X12686905Y-12783024D02*
X12686905Y-12983024D01*
X12867857Y-12983024D02*
X12867857Y-12878262D01*
X12867857Y-12878262D02*
X12858333Y-12859214D01*
X12858333Y-12859214D02*
X12839286Y-12849690D01*
X12839286Y-12849690D02*
X12801190Y-12849690D01*
X12801190Y-12849690D02*
X12782143Y-12859214D01*
X12867857Y-12973500D02*
X12848809Y-12983024D01*
X12848809Y-12983024D02*
X12801190Y-12983024D01*
X12801190Y-12983024D02*
X12782143Y-12973500D01*
X12782143Y-12973500D02*
X12772619Y-12954452D01*
X12772619Y-12954452D02*
X12772619Y-12935405D01*
X12772619Y-12935405D02*
X12782143Y-12916357D01*
X12782143Y-12916357D02*
X12801190Y-12906833D01*
X12801190Y-12906833D02*
X12848809Y-12906833D01*
X12848809Y-12906833D02*
X12867857Y-12897309D01*
X12963095Y-12849690D02*
X12963095Y-13049690D01*
X12963095Y-12859214D02*
X12982143Y-12849690D01*
X12982143Y-12849690D02*
X13020238Y-12849690D01*
X13020238Y-12849690D02*
X13039286Y-12859214D01*
X13039286Y-12859214D02*
X13048809Y-12868738D01*
X13048809Y-12868738D02*
X13058333Y-12887786D01*
X13058333Y-12887786D02*
X13058333Y-12944928D01*
X13058333Y-12944928D02*
X13048809Y-12963976D01*
X13048809Y-12963976D02*
X13039286Y-12973500D01*
X13039286Y-12973500D02*
X13020238Y-12983024D01*
X13020238Y-12983024D02*
X12982143Y-12983024D01*
X12982143Y-12983024D02*
X12963095Y-12973500D01*
X13144048Y-12963976D02*
X13153571Y-12973500D01*
X13153571Y-12973500D02*
X13144048Y-12983024D01*
X13144048Y-12983024D02*
X13134524Y-12973500D01*
X13134524Y-12973500D02*
X13144048Y-12963976D01*
X13144048Y-12963976D02*
X13144048Y-12983024D01*
X13144048Y-12859214D02*
X13153571Y-12868738D01*
X13153571Y-12868738D02*
X13144048Y-12878262D01*
X13144048Y-12878262D02*
X13134524Y-12868738D01*
X13134524Y-12868738D02*
X13144048Y-12859214D01*
X13144048Y-12859214D02*
X13144048Y-12878262D01*
D12*
X11460000Y-13278000D02*
X11525000Y-13343000D01*
X11525000Y-13278000D02*
X11460000Y-13343000D01*
D11*
X11810714Y-13203024D02*
X11829762Y-13203024D01*
X11829762Y-13203024D02*
X11848809Y-13212548D01*
X11848809Y-13212548D02*
X11858333Y-13222071D01*
X11858333Y-13222071D02*
X11867857Y-13241119D01*
X11867857Y-13241119D02*
X11877381Y-13279214D01*
X11877381Y-13279214D02*
X11877381Y-13326833D01*
X11877381Y-13326833D02*
X11867857Y-13364928D01*
X11867857Y-13364928D02*
X11858333Y-13383976D01*
X11858333Y-13383976D02*
X11848809Y-13393500D01*
X11848809Y-13393500D02*
X11829762Y-13403024D01*
X11829762Y-13403024D02*
X11810714Y-13403024D01*
X11810714Y-13403024D02*
X11791667Y-13393500D01*
X11791667Y-13393500D02*
X11782143Y-13383976D01*
X11782143Y-13383976D02*
X11772619Y-13364928D01*
X11772619Y-13364928D02*
X11763095Y-13326833D01*
X11763095Y-13326833D02*
X11763095Y-13279214D01*
X11763095Y-13279214D02*
X11772619Y-13241119D01*
X11772619Y-13241119D02*
X11782143Y-13222071D01*
X11782143Y-13222071D02*
X11791667Y-13212548D01*
X11791667Y-13212548D02*
X11810714Y-13203024D01*
X11963095Y-13383976D02*
X11972619Y-13393500D01*
X11972619Y-13393500D02*
X11963095Y-13403024D01*
X11963095Y-13403024D02*
X11953571Y-13393500D01*
X11953571Y-13393500D02*
X11963095Y-13383976D01*
X11963095Y-13383976D02*
X11963095Y-13403024D01*
X12144048Y-13203024D02*
X12105952Y-13203024D01*
X12105952Y-13203024D02*
X12086905Y-13212548D01*
X12086905Y-13212548D02*
X12077381Y-13222071D01*
X12077381Y-13222071D02*
X12058333Y-13250643D01*
X12058333Y-13250643D02*
X12048809Y-13288738D01*
X12048809Y-13288738D02*
X12048809Y-13364928D01*
X12048809Y-13364928D02*
X12058333Y-13383976D01*
X12058333Y-13383976D02*
X12067857Y-13393500D01*
X12067857Y-13393500D02*
X12086905Y-13403024D01*
X12086905Y-13403024D02*
X12125000Y-13403024D01*
X12125000Y-13403024D02*
X12144048Y-13393500D01*
X12144048Y-13393500D02*
X12153571Y-13383976D01*
X12153571Y-13383976D02*
X12163095Y-13364928D01*
X12163095Y-13364928D02*
X12163095Y-13317309D01*
X12163095Y-13317309D02*
X12153571Y-13298262D01*
X12153571Y-13298262D02*
X12144048Y-13288738D01*
X12144048Y-13288738D02*
X12125000Y-13279214D01*
X12125000Y-13279214D02*
X12086905Y-13279214D01*
X12086905Y-13279214D02*
X12067857Y-13288738D01*
X12067857Y-13288738D02*
X12058333Y-13298262D01*
X12058333Y-13298262D02*
X12048809Y-13317309D01*
X12344048Y-13203024D02*
X12248809Y-13203024D01*
X12248809Y-13203024D02*
X12239286Y-13298262D01*
X12239286Y-13298262D02*
X12248809Y-13288738D01*
X12248809Y-13288738D02*
X12267857Y-13279214D01*
X12267857Y-13279214D02*
X12315476Y-13279214D01*
X12315476Y-13279214D02*
X12334524Y-13288738D01*
X12334524Y-13288738D02*
X12344048Y-13298262D01*
X12344048Y-13298262D02*
X12353571Y-13317309D01*
X12353571Y-13317309D02*
X12353571Y-13364928D01*
X12353571Y-13364928D02*
X12344048Y-13383976D01*
X12344048Y-13383976D02*
X12334524Y-13393500D01*
X12334524Y-13393500D02*
X12315476Y-13403024D01*
X12315476Y-13403024D02*
X12267857Y-13403024D01*
X12267857Y-13403024D02*
X12248809Y-13393500D01*
X12248809Y-13393500D02*
X12239286Y-13383976D01*
X12477381Y-13203024D02*
X12496429Y-13203024D01*
X12496429Y-13203024D02*
X12515476Y-13212548D01*
X12515476Y-13212548D02*
X12525000Y-13222071D01*
X12525000Y-13222071D02*
X12534524Y-13241119D01*
X12534524Y-13241119D02*
X12544048Y-13279214D01*
X12544048Y-13279214D02*
X12544048Y-13326833D01*
X12544048Y-13326833D02*
X12534524Y-13364928D01*
X12534524Y-13364928D02*
X12525000Y-13383976D01*
X12525000Y-13383976D02*
X12515476Y-13393500D01*
X12515476Y-13393500D02*
X12496429Y-13403024D01*
X12496429Y-13403024D02*
X12477381Y-13403024D01*
X12477381Y-13403024D02*
X12458333Y-13393500D01*
X12458333Y-13393500D02*
X12448809Y-13383976D01*
X12448809Y-13383976D02*
X12439286Y-13364928D01*
X12439286Y-13364928D02*
X12429762Y-13326833D01*
X12429762Y-13326833D02*
X12429762Y-13279214D01*
X12429762Y-13279214D02*
X12439286Y-13241119D01*
X12439286Y-13241119D02*
X12448809Y-13222071D01*
X12448809Y-13222071D02*
X12458333Y-13212548D01*
X12458333Y-13212548D02*
X12477381Y-13203024D01*
X12629762Y-13403024D02*
X12629762Y-13269690D01*
X12629762Y-13288738D02*
X12639286Y-13279214D01*
X12639286Y-13279214D02*
X12658333Y-13269690D01*
X12658333Y-13269690D02*
X12686905Y-13269690D01*
X12686905Y-13269690D02*
X12705952Y-13279214D01*
X12705952Y-13279214D02*
X12715476Y-13298262D01*
X12715476Y-13298262D02*
X12715476Y-13403024D01*
X12715476Y-13298262D02*
X12725000Y-13279214D01*
X12725000Y-13279214D02*
X12744048Y-13269690D01*
X12744048Y-13269690D02*
X12772619Y-13269690D01*
X12772619Y-13269690D02*
X12791667Y-13279214D01*
X12791667Y-13279214D02*
X12801190Y-13298262D01*
X12801190Y-13298262D02*
X12801190Y-13403024D01*
X12896429Y-13403024D02*
X12896429Y-13269690D01*
X12896429Y-13288738D02*
X12905952Y-13279214D01*
X12905952Y-13279214D02*
X12925000Y-13269690D01*
X12925000Y-13269690D02*
X12953571Y-13269690D01*
X12953571Y-13269690D02*
X12972619Y-13279214D01*
X12972619Y-13279214D02*
X12982143Y-13298262D01*
X12982143Y-13298262D02*
X12982143Y-13403024D01*
X12982143Y-13298262D02*
X12991667Y-13279214D01*
X12991667Y-13279214D02*
X13010714Y-13269690D01*
X13010714Y-13269690D02*
X13039286Y-13269690D01*
X13039286Y-13269690D02*
X13058333Y-13279214D01*
X13058333Y-13279214D02*
X13067857Y-13298262D01*
X13067857Y-13298262D02*
X13067857Y-13403024D01*
X13458333Y-13193500D02*
X13286905Y-13450643D01*
X13715476Y-13203024D02*
X13734524Y-13203024D01*
X13734524Y-13203024D02*
X13753572Y-13212548D01*
X13753572Y-13212548D02*
X13763095Y-13222071D01*
X13763095Y-13222071D02*
X13772619Y-13241119D01*
X13772619Y-13241119D02*
X13782143Y-13279214D01*
X13782143Y-13279214D02*
X13782143Y-13326833D01*
X13782143Y-13326833D02*
X13772619Y-13364928D01*
X13772619Y-13364928D02*
X13763095Y-13383976D01*
X13763095Y-13383976D02*
X13753572Y-13393500D01*
X13753572Y-13393500D02*
X13734524Y-13403024D01*
X13734524Y-13403024D02*
X13715476Y-13403024D01*
X13715476Y-13403024D02*
X13696429Y-13393500D01*
X13696429Y-13393500D02*
X13686905Y-13383976D01*
X13686905Y-13383976D02*
X13677381Y-13364928D01*
X13677381Y-13364928D02*
X13667857Y-13326833D01*
X13667857Y-13326833D02*
X13667857Y-13279214D01*
X13667857Y-13279214D02*
X13677381Y-13241119D01*
X13677381Y-13241119D02*
X13686905Y-13222071D01*
X13686905Y-13222071D02*
X13696429Y-13212548D01*
X13696429Y-13212548D02*
X13715476Y-13203024D01*
X13867857Y-13383976D02*
X13877381Y-13393500D01*
X13877381Y-13393500D02*
X13867857Y-13403024D01*
X13867857Y-13403024D02*
X13858333Y-13393500D01*
X13858333Y-13393500D02*
X13867857Y-13383976D01*
X13867857Y-13383976D02*
X13867857Y-13403024D01*
X14001191Y-13203024D02*
X14020238Y-13203024D01*
X14020238Y-13203024D02*
X14039286Y-13212548D01*
X14039286Y-13212548D02*
X14048810Y-13222071D01*
X14048810Y-13222071D02*
X14058333Y-13241119D01*
X14058333Y-13241119D02*
X14067857Y-13279214D01*
X14067857Y-13279214D02*
X14067857Y-13326833D01*
X14067857Y-13326833D02*
X14058333Y-13364928D01*
X14058333Y-13364928D02*
X14048810Y-13383976D01*
X14048810Y-13383976D02*
X14039286Y-13393500D01*
X14039286Y-13393500D02*
X14020238Y-13403024D01*
X14020238Y-13403024D02*
X14001191Y-13403024D01*
X14001191Y-13403024D02*
X13982143Y-13393500D01*
X13982143Y-13393500D02*
X13972619Y-13383976D01*
X13972619Y-13383976D02*
X13963095Y-13364928D01*
X13963095Y-13364928D02*
X13953572Y-13326833D01*
X13953572Y-13326833D02*
X13953572Y-13279214D01*
X13953572Y-13279214D02*
X13963095Y-13241119D01*
X13963095Y-13241119D02*
X13972619Y-13222071D01*
X13972619Y-13222071D02*
X13982143Y-13212548D01*
X13982143Y-13212548D02*
X14001191Y-13203024D01*
X14144048Y-13222071D02*
X14153572Y-13212548D01*
X14153572Y-13212548D02*
X14172619Y-13203024D01*
X14172619Y-13203024D02*
X14220238Y-13203024D01*
X14220238Y-13203024D02*
X14239286Y-13212548D01*
X14239286Y-13212548D02*
X14248810Y-13222071D01*
X14248810Y-13222071D02*
X14258333Y-13241119D01*
X14258333Y-13241119D02*
X14258333Y-13260167D01*
X14258333Y-13260167D02*
X14248810Y-13288738D01*
X14248810Y-13288738D02*
X14134524Y-13403024D01*
X14134524Y-13403024D02*
X14258333Y-13403024D01*
X14439286Y-13203024D02*
X14344048Y-13203024D01*
X14344048Y-13203024D02*
X14334524Y-13298262D01*
X14334524Y-13298262D02*
X14344048Y-13288738D01*
X14344048Y-13288738D02*
X14363095Y-13279214D01*
X14363095Y-13279214D02*
X14410714Y-13279214D01*
X14410714Y-13279214D02*
X14429762Y-13288738D01*
X14429762Y-13288738D02*
X14439286Y-13298262D01*
X14439286Y-13298262D02*
X14448810Y-13317309D01*
X14448810Y-13317309D02*
X14448810Y-13364928D01*
X14448810Y-13364928D02*
X14439286Y-13383976D01*
X14439286Y-13383976D02*
X14429762Y-13393500D01*
X14429762Y-13393500D02*
X14410714Y-13403024D01*
X14410714Y-13403024D02*
X14363095Y-13403024D01*
X14363095Y-13403024D02*
X14344048Y-13393500D01*
X14344048Y-13393500D02*
X14334524Y-13383976D01*
X14620238Y-13203024D02*
X14582143Y-13203024D01*
X14582143Y-13203024D02*
X14563095Y-13212548D01*
X14563095Y-13212548D02*
X14553572Y-13222071D01*
X14553572Y-13222071D02*
X14534524Y-13250643D01*
X14534524Y-13250643D02*
X14525000Y-13288738D01*
X14525000Y-13288738D02*
X14525000Y-13364928D01*
X14525000Y-13364928D02*
X14534524Y-13383976D01*
X14534524Y-13383976D02*
X14544048Y-13393500D01*
X14544048Y-13393500D02*
X14563095Y-13403024D01*
X14563095Y-13403024D02*
X14601191Y-13403024D01*
X14601191Y-13403024D02*
X14620238Y-13393500D01*
X14620238Y-13393500D02*
X14629762Y-13383976D01*
X14629762Y-13383976D02*
X14639286Y-13364928D01*
X14639286Y-13364928D02*
X14639286Y-13317309D01*
X14639286Y-13317309D02*
X14629762Y-13298262D01*
X14629762Y-13298262D02*
X14620238Y-13288738D01*
X14620238Y-13288738D02*
X14601191Y-13279214D01*
X14601191Y-13279214D02*
X14563095Y-13279214D01*
X14563095Y-13279214D02*
X14544048Y-13288738D01*
X14544048Y-13288738D02*
X14534524Y-13298262D01*
X14534524Y-13298262D02*
X14525000Y-13317309D01*
X14715476Y-13203024D02*
X14715476Y-13241119D01*
X14791667Y-13203024D02*
X14791667Y-13241119D01*
X15086905Y-13479214D02*
X15077381Y-13469690D01*
X15077381Y-13469690D02*
X15058334Y-13441119D01*
X15058334Y-13441119D02*
X15048810Y-13422071D01*
X15048810Y-13422071D02*
X15039286Y-13393500D01*
X15039286Y-13393500D02*
X15029762Y-13345881D01*
X15029762Y-13345881D02*
X15029762Y-13307786D01*
X15029762Y-13307786D02*
X15039286Y-13260167D01*
X15039286Y-13260167D02*
X15048810Y-13231595D01*
X15048810Y-13231595D02*
X15058334Y-13212548D01*
X15058334Y-13212548D02*
X15077381Y-13183976D01*
X15077381Y-13183976D02*
X15086905Y-13174452D01*
X15153572Y-13222071D02*
X15163095Y-13212548D01*
X15163095Y-13212548D02*
X15182143Y-13203024D01*
X15182143Y-13203024D02*
X15229762Y-13203024D01*
X15229762Y-13203024D02*
X15248810Y-13212548D01*
X15248810Y-13212548D02*
X15258334Y-13222071D01*
X15258334Y-13222071D02*
X15267857Y-13241119D01*
X15267857Y-13241119D02*
X15267857Y-13260167D01*
X15267857Y-13260167D02*
X15258334Y-13288738D01*
X15258334Y-13288738D02*
X15144048Y-13403024D01*
X15144048Y-13403024D02*
X15267857Y-13403024D01*
X15505953Y-13403024D02*
X15505953Y-13203024D01*
X15591667Y-13403024D02*
X15591667Y-13298262D01*
X15591667Y-13298262D02*
X15582143Y-13279214D01*
X15582143Y-13279214D02*
X15563096Y-13269690D01*
X15563096Y-13269690D02*
X15534524Y-13269690D01*
X15534524Y-13269690D02*
X15515476Y-13279214D01*
X15515476Y-13279214D02*
X15505953Y-13288738D01*
X15715476Y-13403024D02*
X15696429Y-13393500D01*
X15696429Y-13393500D02*
X15686905Y-13383976D01*
X15686905Y-13383976D02*
X15677381Y-13364928D01*
X15677381Y-13364928D02*
X15677381Y-13307786D01*
X15677381Y-13307786D02*
X15686905Y-13288738D01*
X15686905Y-13288738D02*
X15696429Y-13279214D01*
X15696429Y-13279214D02*
X15715476Y-13269690D01*
X15715476Y-13269690D02*
X15744048Y-13269690D01*
X15744048Y-13269690D02*
X15763096Y-13279214D01*
X15763096Y-13279214D02*
X15772619Y-13288738D01*
X15772619Y-13288738D02*
X15782143Y-13307786D01*
X15782143Y-13307786D02*
X15782143Y-13364928D01*
X15782143Y-13364928D02*
X15772619Y-13383976D01*
X15772619Y-13383976D02*
X15763096Y-13393500D01*
X15763096Y-13393500D02*
X15744048Y-13403024D01*
X15744048Y-13403024D02*
X15715476Y-13403024D01*
X15896429Y-13403024D02*
X15877381Y-13393500D01*
X15877381Y-13393500D02*
X15867857Y-13374452D01*
X15867857Y-13374452D02*
X15867857Y-13203024D01*
X16048810Y-13393500D02*
X16029762Y-13403024D01*
X16029762Y-13403024D02*
X15991667Y-13403024D01*
X15991667Y-13403024D02*
X15972619Y-13393500D01*
X15972619Y-13393500D02*
X15963096Y-13374452D01*
X15963096Y-13374452D02*
X15963096Y-13298262D01*
X15963096Y-13298262D02*
X15972619Y-13279214D01*
X15972619Y-13279214D02*
X15991667Y-13269690D01*
X15991667Y-13269690D02*
X16029762Y-13269690D01*
X16029762Y-13269690D02*
X16048810Y-13279214D01*
X16048810Y-13279214D02*
X16058334Y-13298262D01*
X16058334Y-13298262D02*
X16058334Y-13317309D01*
X16058334Y-13317309D02*
X15963096Y-13336357D01*
X16134524Y-13393500D02*
X16153572Y-13403024D01*
X16153572Y-13403024D02*
X16191667Y-13403024D01*
X16191667Y-13403024D02*
X16210715Y-13393500D01*
X16210715Y-13393500D02*
X16220238Y-13374452D01*
X16220238Y-13374452D02*
X16220238Y-13364928D01*
X16220238Y-13364928D02*
X16210715Y-13345881D01*
X16210715Y-13345881D02*
X16191667Y-13336357D01*
X16191667Y-13336357D02*
X16163096Y-13336357D01*
X16163096Y-13336357D02*
X16144048Y-13326833D01*
X16144048Y-13326833D02*
X16134524Y-13307786D01*
X16134524Y-13307786D02*
X16134524Y-13298262D01*
X16134524Y-13298262D02*
X16144048Y-13279214D01*
X16144048Y-13279214D02*
X16163096Y-13269690D01*
X16163096Y-13269690D02*
X16191667Y-13269690D01*
X16191667Y-13269690D02*
X16210715Y-13279214D01*
X16286905Y-13479214D02*
X16296429Y-13469690D01*
X16296429Y-13469690D02*
X16315477Y-13441119D01*
X16315477Y-13441119D02*
X16325000Y-13422071D01*
X16325000Y-13422071D02*
X16334524Y-13393500D01*
X16334524Y-13393500D02*
X16344048Y-13345881D01*
X16344048Y-13345881D02*
X16344048Y-13307786D01*
X16344048Y-13307786D02*
X16334524Y-13260167D01*
X16334524Y-13260167D02*
X16325000Y-13231595D01*
X16325000Y-13231595D02*
X16315477Y-13212548D01*
X16315477Y-13212548D02*
X16296429Y-13183976D01*
X16296429Y-13183976D02*
X16286905Y-13174452D01*
X16648810Y-13479214D02*
X16639286Y-13469690D01*
X16639286Y-13469690D02*
X16620238Y-13441119D01*
X16620238Y-13441119D02*
X16610715Y-13422071D01*
X16610715Y-13422071D02*
X16601191Y-13393500D01*
X16601191Y-13393500D02*
X16591667Y-13345881D01*
X16591667Y-13345881D02*
X16591667Y-13307786D01*
X16591667Y-13307786D02*
X16601191Y-13260167D01*
X16601191Y-13260167D02*
X16610715Y-13231595D01*
X16610715Y-13231595D02*
X16620238Y-13212548D01*
X16620238Y-13212548D02*
X16639286Y-13183976D01*
X16639286Y-13183976D02*
X16648810Y-13174452D01*
X16725000Y-13269690D02*
X16725000Y-13403024D01*
X16725000Y-13288738D02*
X16734524Y-13279214D01*
X16734524Y-13279214D02*
X16753572Y-13269690D01*
X16753572Y-13269690D02*
X16782143Y-13269690D01*
X16782143Y-13269690D02*
X16801191Y-13279214D01*
X16801191Y-13279214D02*
X16810715Y-13298262D01*
X16810715Y-13298262D02*
X16810715Y-13403024D01*
X16934524Y-13403024D02*
X16915477Y-13393500D01*
X16915477Y-13393500D02*
X16905953Y-13383976D01*
X16905953Y-13383976D02*
X16896429Y-13364928D01*
X16896429Y-13364928D02*
X16896429Y-13307786D01*
X16896429Y-13307786D02*
X16905953Y-13288738D01*
X16905953Y-13288738D02*
X16915477Y-13279214D01*
X16915477Y-13279214D02*
X16934524Y-13269690D01*
X16934524Y-13269690D02*
X16963096Y-13269690D01*
X16963096Y-13269690D02*
X16982143Y-13279214D01*
X16982143Y-13279214D02*
X16991667Y-13288738D01*
X16991667Y-13288738D02*
X17001191Y-13307786D01*
X17001191Y-13307786D02*
X17001191Y-13364928D01*
X17001191Y-13364928D02*
X16991667Y-13383976D01*
X16991667Y-13383976D02*
X16982143Y-13393500D01*
X16982143Y-13393500D02*
X16963096Y-13403024D01*
X16963096Y-13403024D02*
X16934524Y-13403024D01*
X17058334Y-13269690D02*
X17134524Y-13269690D01*
X17086905Y-13203024D02*
X17086905Y-13374452D01*
X17086905Y-13374452D02*
X17096429Y-13393500D01*
X17096429Y-13393500D02*
X17115477Y-13403024D01*
X17115477Y-13403024D02*
X17134524Y-13403024D01*
X17353572Y-13269690D02*
X17353572Y-13469690D01*
X17353572Y-13279214D02*
X17372620Y-13269690D01*
X17372620Y-13269690D02*
X17410715Y-13269690D01*
X17410715Y-13269690D02*
X17429762Y-13279214D01*
X17429762Y-13279214D02*
X17439286Y-13288738D01*
X17439286Y-13288738D02*
X17448810Y-13307786D01*
X17448810Y-13307786D02*
X17448810Y-13364928D01*
X17448810Y-13364928D02*
X17439286Y-13383976D01*
X17439286Y-13383976D02*
X17429762Y-13393500D01*
X17429762Y-13393500D02*
X17410715Y-13403024D01*
X17410715Y-13403024D02*
X17372620Y-13403024D01*
X17372620Y-13403024D02*
X17353572Y-13393500D01*
X17563096Y-13403024D02*
X17544048Y-13393500D01*
X17544048Y-13393500D02*
X17534524Y-13374452D01*
X17534524Y-13374452D02*
X17534524Y-13203024D01*
X17725001Y-13403024D02*
X17725001Y-13298262D01*
X17725001Y-13298262D02*
X17715477Y-13279214D01*
X17715477Y-13279214D02*
X17696429Y-13269690D01*
X17696429Y-13269690D02*
X17658334Y-13269690D01*
X17658334Y-13269690D02*
X17639286Y-13279214D01*
X17725001Y-13393500D02*
X17705953Y-13403024D01*
X17705953Y-13403024D02*
X17658334Y-13403024D01*
X17658334Y-13403024D02*
X17639286Y-13393500D01*
X17639286Y-13393500D02*
X17629762Y-13374452D01*
X17629762Y-13374452D02*
X17629762Y-13355405D01*
X17629762Y-13355405D02*
X17639286Y-13336357D01*
X17639286Y-13336357D02*
X17658334Y-13326833D01*
X17658334Y-13326833D02*
X17705953Y-13326833D01*
X17705953Y-13326833D02*
X17725001Y-13317309D01*
X17791667Y-13269690D02*
X17867858Y-13269690D01*
X17820239Y-13203024D02*
X17820239Y-13374452D01*
X17820239Y-13374452D02*
X17829762Y-13393500D01*
X17829762Y-13393500D02*
X17848810Y-13403024D01*
X17848810Y-13403024D02*
X17867858Y-13403024D01*
X18010715Y-13393500D02*
X17991667Y-13403024D01*
X17991667Y-13403024D02*
X17953572Y-13403024D01*
X17953572Y-13403024D02*
X17934524Y-13393500D01*
X17934524Y-13393500D02*
X17925001Y-13374452D01*
X17925001Y-13374452D02*
X17925001Y-13298262D01*
X17925001Y-13298262D02*
X17934524Y-13279214D01*
X17934524Y-13279214D02*
X17953572Y-13269690D01*
X17953572Y-13269690D02*
X17991667Y-13269690D01*
X17991667Y-13269690D02*
X18010715Y-13279214D01*
X18010715Y-13279214D02*
X18020239Y-13298262D01*
X18020239Y-13298262D02*
X18020239Y-13317309D01*
X18020239Y-13317309D02*
X17925001Y-13336357D01*
X18191667Y-13403024D02*
X18191667Y-13203024D01*
X18191667Y-13393500D02*
X18172620Y-13403024D01*
X18172620Y-13403024D02*
X18134524Y-13403024D01*
X18134524Y-13403024D02*
X18115477Y-13393500D01*
X18115477Y-13393500D02*
X18105953Y-13383976D01*
X18105953Y-13383976D02*
X18096429Y-13364928D01*
X18096429Y-13364928D02*
X18096429Y-13307786D01*
X18096429Y-13307786D02*
X18105953Y-13288738D01*
X18105953Y-13288738D02*
X18115477Y-13279214D01*
X18115477Y-13279214D02*
X18134524Y-13269690D01*
X18134524Y-13269690D02*
X18172620Y-13269690D01*
X18172620Y-13269690D02*
X18191667Y-13279214D01*
X18267858Y-13479214D02*
X18277382Y-13469690D01*
X18277382Y-13469690D02*
X18296429Y-13441119D01*
X18296429Y-13441119D02*
X18305953Y-13422071D01*
X18305953Y-13422071D02*
X18315477Y-13393500D01*
X18315477Y-13393500D02*
X18325001Y-13345881D01*
X18325001Y-13345881D02*
X18325001Y-13307786D01*
X18325001Y-13307786D02*
X18315477Y-13260167D01*
X18315477Y-13260167D02*
X18305953Y-13231595D01*
X18305953Y-13231595D02*
X18296429Y-13212548D01*
X18296429Y-13212548D02*
X18277382Y-13183976D01*
X18277382Y-13183976D02*
X18267858Y-13174452D01*
M02*
