%TF.GenerationSoftware,KiCad,Pcbnew,7.0.2*%
%TF.CreationDate,2023-07-17T10:41:54+03:00*%
%TF.ProjectId,DeskSmartFan,4465736b-536d-4617-9274-46616e2e6b69,rev?*%
%TF.SameCoordinates,Original*%
%TF.FileFunction,Paste,Top*%
%TF.FilePolarity,Positive*%
%FSLAX46Y46*%
G04 Gerber Fmt 4.6, Leading zero omitted, Abs format (unit mm)*
G04 Created by KiCad (PCBNEW 7.0.2) date 2023-07-17 10:41:54*
%MOMM*%
%LPD*%
G01*
G04 APERTURE LIST*
G04 Aperture macros list*
%AMRoundRect*
0 Rectangle with rounded corners*
0 $1 Rounding radius*
0 $2 $3 $4 $5 $6 $7 $8 $9 X,Y pos of 4 corners*
0 Add a 4 corners polygon primitive as box body*
4,1,4,$2,$3,$4,$5,$6,$7,$8,$9,$2,$3,0*
0 Add four circle primitives for the rounded corners*
1,1,$1+$1,$2,$3*
1,1,$1+$1,$4,$5*
1,1,$1+$1,$6,$7*
1,1,$1+$1,$8,$9*
0 Add four rect primitives between the rounded corners*
20,1,$1+$1,$2,$3,$4,$5,0*
20,1,$1+$1,$4,$5,$6,$7,0*
20,1,$1+$1,$6,$7,$8,$9,0*
20,1,$1+$1,$8,$9,$2,$3,0*%
G04 Aperture macros list end*
%ADD10RoundRect,0.242500X0.242500X0.242500X-0.242500X0.242500X-0.242500X-0.242500X0.242500X-0.242500X0*%
%ADD11RoundRect,0.062500X0.337500X0.062500X-0.337500X0.062500X-0.337500X-0.062500X0.337500X-0.062500X0*%
%ADD12RoundRect,0.062500X0.062500X0.337500X-0.062500X0.337500X-0.062500X-0.337500X0.062500X-0.337500X0*%
%ADD13RoundRect,0.250000X0.315000X0.315000X-0.315000X0.315000X-0.315000X-0.315000X0.315000X-0.315000X0*%
%ADD14RoundRect,0.050000X0.387500X0.050000X-0.387500X0.050000X-0.387500X-0.050000X0.387500X-0.050000X0*%
%ADD15RoundRect,0.050000X0.050000X0.387500X-0.050000X0.387500X-0.050000X-0.387500X0.050000X-0.387500X0*%
%ADD16RoundRect,0.225000X-0.250000X0.225000X-0.250000X-0.225000X0.250000X-0.225000X0.250000X0.225000X0*%
%ADD17RoundRect,0.225000X0.225000X0.250000X-0.225000X0.250000X-0.225000X-0.250000X0.225000X-0.250000X0*%
%ADD18RoundRect,0.200000X0.275000X-0.200000X0.275000X0.200000X-0.275000X0.200000X-0.275000X-0.200000X0*%
%ADD19RoundRect,0.225000X-0.225000X-0.250000X0.225000X-0.250000X0.225000X0.250000X-0.225000X0.250000X0*%
%ADD20RoundRect,0.225000X0.250000X-0.225000X0.250000X0.225000X-0.250000X0.225000X-0.250000X-0.225000X0*%
%ADD21RoundRect,0.200000X-0.275000X0.200000X-0.275000X-0.200000X0.275000X-0.200000X0.275000X0.200000X0*%
%ADD22RoundRect,0.150000X0.587500X0.150000X-0.587500X0.150000X-0.587500X-0.150000X0.587500X-0.150000X0*%
%ADD23R,1.981200X0.558800*%
%ADD24RoundRect,0.200000X0.200000X0.275000X-0.200000X0.275000X-0.200000X-0.275000X0.200000X-0.275000X0*%
%ADD25RoundRect,0.218750X-0.218750X-0.256250X0.218750X-0.256250X0.218750X0.256250X-0.218750X0.256250X0*%
%ADD26RoundRect,0.250000X-0.650000X1.000000X-0.650000X-1.000000X0.650000X-1.000000X0.650000X1.000000X0*%
%ADD27RoundRect,0.250000X-0.650000X0.350000X-0.650000X-0.350000X0.650000X-0.350000X0.650000X0.350000X0*%
%ADD28RoundRect,0.250000X-1.250000X-0.550000X1.250000X-0.550000X1.250000X0.550000X-1.250000X0.550000X0*%
%ADD29R,2.000000X0.400000*%
%ADD30RoundRect,0.200000X-0.200000X-0.275000X0.200000X-0.275000X0.200000X0.275000X-0.200000X0.275000X0*%
%ADD31RoundRect,0.250000X-0.550000X1.250000X-0.550000X-1.250000X0.550000X-1.250000X0.550000X1.250000X0*%
%ADD32RoundRect,0.218750X-0.381250X0.218750X-0.381250X-0.218750X0.381250X-0.218750X0.381250X0.218750X0*%
%ADD33R,5.500000X2.150000*%
%ADD34RoundRect,0.218750X0.381250X-0.218750X0.381250X0.218750X-0.381250X0.218750X-0.381250X-0.218750X0*%
%ADD35R,2.000000X1.500000*%
%ADD36R,2.000000X3.800000*%
%ADD37R,1.800000X1.000000*%
%ADD38R,1.150000X1.000000*%
%ADD39R,1.600000X2.180000*%
%ADD40RoundRect,0.150000X-0.650000X-0.150000X0.650000X-0.150000X0.650000X0.150000X-0.650000X0.150000X0*%
%ADD41RoundRect,0.250000X-1.000000X-0.650000X1.000000X-0.650000X1.000000X0.650000X-1.000000X0.650000X0*%
%ADD42RoundRect,0.243750X0.456250X-0.243750X0.456250X0.243750X-0.456250X0.243750X-0.456250X-0.243750X0*%
%ADD43R,0.270800X1.161200*%
%ADD44R,1.000000X1.150000*%
%ADD45R,1.450000X0.600000*%
%ADD46R,1.450000X0.300000*%
%ADD47RoundRect,0.218750X-0.218750X-0.381250X0.218750X-0.381250X0.218750X0.381250X-0.218750X0.381250X0*%
G04 APERTURE END LIST*
D10*
%TO.C,U6*%
X127875000Y-87050000D03*
X125475000Y-88250000D03*
X126675000Y-87050000D03*
X126675000Y-88250000D03*
X127875000Y-88250000D03*
X125475000Y-87050000D03*
X125475000Y-85850000D03*
X127875000Y-85850000D03*
X126675000Y-85850000D03*
D11*
X129125000Y-88800000D03*
X129125000Y-88300000D03*
X129125000Y-87800000D03*
X129125000Y-87300000D03*
X129125000Y-86800000D03*
X129125000Y-86300000D03*
X129125000Y-85800000D03*
X129125000Y-85300000D03*
D12*
X128425000Y-84600000D03*
X127925000Y-84600000D03*
X127425000Y-84600000D03*
X126925000Y-84600000D03*
X126425000Y-84600000D03*
X125925000Y-84600000D03*
X125425000Y-84600000D03*
X124925000Y-84600000D03*
D11*
X124225000Y-85300000D03*
X124225000Y-85800000D03*
X124225000Y-86300000D03*
X124225000Y-86800000D03*
X124225000Y-87300000D03*
X124225000Y-87800000D03*
X124225000Y-88300000D03*
X124225000Y-88800000D03*
D12*
X124925000Y-89500000D03*
X125425000Y-89500000D03*
X125925000Y-89500000D03*
X126425000Y-89500000D03*
X126925000Y-89500000D03*
X127425000Y-89500000D03*
X127925000Y-89500000D03*
X128425000Y-89500000D03*
%TD*%
D13*
%TO.C,U1*%
X140157500Y-51557500D03*
X142957500Y-47357500D03*
X140157500Y-50157500D03*
X142957500Y-51557500D03*
X138757500Y-50157500D03*
X140157500Y-48757500D03*
X141557500Y-51557500D03*
X138757500Y-48757500D03*
X141557500Y-48757500D03*
X138757500Y-51557500D03*
X142957500Y-48757500D03*
X141557500Y-47357500D03*
X142957500Y-50157500D03*
X140157500Y-47357500D03*
X138757500Y-47357500D03*
X141557500Y-50157500D03*
D14*
X144295000Y-52057500D03*
X144295000Y-51657500D03*
X144295000Y-51257500D03*
X144295000Y-50857500D03*
X144295000Y-50457500D03*
X144295000Y-50057500D03*
X144295000Y-49657500D03*
X144295000Y-49257500D03*
X144295000Y-48857500D03*
X144295000Y-48457500D03*
X144295000Y-48057500D03*
X144295000Y-47657500D03*
X144295000Y-47257500D03*
X144295000Y-46857500D03*
D15*
X143457500Y-46020000D03*
X143057500Y-46020000D03*
X142657500Y-46020000D03*
X142257500Y-46020000D03*
X141857500Y-46020000D03*
X141457500Y-46020000D03*
X141057500Y-46020000D03*
X140657500Y-46020000D03*
X140257500Y-46020000D03*
X139857500Y-46020000D03*
X139457500Y-46020000D03*
X139057500Y-46020000D03*
X138657500Y-46020000D03*
X138257500Y-46020000D03*
D14*
X137420000Y-46857500D03*
X137420000Y-47257500D03*
X137420000Y-47657500D03*
X137420000Y-48057500D03*
X137420000Y-48457500D03*
X137420000Y-48857500D03*
X137420000Y-49257500D03*
X137420000Y-49657500D03*
X137420000Y-50057500D03*
X137420000Y-50457500D03*
X137420000Y-50857500D03*
X137420000Y-51257500D03*
X137420000Y-51657500D03*
X137420000Y-52057500D03*
D15*
X138257500Y-52895000D03*
X138657500Y-52895000D03*
X139057500Y-52895000D03*
X139457500Y-52895000D03*
X139857500Y-52895000D03*
X140257500Y-52895000D03*
X140657500Y-52895000D03*
X141057500Y-52895000D03*
X141457500Y-52895000D03*
X141857500Y-52895000D03*
X142257500Y-52895000D03*
X142657500Y-52895000D03*
X143057500Y-52895000D03*
X143457500Y-52895000D03*
%TD*%
D16*
%TO.C,C12*%
X143565000Y-57402500D03*
X143565000Y-58952500D03*
%TD*%
D17*
%TO.C,C50*%
X132475000Y-92400000D03*
X130925000Y-92400000D03*
%TD*%
D18*
%TO.C,R9*%
X146887500Y-108340000D03*
X146887500Y-106690000D03*
%TD*%
D17*
%TO.C,C36*%
X148040000Y-60275000D03*
X146490000Y-60275000D03*
%TD*%
D19*
%TO.C,C31*%
X144430000Y-76865000D03*
X145980000Y-76865000D03*
%TD*%
D20*
%TO.C,C35*%
X150570000Y-61100000D03*
X150570000Y-59550000D03*
%TD*%
D17*
%TO.C,C37*%
X148035000Y-61825000D03*
X146485000Y-61825000D03*
%TD*%
D19*
%TO.C,C49*%
X120150000Y-88000000D03*
X121700000Y-88000000D03*
%TD*%
D18*
%TO.C,R10*%
X145315000Y-106955000D03*
X145315000Y-105305000D03*
%TD*%
D21*
%TO.C,R18*%
X150660000Y-96510000D03*
X150660000Y-98160000D03*
%TD*%
D17*
%TO.C,C8*%
X134515000Y-54265000D03*
X132965000Y-54265000D03*
%TD*%
D22*
%TO.C,Q1*%
X125335000Y-108715000D03*
X125335000Y-106815000D03*
X123460000Y-107765000D03*
%TD*%
D19*
%TO.C,C32*%
X144515000Y-93555000D03*
X146065000Y-93555000D03*
%TD*%
D20*
%TO.C,C34*%
X152130000Y-61080000D03*
X152130000Y-59530000D03*
%TD*%
D18*
%TO.C,R5*%
X152150000Y-51060000D03*
X152150000Y-49410000D03*
%TD*%
D19*
%TO.C,C18*%
X148502500Y-109915000D03*
X150052500Y-109915000D03*
%TD*%
D16*
%TO.C,C53*%
X124200000Y-92825000D03*
X124200000Y-94375000D03*
%TD*%
D19*
%TO.C,C28*%
X144515000Y-88885000D03*
X146065000Y-88885000D03*
%TD*%
D23*
%TO.C,U3*%
X141391300Y-109540000D03*
X141391300Y-108270000D03*
X141391300Y-107000000D03*
X141391300Y-105730000D03*
X136463700Y-105730000D03*
X136463700Y-107000000D03*
X136463700Y-108270000D03*
X136463700Y-109540000D03*
%TD*%
D24*
%TO.C,R16*%
X146125000Y-90455000D03*
X144475000Y-90455000D03*
%TD*%
D17*
%TO.C,C20*%
X134162500Y-109555000D03*
X132612500Y-109555000D03*
%TD*%
D25*
%TO.C,L1*%
X128152500Y-71555000D03*
X129727500Y-71555000D03*
%TD*%
D26*
%TO.C,D1*%
X128187500Y-106827500D03*
X128187500Y-110827500D03*
%TD*%
D19*
%TO.C,C5*%
X149065000Y-50975000D03*
X150615000Y-50975000D03*
%TD*%
D27*
%TO.C,AE1*%
X116850000Y-86450000D03*
X116850000Y-89350000D03*
%TD*%
D16*
%TO.C,C1*%
X135440000Y-60980000D03*
X135440000Y-62530000D03*
%TD*%
D28*
%TO.C,C21*%
X154637500Y-105805000D03*
X159037500Y-105805000D03*
%TD*%
D29*
%TO.C,DS1*%
X141140000Y-97455000D03*
X141140000Y-96755000D03*
X141140000Y-96055000D03*
X141140000Y-95355000D03*
X141140000Y-94655000D03*
X141140000Y-93955000D03*
X141140000Y-93255000D03*
X141140000Y-92555000D03*
X141140000Y-91855000D03*
X141140000Y-91155000D03*
X141140000Y-90455000D03*
X141140000Y-89755000D03*
X141140000Y-89055000D03*
X141140000Y-88355000D03*
X141140000Y-87655000D03*
X141140000Y-86955000D03*
X141140000Y-86255000D03*
X141140000Y-85555000D03*
X141140000Y-84855000D03*
X141140000Y-84155000D03*
X141140000Y-83455000D03*
X141140000Y-82755000D03*
X141140000Y-82055000D03*
X141140000Y-81355000D03*
X141140000Y-80655000D03*
X141140000Y-79955000D03*
X141140000Y-79255000D03*
X141140000Y-78555000D03*
X141140000Y-77855000D03*
X141140000Y-77155000D03*
%TD*%
D16*
%TO.C,C7*%
X135810000Y-57395000D03*
X135810000Y-58945000D03*
%TD*%
%TO.C,C45*%
X121625000Y-83050000D03*
X121625000Y-84600000D03*
%TD*%
D19*
%TO.C,C48*%
X120175000Y-89600000D03*
X121725000Y-89600000D03*
%TD*%
D30*
%TO.C,R11*%
X131342500Y-101485000D03*
X132992500Y-101485000D03*
%TD*%
D24*
%TO.C,R17*%
X146030000Y-79955000D03*
X144380000Y-79955000D03*
%TD*%
D17*
%TO.C,C30*%
X145975000Y-78415000D03*
X144425000Y-78415000D03*
%TD*%
D21*
%TO.C,R19*%
X158780000Y-96510000D03*
X158780000Y-98160000D03*
%TD*%
D16*
%TO.C,C11*%
X142025000Y-57397500D03*
X142025000Y-58947500D03*
%TD*%
D31*
%TO.C,C22*%
X153630000Y-119935000D03*
X153630000Y-124335000D03*
%TD*%
D32*
%TO.C,L4*%
X129225000Y-92837500D03*
X129225000Y-94962500D03*
%TD*%
D20*
%TO.C,C19*%
X143707500Y-105730000D03*
X143707500Y-104180000D03*
%TD*%
D33*
%TO.C,L2*%
X138897500Y-116330000D03*
X138897500Y-120180000D03*
%TD*%
D30*
%TO.C,R12*%
X134422500Y-101485000D03*
X136072500Y-101485000D03*
%TD*%
D31*
%TO.C,C25*%
X145240000Y-119935000D03*
X145240000Y-124335000D03*
%TD*%
D19*
%TO.C,C17*%
X148477500Y-108325000D03*
X150027500Y-108325000D03*
%TD*%
D34*
%TO.C,L5*%
X127425000Y-94962500D03*
X127425000Y-92837500D03*
%TD*%
D21*
%TO.C,R20*%
X160840000Y-74930000D03*
X160840000Y-76580000D03*
%TD*%
D28*
%TO.C,C26*%
X145307500Y-114065000D03*
X149707500Y-114065000D03*
%TD*%
D20*
%TO.C,C23*%
X131357500Y-104585000D03*
X131357500Y-103035000D03*
%TD*%
%TO.C,C3*%
X136800000Y-42660000D03*
X136800000Y-41110000D03*
%TD*%
D18*
%TO.C,R3*%
X136980000Y-62585000D03*
X136980000Y-60935000D03*
%TD*%
D35*
%TO.C,U4*%
X159947500Y-115245000D03*
X159947500Y-112945000D03*
D36*
X153647500Y-112945000D03*
D35*
X159947500Y-110645000D03*
%TD*%
D30*
%TO.C,R8*%
X123992500Y-111605000D03*
X125642500Y-111605000D03*
%TD*%
D17*
%TO.C,C9*%
X134485000Y-48465000D03*
X132935000Y-48465000D03*
%TD*%
D16*
%TO.C,C6*%
X137360000Y-57390000D03*
X137360000Y-58940000D03*
%TD*%
D20*
%TO.C,C13*%
X143030000Y-42670000D03*
X143030000Y-41120000D03*
%TD*%
D17*
%TO.C,C14*%
X134505000Y-52715000D03*
X132955000Y-52715000D03*
%TD*%
D21*
%TO.C,R7*%
X141480000Y-41070000D03*
X141480000Y-42720000D03*
%TD*%
D24*
%TO.C,R6*%
X150665000Y-49395000D03*
X149015000Y-49395000D03*
%TD*%
D19*
%TO.C,C44*%
X131375000Y-85150000D03*
X132925000Y-85150000D03*
%TD*%
D21*
%TO.C,R4*%
X133440000Y-66700000D03*
X133440000Y-68350000D03*
%TD*%
D19*
%TO.C,C47*%
X124150000Y-96600000D03*
X125700000Y-96600000D03*
%TD*%
D24*
%TO.C,R15*%
X146115000Y-84725000D03*
X144465000Y-84725000D03*
%TD*%
D37*
%TO.C,Y3*%
X131400000Y-89250000D03*
X131400000Y-86750000D03*
%TD*%
D18*
%TO.C,R2*%
X138920000Y-58995000D03*
X138920000Y-57345000D03*
%TD*%
D24*
%TO.C,R14*%
X146110000Y-86265000D03*
X144460000Y-86265000D03*
%TD*%
D38*
%TO.C,Y1*%
X144735000Y-42655000D03*
X146485000Y-42655000D03*
X146485000Y-41255000D03*
X144735000Y-41255000D03*
%TD*%
D24*
%TO.C,R13*%
X136072500Y-103035000D03*
X134422500Y-103035000D03*
%TD*%
D39*
%TO.C,SW1*%
X155270000Y-40425000D03*
X155270000Y-49605000D03*
%TD*%
D19*
%TO.C,C29*%
X144525000Y-96895000D03*
X146075000Y-96895000D03*
%TD*%
D16*
%TO.C,C16*%
X145297500Y-108390000D03*
X145297500Y-109940000D03*
%TD*%
D20*
%TO.C,C10*%
X139920000Y-42660000D03*
X139920000Y-41110000D03*
%TD*%
D16*
%TO.C,C40*%
X159240000Y-74980000D03*
X159240000Y-76530000D03*
%TD*%
D40*
%TO.C,U2*%
X148110000Y-52760000D03*
X148110000Y-54030000D03*
X148110000Y-55300000D03*
X148110000Y-56570000D03*
X155310000Y-56570000D03*
X155310000Y-55300000D03*
X155310000Y-54030000D03*
X155310000Y-52760000D03*
%TD*%
D20*
%TO.C,C4*%
X135250000Y-42650000D03*
X135250000Y-41100000D03*
%TD*%
%TO.C,C51*%
X130025000Y-82575000D03*
X130025000Y-81025000D03*
%TD*%
D19*
%TO.C,C33*%
X144515000Y-91975000D03*
X146065000Y-91975000D03*
%TD*%
D16*
%TO.C,C39*%
X157220000Y-96550000D03*
X157220000Y-98100000D03*
%TD*%
D20*
%TO.C,C46*%
X125725000Y-94375000D03*
X125725000Y-92825000D03*
%TD*%
D19*
%TO.C,C43*%
X131425000Y-90800000D03*
X132975000Y-90800000D03*
%TD*%
D20*
%TO.C,C24*%
X132927500Y-104580000D03*
X132927500Y-103030000D03*
%TD*%
D41*
%TO.C,D2*%
X136947500Y-112555000D03*
X140947500Y-112555000D03*
%TD*%
D17*
%TO.C,C27*%
X146055000Y-95345000D03*
X144505000Y-95345000D03*
%TD*%
%TO.C,C42*%
X122450000Y-96150000D03*
X120900000Y-96150000D03*
%TD*%
D20*
%TO.C,C2*%
X138350000Y-42650000D03*
X138350000Y-41100000D03*
%TD*%
D19*
%TO.C,C41*%
X120925000Y-91150000D03*
X122475000Y-91150000D03*
%TD*%
D42*
%TO.C,F1*%
X133660000Y-62532500D03*
X133660000Y-60657500D03*
%TD*%
D24*
%TO.C,R21*%
X129850000Y-79100000D03*
X128200000Y-79100000D03*
%TD*%
D20*
%TO.C,C38*%
X152230000Y-98100000D03*
X152230000Y-96550000D03*
%TD*%
D43*
%TO.C,U5*%
X148035000Y-70845000D03*
X148684999Y-70845000D03*
X149334997Y-70845000D03*
X149984998Y-70845000D03*
X150634997Y-70845000D03*
X151284998Y-70845000D03*
X151934997Y-70845000D03*
X152584998Y-70845000D03*
X153234997Y-70845000D03*
X153884998Y-70845000D03*
X154534997Y-70845000D03*
X155184998Y-70845000D03*
X155184998Y-63695002D03*
X154534999Y-63695002D03*
X153884998Y-63695002D03*
X153235000Y-63695002D03*
X152584998Y-63695002D03*
X151935000Y-63695002D03*
X151285001Y-63695002D03*
X150635000Y-63695002D03*
X149985001Y-63695002D03*
X149335000Y-63695002D03*
X148685001Y-63695002D03*
X148035000Y-63695002D03*
%TD*%
D44*
%TO.C,Y2*%
X121000000Y-92775000D03*
X121000000Y-94525000D03*
X122400000Y-94525000D03*
X122400000Y-92775000D03*
%TD*%
D18*
%TO.C,R1*%
X140470000Y-58970000D03*
X140470000Y-57320000D03*
%TD*%
D20*
%TO.C,C52*%
X128425000Y-82575000D03*
X128425000Y-81025000D03*
%TD*%
D45*
%TO.C,J1*%
X129055000Y-61725000D03*
X129055000Y-62525000D03*
D46*
X129055000Y-63725000D03*
X129055000Y-64725000D03*
X129055000Y-65225000D03*
X129055000Y-66225000D03*
D45*
X129055000Y-67425000D03*
X129055000Y-68225000D03*
X129055000Y-68225000D03*
X129055000Y-67425000D03*
D46*
X129055000Y-66725000D03*
X129055000Y-65725000D03*
X129055000Y-64225000D03*
X129055000Y-63225000D03*
D45*
X129055000Y-62525000D03*
X129055000Y-61725000D03*
%TD*%
D16*
%TO.C,C15*%
X148180000Y-41180000D03*
X148180000Y-42730000D03*
%TD*%
D47*
%TO.C,L3*%
X119562500Y-86300000D03*
X121687500Y-86300000D03*
%TD*%
M02*
