%TF.GenerationSoftware,KiCad,Pcbnew,7.0.2*%
%TF.CreationDate,2023-07-17T10:41:56+03:00*%
%TF.ProjectId,DeskSmartFan,4465736b-536d-4617-9274-46616e2e6b69,rev?*%
%TF.SameCoordinates,Original*%
%TF.FileFunction,Drillmap*%
%TF.FilePolarity,Positive*%
%FSLAX45Y45*%
G04 Gerber Fmt 4.5, Leading zero omitted, Abs format (unit mm)*
G04 Created by KiCad (PCBNEW 7.0.2) date 2023-07-17 10:41:56*
%MOMM*%
%LPD*%
G01*
G04 APERTURE LIST*
%ADD10C,0.100000*%
%ADD11C,0.200000*%
%ADD12C,0.030000*%
%ADD13C,0.040000*%
%ADD14C,0.060000*%
%ADD15C,0.070000*%
%ADD16C,0.080000*%
%ADD17C,0.150000*%
%ADD18C,0.220000*%
G04 APERTURE END LIST*
D10*
X16414000Y-12165500D02*
X16414000Y-4065500D01*
X11530000Y-9610000D02*
G75*
G03*
X11830000Y-9910000I300000J0D01*
G01*
X12714000Y-12665500D02*
X15914000Y-12665500D01*
X12210000Y-10290000D02*
X12214000Y-12165500D01*
X15914000Y-12665500D02*
G75*
G03*
X16414000Y-12165500I0J500000D01*
G01*
X12214000Y-12165500D02*
G75*
G03*
X12714000Y-12665500I500000J0D01*
G01*
X13777055Y-9530445D02*
G75*
G03*
X13777055Y-9530445I-36056J0D01*
G01*
X11830000Y-7610000D02*
G75*
G03*
X11530000Y-7910000I0J-300000D01*
G01*
X12714000Y-3565500D02*
G75*
G03*
X12214000Y-4065500I0J-500000D01*
G01*
X11830000Y-7610000D02*
G75*
G03*
X12210000Y-7230000I0J380000D01*
G01*
X12210000Y-10290000D02*
G75*
G03*
X11830000Y-9910000I-380000J0D01*
G01*
X16414000Y-4065500D02*
G75*
G03*
X15914000Y-3565500I-500000J0D01*
G01*
X11530000Y-9610000D02*
X11530000Y-7910000D01*
X13773055Y-7930500D02*
G75*
G03*
X13773055Y-7930500I-36056J0D01*
G01*
X15914000Y-3565500D02*
X12714000Y-3565500D01*
X12210000Y-7230000D02*
X12214000Y-4065500D01*
D11*
D12*
X11865000Y-7625000D02*
X11895000Y-7655000D01*
X11895000Y-7625000D02*
X11865000Y-7655000D01*
X11865000Y-7695000D02*
X11895000Y-7725000D01*
X11895000Y-7695000D02*
X11865000Y-7725000D01*
X11865000Y-7765000D02*
X11895000Y-7795000D01*
X11895000Y-7765000D02*
X11865000Y-7795000D01*
X11865000Y-7835000D02*
X11895000Y-7865000D01*
X11895000Y-7835000D02*
X11865000Y-7865000D01*
X11865000Y-7905000D02*
X11895000Y-7935000D01*
X11895000Y-7905000D02*
X11865000Y-7935000D01*
X11865000Y-7975000D02*
X11895000Y-8005000D01*
X11895000Y-7975000D02*
X11865000Y-8005000D01*
X11865000Y-8045000D02*
X11895000Y-8075000D01*
X11895000Y-8045000D02*
X11865000Y-8075000D01*
X11865000Y-8115000D02*
X11895000Y-8145000D01*
X11895000Y-8115000D02*
X11865000Y-8145000D01*
X11865000Y-8185000D02*
X11895000Y-8215000D01*
X11895000Y-8185000D02*
X11865000Y-8215000D01*
X11865000Y-8255000D02*
X11895000Y-8285000D01*
X11895000Y-8255000D02*
X11865000Y-8285000D01*
X11865000Y-8325000D02*
X11895000Y-8355000D01*
X11895000Y-8325000D02*
X11865000Y-8355000D01*
X11865000Y-8735000D02*
X11895000Y-8765000D01*
X11895000Y-8735000D02*
X11865000Y-8765000D01*
X11865000Y-8805000D02*
X11895000Y-8835000D01*
X11895000Y-8805000D02*
X11865000Y-8835000D01*
X11865000Y-8875000D02*
X11895000Y-8905000D01*
X11895000Y-8875000D02*
X11865000Y-8905000D01*
X11865000Y-8945000D02*
X11895000Y-8975000D01*
X11895000Y-8945000D02*
X11865000Y-8975000D01*
X11865000Y-9015000D02*
X11895000Y-9045000D01*
X11895000Y-9015000D02*
X11865000Y-9045000D01*
X11865000Y-9085000D02*
X11895000Y-9115000D01*
X11895000Y-9085000D02*
X11865000Y-9115000D01*
X11865000Y-9155000D02*
X11895000Y-9185000D01*
X11895000Y-9155000D02*
X11865000Y-9185000D01*
X11865000Y-9225000D02*
X11895000Y-9255000D01*
X11895000Y-9225000D02*
X11865000Y-9255000D01*
X11865000Y-9295000D02*
X11895000Y-9325000D01*
X11895000Y-9295000D02*
X11865000Y-9325000D01*
X11865000Y-9365000D02*
X11895000Y-9395000D01*
X11895000Y-9365000D02*
X11865000Y-9395000D01*
X11865000Y-9435000D02*
X11895000Y-9465000D01*
X11895000Y-9435000D02*
X11865000Y-9465000D01*
X11865000Y-9505000D02*
X11895000Y-9535000D01*
X11895000Y-9505000D02*
X11865000Y-9535000D01*
X11865000Y-9575000D02*
X11895000Y-9605000D01*
X11895000Y-9575000D02*
X11865000Y-9605000D01*
X11865000Y-9645000D02*
X11895000Y-9675000D01*
X11895000Y-9645000D02*
X11865000Y-9675000D01*
X11865000Y-9715000D02*
X11895000Y-9745000D01*
X11895000Y-9715000D02*
X11865000Y-9745000D01*
X11865000Y-9785000D02*
X11895000Y-9815000D01*
X11895000Y-9785000D02*
X11865000Y-9815000D01*
X11865000Y-9855000D02*
X11895000Y-9885000D01*
X11895000Y-9855000D02*
X11865000Y-9885000D01*
X11935000Y-8325000D02*
X11965000Y-8355000D01*
X11965000Y-8325000D02*
X11935000Y-8355000D01*
X11935000Y-8735000D02*
X11965000Y-8765000D01*
X11965000Y-8735000D02*
X11935000Y-8765000D01*
X12005000Y-8325000D02*
X12035000Y-8355000D01*
X12035000Y-8325000D02*
X12005000Y-8355000D01*
X12075000Y-8325000D02*
X12105000Y-8355000D01*
X12105000Y-8325000D02*
X12075000Y-8355000D01*
X12319000Y-10600500D02*
X12349000Y-10630500D01*
X12349000Y-10600500D02*
X12319000Y-10630500D01*
X12380000Y-9065000D02*
X12410000Y-9095000D01*
X12410000Y-9065000D02*
X12380000Y-9095000D01*
X12405000Y-9267500D02*
X12435000Y-9297500D01*
X12435000Y-9267500D02*
X12405000Y-9297500D01*
X12425000Y-8130000D02*
X12455000Y-8160000D01*
X12455000Y-8130000D02*
X12425000Y-8160000D01*
X12535000Y-8585000D02*
X12565000Y-8615000D01*
X12565000Y-8585000D02*
X12535000Y-8615000D01*
X12535000Y-8660000D02*
X12565000Y-8690000D01*
X12565000Y-8660000D02*
X12535000Y-8690000D01*
X12535000Y-8735000D02*
X12565000Y-8765000D01*
X12565000Y-8735000D02*
X12535000Y-8765000D01*
X12535000Y-8810000D02*
X12565000Y-8840000D01*
X12565000Y-8810000D02*
X12535000Y-8840000D01*
X12574000Y-9106000D02*
X12604000Y-9136000D01*
X12604000Y-9106000D02*
X12574000Y-9136000D01*
X12610000Y-8585000D02*
X12640000Y-8615000D01*
X12640000Y-8585000D02*
X12610000Y-8615000D01*
X12610000Y-8660000D02*
X12640000Y-8690000D01*
X12640000Y-8660000D02*
X12610000Y-8690000D01*
X12610000Y-8735000D02*
X12640000Y-8765000D01*
X12640000Y-8735000D02*
X12610000Y-8765000D01*
X12610000Y-8810000D02*
X12640000Y-8840000D01*
X12640000Y-8810000D02*
X12610000Y-8840000D01*
X12685000Y-8585000D02*
X12715000Y-8615000D01*
X12715000Y-8585000D02*
X12685000Y-8615000D01*
X12685000Y-8660000D02*
X12715000Y-8690000D01*
X12715000Y-8660000D02*
X12685000Y-8690000D01*
X12685000Y-8735000D02*
X12715000Y-8765000D01*
X12715000Y-8735000D02*
X12685000Y-8765000D01*
X12685000Y-8810000D02*
X12715000Y-8840000D01*
X12715000Y-8810000D02*
X12685000Y-8840000D01*
X12760000Y-8585000D02*
X12790000Y-8615000D01*
X12790000Y-8585000D02*
X12760000Y-8615000D01*
X12760000Y-8660000D02*
X12790000Y-8690000D01*
X12790000Y-8660000D02*
X12760000Y-8690000D01*
X12760000Y-8735000D02*
X12790000Y-8765000D01*
X12790000Y-8735000D02*
X12760000Y-8765000D01*
X12760000Y-8810000D02*
X12790000Y-8840000D01*
X12790000Y-8810000D02*
X12760000Y-8840000D01*
X12803750Y-10667750D02*
X12833750Y-10697750D01*
X12833750Y-10667750D02*
X12803750Y-10697750D01*
X12827500Y-8242500D02*
X12857500Y-8272500D01*
X12857500Y-8242500D02*
X12827500Y-8272500D01*
X12903616Y-9034191D02*
X12933616Y-9064191D01*
X12933616Y-9034191D02*
X12903616Y-9064191D01*
X13099000Y-6050500D02*
X13129000Y-6080500D01*
X13129000Y-6050500D02*
X13099000Y-6080500D01*
X13220000Y-8244950D02*
X13250000Y-8274950D01*
X13250000Y-8244950D02*
X13220000Y-8274950D01*
X13246250Y-10940500D02*
X13276250Y-10970500D01*
X13276250Y-10940500D02*
X13246250Y-10970500D01*
X13305000Y-8249950D02*
X13335000Y-8279950D01*
X13335000Y-8249950D02*
X13305000Y-8279950D01*
X13433500Y-4831500D02*
X13463500Y-4861500D01*
X13463500Y-4831500D02*
X13433500Y-4861500D01*
X13498000Y-5027500D02*
X13528000Y-5057500D01*
X13528000Y-5027500D02*
X13498000Y-5057500D01*
X13582000Y-5563500D02*
X13612000Y-5593500D01*
X13612000Y-5563500D02*
X13582000Y-5593500D01*
X13620000Y-4745000D02*
X13650000Y-4775000D01*
X13650000Y-4745000D02*
X13620000Y-4775000D01*
X13671000Y-4441500D02*
X13701000Y-4471500D01*
X13701000Y-4441500D02*
X13671000Y-4471500D01*
X13671000Y-4520500D02*
X13701000Y-4550500D01*
X13701000Y-4520500D02*
X13671000Y-4550500D01*
X13672000Y-4594500D02*
X13702000Y-4624500D01*
X13702000Y-4594500D02*
X13672000Y-4624500D01*
X13673000Y-5267500D02*
X13703000Y-5297500D01*
X13703000Y-5267500D02*
X13673000Y-5297500D01*
X13673000Y-5342500D02*
X13703000Y-5372500D01*
X13703000Y-5342500D02*
X13673000Y-5372500D01*
X13721000Y-5715500D02*
X13751000Y-5745500D01*
X13751000Y-5715500D02*
X13721000Y-5745500D01*
X13743000Y-5342500D02*
X13773000Y-5372500D01*
X13773000Y-5342500D02*
X13743000Y-5372500D01*
X13744000Y-5268500D02*
X13774000Y-5298500D01*
X13774000Y-5268500D02*
X13744000Y-5298500D01*
X13746000Y-4520500D02*
X13776000Y-4550500D01*
X13776000Y-4520500D02*
X13746000Y-4550500D01*
X13746000Y-4593500D02*
X13776000Y-4623500D01*
X13776000Y-4593500D02*
X13746000Y-4623500D01*
X13747000Y-4441500D02*
X13777000Y-4471500D01*
X13777000Y-4441500D02*
X13747000Y-4471500D01*
X13818000Y-5506500D02*
X13848000Y-5536500D01*
X13848000Y-5506500D02*
X13818000Y-5536500D01*
X13821559Y-4422950D02*
X13851559Y-4452950D01*
X13851559Y-4422950D02*
X13821559Y-4452950D01*
X13885000Y-4735000D02*
X13915000Y-4765000D01*
X13915000Y-4735000D02*
X13885000Y-4765000D01*
X13885000Y-4835000D02*
X13915000Y-4865000D01*
X13915000Y-4835000D02*
X13885000Y-4865000D01*
X13885000Y-4935000D02*
X13915000Y-4965000D01*
X13915000Y-4935000D02*
X13885000Y-4965000D01*
X13885000Y-5035000D02*
X13915000Y-5065000D01*
X13915000Y-5035000D02*
X13885000Y-5065000D01*
X13885000Y-5135000D02*
X13915000Y-5165000D01*
X13915000Y-5135000D02*
X13885000Y-5165000D01*
X13896510Y-4422950D02*
X13926510Y-4452950D01*
X13926510Y-4422950D02*
X13896510Y-4452950D01*
X13939000Y-10940500D02*
X13969000Y-10970500D01*
X13969000Y-10940500D02*
X13939000Y-10970500D01*
X13977000Y-4251000D02*
X14007000Y-4281000D01*
X14007000Y-4251000D02*
X13977000Y-4281000D01*
X13985000Y-4735000D02*
X14015000Y-4765000D01*
X14015000Y-4735000D02*
X13985000Y-4765000D01*
X13985000Y-4835000D02*
X14015000Y-4865000D01*
X14015000Y-4835000D02*
X13985000Y-4865000D01*
X13985000Y-4935000D02*
X14015000Y-4965000D01*
X14015000Y-4935000D02*
X13985000Y-4965000D01*
X13985000Y-5035000D02*
X14015000Y-5065000D01*
X14015000Y-5035000D02*
X13985000Y-5065000D01*
X13985000Y-5135000D02*
X14015000Y-5165000D01*
X14015000Y-5135000D02*
X13985000Y-5165000D01*
X14085000Y-4735000D02*
X14115000Y-4765000D01*
X14115000Y-4735000D02*
X14085000Y-4765000D01*
X14085000Y-4835000D02*
X14115000Y-4865000D01*
X14115000Y-4835000D02*
X14085000Y-4865000D01*
X14085000Y-4935000D02*
X14115000Y-4965000D01*
X14115000Y-4935000D02*
X14085000Y-4965000D01*
X14085000Y-5035000D02*
X14115000Y-5065000D01*
X14115000Y-5035000D02*
X14085000Y-5065000D01*
X14085000Y-5135000D02*
X14115000Y-5165000D01*
X14115000Y-5135000D02*
X14085000Y-5165000D01*
X14155450Y-5505500D02*
X14185450Y-5535500D01*
X14185450Y-5505500D02*
X14155450Y-5535500D01*
X14185000Y-4735000D02*
X14215000Y-4765000D01*
X14215000Y-4735000D02*
X14185000Y-4765000D01*
X14185000Y-4835000D02*
X14215000Y-4865000D01*
X14215000Y-4835000D02*
X14185000Y-4865000D01*
X14185000Y-4935000D02*
X14215000Y-4965000D01*
X14215000Y-4935000D02*
X14185000Y-4965000D01*
X14185000Y-5035000D02*
X14215000Y-5065000D01*
X14215000Y-5035000D02*
X14185000Y-5065000D01*
X14185000Y-5135000D02*
X14215000Y-5165000D01*
X14215000Y-5135000D02*
X14185000Y-5165000D01*
X14187500Y-5724750D02*
X14217500Y-5754750D01*
X14217500Y-5724750D02*
X14187500Y-5754750D01*
X14285000Y-4735000D02*
X14315000Y-4765000D01*
X14315000Y-4735000D02*
X14285000Y-4765000D01*
X14285000Y-4835000D02*
X14315000Y-4865000D01*
X14315000Y-4835000D02*
X14285000Y-4865000D01*
X14285000Y-4935000D02*
X14315000Y-4965000D01*
X14315000Y-4935000D02*
X14285000Y-4965000D01*
X14285000Y-5035000D02*
X14315000Y-5065000D01*
X14315000Y-5035000D02*
X14285000Y-5065000D01*
X14285000Y-5135000D02*
X14315000Y-5165000D01*
X14315000Y-5135000D02*
X14285000Y-5165000D01*
X14341500Y-5725250D02*
X14371500Y-5755250D01*
X14371500Y-5725250D02*
X14341500Y-5755250D01*
X14399000Y-4563500D02*
X14429000Y-4593500D01*
X14429000Y-4563500D02*
X14399000Y-4593500D01*
X14399000Y-5266500D02*
X14429000Y-5296500D01*
X14429000Y-5266500D02*
X14399000Y-5296500D01*
X14399000Y-5344500D02*
X14429000Y-5374500D01*
X14429000Y-5344500D02*
X14399000Y-5374500D01*
X14402000Y-4487500D02*
X14432000Y-4517500D01*
X14432000Y-4487500D02*
X14402000Y-4517500D01*
X14428000Y-7671500D02*
X14458000Y-7701500D01*
X14458000Y-7671500D02*
X14428000Y-7701500D01*
X14431000Y-8611500D02*
X14461000Y-8641500D01*
X14461000Y-8611500D02*
X14431000Y-8641500D01*
X14431500Y-8457500D02*
X14461500Y-8487500D01*
X14461500Y-8457500D02*
X14431500Y-8487500D01*
X14436500Y-9340500D02*
X14466500Y-9370500D01*
X14466500Y-9340500D02*
X14436500Y-9370500D01*
X14474000Y-5265500D02*
X14504000Y-5295500D01*
X14504000Y-5265500D02*
X14474000Y-5295500D01*
X14475000Y-5344500D02*
X14505000Y-5374500D01*
X14505000Y-5344500D02*
X14475000Y-5374500D01*
X14477000Y-4489500D02*
X14507000Y-4519500D01*
X14507000Y-4489500D02*
X14477000Y-4519500D01*
X14478000Y-4564500D02*
X14508000Y-4594500D01*
X14508000Y-4564500D02*
X14478000Y-4594500D01*
X14519000Y-11150500D02*
X14549000Y-11180500D01*
X14549000Y-11150500D02*
X14519000Y-11180500D01*
X14551000Y-5268500D02*
X14581000Y-5298500D01*
X14581000Y-5268500D02*
X14551000Y-5298500D01*
X14552000Y-4490500D02*
X14582000Y-4520500D01*
X14582000Y-4490500D02*
X14552000Y-4520500D01*
X14553000Y-5344500D02*
X14583000Y-5374500D01*
X14583000Y-5344500D02*
X14553000Y-5374500D01*
X14596500Y-8457500D02*
X14626500Y-8487500D01*
X14626500Y-8457500D02*
X14596500Y-8487500D01*
X14729000Y-7200500D02*
X14759000Y-7230500D01*
X14759000Y-7200500D02*
X14729000Y-7230500D01*
X14729000Y-7270500D02*
X14759000Y-7300500D01*
X14759000Y-7270500D02*
X14729000Y-7300500D01*
X14729000Y-7340500D02*
X14759000Y-7370500D01*
X14759000Y-7340500D02*
X14729000Y-7370500D01*
X14766979Y-4880313D02*
X14796979Y-4910313D01*
X14796979Y-4880313D02*
X14766979Y-4910313D01*
X14767059Y-4955263D02*
X14797059Y-4985263D01*
X14797059Y-4955263D02*
X14767059Y-4985263D01*
X14772000Y-5030050D02*
X14802000Y-5060050D01*
X14802000Y-5030050D02*
X14772000Y-5060050D01*
X14773156Y-4805617D02*
X14803156Y-4835617D01*
X14803156Y-4805617D02*
X14773156Y-4835617D01*
X14779000Y-7390500D02*
X14809000Y-7420500D01*
X14809000Y-7390500D02*
X14779000Y-7420500D01*
X14789000Y-6012500D02*
X14819000Y-6042500D01*
X14819000Y-6012500D02*
X14789000Y-6042500D01*
X14825996Y-4752462D02*
X14855996Y-4782462D01*
X14855996Y-4752462D02*
X14825996Y-4782462D01*
X14829000Y-7440500D02*
X14859000Y-7470500D01*
X14859000Y-7440500D02*
X14829000Y-7470500D01*
X14879000Y-7490500D02*
X14909000Y-7520500D01*
X14909000Y-7490500D02*
X14879000Y-7520500D01*
X14919000Y-7200500D02*
X14949000Y-7230500D01*
X14949000Y-7200500D02*
X14919000Y-7230500D01*
X14919522Y-6252500D02*
X14949522Y-6282500D01*
X14949522Y-6252500D02*
X14919522Y-6282500D01*
X14929000Y-7270500D02*
X14959000Y-7300500D01*
X14959000Y-7270500D02*
X14929000Y-7300500D01*
X14929000Y-9800500D02*
X14959000Y-9830500D01*
X14959000Y-9800500D02*
X14929000Y-9830500D01*
X14936000Y-6505500D02*
X14966000Y-6535500D01*
X14966000Y-6505500D02*
X14936000Y-6535500D01*
X14939000Y-7530500D02*
X14969000Y-7560500D01*
X14969000Y-7530500D02*
X14939000Y-7560500D01*
X14956000Y-5642500D02*
X14986000Y-5672500D01*
X14986000Y-5642500D02*
X14956000Y-5672500D01*
X14958000Y-6657450D02*
X14988000Y-6687450D01*
X14988000Y-6657450D02*
X14958000Y-6687450D01*
X14958000Y-6903500D02*
X14988000Y-6933500D01*
X14988000Y-6903500D02*
X14958000Y-6933500D01*
X14979000Y-7320500D02*
X15009000Y-7350500D01*
X15009000Y-7320500D02*
X14979000Y-7350500D01*
X14979036Y-6206941D02*
X15009036Y-6236941D01*
X15009036Y-6206941D02*
X14979036Y-6236941D01*
X14989000Y-7230500D02*
X15019000Y-7260500D01*
X15019000Y-7230500D02*
X14989000Y-7260500D01*
X15009000Y-7540500D02*
X15039000Y-7570500D01*
X15039000Y-7540500D02*
X15009000Y-7570500D01*
X15015000Y-5514500D02*
X15045000Y-5544500D01*
X15045000Y-5514500D02*
X15015000Y-5544500D01*
X15036000Y-5208500D02*
X15066000Y-5238500D01*
X15066000Y-5208500D02*
X15036000Y-5238500D01*
X15036000Y-5313450D02*
X15066000Y-5343450D01*
X15066000Y-5313450D02*
X15036000Y-5343450D01*
X15039000Y-7360500D02*
X15069000Y-7390500D01*
X15069000Y-7360500D02*
X15039000Y-7390500D01*
X15042000Y-6095000D02*
X15072000Y-6125000D01*
X15072000Y-6095000D02*
X15042000Y-6125000D01*
X15046000Y-6534500D02*
X15076000Y-6564500D01*
X15076000Y-6534500D02*
X15046000Y-6564500D01*
X15079000Y-7540500D02*
X15109000Y-7570500D01*
X15109000Y-7540500D02*
X15079000Y-7570500D01*
X15092000Y-4676950D02*
X15122000Y-4706950D01*
X15122000Y-4676950D02*
X15092000Y-4706950D01*
X15112000Y-6231500D02*
X15142000Y-6261500D01*
X15142000Y-6231500D02*
X15112000Y-6261500D01*
X15119000Y-7360500D02*
X15149000Y-7390500D01*
X15149000Y-7360500D02*
X15119000Y-7390500D01*
X15127450Y-5515500D02*
X15157450Y-5545500D01*
X15157450Y-5515500D02*
X15127450Y-5545500D01*
X15127450Y-5643500D02*
X15157450Y-5673500D01*
X15157450Y-5643500D02*
X15127450Y-5673500D01*
X15129000Y-5719500D02*
X15159000Y-5749500D01*
X15159000Y-5719500D02*
X15129000Y-5749500D01*
X15145000Y-6482500D02*
X15175000Y-6512500D01*
X15175000Y-6482500D02*
X15145000Y-6512500D01*
X15149000Y-7540500D02*
X15179000Y-7570500D01*
X15179000Y-7540500D02*
X15149000Y-7570500D01*
X15167150Y-4678279D02*
X15197150Y-4708279D01*
X15197150Y-4678279D02*
X15167150Y-4708279D01*
X15189000Y-7190500D02*
X15219000Y-7220500D01*
X15219000Y-7190500D02*
X15189000Y-7220500D01*
X15191000Y-6228500D02*
X15221000Y-6258500D01*
X15221000Y-6228500D02*
X15191000Y-6258500D01*
X15196000Y-5810500D02*
X15226000Y-5840500D01*
X15226000Y-5810500D02*
X15196000Y-5840500D01*
X15199000Y-7360500D02*
X15229000Y-7390500D01*
X15229000Y-7360500D02*
X15199000Y-7390500D01*
X15219000Y-7540500D02*
X15249000Y-7570500D01*
X15249000Y-7540500D02*
X15219000Y-7570500D01*
X15242100Y-4678279D02*
X15272100Y-4708279D01*
X15272100Y-4678279D02*
X15242100Y-4708279D01*
X15269000Y-7190500D02*
X15299000Y-7220500D01*
X15299000Y-7190500D02*
X15269000Y-7220500D01*
X15279000Y-7360500D02*
X15309000Y-7390500D01*
X15309000Y-7360500D02*
X15279000Y-7390500D01*
X15289000Y-7540500D02*
X15319000Y-7570500D01*
X15319000Y-7540500D02*
X15289000Y-7570500D01*
X15299000Y-6840500D02*
X15329000Y-6870500D01*
X15329000Y-6840500D02*
X15299000Y-6870500D01*
X15299000Y-6920500D02*
X15329000Y-6950500D01*
X15329000Y-6920500D02*
X15299000Y-6950500D01*
X15339000Y-7190500D02*
X15369000Y-7220500D01*
X15369000Y-7190500D02*
X15339000Y-7220500D01*
X15359000Y-7360500D02*
X15389000Y-7390500D01*
X15389000Y-7360500D02*
X15359000Y-7390500D01*
X15369000Y-6810500D02*
X15399000Y-6840500D01*
X15399000Y-6810500D02*
X15369000Y-6840500D01*
X15369000Y-6880500D02*
X15399000Y-6910500D01*
X15399000Y-6880500D02*
X15369000Y-6910500D01*
X15369000Y-6950500D02*
X15399000Y-6980500D01*
X15399000Y-6950500D02*
X15369000Y-6980500D01*
X15369000Y-7540500D02*
X15399000Y-7570500D01*
X15399000Y-7540500D02*
X15369000Y-7570500D01*
X15391846Y-4687146D02*
X15421846Y-4717146D01*
X15421846Y-4687146D02*
X15391846Y-4717146D01*
X15395000Y-6245500D02*
X15425000Y-6275500D01*
X15425000Y-6245500D02*
X15395000Y-6275500D01*
X15409000Y-6750500D02*
X15439000Y-6780500D01*
X15439000Y-6750500D02*
X15409000Y-6780500D01*
X15411450Y-6023502D02*
X15441450Y-6053502D01*
X15441450Y-6023502D02*
X15411450Y-6053502D01*
X15413912Y-6098412D02*
X15443912Y-6128412D01*
X15443912Y-6098412D02*
X15413912Y-6128412D01*
X15419000Y-7190500D02*
X15449000Y-7220500D01*
X15449000Y-7190500D02*
X15419000Y-7220500D01*
X15439000Y-7360500D02*
X15469000Y-7390500D01*
X15469000Y-7360500D02*
X15439000Y-7390500D01*
X15439000Y-7540500D02*
X15469000Y-7570500D01*
X15469000Y-7540500D02*
X15439000Y-7570500D01*
X15444000Y-6178500D02*
X15474000Y-6208500D01*
X15474000Y-6178500D02*
X15444000Y-6208500D01*
X15448750Y-10565500D02*
X15478750Y-10595500D01*
X15478750Y-10565500D02*
X15448750Y-10595500D01*
X15459000Y-6700500D02*
X15489000Y-6730500D01*
X15489000Y-6700500D02*
X15459000Y-6730500D01*
X15466778Y-4688790D02*
X15496778Y-4718790D01*
X15496778Y-4688790D02*
X15466778Y-4718790D01*
X15471000Y-5172500D02*
X15501000Y-5202500D01*
X15501000Y-5172500D02*
X15471000Y-5202500D01*
X15489000Y-7190500D02*
X15519000Y-7220500D01*
X15519000Y-7190500D02*
X15489000Y-7220500D01*
X15509000Y-6650500D02*
X15539000Y-6680500D01*
X15539000Y-6650500D02*
X15509000Y-6680500D01*
X15509000Y-7540500D02*
X15539000Y-7570500D01*
X15539000Y-7540500D02*
X15509000Y-7570500D01*
X15519000Y-7360500D02*
X15549000Y-7390500D01*
X15549000Y-7360500D02*
X15519000Y-7390500D01*
X15541698Y-4686665D02*
X15571698Y-4716665D01*
X15571698Y-4686665D02*
X15541698Y-4716665D01*
X15559000Y-6600500D02*
X15589000Y-6630500D01*
X15589000Y-6600500D02*
X15559000Y-6630500D01*
X15559000Y-7190500D02*
X15589000Y-7220500D01*
X15589000Y-7190500D02*
X15559000Y-7220500D01*
X15579000Y-6840500D02*
X15609000Y-6870500D01*
X15609000Y-6840500D02*
X15579000Y-6870500D01*
X15579000Y-6910500D02*
X15609000Y-6940500D01*
X15609000Y-6910500D02*
X15579000Y-6940500D01*
X15579000Y-6980500D02*
X15609000Y-7010500D01*
X15609000Y-6980500D02*
X15579000Y-7010500D01*
X15579000Y-7050500D02*
X15609000Y-7080500D01*
X15609000Y-7050500D02*
X15579000Y-7080500D01*
X15579000Y-7120500D02*
X15609000Y-7150500D01*
X15609000Y-7120500D02*
X15579000Y-7150500D01*
X15579000Y-7540500D02*
X15609000Y-7570500D01*
X15609000Y-7540500D02*
X15579000Y-7570500D01*
X15599000Y-7360500D02*
X15629000Y-7390500D01*
X15629000Y-7360500D02*
X15599000Y-7390500D01*
X15609000Y-6550500D02*
X15639000Y-6580500D01*
X15639000Y-6550500D02*
X15609000Y-6580500D01*
X15616550Y-4690500D02*
X15646550Y-4720500D01*
X15646550Y-4690500D02*
X15616550Y-4720500D01*
X15627000Y-5857500D02*
X15657000Y-5887500D01*
X15657000Y-5857500D02*
X15627000Y-5887500D01*
X15629000Y-6780500D02*
X15659000Y-6810500D01*
X15659000Y-6780500D02*
X15629000Y-6810500D01*
X15649000Y-5170500D02*
X15679000Y-5200500D01*
X15679000Y-5170500D02*
X15649000Y-5200500D01*
X15649000Y-7540500D02*
X15679000Y-7570500D01*
X15679000Y-7540500D02*
X15649000Y-7570500D01*
X15659000Y-6500500D02*
X15689000Y-6530500D01*
X15689000Y-6500500D02*
X15659000Y-6530500D01*
X15679000Y-7350500D02*
X15709000Y-7380500D01*
X15709000Y-7350500D02*
X15679000Y-7380500D01*
X15699000Y-6720500D02*
X15729000Y-6750500D01*
X15729000Y-6720500D02*
X15699000Y-6750500D01*
X15709000Y-6450500D02*
X15739000Y-6480500D01*
X15739000Y-6450500D02*
X15709000Y-6480500D01*
X15709000Y-10974500D02*
X15739000Y-11004500D01*
X15739000Y-10974500D02*
X15709000Y-11004500D01*
X15719000Y-7540500D02*
X15749000Y-7570500D01*
X15749000Y-7540500D02*
X15719000Y-7570500D01*
X15739000Y-7300500D02*
X15769000Y-7330500D01*
X15769000Y-7300500D02*
X15739000Y-7330500D01*
X15759000Y-6680500D02*
X15789000Y-6710500D01*
X15789000Y-6680500D02*
X15759000Y-6710500D01*
X15759000Y-6920500D02*
X15789000Y-6950500D01*
X15789000Y-6920500D02*
X15759000Y-6950500D01*
X15759000Y-7000500D02*
X15789000Y-7030500D01*
X15789000Y-7000500D02*
X15759000Y-7030500D01*
X15759000Y-7080500D02*
X15789000Y-7110500D01*
X15789000Y-7080500D02*
X15759000Y-7110500D01*
X15759000Y-7160500D02*
X15789000Y-7190500D01*
X15789000Y-7160500D02*
X15759000Y-7190500D01*
X15759000Y-7230500D02*
X15789000Y-7260500D01*
X15789000Y-7230500D02*
X15759000Y-7260500D01*
X15769000Y-6400500D02*
X15799000Y-6430500D01*
X15799000Y-6400500D02*
X15769000Y-6430500D01*
X15789000Y-7510500D02*
X15819000Y-7540500D01*
X15819000Y-7510500D02*
X15789000Y-7540500D01*
X15807000Y-4689500D02*
X15837000Y-4719500D01*
X15837000Y-4689500D02*
X15807000Y-4719500D01*
X15809000Y-6870500D02*
X15839000Y-6900500D01*
X15839000Y-6870500D02*
X15809000Y-6900500D01*
X15829000Y-6680500D02*
X15859000Y-6710500D01*
X15859000Y-6680500D02*
X15829000Y-6710500D01*
X15839000Y-7450500D02*
X15869000Y-7480500D01*
X15869000Y-7450500D02*
X15839000Y-7480500D01*
X15863000Y-9801000D02*
X15893000Y-9831000D01*
X15893000Y-9801000D02*
X15863000Y-9831000D01*
X15889000Y-7400500D02*
X15919000Y-7430500D01*
X15919000Y-7400500D02*
X15889000Y-7430500D01*
X15939000Y-7350500D02*
X15969000Y-7380500D01*
X15969000Y-7350500D02*
X15939000Y-7380500D01*
X15979750Y-11279500D02*
X16009750Y-11309500D01*
X16009750Y-11279500D02*
X15979750Y-11309500D01*
X15989000Y-7300500D02*
X16019000Y-7330500D01*
X16019000Y-7300500D02*
X15989000Y-7330500D01*
X16039000Y-7240500D02*
X16069000Y-7270500D01*
X16069000Y-7240500D02*
X16039000Y-7270500D01*
X16049000Y-7160500D02*
X16079000Y-7190500D01*
X16079000Y-7160500D02*
X16049000Y-7190500D01*
X16069000Y-7478000D02*
X16099000Y-7508000D01*
X16099000Y-7478000D02*
X16069000Y-7508000D01*
X16104000Y-9688450D02*
X16134000Y-9718450D01*
X16134000Y-9688450D02*
X16104000Y-9718450D01*
D13*
X11705000Y-8935000D02*
G75*
G03*
X11705000Y-8935000I-20000J0D01*
G01*
X12365000Y-10140000D02*
X12365000Y-10180000D01*
X12345000Y-10160000D02*
X12385000Y-10160000D01*
X12413327Y-10023327D02*
X12413327Y-10063327D01*
X12393327Y-10043327D02*
X12433327Y-10043327D01*
X12413327Y-10256673D02*
X12413327Y-10296673D01*
X12393327Y-10276673D02*
X12433327Y-10276673D01*
X12530000Y-9975000D02*
X12530000Y-10015000D01*
X12510000Y-9995000D02*
X12550000Y-9995000D01*
X12530000Y-10305000D02*
X12530000Y-10345000D01*
X12510000Y-10325000D02*
X12550000Y-10325000D01*
X12549000Y-4045500D02*
X12549000Y-4085500D01*
X12529000Y-4065500D02*
X12569000Y-4065500D01*
X12597327Y-3928827D02*
X12597327Y-3968827D01*
X12577327Y-3948827D02*
X12617327Y-3948827D01*
X12597327Y-4162173D02*
X12597327Y-4202173D01*
X12577327Y-4182173D02*
X12617327Y-4182173D01*
X12646673Y-10023327D02*
X12646673Y-10063327D01*
X12626673Y-10043327D02*
X12666673Y-10043327D01*
X12646673Y-10256673D02*
X12646673Y-10296673D01*
X12626673Y-10276673D02*
X12666673Y-10276673D01*
X12695000Y-10140000D02*
X12695000Y-10180000D01*
X12675000Y-10160000D02*
X12715000Y-10160000D01*
X12714000Y-3880500D02*
X12714000Y-3920500D01*
X12694000Y-3900500D02*
X12734000Y-3900500D01*
X12714000Y-4210500D02*
X12714000Y-4250500D01*
X12694000Y-4230500D02*
X12734000Y-4230500D01*
X12830673Y-3928827D02*
X12830673Y-3968827D01*
X12810673Y-3948827D02*
X12850673Y-3948827D01*
X12830673Y-4162173D02*
X12830673Y-4202173D01*
X12810673Y-4182173D02*
X12850673Y-4182173D01*
X12879000Y-4045500D02*
X12879000Y-4085500D01*
X12859000Y-4065500D02*
X12899000Y-4065500D01*
X15849000Y-12145500D02*
X15849000Y-12185500D01*
X15829000Y-12165500D02*
X15869000Y-12165500D01*
X15897327Y-12028827D02*
X15897327Y-12068827D01*
X15877327Y-12048827D02*
X15917327Y-12048827D01*
X15897327Y-12262173D02*
X15897327Y-12302173D01*
X15877327Y-12282173D02*
X15917327Y-12282173D01*
X16014000Y-11980500D02*
X16014000Y-12020500D01*
X15994000Y-12000500D02*
X16034000Y-12000500D01*
X16014000Y-12310500D02*
X16014000Y-12350500D01*
X15994000Y-12330500D02*
X16034000Y-12330500D01*
X16130673Y-12028827D02*
X16130673Y-12068827D01*
X16110673Y-12048827D02*
X16150673Y-12048827D01*
X16130673Y-12262173D02*
X16130673Y-12302173D01*
X16110673Y-12282173D02*
X16150673Y-12282173D01*
X16179000Y-12145500D02*
X16179000Y-12185500D01*
X16159000Y-12165500D02*
X16199000Y-12165500D01*
D14*
X12417213Y-6086713D02*
X12417213Y-6044287D01*
X12374787Y-6044287D01*
X12374787Y-6086713D01*
X12417213Y-6086713D01*
D11*
X12426000Y-6035500D02*
X12366000Y-6035500D01*
X12366000Y-6035500D02*
G75*
G03*
X12366000Y-6095500I0J-30000D01*
G01*
X12366000Y-6095500D02*
X12426000Y-6095500D01*
X12426000Y-6095500D02*
G75*
G03*
X12426000Y-6035500I0J30000D01*
G01*
D14*
X12417213Y-6950713D02*
X12417213Y-6908287D01*
X12374787Y-6908287D01*
X12374787Y-6950713D01*
X12417213Y-6950713D01*
D11*
X12426000Y-6899500D02*
X12366000Y-6899500D01*
X12366000Y-6899500D02*
G75*
G03*
X12366000Y-6959500I0J-30000D01*
G01*
X12366000Y-6959500D02*
X12426000Y-6959500D01*
X12426000Y-6959500D02*
G75*
G03*
X12426000Y-6899500I0J30000D01*
G01*
D14*
X12835213Y-6086713D02*
X12835213Y-6044287D01*
X12792787Y-6044287D01*
X12792787Y-6086713D01*
X12835213Y-6086713D01*
D11*
X12869000Y-6035500D02*
X12759000Y-6035500D01*
X12759000Y-6035500D02*
G75*
G03*
X12759000Y-6095500I0J-30000D01*
G01*
X12759000Y-6095500D02*
X12869000Y-6095500D01*
X12869000Y-6095500D02*
G75*
G03*
X12869000Y-6035500I0J30000D01*
G01*
D14*
X12835213Y-6950713D02*
X12835213Y-6908287D01*
X12792787Y-6908287D01*
X12792787Y-6950713D01*
X12835213Y-6950713D01*
D11*
X12869000Y-6899500D02*
X12759000Y-6899500D01*
X12759000Y-6899500D02*
G75*
G03*
X12759000Y-6959500I0J-30000D01*
G01*
X12759000Y-6959500D02*
X12869000Y-6959500D01*
X12869000Y-6959500D02*
G75*
G03*
X12869000Y-6899500I0J30000D01*
G01*
D15*
X12113500Y-7820000D02*
X12148500Y-7785000D01*
X12113500Y-7750000D01*
X12078500Y-7785000D01*
X12113500Y-7820000D01*
X12113500Y-7947000D02*
X12148500Y-7912000D01*
X12113500Y-7877000D01*
X12078500Y-7912000D01*
X12113500Y-7947000D01*
X12240500Y-7820000D02*
X12275500Y-7785000D01*
X12240500Y-7750000D01*
X12205500Y-7785000D01*
X12240500Y-7820000D01*
X12240500Y-7947000D02*
X12275500Y-7912000D01*
X12240500Y-7877000D01*
X12205500Y-7912000D01*
X12240500Y-7947000D01*
X12367500Y-7820000D02*
X12402500Y-7785000D01*
X12367500Y-7750000D01*
X12332500Y-7785000D01*
X12367500Y-7820000D01*
X12367500Y-7947000D02*
X12402500Y-7912000D01*
X12367500Y-7877000D01*
X12332500Y-7912000D01*
X12367500Y-7947000D01*
X12494500Y-7820000D02*
X12529500Y-7785000D01*
X12494500Y-7750000D01*
X12459500Y-7785000D01*
X12494500Y-7820000D01*
X12494500Y-7947000D02*
X12529500Y-7912000D01*
X12494500Y-7877000D01*
X12459500Y-7912000D01*
X12494500Y-7947000D01*
X12621500Y-7820000D02*
X12656500Y-7785000D01*
X12621500Y-7750000D01*
X12586500Y-7785000D01*
X12621500Y-7820000D01*
X12621500Y-7947000D02*
X12656500Y-7912000D01*
X12621500Y-7877000D01*
X12586500Y-7912000D01*
X12621500Y-7947000D01*
D16*
X12874000Y-11495500D02*
X12954000Y-11575500D01*
X12954000Y-11495500D02*
X12874000Y-11575500D01*
X12954000Y-11535500D02*
G75*
G03*
X12954000Y-11535500I-40000J0D01*
G01*
D11*
X12784000Y-11575500D02*
X13044000Y-11575500D01*
X13044000Y-11575500D02*
G75*
G03*
X13044000Y-11495500I0J40000D01*
G01*
X13044000Y-11495500D02*
X12784000Y-11495500D01*
X12784000Y-11495500D02*
G75*
G03*
X12784000Y-11575500I0J-40000D01*
G01*
D16*
X12874000Y-12075500D02*
X12954000Y-12155500D01*
X12954000Y-12075500D02*
X12874000Y-12155500D01*
X12954000Y-12115500D02*
G75*
G03*
X12954000Y-12115500I-40000J0D01*
G01*
D11*
X12804000Y-12155500D02*
X13024000Y-12155500D01*
X13024000Y-12155500D02*
G75*
G03*
X13024000Y-12075500I0J40000D01*
G01*
X13024000Y-12075500D02*
X12804000Y-12075500D01*
X12804000Y-12075500D02*
G75*
G03*
X12804000Y-12155500I0J-40000D01*
G01*
D16*
X13354000Y-11795500D02*
X13434000Y-11875500D01*
X13434000Y-11795500D02*
X13354000Y-11875500D01*
X13434000Y-11835500D02*
G75*
G03*
X13434000Y-11835500I-40000J0D01*
G01*
D11*
X13434000Y-11945500D02*
X13434000Y-11725500D01*
X13434000Y-11725500D02*
G75*
G03*
X13354000Y-11725500I-40000J0D01*
G01*
X13354000Y-11725500D02*
X13354000Y-11945500D01*
X13354000Y-11945500D02*
G75*
G03*
X13434000Y-11945500I40000J0D01*
G01*
D10*
X15172000Y-7854500D02*
X15272000Y-7954500D01*
X15272000Y-7854500D02*
X15172000Y-7954500D01*
X15222000Y-7854500D02*
X15222000Y-7954500D01*
X15172000Y-7904500D02*
X15272000Y-7904500D01*
X15172000Y-9304500D02*
X15272000Y-9404500D01*
X15272000Y-9304500D02*
X15172000Y-9404500D01*
X15222000Y-9304500D02*
X15222000Y-9404500D01*
X15172000Y-9354500D02*
X15272000Y-9354500D01*
X15422000Y-9304500D02*
X15522000Y-9404500D01*
X15522000Y-9304500D02*
X15422000Y-9404500D01*
X15472000Y-9304500D02*
X15472000Y-9404500D01*
X15422000Y-9354500D02*
X15522000Y-9354500D01*
X15672000Y-7854500D02*
X15772000Y-7954500D01*
X15772000Y-7854500D02*
X15672000Y-7954500D01*
X15722000Y-7854500D02*
X15722000Y-7954500D01*
X15672000Y-7904500D02*
X15772000Y-7904500D01*
X15672000Y-9304500D02*
X15772000Y-9404500D01*
X15772000Y-9304500D02*
X15672000Y-9404500D01*
X15722000Y-9304500D02*
X15722000Y-9404500D01*
X15672000Y-9354500D02*
X15772000Y-9354500D01*
X15929000Y-6242500D02*
X16029000Y-6342500D01*
X16029000Y-6242500D02*
X15929000Y-6342500D01*
X15979000Y-6242500D02*
X15979000Y-6342500D01*
X15929000Y-6292500D02*
X16029000Y-6292500D01*
X15929000Y-6496500D02*
X16029000Y-6596500D01*
X16029000Y-6496500D02*
X15929000Y-6596500D01*
X15979000Y-6496500D02*
X15979000Y-6596500D01*
X15929000Y-6546500D02*
X16029000Y-6546500D01*
X15929000Y-6750500D02*
X16029000Y-6850500D01*
X16029000Y-6750500D02*
X15929000Y-6850500D01*
X15979000Y-6750500D02*
X15979000Y-6850500D01*
X15929000Y-6800500D02*
X16029000Y-6800500D01*
X15929000Y-7004500D02*
X16029000Y-7104500D01*
X16029000Y-7004500D02*
X15929000Y-7104500D01*
X15979000Y-7004500D02*
X15979000Y-7104500D01*
X15929000Y-7054500D02*
X16029000Y-7054500D01*
X15937000Y-4051500D02*
X16037000Y-4151500D01*
X16037000Y-4051500D02*
X15937000Y-4151500D01*
X15987000Y-4051500D02*
X15987000Y-4151500D01*
X15937000Y-4101500D02*
X16037000Y-4101500D01*
X15937000Y-4305500D02*
X16037000Y-4405500D01*
X16037000Y-4305500D02*
X15937000Y-4405500D01*
X15987000Y-4305500D02*
X15987000Y-4405500D01*
X15937000Y-4355500D02*
X16037000Y-4355500D01*
X15937000Y-4559500D02*
X16037000Y-4659500D01*
X16037000Y-4559500D02*
X15937000Y-4659500D01*
X15987000Y-4559500D02*
X15987000Y-4659500D01*
X15937000Y-4609500D02*
X16037000Y-4609500D01*
X15944000Y-5075500D02*
X16044000Y-5175500D01*
X16044000Y-5075500D02*
X15944000Y-5175500D01*
X15994000Y-5075500D02*
X15994000Y-5175500D01*
X15944000Y-5125500D02*
X16044000Y-5125500D01*
X15944000Y-5329500D02*
X16044000Y-5429500D01*
X16044000Y-5329500D02*
X15944000Y-5429500D01*
X15994000Y-5329500D02*
X15994000Y-5429500D01*
X15944000Y-5379500D02*
X16044000Y-5379500D01*
X15944000Y-5583500D02*
X16044000Y-5683500D01*
X16044000Y-5583500D02*
X15944000Y-5683500D01*
X15994000Y-5583500D02*
X15994000Y-5683500D01*
X15944000Y-5633500D02*
X16044000Y-5633500D01*
D17*
X14837000Y-8529500D02*
X14987000Y-8679500D01*
X14987000Y-8529500D02*
X14837000Y-8679500D01*
X14965033Y-8657534D02*
X14965033Y-8551467D01*
X14858966Y-8551467D01*
X14858966Y-8657534D01*
X14965033Y-8657534D01*
D11*
X14987000Y-8669500D02*
X14987000Y-8539500D01*
X14987000Y-8539500D02*
G75*
G03*
X14837000Y-8539500I-75000J0D01*
G01*
X14837000Y-8539500D02*
X14837000Y-8669500D01*
X14837000Y-8669500D02*
G75*
G03*
X14987000Y-8669500I75000J0D01*
G01*
D17*
X15957000Y-8529500D02*
X16107000Y-8679500D01*
X16107000Y-8529500D02*
X15957000Y-8679500D01*
X16085033Y-8657534D02*
X16085033Y-8551467D01*
X15978966Y-8551467D01*
X15978966Y-8657534D01*
X16085033Y-8657534D01*
D11*
X16107000Y-8669500D02*
X16107000Y-8539500D01*
X16107000Y-8539500D02*
G75*
G03*
X15957000Y-8539500I-75000J0D01*
G01*
X15957000Y-8539500D02*
X15957000Y-8669500D01*
X15957000Y-8669500D02*
G75*
G03*
X16107000Y-8669500I75000J0D01*
G01*
D18*
X12420000Y-10050000D02*
X12640000Y-10270000D01*
X12640000Y-10050000D02*
X12420000Y-10270000D01*
X12530000Y-10270000D02*
X12640000Y-10160000D01*
X12530000Y-10050000D01*
X12420000Y-10160000D01*
X12530000Y-10270000D01*
X12604000Y-3955500D02*
X12824000Y-4175500D01*
X12824000Y-3955500D02*
X12604000Y-4175500D01*
X12714000Y-4175500D02*
X12824000Y-4065500D01*
X12714000Y-3955500D01*
X12604000Y-4065500D01*
X12714000Y-4175500D01*
X15904000Y-12055500D02*
X16124000Y-12275500D01*
X16124000Y-12055500D02*
X15904000Y-12275500D01*
X16014000Y-12275500D02*
X16124000Y-12165500D01*
X16014000Y-12055500D01*
X15904000Y-12165500D01*
X16014000Y-12275500D01*
D11*
X11772619Y-12983024D02*
X11772619Y-12783024D01*
X11772619Y-12783024D02*
X11820238Y-12783024D01*
X11820238Y-12783024D02*
X11848809Y-12792548D01*
X11848809Y-12792548D02*
X11867857Y-12811595D01*
X11867857Y-12811595D02*
X11877381Y-12830643D01*
X11877381Y-12830643D02*
X11886905Y-12868738D01*
X11886905Y-12868738D02*
X11886905Y-12897309D01*
X11886905Y-12897309D02*
X11877381Y-12935405D01*
X11877381Y-12935405D02*
X11867857Y-12954452D01*
X11867857Y-12954452D02*
X11848809Y-12973500D01*
X11848809Y-12973500D02*
X11820238Y-12983024D01*
X11820238Y-12983024D02*
X11772619Y-12983024D01*
X11972619Y-12983024D02*
X11972619Y-12849690D01*
X11972619Y-12887786D02*
X11982143Y-12868738D01*
X11982143Y-12868738D02*
X11991667Y-12859214D01*
X11991667Y-12859214D02*
X12010714Y-12849690D01*
X12010714Y-12849690D02*
X12029762Y-12849690D01*
X12096428Y-12983024D02*
X12096428Y-12849690D01*
X12096428Y-12783024D02*
X12086905Y-12792548D01*
X12086905Y-12792548D02*
X12096428Y-12802071D01*
X12096428Y-12802071D02*
X12105952Y-12792548D01*
X12105952Y-12792548D02*
X12096428Y-12783024D01*
X12096428Y-12783024D02*
X12096428Y-12802071D01*
X12220238Y-12983024D02*
X12201190Y-12973500D01*
X12201190Y-12973500D02*
X12191667Y-12954452D01*
X12191667Y-12954452D02*
X12191667Y-12783024D01*
X12325000Y-12983024D02*
X12305952Y-12973500D01*
X12305952Y-12973500D02*
X12296428Y-12954452D01*
X12296428Y-12954452D02*
X12296428Y-12783024D01*
X12553571Y-12983024D02*
X12553571Y-12783024D01*
X12553571Y-12783024D02*
X12620238Y-12925881D01*
X12620238Y-12925881D02*
X12686905Y-12783024D01*
X12686905Y-12783024D02*
X12686905Y-12983024D01*
X12867857Y-12983024D02*
X12867857Y-12878262D01*
X12867857Y-12878262D02*
X12858333Y-12859214D01*
X12858333Y-12859214D02*
X12839286Y-12849690D01*
X12839286Y-12849690D02*
X12801190Y-12849690D01*
X12801190Y-12849690D02*
X12782143Y-12859214D01*
X12867857Y-12973500D02*
X12848809Y-12983024D01*
X12848809Y-12983024D02*
X12801190Y-12983024D01*
X12801190Y-12983024D02*
X12782143Y-12973500D01*
X12782143Y-12973500D02*
X12772619Y-12954452D01*
X12772619Y-12954452D02*
X12772619Y-12935405D01*
X12772619Y-12935405D02*
X12782143Y-12916357D01*
X12782143Y-12916357D02*
X12801190Y-12906833D01*
X12801190Y-12906833D02*
X12848809Y-12906833D01*
X12848809Y-12906833D02*
X12867857Y-12897309D01*
X12963095Y-12849690D02*
X12963095Y-13049690D01*
X12963095Y-12859214D02*
X12982143Y-12849690D01*
X12982143Y-12849690D02*
X13020238Y-12849690D01*
X13020238Y-12849690D02*
X13039286Y-12859214D01*
X13039286Y-12859214D02*
X13048809Y-12868738D01*
X13048809Y-12868738D02*
X13058333Y-12887786D01*
X13058333Y-12887786D02*
X13058333Y-12944928D01*
X13058333Y-12944928D02*
X13048809Y-12963976D01*
X13048809Y-12963976D02*
X13039286Y-12973500D01*
X13039286Y-12973500D02*
X13020238Y-12983024D01*
X13020238Y-12983024D02*
X12982143Y-12983024D01*
X12982143Y-12983024D02*
X12963095Y-12973500D01*
X13144048Y-12963976D02*
X13153571Y-12973500D01*
X13153571Y-12973500D02*
X13144048Y-12983024D01*
X13144048Y-12983024D02*
X13134524Y-12973500D01*
X13134524Y-12973500D02*
X13144048Y-12963976D01*
X13144048Y-12963976D02*
X13144048Y-12983024D01*
X13144048Y-12859214D02*
X13153571Y-12868738D01*
X13153571Y-12868738D02*
X13144048Y-12878262D01*
X13144048Y-12878262D02*
X13134524Y-12868738D01*
X13134524Y-12868738D02*
X13144048Y-12859214D01*
X13144048Y-12859214D02*
X13144048Y-12878262D01*
D12*
X11495000Y-13295500D02*
X11525000Y-13325500D01*
X11525000Y-13295500D02*
X11495000Y-13325500D01*
D11*
X11810714Y-13203024D02*
X11829762Y-13203024D01*
X11829762Y-13203024D02*
X11848809Y-13212548D01*
X11848809Y-13212548D02*
X11858333Y-13222071D01*
X11858333Y-13222071D02*
X11867857Y-13241119D01*
X11867857Y-13241119D02*
X11877381Y-13279214D01*
X11877381Y-13279214D02*
X11877381Y-13326833D01*
X11877381Y-13326833D02*
X11867857Y-13364928D01*
X11867857Y-13364928D02*
X11858333Y-13383976D01*
X11858333Y-13383976D02*
X11848809Y-13393500D01*
X11848809Y-13393500D02*
X11829762Y-13403024D01*
X11829762Y-13403024D02*
X11810714Y-13403024D01*
X11810714Y-13403024D02*
X11791667Y-13393500D01*
X11791667Y-13393500D02*
X11782143Y-13383976D01*
X11782143Y-13383976D02*
X11772619Y-13364928D01*
X11772619Y-13364928D02*
X11763095Y-13326833D01*
X11763095Y-13326833D02*
X11763095Y-13279214D01*
X11763095Y-13279214D02*
X11772619Y-13241119D01*
X11772619Y-13241119D02*
X11782143Y-13222071D01*
X11782143Y-13222071D02*
X11791667Y-13212548D01*
X11791667Y-13212548D02*
X11810714Y-13203024D01*
X11963095Y-13383976D02*
X11972619Y-13393500D01*
X11972619Y-13393500D02*
X11963095Y-13403024D01*
X11963095Y-13403024D02*
X11953571Y-13393500D01*
X11953571Y-13393500D02*
X11963095Y-13383976D01*
X11963095Y-13383976D02*
X11963095Y-13403024D01*
X12039286Y-13203024D02*
X12163095Y-13203024D01*
X12163095Y-13203024D02*
X12096428Y-13279214D01*
X12096428Y-13279214D02*
X12125000Y-13279214D01*
X12125000Y-13279214D02*
X12144048Y-13288738D01*
X12144048Y-13288738D02*
X12153571Y-13298262D01*
X12153571Y-13298262D02*
X12163095Y-13317309D01*
X12163095Y-13317309D02*
X12163095Y-13364928D01*
X12163095Y-13364928D02*
X12153571Y-13383976D01*
X12153571Y-13383976D02*
X12144048Y-13393500D01*
X12144048Y-13393500D02*
X12125000Y-13403024D01*
X12125000Y-13403024D02*
X12067857Y-13403024D01*
X12067857Y-13403024D02*
X12048809Y-13393500D01*
X12048809Y-13393500D02*
X12039286Y-13383976D01*
X12286905Y-13203024D02*
X12305952Y-13203024D01*
X12305952Y-13203024D02*
X12325000Y-13212548D01*
X12325000Y-13212548D02*
X12334524Y-13222071D01*
X12334524Y-13222071D02*
X12344048Y-13241119D01*
X12344048Y-13241119D02*
X12353571Y-13279214D01*
X12353571Y-13279214D02*
X12353571Y-13326833D01*
X12353571Y-13326833D02*
X12344048Y-13364928D01*
X12344048Y-13364928D02*
X12334524Y-13383976D01*
X12334524Y-13383976D02*
X12325000Y-13393500D01*
X12325000Y-13393500D02*
X12305952Y-13403024D01*
X12305952Y-13403024D02*
X12286905Y-13403024D01*
X12286905Y-13403024D02*
X12267857Y-13393500D01*
X12267857Y-13393500D02*
X12258333Y-13383976D01*
X12258333Y-13383976D02*
X12248809Y-13364928D01*
X12248809Y-13364928D02*
X12239286Y-13326833D01*
X12239286Y-13326833D02*
X12239286Y-13279214D01*
X12239286Y-13279214D02*
X12248809Y-13241119D01*
X12248809Y-13241119D02*
X12258333Y-13222071D01*
X12258333Y-13222071D02*
X12267857Y-13212548D01*
X12267857Y-13212548D02*
X12286905Y-13203024D01*
X12477381Y-13203024D02*
X12496429Y-13203024D01*
X12496429Y-13203024D02*
X12515476Y-13212548D01*
X12515476Y-13212548D02*
X12525000Y-13222071D01*
X12525000Y-13222071D02*
X12534524Y-13241119D01*
X12534524Y-13241119D02*
X12544048Y-13279214D01*
X12544048Y-13279214D02*
X12544048Y-13326833D01*
X12544048Y-13326833D02*
X12534524Y-13364928D01*
X12534524Y-13364928D02*
X12525000Y-13383976D01*
X12525000Y-13383976D02*
X12515476Y-13393500D01*
X12515476Y-13393500D02*
X12496429Y-13403024D01*
X12496429Y-13403024D02*
X12477381Y-13403024D01*
X12477381Y-13403024D02*
X12458333Y-13393500D01*
X12458333Y-13393500D02*
X12448809Y-13383976D01*
X12448809Y-13383976D02*
X12439286Y-13364928D01*
X12439286Y-13364928D02*
X12429762Y-13326833D01*
X12429762Y-13326833D02*
X12429762Y-13279214D01*
X12429762Y-13279214D02*
X12439286Y-13241119D01*
X12439286Y-13241119D02*
X12448809Y-13222071D01*
X12448809Y-13222071D02*
X12458333Y-13212548D01*
X12458333Y-13212548D02*
X12477381Y-13203024D01*
X12629762Y-13403024D02*
X12629762Y-13269690D01*
X12629762Y-13288738D02*
X12639286Y-13279214D01*
X12639286Y-13279214D02*
X12658333Y-13269690D01*
X12658333Y-13269690D02*
X12686905Y-13269690D01*
X12686905Y-13269690D02*
X12705952Y-13279214D01*
X12705952Y-13279214D02*
X12715476Y-13298262D01*
X12715476Y-13298262D02*
X12715476Y-13403024D01*
X12715476Y-13298262D02*
X12725000Y-13279214D01*
X12725000Y-13279214D02*
X12744048Y-13269690D01*
X12744048Y-13269690D02*
X12772619Y-13269690D01*
X12772619Y-13269690D02*
X12791667Y-13279214D01*
X12791667Y-13279214D02*
X12801190Y-13298262D01*
X12801190Y-13298262D02*
X12801190Y-13403024D01*
X12896429Y-13403024D02*
X12896429Y-13269690D01*
X12896429Y-13288738D02*
X12905952Y-13279214D01*
X12905952Y-13279214D02*
X12925000Y-13269690D01*
X12925000Y-13269690D02*
X12953571Y-13269690D01*
X12953571Y-13269690D02*
X12972619Y-13279214D01*
X12972619Y-13279214D02*
X12982143Y-13298262D01*
X12982143Y-13298262D02*
X12982143Y-13403024D01*
X12982143Y-13298262D02*
X12991667Y-13279214D01*
X12991667Y-13279214D02*
X13010714Y-13269690D01*
X13010714Y-13269690D02*
X13039286Y-13269690D01*
X13039286Y-13269690D02*
X13058333Y-13279214D01*
X13058333Y-13279214D02*
X13067857Y-13298262D01*
X13067857Y-13298262D02*
X13067857Y-13403024D01*
X13458333Y-13193500D02*
X13286905Y-13450643D01*
X13715476Y-13203024D02*
X13734524Y-13203024D01*
X13734524Y-13203024D02*
X13753572Y-13212548D01*
X13753572Y-13212548D02*
X13763095Y-13222071D01*
X13763095Y-13222071D02*
X13772619Y-13241119D01*
X13772619Y-13241119D02*
X13782143Y-13279214D01*
X13782143Y-13279214D02*
X13782143Y-13326833D01*
X13782143Y-13326833D02*
X13772619Y-13364928D01*
X13772619Y-13364928D02*
X13763095Y-13383976D01*
X13763095Y-13383976D02*
X13753572Y-13393500D01*
X13753572Y-13393500D02*
X13734524Y-13403024D01*
X13734524Y-13403024D02*
X13715476Y-13403024D01*
X13715476Y-13403024D02*
X13696429Y-13393500D01*
X13696429Y-13393500D02*
X13686905Y-13383976D01*
X13686905Y-13383976D02*
X13677381Y-13364928D01*
X13677381Y-13364928D02*
X13667857Y-13326833D01*
X13667857Y-13326833D02*
X13667857Y-13279214D01*
X13667857Y-13279214D02*
X13677381Y-13241119D01*
X13677381Y-13241119D02*
X13686905Y-13222071D01*
X13686905Y-13222071D02*
X13696429Y-13212548D01*
X13696429Y-13212548D02*
X13715476Y-13203024D01*
X13867857Y-13383976D02*
X13877381Y-13393500D01*
X13877381Y-13393500D02*
X13867857Y-13403024D01*
X13867857Y-13403024D02*
X13858333Y-13393500D01*
X13858333Y-13393500D02*
X13867857Y-13383976D01*
X13867857Y-13383976D02*
X13867857Y-13403024D01*
X14001191Y-13203024D02*
X14020238Y-13203024D01*
X14020238Y-13203024D02*
X14039286Y-13212548D01*
X14039286Y-13212548D02*
X14048810Y-13222071D01*
X14048810Y-13222071D02*
X14058333Y-13241119D01*
X14058333Y-13241119D02*
X14067857Y-13279214D01*
X14067857Y-13279214D02*
X14067857Y-13326833D01*
X14067857Y-13326833D02*
X14058333Y-13364928D01*
X14058333Y-13364928D02*
X14048810Y-13383976D01*
X14048810Y-13383976D02*
X14039286Y-13393500D01*
X14039286Y-13393500D02*
X14020238Y-13403024D01*
X14020238Y-13403024D02*
X14001191Y-13403024D01*
X14001191Y-13403024D02*
X13982143Y-13393500D01*
X13982143Y-13393500D02*
X13972619Y-13383976D01*
X13972619Y-13383976D02*
X13963095Y-13364928D01*
X13963095Y-13364928D02*
X13953572Y-13326833D01*
X13953572Y-13326833D02*
X13953572Y-13279214D01*
X13953572Y-13279214D02*
X13963095Y-13241119D01*
X13963095Y-13241119D02*
X13972619Y-13222071D01*
X13972619Y-13222071D02*
X13982143Y-13212548D01*
X13982143Y-13212548D02*
X14001191Y-13203024D01*
X14258333Y-13403024D02*
X14144048Y-13403024D01*
X14201191Y-13403024D02*
X14201191Y-13203024D01*
X14201191Y-13203024D02*
X14182143Y-13231595D01*
X14182143Y-13231595D02*
X14163095Y-13250643D01*
X14163095Y-13250643D02*
X14144048Y-13260167D01*
X14448810Y-13403024D02*
X14334524Y-13403024D01*
X14391667Y-13403024D02*
X14391667Y-13203024D01*
X14391667Y-13203024D02*
X14372619Y-13231595D01*
X14372619Y-13231595D02*
X14353572Y-13250643D01*
X14353572Y-13250643D02*
X14334524Y-13260167D01*
X14563095Y-13288738D02*
X14544048Y-13279214D01*
X14544048Y-13279214D02*
X14534524Y-13269690D01*
X14534524Y-13269690D02*
X14525000Y-13250643D01*
X14525000Y-13250643D02*
X14525000Y-13241119D01*
X14525000Y-13241119D02*
X14534524Y-13222071D01*
X14534524Y-13222071D02*
X14544048Y-13212548D01*
X14544048Y-13212548D02*
X14563095Y-13203024D01*
X14563095Y-13203024D02*
X14601191Y-13203024D01*
X14601191Y-13203024D02*
X14620238Y-13212548D01*
X14620238Y-13212548D02*
X14629762Y-13222071D01*
X14629762Y-13222071D02*
X14639286Y-13241119D01*
X14639286Y-13241119D02*
X14639286Y-13250643D01*
X14639286Y-13250643D02*
X14629762Y-13269690D01*
X14629762Y-13269690D02*
X14620238Y-13279214D01*
X14620238Y-13279214D02*
X14601191Y-13288738D01*
X14601191Y-13288738D02*
X14563095Y-13288738D01*
X14563095Y-13288738D02*
X14544048Y-13298262D01*
X14544048Y-13298262D02*
X14534524Y-13307786D01*
X14534524Y-13307786D02*
X14525000Y-13326833D01*
X14525000Y-13326833D02*
X14525000Y-13364928D01*
X14525000Y-13364928D02*
X14534524Y-13383976D01*
X14534524Y-13383976D02*
X14544048Y-13393500D01*
X14544048Y-13393500D02*
X14563095Y-13403024D01*
X14563095Y-13403024D02*
X14601191Y-13403024D01*
X14601191Y-13403024D02*
X14620238Y-13393500D01*
X14620238Y-13393500D02*
X14629762Y-13383976D01*
X14629762Y-13383976D02*
X14639286Y-13364928D01*
X14639286Y-13364928D02*
X14639286Y-13326833D01*
X14639286Y-13326833D02*
X14629762Y-13307786D01*
X14629762Y-13307786D02*
X14620238Y-13298262D01*
X14620238Y-13298262D02*
X14601191Y-13288738D01*
X14715476Y-13203024D02*
X14715476Y-13241119D01*
X14791667Y-13203024D02*
X14791667Y-13241119D01*
X15086905Y-13479214D02*
X15077381Y-13469690D01*
X15077381Y-13469690D02*
X15058334Y-13441119D01*
X15058334Y-13441119D02*
X15048810Y-13422071D01*
X15048810Y-13422071D02*
X15039286Y-13393500D01*
X15039286Y-13393500D02*
X15029762Y-13345881D01*
X15029762Y-13345881D02*
X15029762Y-13307786D01*
X15029762Y-13307786D02*
X15039286Y-13260167D01*
X15039286Y-13260167D02*
X15048810Y-13231595D01*
X15048810Y-13231595D02*
X15058334Y-13212548D01*
X15058334Y-13212548D02*
X15077381Y-13183976D01*
X15077381Y-13183976D02*
X15086905Y-13174452D01*
X15153572Y-13222071D02*
X15163095Y-13212548D01*
X15163095Y-13212548D02*
X15182143Y-13203024D01*
X15182143Y-13203024D02*
X15229762Y-13203024D01*
X15229762Y-13203024D02*
X15248810Y-13212548D01*
X15248810Y-13212548D02*
X15258334Y-13222071D01*
X15258334Y-13222071D02*
X15267857Y-13241119D01*
X15267857Y-13241119D02*
X15267857Y-13260167D01*
X15267857Y-13260167D02*
X15258334Y-13288738D01*
X15258334Y-13288738D02*
X15144048Y-13403024D01*
X15144048Y-13403024D02*
X15267857Y-13403024D01*
X15439286Y-13269690D02*
X15439286Y-13403024D01*
X15391667Y-13193500D02*
X15344048Y-13336357D01*
X15344048Y-13336357D02*
X15467857Y-13336357D01*
X15629762Y-13269690D02*
X15629762Y-13403024D01*
X15582143Y-13193500D02*
X15534524Y-13336357D01*
X15534524Y-13336357D02*
X15658334Y-13336357D01*
X15886905Y-13403024D02*
X15886905Y-13203024D01*
X15972619Y-13403024D02*
X15972619Y-13298262D01*
X15972619Y-13298262D02*
X15963096Y-13279214D01*
X15963096Y-13279214D02*
X15944048Y-13269690D01*
X15944048Y-13269690D02*
X15915476Y-13269690D01*
X15915476Y-13269690D02*
X15896429Y-13279214D01*
X15896429Y-13279214D02*
X15886905Y-13288738D01*
X16096429Y-13403024D02*
X16077381Y-13393500D01*
X16077381Y-13393500D02*
X16067857Y-13383976D01*
X16067857Y-13383976D02*
X16058334Y-13364928D01*
X16058334Y-13364928D02*
X16058334Y-13307786D01*
X16058334Y-13307786D02*
X16067857Y-13288738D01*
X16067857Y-13288738D02*
X16077381Y-13279214D01*
X16077381Y-13279214D02*
X16096429Y-13269690D01*
X16096429Y-13269690D02*
X16125000Y-13269690D01*
X16125000Y-13269690D02*
X16144048Y-13279214D01*
X16144048Y-13279214D02*
X16153572Y-13288738D01*
X16153572Y-13288738D02*
X16163096Y-13307786D01*
X16163096Y-13307786D02*
X16163096Y-13364928D01*
X16163096Y-13364928D02*
X16153572Y-13383976D01*
X16153572Y-13383976D02*
X16144048Y-13393500D01*
X16144048Y-13393500D02*
X16125000Y-13403024D01*
X16125000Y-13403024D02*
X16096429Y-13403024D01*
X16277381Y-13403024D02*
X16258334Y-13393500D01*
X16258334Y-13393500D02*
X16248810Y-13374452D01*
X16248810Y-13374452D02*
X16248810Y-13203024D01*
X16429762Y-13393500D02*
X16410715Y-13403024D01*
X16410715Y-13403024D02*
X16372619Y-13403024D01*
X16372619Y-13403024D02*
X16353572Y-13393500D01*
X16353572Y-13393500D02*
X16344048Y-13374452D01*
X16344048Y-13374452D02*
X16344048Y-13298262D01*
X16344048Y-13298262D02*
X16353572Y-13279214D01*
X16353572Y-13279214D02*
X16372619Y-13269690D01*
X16372619Y-13269690D02*
X16410715Y-13269690D01*
X16410715Y-13269690D02*
X16429762Y-13279214D01*
X16429762Y-13279214D02*
X16439286Y-13298262D01*
X16439286Y-13298262D02*
X16439286Y-13317309D01*
X16439286Y-13317309D02*
X16344048Y-13336357D01*
X16515477Y-13393500D02*
X16534524Y-13403024D01*
X16534524Y-13403024D02*
X16572619Y-13403024D01*
X16572619Y-13403024D02*
X16591667Y-13393500D01*
X16591667Y-13393500D02*
X16601191Y-13374452D01*
X16601191Y-13374452D02*
X16601191Y-13364928D01*
X16601191Y-13364928D02*
X16591667Y-13345881D01*
X16591667Y-13345881D02*
X16572619Y-13336357D01*
X16572619Y-13336357D02*
X16544048Y-13336357D01*
X16544048Y-13336357D02*
X16525000Y-13326833D01*
X16525000Y-13326833D02*
X16515477Y-13307786D01*
X16515477Y-13307786D02*
X16515477Y-13298262D01*
X16515477Y-13298262D02*
X16525000Y-13279214D01*
X16525000Y-13279214D02*
X16544048Y-13269690D01*
X16544048Y-13269690D02*
X16572619Y-13269690D01*
X16572619Y-13269690D02*
X16591667Y-13279214D01*
X16667858Y-13479214D02*
X16677381Y-13469690D01*
X16677381Y-13469690D02*
X16696429Y-13441119D01*
X16696429Y-13441119D02*
X16705953Y-13422071D01*
X16705953Y-13422071D02*
X16715477Y-13393500D01*
X16715477Y-13393500D02*
X16725000Y-13345881D01*
X16725000Y-13345881D02*
X16725000Y-13307786D01*
X16725000Y-13307786D02*
X16715477Y-13260167D01*
X16715477Y-13260167D02*
X16705953Y-13231595D01*
X16705953Y-13231595D02*
X16696429Y-13212548D01*
X16696429Y-13212548D02*
X16677381Y-13183976D01*
X16677381Y-13183976D02*
X16667858Y-13174452D01*
D13*
X11525000Y-13574500D02*
G75*
G03*
X11525000Y-13574500I-20000J0D01*
G01*
D11*
X11810714Y-13467024D02*
X11829762Y-13467024D01*
X11829762Y-13467024D02*
X11848809Y-13476548D01*
X11848809Y-13476548D02*
X11858333Y-13486071D01*
X11858333Y-13486071D02*
X11867857Y-13505119D01*
X11867857Y-13505119D02*
X11877381Y-13543214D01*
X11877381Y-13543214D02*
X11877381Y-13590833D01*
X11877381Y-13590833D02*
X11867857Y-13628928D01*
X11867857Y-13628928D02*
X11858333Y-13647976D01*
X11858333Y-13647976D02*
X11848809Y-13657500D01*
X11848809Y-13657500D02*
X11829762Y-13667024D01*
X11829762Y-13667024D02*
X11810714Y-13667024D01*
X11810714Y-13667024D02*
X11791667Y-13657500D01*
X11791667Y-13657500D02*
X11782143Y-13647976D01*
X11782143Y-13647976D02*
X11772619Y-13628928D01*
X11772619Y-13628928D02*
X11763095Y-13590833D01*
X11763095Y-13590833D02*
X11763095Y-13543214D01*
X11763095Y-13543214D02*
X11772619Y-13505119D01*
X11772619Y-13505119D02*
X11782143Y-13486071D01*
X11782143Y-13486071D02*
X11791667Y-13476548D01*
X11791667Y-13476548D02*
X11810714Y-13467024D01*
X11963095Y-13647976D02*
X11972619Y-13657500D01*
X11972619Y-13657500D02*
X11963095Y-13667024D01*
X11963095Y-13667024D02*
X11953571Y-13657500D01*
X11953571Y-13657500D02*
X11963095Y-13647976D01*
X11963095Y-13647976D02*
X11963095Y-13667024D01*
X12144048Y-13533690D02*
X12144048Y-13667024D01*
X12096428Y-13457500D02*
X12048809Y-13600357D01*
X12048809Y-13600357D02*
X12172619Y-13600357D01*
X12286905Y-13467024D02*
X12305952Y-13467024D01*
X12305952Y-13467024D02*
X12325000Y-13476548D01*
X12325000Y-13476548D02*
X12334524Y-13486071D01*
X12334524Y-13486071D02*
X12344048Y-13505119D01*
X12344048Y-13505119D02*
X12353571Y-13543214D01*
X12353571Y-13543214D02*
X12353571Y-13590833D01*
X12353571Y-13590833D02*
X12344048Y-13628928D01*
X12344048Y-13628928D02*
X12334524Y-13647976D01*
X12334524Y-13647976D02*
X12325000Y-13657500D01*
X12325000Y-13657500D02*
X12305952Y-13667024D01*
X12305952Y-13667024D02*
X12286905Y-13667024D01*
X12286905Y-13667024D02*
X12267857Y-13657500D01*
X12267857Y-13657500D02*
X12258333Y-13647976D01*
X12258333Y-13647976D02*
X12248809Y-13628928D01*
X12248809Y-13628928D02*
X12239286Y-13590833D01*
X12239286Y-13590833D02*
X12239286Y-13543214D01*
X12239286Y-13543214D02*
X12248809Y-13505119D01*
X12248809Y-13505119D02*
X12258333Y-13486071D01*
X12258333Y-13486071D02*
X12267857Y-13476548D01*
X12267857Y-13476548D02*
X12286905Y-13467024D01*
X12477381Y-13467024D02*
X12496429Y-13467024D01*
X12496429Y-13467024D02*
X12515476Y-13476548D01*
X12515476Y-13476548D02*
X12525000Y-13486071D01*
X12525000Y-13486071D02*
X12534524Y-13505119D01*
X12534524Y-13505119D02*
X12544048Y-13543214D01*
X12544048Y-13543214D02*
X12544048Y-13590833D01*
X12544048Y-13590833D02*
X12534524Y-13628928D01*
X12534524Y-13628928D02*
X12525000Y-13647976D01*
X12525000Y-13647976D02*
X12515476Y-13657500D01*
X12515476Y-13657500D02*
X12496429Y-13667024D01*
X12496429Y-13667024D02*
X12477381Y-13667024D01*
X12477381Y-13667024D02*
X12458333Y-13657500D01*
X12458333Y-13657500D02*
X12448809Y-13647976D01*
X12448809Y-13647976D02*
X12439286Y-13628928D01*
X12439286Y-13628928D02*
X12429762Y-13590833D01*
X12429762Y-13590833D02*
X12429762Y-13543214D01*
X12429762Y-13543214D02*
X12439286Y-13505119D01*
X12439286Y-13505119D02*
X12448809Y-13486071D01*
X12448809Y-13486071D02*
X12458333Y-13476548D01*
X12458333Y-13476548D02*
X12477381Y-13467024D01*
X12629762Y-13667024D02*
X12629762Y-13533690D01*
X12629762Y-13552738D02*
X12639286Y-13543214D01*
X12639286Y-13543214D02*
X12658333Y-13533690D01*
X12658333Y-13533690D02*
X12686905Y-13533690D01*
X12686905Y-13533690D02*
X12705952Y-13543214D01*
X12705952Y-13543214D02*
X12715476Y-13562262D01*
X12715476Y-13562262D02*
X12715476Y-13667024D01*
X12715476Y-13562262D02*
X12725000Y-13543214D01*
X12725000Y-13543214D02*
X12744048Y-13533690D01*
X12744048Y-13533690D02*
X12772619Y-13533690D01*
X12772619Y-13533690D02*
X12791667Y-13543214D01*
X12791667Y-13543214D02*
X12801190Y-13562262D01*
X12801190Y-13562262D02*
X12801190Y-13667024D01*
X12896429Y-13667024D02*
X12896429Y-13533690D01*
X12896429Y-13552738D02*
X12905952Y-13543214D01*
X12905952Y-13543214D02*
X12925000Y-13533690D01*
X12925000Y-13533690D02*
X12953571Y-13533690D01*
X12953571Y-13533690D02*
X12972619Y-13543214D01*
X12972619Y-13543214D02*
X12982143Y-13562262D01*
X12982143Y-13562262D02*
X12982143Y-13667024D01*
X12982143Y-13562262D02*
X12991667Y-13543214D01*
X12991667Y-13543214D02*
X13010714Y-13533690D01*
X13010714Y-13533690D02*
X13039286Y-13533690D01*
X13039286Y-13533690D02*
X13058333Y-13543214D01*
X13058333Y-13543214D02*
X13067857Y-13562262D01*
X13067857Y-13562262D02*
X13067857Y-13667024D01*
X13458333Y-13457500D02*
X13286905Y-13714643D01*
X13715476Y-13467024D02*
X13734524Y-13467024D01*
X13734524Y-13467024D02*
X13753572Y-13476548D01*
X13753572Y-13476548D02*
X13763095Y-13486071D01*
X13763095Y-13486071D02*
X13772619Y-13505119D01*
X13772619Y-13505119D02*
X13782143Y-13543214D01*
X13782143Y-13543214D02*
X13782143Y-13590833D01*
X13782143Y-13590833D02*
X13772619Y-13628928D01*
X13772619Y-13628928D02*
X13763095Y-13647976D01*
X13763095Y-13647976D02*
X13753572Y-13657500D01*
X13753572Y-13657500D02*
X13734524Y-13667024D01*
X13734524Y-13667024D02*
X13715476Y-13667024D01*
X13715476Y-13667024D02*
X13696429Y-13657500D01*
X13696429Y-13657500D02*
X13686905Y-13647976D01*
X13686905Y-13647976D02*
X13677381Y-13628928D01*
X13677381Y-13628928D02*
X13667857Y-13590833D01*
X13667857Y-13590833D02*
X13667857Y-13543214D01*
X13667857Y-13543214D02*
X13677381Y-13505119D01*
X13677381Y-13505119D02*
X13686905Y-13486071D01*
X13686905Y-13486071D02*
X13696429Y-13476548D01*
X13696429Y-13476548D02*
X13715476Y-13467024D01*
X13867857Y-13647976D02*
X13877381Y-13657500D01*
X13877381Y-13657500D02*
X13867857Y-13667024D01*
X13867857Y-13667024D02*
X13858333Y-13657500D01*
X13858333Y-13657500D02*
X13867857Y-13647976D01*
X13867857Y-13647976D02*
X13867857Y-13667024D01*
X14001191Y-13467024D02*
X14020238Y-13467024D01*
X14020238Y-13467024D02*
X14039286Y-13476548D01*
X14039286Y-13476548D02*
X14048810Y-13486071D01*
X14048810Y-13486071D02*
X14058333Y-13505119D01*
X14058333Y-13505119D02*
X14067857Y-13543214D01*
X14067857Y-13543214D02*
X14067857Y-13590833D01*
X14067857Y-13590833D02*
X14058333Y-13628928D01*
X14058333Y-13628928D02*
X14048810Y-13647976D01*
X14048810Y-13647976D02*
X14039286Y-13657500D01*
X14039286Y-13657500D02*
X14020238Y-13667024D01*
X14020238Y-13667024D02*
X14001191Y-13667024D01*
X14001191Y-13667024D02*
X13982143Y-13657500D01*
X13982143Y-13657500D02*
X13972619Y-13647976D01*
X13972619Y-13647976D02*
X13963095Y-13628928D01*
X13963095Y-13628928D02*
X13953572Y-13590833D01*
X13953572Y-13590833D02*
X13953572Y-13543214D01*
X13953572Y-13543214D02*
X13963095Y-13505119D01*
X13963095Y-13505119D02*
X13972619Y-13486071D01*
X13972619Y-13486071D02*
X13982143Y-13476548D01*
X13982143Y-13476548D02*
X14001191Y-13467024D01*
X14258333Y-13667024D02*
X14144048Y-13667024D01*
X14201191Y-13667024D02*
X14201191Y-13467024D01*
X14201191Y-13467024D02*
X14182143Y-13495595D01*
X14182143Y-13495595D02*
X14163095Y-13514643D01*
X14163095Y-13514643D02*
X14144048Y-13524167D01*
X14439286Y-13467024D02*
X14344048Y-13467024D01*
X14344048Y-13467024D02*
X14334524Y-13562262D01*
X14334524Y-13562262D02*
X14344048Y-13552738D01*
X14344048Y-13552738D02*
X14363095Y-13543214D01*
X14363095Y-13543214D02*
X14410714Y-13543214D01*
X14410714Y-13543214D02*
X14429762Y-13552738D01*
X14429762Y-13552738D02*
X14439286Y-13562262D01*
X14439286Y-13562262D02*
X14448810Y-13581309D01*
X14448810Y-13581309D02*
X14448810Y-13628928D01*
X14448810Y-13628928D02*
X14439286Y-13647976D01*
X14439286Y-13647976D02*
X14429762Y-13657500D01*
X14429762Y-13657500D02*
X14410714Y-13667024D01*
X14410714Y-13667024D02*
X14363095Y-13667024D01*
X14363095Y-13667024D02*
X14344048Y-13657500D01*
X14344048Y-13657500D02*
X14334524Y-13647976D01*
X14515476Y-13467024D02*
X14648810Y-13467024D01*
X14648810Y-13467024D02*
X14563095Y-13667024D01*
X14715476Y-13467024D02*
X14715476Y-13505119D01*
X14791667Y-13467024D02*
X14791667Y-13505119D01*
X15086905Y-13743214D02*
X15077381Y-13733690D01*
X15077381Y-13733690D02*
X15058334Y-13705119D01*
X15058334Y-13705119D02*
X15048810Y-13686071D01*
X15048810Y-13686071D02*
X15039286Y-13657500D01*
X15039286Y-13657500D02*
X15029762Y-13609881D01*
X15029762Y-13609881D02*
X15029762Y-13571786D01*
X15029762Y-13571786D02*
X15039286Y-13524167D01*
X15039286Y-13524167D02*
X15048810Y-13495595D01*
X15048810Y-13495595D02*
X15058334Y-13476548D01*
X15058334Y-13476548D02*
X15077381Y-13447976D01*
X15077381Y-13447976D02*
X15086905Y-13438452D01*
X15267857Y-13667024D02*
X15153572Y-13667024D01*
X15210714Y-13667024D02*
X15210714Y-13467024D01*
X15210714Y-13467024D02*
X15191667Y-13495595D01*
X15191667Y-13495595D02*
X15172619Y-13514643D01*
X15172619Y-13514643D02*
X15153572Y-13524167D01*
X15505953Y-13667024D02*
X15505953Y-13467024D01*
X15591667Y-13667024D02*
X15591667Y-13562262D01*
X15591667Y-13562262D02*
X15582143Y-13543214D01*
X15582143Y-13543214D02*
X15563096Y-13533690D01*
X15563096Y-13533690D02*
X15534524Y-13533690D01*
X15534524Y-13533690D02*
X15515476Y-13543214D01*
X15515476Y-13543214D02*
X15505953Y-13552738D01*
X15715476Y-13667024D02*
X15696429Y-13657500D01*
X15696429Y-13657500D02*
X15686905Y-13647976D01*
X15686905Y-13647976D02*
X15677381Y-13628928D01*
X15677381Y-13628928D02*
X15677381Y-13571786D01*
X15677381Y-13571786D02*
X15686905Y-13552738D01*
X15686905Y-13552738D02*
X15696429Y-13543214D01*
X15696429Y-13543214D02*
X15715476Y-13533690D01*
X15715476Y-13533690D02*
X15744048Y-13533690D01*
X15744048Y-13533690D02*
X15763096Y-13543214D01*
X15763096Y-13543214D02*
X15772619Y-13552738D01*
X15772619Y-13552738D02*
X15782143Y-13571786D01*
X15782143Y-13571786D02*
X15782143Y-13628928D01*
X15782143Y-13628928D02*
X15772619Y-13647976D01*
X15772619Y-13647976D02*
X15763096Y-13657500D01*
X15763096Y-13657500D02*
X15744048Y-13667024D01*
X15744048Y-13667024D02*
X15715476Y-13667024D01*
X15896429Y-13667024D02*
X15877381Y-13657500D01*
X15877381Y-13657500D02*
X15867857Y-13638452D01*
X15867857Y-13638452D02*
X15867857Y-13467024D01*
X16048810Y-13657500D02*
X16029762Y-13667024D01*
X16029762Y-13667024D02*
X15991667Y-13667024D01*
X15991667Y-13667024D02*
X15972619Y-13657500D01*
X15972619Y-13657500D02*
X15963096Y-13638452D01*
X15963096Y-13638452D02*
X15963096Y-13562262D01*
X15963096Y-13562262D02*
X15972619Y-13543214D01*
X15972619Y-13543214D02*
X15991667Y-13533690D01*
X15991667Y-13533690D02*
X16029762Y-13533690D01*
X16029762Y-13533690D02*
X16048810Y-13543214D01*
X16048810Y-13543214D02*
X16058334Y-13562262D01*
X16058334Y-13562262D02*
X16058334Y-13581309D01*
X16058334Y-13581309D02*
X15963096Y-13600357D01*
X16125000Y-13743214D02*
X16134524Y-13733690D01*
X16134524Y-13733690D02*
X16153572Y-13705119D01*
X16153572Y-13705119D02*
X16163096Y-13686071D01*
X16163096Y-13686071D02*
X16172619Y-13657500D01*
X16172619Y-13657500D02*
X16182143Y-13609881D01*
X16182143Y-13609881D02*
X16182143Y-13571786D01*
X16182143Y-13571786D02*
X16172619Y-13524167D01*
X16172619Y-13524167D02*
X16163096Y-13495595D01*
X16163096Y-13495595D02*
X16153572Y-13476548D01*
X16153572Y-13476548D02*
X16134524Y-13447976D01*
X16134524Y-13447976D02*
X16125000Y-13438452D01*
D13*
X11505000Y-13818500D02*
X11505000Y-13858500D01*
X11485000Y-13838500D02*
X11525000Y-13838500D01*
D11*
X11810714Y-13731024D02*
X11829762Y-13731024D01*
X11829762Y-13731024D02*
X11848809Y-13740548D01*
X11848809Y-13740548D02*
X11858333Y-13750071D01*
X11858333Y-13750071D02*
X11867857Y-13769119D01*
X11867857Y-13769119D02*
X11877381Y-13807214D01*
X11877381Y-13807214D02*
X11877381Y-13854833D01*
X11877381Y-13854833D02*
X11867857Y-13892928D01*
X11867857Y-13892928D02*
X11858333Y-13911976D01*
X11858333Y-13911976D02*
X11848809Y-13921500D01*
X11848809Y-13921500D02*
X11829762Y-13931024D01*
X11829762Y-13931024D02*
X11810714Y-13931024D01*
X11810714Y-13931024D02*
X11791667Y-13921500D01*
X11791667Y-13921500D02*
X11782143Y-13911976D01*
X11782143Y-13911976D02*
X11772619Y-13892928D01*
X11772619Y-13892928D02*
X11763095Y-13854833D01*
X11763095Y-13854833D02*
X11763095Y-13807214D01*
X11763095Y-13807214D02*
X11772619Y-13769119D01*
X11772619Y-13769119D02*
X11782143Y-13750071D01*
X11782143Y-13750071D02*
X11791667Y-13740548D01*
X11791667Y-13740548D02*
X11810714Y-13731024D01*
X11963095Y-13911976D02*
X11972619Y-13921500D01*
X11972619Y-13921500D02*
X11963095Y-13931024D01*
X11963095Y-13931024D02*
X11953571Y-13921500D01*
X11953571Y-13921500D02*
X11963095Y-13911976D01*
X11963095Y-13911976D02*
X11963095Y-13931024D01*
X12144048Y-13797690D02*
X12144048Y-13931024D01*
X12096428Y-13721500D02*
X12048809Y-13864357D01*
X12048809Y-13864357D02*
X12172619Y-13864357D01*
X12286905Y-13731024D02*
X12305952Y-13731024D01*
X12305952Y-13731024D02*
X12325000Y-13740548D01*
X12325000Y-13740548D02*
X12334524Y-13750071D01*
X12334524Y-13750071D02*
X12344048Y-13769119D01*
X12344048Y-13769119D02*
X12353571Y-13807214D01*
X12353571Y-13807214D02*
X12353571Y-13854833D01*
X12353571Y-13854833D02*
X12344048Y-13892928D01*
X12344048Y-13892928D02*
X12334524Y-13911976D01*
X12334524Y-13911976D02*
X12325000Y-13921500D01*
X12325000Y-13921500D02*
X12305952Y-13931024D01*
X12305952Y-13931024D02*
X12286905Y-13931024D01*
X12286905Y-13931024D02*
X12267857Y-13921500D01*
X12267857Y-13921500D02*
X12258333Y-13911976D01*
X12258333Y-13911976D02*
X12248809Y-13892928D01*
X12248809Y-13892928D02*
X12239286Y-13854833D01*
X12239286Y-13854833D02*
X12239286Y-13807214D01*
X12239286Y-13807214D02*
X12248809Y-13769119D01*
X12248809Y-13769119D02*
X12258333Y-13750071D01*
X12258333Y-13750071D02*
X12267857Y-13740548D01*
X12267857Y-13740548D02*
X12286905Y-13731024D01*
X12477381Y-13731024D02*
X12496429Y-13731024D01*
X12496429Y-13731024D02*
X12515476Y-13740548D01*
X12515476Y-13740548D02*
X12525000Y-13750071D01*
X12525000Y-13750071D02*
X12534524Y-13769119D01*
X12534524Y-13769119D02*
X12544048Y-13807214D01*
X12544048Y-13807214D02*
X12544048Y-13854833D01*
X12544048Y-13854833D02*
X12534524Y-13892928D01*
X12534524Y-13892928D02*
X12525000Y-13911976D01*
X12525000Y-13911976D02*
X12515476Y-13921500D01*
X12515476Y-13921500D02*
X12496429Y-13931024D01*
X12496429Y-13931024D02*
X12477381Y-13931024D01*
X12477381Y-13931024D02*
X12458333Y-13921500D01*
X12458333Y-13921500D02*
X12448809Y-13911976D01*
X12448809Y-13911976D02*
X12439286Y-13892928D01*
X12439286Y-13892928D02*
X12429762Y-13854833D01*
X12429762Y-13854833D02*
X12429762Y-13807214D01*
X12429762Y-13807214D02*
X12439286Y-13769119D01*
X12439286Y-13769119D02*
X12448809Y-13750071D01*
X12448809Y-13750071D02*
X12458333Y-13740548D01*
X12458333Y-13740548D02*
X12477381Y-13731024D01*
X12629762Y-13931024D02*
X12629762Y-13797690D01*
X12629762Y-13816738D02*
X12639286Y-13807214D01*
X12639286Y-13807214D02*
X12658333Y-13797690D01*
X12658333Y-13797690D02*
X12686905Y-13797690D01*
X12686905Y-13797690D02*
X12705952Y-13807214D01*
X12705952Y-13807214D02*
X12715476Y-13826262D01*
X12715476Y-13826262D02*
X12715476Y-13931024D01*
X12715476Y-13826262D02*
X12725000Y-13807214D01*
X12725000Y-13807214D02*
X12744048Y-13797690D01*
X12744048Y-13797690D02*
X12772619Y-13797690D01*
X12772619Y-13797690D02*
X12791667Y-13807214D01*
X12791667Y-13807214D02*
X12801190Y-13826262D01*
X12801190Y-13826262D02*
X12801190Y-13931024D01*
X12896429Y-13931024D02*
X12896429Y-13797690D01*
X12896429Y-13816738D02*
X12905952Y-13807214D01*
X12905952Y-13807214D02*
X12925000Y-13797690D01*
X12925000Y-13797690D02*
X12953571Y-13797690D01*
X12953571Y-13797690D02*
X12972619Y-13807214D01*
X12972619Y-13807214D02*
X12982143Y-13826262D01*
X12982143Y-13826262D02*
X12982143Y-13931024D01*
X12982143Y-13826262D02*
X12991667Y-13807214D01*
X12991667Y-13807214D02*
X13010714Y-13797690D01*
X13010714Y-13797690D02*
X13039286Y-13797690D01*
X13039286Y-13797690D02*
X13058333Y-13807214D01*
X13058333Y-13807214D02*
X13067857Y-13826262D01*
X13067857Y-13826262D02*
X13067857Y-13931024D01*
X13458333Y-13721500D02*
X13286905Y-13978643D01*
X13715476Y-13731024D02*
X13734524Y-13731024D01*
X13734524Y-13731024D02*
X13753572Y-13740548D01*
X13753572Y-13740548D02*
X13763095Y-13750071D01*
X13763095Y-13750071D02*
X13772619Y-13769119D01*
X13772619Y-13769119D02*
X13782143Y-13807214D01*
X13782143Y-13807214D02*
X13782143Y-13854833D01*
X13782143Y-13854833D02*
X13772619Y-13892928D01*
X13772619Y-13892928D02*
X13763095Y-13911976D01*
X13763095Y-13911976D02*
X13753572Y-13921500D01*
X13753572Y-13921500D02*
X13734524Y-13931024D01*
X13734524Y-13931024D02*
X13715476Y-13931024D01*
X13715476Y-13931024D02*
X13696429Y-13921500D01*
X13696429Y-13921500D02*
X13686905Y-13911976D01*
X13686905Y-13911976D02*
X13677381Y-13892928D01*
X13677381Y-13892928D02*
X13667857Y-13854833D01*
X13667857Y-13854833D02*
X13667857Y-13807214D01*
X13667857Y-13807214D02*
X13677381Y-13769119D01*
X13677381Y-13769119D02*
X13686905Y-13750071D01*
X13686905Y-13750071D02*
X13696429Y-13740548D01*
X13696429Y-13740548D02*
X13715476Y-13731024D01*
X13867857Y-13911976D02*
X13877381Y-13921500D01*
X13877381Y-13921500D02*
X13867857Y-13931024D01*
X13867857Y-13931024D02*
X13858333Y-13921500D01*
X13858333Y-13921500D02*
X13867857Y-13911976D01*
X13867857Y-13911976D02*
X13867857Y-13931024D01*
X14001191Y-13731024D02*
X14020238Y-13731024D01*
X14020238Y-13731024D02*
X14039286Y-13740548D01*
X14039286Y-13740548D02*
X14048810Y-13750071D01*
X14048810Y-13750071D02*
X14058333Y-13769119D01*
X14058333Y-13769119D02*
X14067857Y-13807214D01*
X14067857Y-13807214D02*
X14067857Y-13854833D01*
X14067857Y-13854833D02*
X14058333Y-13892928D01*
X14058333Y-13892928D02*
X14048810Y-13911976D01*
X14048810Y-13911976D02*
X14039286Y-13921500D01*
X14039286Y-13921500D02*
X14020238Y-13931024D01*
X14020238Y-13931024D02*
X14001191Y-13931024D01*
X14001191Y-13931024D02*
X13982143Y-13921500D01*
X13982143Y-13921500D02*
X13972619Y-13911976D01*
X13972619Y-13911976D02*
X13963095Y-13892928D01*
X13963095Y-13892928D02*
X13953572Y-13854833D01*
X13953572Y-13854833D02*
X13953572Y-13807214D01*
X13953572Y-13807214D02*
X13963095Y-13769119D01*
X13963095Y-13769119D02*
X13972619Y-13750071D01*
X13972619Y-13750071D02*
X13982143Y-13740548D01*
X13982143Y-13740548D02*
X14001191Y-13731024D01*
X14258333Y-13931024D02*
X14144048Y-13931024D01*
X14201191Y-13931024D02*
X14201191Y-13731024D01*
X14201191Y-13731024D02*
X14182143Y-13759595D01*
X14182143Y-13759595D02*
X14163095Y-13778643D01*
X14163095Y-13778643D02*
X14144048Y-13788167D01*
X14439286Y-13731024D02*
X14344048Y-13731024D01*
X14344048Y-13731024D02*
X14334524Y-13826262D01*
X14334524Y-13826262D02*
X14344048Y-13816738D01*
X14344048Y-13816738D02*
X14363095Y-13807214D01*
X14363095Y-13807214D02*
X14410714Y-13807214D01*
X14410714Y-13807214D02*
X14429762Y-13816738D01*
X14429762Y-13816738D02*
X14439286Y-13826262D01*
X14439286Y-13826262D02*
X14448810Y-13845309D01*
X14448810Y-13845309D02*
X14448810Y-13892928D01*
X14448810Y-13892928D02*
X14439286Y-13911976D01*
X14439286Y-13911976D02*
X14429762Y-13921500D01*
X14429762Y-13921500D02*
X14410714Y-13931024D01*
X14410714Y-13931024D02*
X14363095Y-13931024D01*
X14363095Y-13931024D02*
X14344048Y-13921500D01*
X14344048Y-13921500D02*
X14334524Y-13911976D01*
X14515476Y-13731024D02*
X14648810Y-13731024D01*
X14648810Y-13731024D02*
X14563095Y-13931024D01*
X14715476Y-13731024D02*
X14715476Y-13769119D01*
X14791667Y-13731024D02*
X14791667Y-13769119D01*
X15086905Y-14007214D02*
X15077381Y-13997690D01*
X15077381Y-13997690D02*
X15058334Y-13969119D01*
X15058334Y-13969119D02*
X15048810Y-13950071D01*
X15048810Y-13950071D02*
X15039286Y-13921500D01*
X15039286Y-13921500D02*
X15029762Y-13873881D01*
X15029762Y-13873881D02*
X15029762Y-13835786D01*
X15029762Y-13835786D02*
X15039286Y-13788167D01*
X15039286Y-13788167D02*
X15048810Y-13759595D01*
X15048810Y-13759595D02*
X15058334Y-13740548D01*
X15058334Y-13740548D02*
X15077381Y-13711976D01*
X15077381Y-13711976D02*
X15086905Y-13702452D01*
X15153572Y-13750071D02*
X15163095Y-13740548D01*
X15163095Y-13740548D02*
X15182143Y-13731024D01*
X15182143Y-13731024D02*
X15229762Y-13731024D01*
X15229762Y-13731024D02*
X15248810Y-13740548D01*
X15248810Y-13740548D02*
X15258334Y-13750071D01*
X15258334Y-13750071D02*
X15267857Y-13769119D01*
X15267857Y-13769119D02*
X15267857Y-13788167D01*
X15267857Y-13788167D02*
X15258334Y-13816738D01*
X15258334Y-13816738D02*
X15144048Y-13931024D01*
X15144048Y-13931024D02*
X15267857Y-13931024D01*
X15439286Y-13797690D02*
X15439286Y-13931024D01*
X15391667Y-13721500D02*
X15344048Y-13864357D01*
X15344048Y-13864357D02*
X15467857Y-13864357D01*
X15696429Y-13931024D02*
X15696429Y-13731024D01*
X15782143Y-13931024D02*
X15782143Y-13826262D01*
X15782143Y-13826262D02*
X15772619Y-13807214D01*
X15772619Y-13807214D02*
X15753572Y-13797690D01*
X15753572Y-13797690D02*
X15725000Y-13797690D01*
X15725000Y-13797690D02*
X15705953Y-13807214D01*
X15705953Y-13807214D02*
X15696429Y-13816738D01*
X15905953Y-13931024D02*
X15886905Y-13921500D01*
X15886905Y-13921500D02*
X15877381Y-13911976D01*
X15877381Y-13911976D02*
X15867857Y-13892928D01*
X15867857Y-13892928D02*
X15867857Y-13835786D01*
X15867857Y-13835786D02*
X15877381Y-13816738D01*
X15877381Y-13816738D02*
X15886905Y-13807214D01*
X15886905Y-13807214D02*
X15905953Y-13797690D01*
X15905953Y-13797690D02*
X15934524Y-13797690D01*
X15934524Y-13797690D02*
X15953572Y-13807214D01*
X15953572Y-13807214D02*
X15963096Y-13816738D01*
X15963096Y-13816738D02*
X15972619Y-13835786D01*
X15972619Y-13835786D02*
X15972619Y-13892928D01*
X15972619Y-13892928D02*
X15963096Y-13911976D01*
X15963096Y-13911976D02*
X15953572Y-13921500D01*
X15953572Y-13921500D02*
X15934524Y-13931024D01*
X15934524Y-13931024D02*
X15905953Y-13931024D01*
X16086905Y-13931024D02*
X16067857Y-13921500D01*
X16067857Y-13921500D02*
X16058334Y-13902452D01*
X16058334Y-13902452D02*
X16058334Y-13731024D01*
X16239286Y-13921500D02*
X16220238Y-13931024D01*
X16220238Y-13931024D02*
X16182143Y-13931024D01*
X16182143Y-13931024D02*
X16163096Y-13921500D01*
X16163096Y-13921500D02*
X16153572Y-13902452D01*
X16153572Y-13902452D02*
X16153572Y-13826262D01*
X16153572Y-13826262D02*
X16163096Y-13807214D01*
X16163096Y-13807214D02*
X16182143Y-13797690D01*
X16182143Y-13797690D02*
X16220238Y-13797690D01*
X16220238Y-13797690D02*
X16239286Y-13807214D01*
X16239286Y-13807214D02*
X16248810Y-13826262D01*
X16248810Y-13826262D02*
X16248810Y-13845309D01*
X16248810Y-13845309D02*
X16153572Y-13864357D01*
X16325000Y-13921500D02*
X16344048Y-13931024D01*
X16344048Y-13931024D02*
X16382143Y-13931024D01*
X16382143Y-13931024D02*
X16401191Y-13921500D01*
X16401191Y-13921500D02*
X16410715Y-13902452D01*
X16410715Y-13902452D02*
X16410715Y-13892928D01*
X16410715Y-13892928D02*
X16401191Y-13873881D01*
X16401191Y-13873881D02*
X16382143Y-13864357D01*
X16382143Y-13864357D02*
X16353572Y-13864357D01*
X16353572Y-13864357D02*
X16334524Y-13854833D01*
X16334524Y-13854833D02*
X16325000Y-13835786D01*
X16325000Y-13835786D02*
X16325000Y-13826262D01*
X16325000Y-13826262D02*
X16334524Y-13807214D01*
X16334524Y-13807214D02*
X16353572Y-13797690D01*
X16353572Y-13797690D02*
X16382143Y-13797690D01*
X16382143Y-13797690D02*
X16401191Y-13807214D01*
X16477381Y-14007214D02*
X16486905Y-13997690D01*
X16486905Y-13997690D02*
X16505953Y-13969119D01*
X16505953Y-13969119D02*
X16515477Y-13950071D01*
X16515477Y-13950071D02*
X16525000Y-13921500D01*
X16525000Y-13921500D02*
X16534524Y-13873881D01*
X16534524Y-13873881D02*
X16534524Y-13835786D01*
X16534524Y-13835786D02*
X16525000Y-13788167D01*
X16525000Y-13788167D02*
X16515477Y-13759595D01*
X16515477Y-13759595D02*
X16505953Y-13740548D01*
X16505953Y-13740548D02*
X16486905Y-13711976D01*
X16486905Y-13711976D02*
X16477381Y-13702452D01*
D14*
X11516213Y-14123713D02*
X11516213Y-14081287D01*
X11473787Y-14081287D01*
X11473787Y-14123713D01*
X11516213Y-14123713D01*
D11*
X11810714Y-13995024D02*
X11829762Y-13995024D01*
X11829762Y-13995024D02*
X11848809Y-14004548D01*
X11848809Y-14004548D02*
X11858333Y-14014071D01*
X11858333Y-14014071D02*
X11867857Y-14033119D01*
X11867857Y-14033119D02*
X11877381Y-14071214D01*
X11877381Y-14071214D02*
X11877381Y-14118833D01*
X11877381Y-14118833D02*
X11867857Y-14156928D01*
X11867857Y-14156928D02*
X11858333Y-14175976D01*
X11858333Y-14175976D02*
X11848809Y-14185500D01*
X11848809Y-14185500D02*
X11829762Y-14195024D01*
X11829762Y-14195024D02*
X11810714Y-14195024D01*
X11810714Y-14195024D02*
X11791667Y-14185500D01*
X11791667Y-14185500D02*
X11782143Y-14175976D01*
X11782143Y-14175976D02*
X11772619Y-14156928D01*
X11772619Y-14156928D02*
X11763095Y-14118833D01*
X11763095Y-14118833D02*
X11763095Y-14071214D01*
X11763095Y-14071214D02*
X11772619Y-14033119D01*
X11772619Y-14033119D02*
X11782143Y-14014071D01*
X11782143Y-14014071D02*
X11791667Y-14004548D01*
X11791667Y-14004548D02*
X11810714Y-13995024D01*
X11963095Y-14175976D02*
X11972619Y-14185500D01*
X11972619Y-14185500D02*
X11963095Y-14195024D01*
X11963095Y-14195024D02*
X11953571Y-14185500D01*
X11953571Y-14185500D02*
X11963095Y-14175976D01*
X11963095Y-14175976D02*
X11963095Y-14195024D01*
X12144048Y-13995024D02*
X12105952Y-13995024D01*
X12105952Y-13995024D02*
X12086905Y-14004548D01*
X12086905Y-14004548D02*
X12077381Y-14014071D01*
X12077381Y-14014071D02*
X12058333Y-14042643D01*
X12058333Y-14042643D02*
X12048809Y-14080738D01*
X12048809Y-14080738D02*
X12048809Y-14156928D01*
X12048809Y-14156928D02*
X12058333Y-14175976D01*
X12058333Y-14175976D02*
X12067857Y-14185500D01*
X12067857Y-14185500D02*
X12086905Y-14195024D01*
X12086905Y-14195024D02*
X12125000Y-14195024D01*
X12125000Y-14195024D02*
X12144048Y-14185500D01*
X12144048Y-14185500D02*
X12153571Y-14175976D01*
X12153571Y-14175976D02*
X12163095Y-14156928D01*
X12163095Y-14156928D02*
X12163095Y-14109309D01*
X12163095Y-14109309D02*
X12153571Y-14090262D01*
X12153571Y-14090262D02*
X12144048Y-14080738D01*
X12144048Y-14080738D02*
X12125000Y-14071214D01*
X12125000Y-14071214D02*
X12086905Y-14071214D01*
X12086905Y-14071214D02*
X12067857Y-14080738D01*
X12067857Y-14080738D02*
X12058333Y-14090262D01*
X12058333Y-14090262D02*
X12048809Y-14109309D01*
X12286905Y-13995024D02*
X12305952Y-13995024D01*
X12305952Y-13995024D02*
X12325000Y-14004548D01*
X12325000Y-14004548D02*
X12334524Y-14014071D01*
X12334524Y-14014071D02*
X12344048Y-14033119D01*
X12344048Y-14033119D02*
X12353571Y-14071214D01*
X12353571Y-14071214D02*
X12353571Y-14118833D01*
X12353571Y-14118833D02*
X12344048Y-14156928D01*
X12344048Y-14156928D02*
X12334524Y-14175976D01*
X12334524Y-14175976D02*
X12325000Y-14185500D01*
X12325000Y-14185500D02*
X12305952Y-14195024D01*
X12305952Y-14195024D02*
X12286905Y-14195024D01*
X12286905Y-14195024D02*
X12267857Y-14185500D01*
X12267857Y-14185500D02*
X12258333Y-14175976D01*
X12258333Y-14175976D02*
X12248809Y-14156928D01*
X12248809Y-14156928D02*
X12239286Y-14118833D01*
X12239286Y-14118833D02*
X12239286Y-14071214D01*
X12239286Y-14071214D02*
X12248809Y-14033119D01*
X12248809Y-14033119D02*
X12258333Y-14014071D01*
X12258333Y-14014071D02*
X12267857Y-14004548D01*
X12267857Y-14004548D02*
X12286905Y-13995024D01*
X12477381Y-13995024D02*
X12496429Y-13995024D01*
X12496429Y-13995024D02*
X12515476Y-14004548D01*
X12515476Y-14004548D02*
X12525000Y-14014071D01*
X12525000Y-14014071D02*
X12534524Y-14033119D01*
X12534524Y-14033119D02*
X12544048Y-14071214D01*
X12544048Y-14071214D02*
X12544048Y-14118833D01*
X12544048Y-14118833D02*
X12534524Y-14156928D01*
X12534524Y-14156928D02*
X12525000Y-14175976D01*
X12525000Y-14175976D02*
X12515476Y-14185500D01*
X12515476Y-14185500D02*
X12496429Y-14195024D01*
X12496429Y-14195024D02*
X12477381Y-14195024D01*
X12477381Y-14195024D02*
X12458333Y-14185500D01*
X12458333Y-14185500D02*
X12448809Y-14175976D01*
X12448809Y-14175976D02*
X12439286Y-14156928D01*
X12439286Y-14156928D02*
X12429762Y-14118833D01*
X12429762Y-14118833D02*
X12429762Y-14071214D01*
X12429762Y-14071214D02*
X12439286Y-14033119D01*
X12439286Y-14033119D02*
X12448809Y-14014071D01*
X12448809Y-14014071D02*
X12458333Y-14004548D01*
X12458333Y-14004548D02*
X12477381Y-13995024D01*
X12629762Y-14195024D02*
X12629762Y-14061690D01*
X12629762Y-14080738D02*
X12639286Y-14071214D01*
X12639286Y-14071214D02*
X12658333Y-14061690D01*
X12658333Y-14061690D02*
X12686905Y-14061690D01*
X12686905Y-14061690D02*
X12705952Y-14071214D01*
X12705952Y-14071214D02*
X12715476Y-14090262D01*
X12715476Y-14090262D02*
X12715476Y-14195024D01*
X12715476Y-14090262D02*
X12725000Y-14071214D01*
X12725000Y-14071214D02*
X12744048Y-14061690D01*
X12744048Y-14061690D02*
X12772619Y-14061690D01*
X12772619Y-14061690D02*
X12791667Y-14071214D01*
X12791667Y-14071214D02*
X12801190Y-14090262D01*
X12801190Y-14090262D02*
X12801190Y-14195024D01*
X12896429Y-14195024D02*
X12896429Y-14061690D01*
X12896429Y-14080738D02*
X12905952Y-14071214D01*
X12905952Y-14071214D02*
X12925000Y-14061690D01*
X12925000Y-14061690D02*
X12953571Y-14061690D01*
X12953571Y-14061690D02*
X12972619Y-14071214D01*
X12972619Y-14071214D02*
X12982143Y-14090262D01*
X12982143Y-14090262D02*
X12982143Y-14195024D01*
X12982143Y-14090262D02*
X12991667Y-14071214D01*
X12991667Y-14071214D02*
X13010714Y-14061690D01*
X13010714Y-14061690D02*
X13039286Y-14061690D01*
X13039286Y-14061690D02*
X13058333Y-14071214D01*
X13058333Y-14071214D02*
X13067857Y-14090262D01*
X13067857Y-14090262D02*
X13067857Y-14195024D01*
X13458333Y-13985500D02*
X13286905Y-14242643D01*
X13715476Y-13995024D02*
X13734524Y-13995024D01*
X13734524Y-13995024D02*
X13753572Y-14004548D01*
X13753572Y-14004548D02*
X13763095Y-14014071D01*
X13763095Y-14014071D02*
X13772619Y-14033119D01*
X13772619Y-14033119D02*
X13782143Y-14071214D01*
X13782143Y-14071214D02*
X13782143Y-14118833D01*
X13782143Y-14118833D02*
X13772619Y-14156928D01*
X13772619Y-14156928D02*
X13763095Y-14175976D01*
X13763095Y-14175976D02*
X13753572Y-14185500D01*
X13753572Y-14185500D02*
X13734524Y-14195024D01*
X13734524Y-14195024D02*
X13715476Y-14195024D01*
X13715476Y-14195024D02*
X13696429Y-14185500D01*
X13696429Y-14185500D02*
X13686905Y-14175976D01*
X13686905Y-14175976D02*
X13677381Y-14156928D01*
X13677381Y-14156928D02*
X13667857Y-14118833D01*
X13667857Y-14118833D02*
X13667857Y-14071214D01*
X13667857Y-14071214D02*
X13677381Y-14033119D01*
X13677381Y-14033119D02*
X13686905Y-14014071D01*
X13686905Y-14014071D02*
X13696429Y-14004548D01*
X13696429Y-14004548D02*
X13715476Y-13995024D01*
X13867857Y-14175976D02*
X13877381Y-14185500D01*
X13877381Y-14185500D02*
X13867857Y-14195024D01*
X13867857Y-14195024D02*
X13858333Y-14185500D01*
X13858333Y-14185500D02*
X13867857Y-14175976D01*
X13867857Y-14175976D02*
X13867857Y-14195024D01*
X14001191Y-13995024D02*
X14020238Y-13995024D01*
X14020238Y-13995024D02*
X14039286Y-14004548D01*
X14039286Y-14004548D02*
X14048810Y-14014071D01*
X14048810Y-14014071D02*
X14058333Y-14033119D01*
X14058333Y-14033119D02*
X14067857Y-14071214D01*
X14067857Y-14071214D02*
X14067857Y-14118833D01*
X14067857Y-14118833D02*
X14058333Y-14156928D01*
X14058333Y-14156928D02*
X14048810Y-14175976D01*
X14048810Y-14175976D02*
X14039286Y-14185500D01*
X14039286Y-14185500D02*
X14020238Y-14195024D01*
X14020238Y-14195024D02*
X14001191Y-14195024D01*
X14001191Y-14195024D02*
X13982143Y-14185500D01*
X13982143Y-14185500D02*
X13972619Y-14175976D01*
X13972619Y-14175976D02*
X13963095Y-14156928D01*
X13963095Y-14156928D02*
X13953572Y-14118833D01*
X13953572Y-14118833D02*
X13953572Y-14071214D01*
X13953572Y-14071214D02*
X13963095Y-14033119D01*
X13963095Y-14033119D02*
X13972619Y-14014071D01*
X13972619Y-14014071D02*
X13982143Y-14004548D01*
X13982143Y-14004548D02*
X14001191Y-13995024D01*
X14144048Y-14014071D02*
X14153572Y-14004548D01*
X14153572Y-14004548D02*
X14172619Y-13995024D01*
X14172619Y-13995024D02*
X14220238Y-13995024D01*
X14220238Y-13995024D02*
X14239286Y-14004548D01*
X14239286Y-14004548D02*
X14248810Y-14014071D01*
X14248810Y-14014071D02*
X14258333Y-14033119D01*
X14258333Y-14033119D02*
X14258333Y-14052167D01*
X14258333Y-14052167D02*
X14248810Y-14080738D01*
X14248810Y-14080738D02*
X14134524Y-14195024D01*
X14134524Y-14195024D02*
X14258333Y-14195024D01*
X14325000Y-13995024D02*
X14448810Y-13995024D01*
X14448810Y-13995024D02*
X14382143Y-14071214D01*
X14382143Y-14071214D02*
X14410714Y-14071214D01*
X14410714Y-14071214D02*
X14429762Y-14080738D01*
X14429762Y-14080738D02*
X14439286Y-14090262D01*
X14439286Y-14090262D02*
X14448810Y-14109309D01*
X14448810Y-14109309D02*
X14448810Y-14156928D01*
X14448810Y-14156928D02*
X14439286Y-14175976D01*
X14439286Y-14175976D02*
X14429762Y-14185500D01*
X14429762Y-14185500D02*
X14410714Y-14195024D01*
X14410714Y-14195024D02*
X14353572Y-14195024D01*
X14353572Y-14195024D02*
X14334524Y-14185500D01*
X14334524Y-14185500D02*
X14325000Y-14175976D01*
X14620238Y-13995024D02*
X14582143Y-13995024D01*
X14582143Y-13995024D02*
X14563095Y-14004548D01*
X14563095Y-14004548D02*
X14553572Y-14014071D01*
X14553572Y-14014071D02*
X14534524Y-14042643D01*
X14534524Y-14042643D02*
X14525000Y-14080738D01*
X14525000Y-14080738D02*
X14525000Y-14156928D01*
X14525000Y-14156928D02*
X14534524Y-14175976D01*
X14534524Y-14175976D02*
X14544048Y-14185500D01*
X14544048Y-14185500D02*
X14563095Y-14195024D01*
X14563095Y-14195024D02*
X14601191Y-14195024D01*
X14601191Y-14195024D02*
X14620238Y-14185500D01*
X14620238Y-14185500D02*
X14629762Y-14175976D01*
X14629762Y-14175976D02*
X14639286Y-14156928D01*
X14639286Y-14156928D02*
X14639286Y-14109309D01*
X14639286Y-14109309D02*
X14629762Y-14090262D01*
X14629762Y-14090262D02*
X14620238Y-14080738D01*
X14620238Y-14080738D02*
X14601191Y-14071214D01*
X14601191Y-14071214D02*
X14563095Y-14071214D01*
X14563095Y-14071214D02*
X14544048Y-14080738D01*
X14544048Y-14080738D02*
X14534524Y-14090262D01*
X14534524Y-14090262D02*
X14525000Y-14109309D01*
X14715476Y-13995024D02*
X14715476Y-14033119D01*
X14791667Y-13995024D02*
X14791667Y-14033119D01*
X15086905Y-14271214D02*
X15077381Y-14261690D01*
X15077381Y-14261690D02*
X15058334Y-14233119D01*
X15058334Y-14233119D02*
X15048810Y-14214071D01*
X15048810Y-14214071D02*
X15039286Y-14185500D01*
X15039286Y-14185500D02*
X15029762Y-14137881D01*
X15029762Y-14137881D02*
X15029762Y-14099786D01*
X15029762Y-14099786D02*
X15039286Y-14052167D01*
X15039286Y-14052167D02*
X15048810Y-14023595D01*
X15048810Y-14023595D02*
X15058334Y-14004548D01*
X15058334Y-14004548D02*
X15077381Y-13975976D01*
X15077381Y-13975976D02*
X15086905Y-13966452D01*
X15201191Y-13995024D02*
X15220238Y-13995024D01*
X15220238Y-13995024D02*
X15239286Y-14004548D01*
X15239286Y-14004548D02*
X15248810Y-14014071D01*
X15248810Y-14014071D02*
X15258334Y-14033119D01*
X15258334Y-14033119D02*
X15267857Y-14071214D01*
X15267857Y-14071214D02*
X15267857Y-14118833D01*
X15267857Y-14118833D02*
X15258334Y-14156928D01*
X15258334Y-14156928D02*
X15248810Y-14175976D01*
X15248810Y-14175976D02*
X15239286Y-14185500D01*
X15239286Y-14185500D02*
X15220238Y-14195024D01*
X15220238Y-14195024D02*
X15201191Y-14195024D01*
X15201191Y-14195024D02*
X15182143Y-14185500D01*
X15182143Y-14185500D02*
X15172619Y-14175976D01*
X15172619Y-14175976D02*
X15163095Y-14156928D01*
X15163095Y-14156928D02*
X15153572Y-14118833D01*
X15153572Y-14118833D02*
X15153572Y-14071214D01*
X15153572Y-14071214D02*
X15163095Y-14033119D01*
X15163095Y-14033119D02*
X15172619Y-14014071D01*
X15172619Y-14014071D02*
X15182143Y-14004548D01*
X15182143Y-14004548D02*
X15201191Y-13995024D01*
X15505953Y-14195024D02*
X15505953Y-13995024D01*
X15591667Y-14195024D02*
X15591667Y-14090262D01*
X15591667Y-14090262D02*
X15582143Y-14071214D01*
X15582143Y-14071214D02*
X15563096Y-14061690D01*
X15563096Y-14061690D02*
X15534524Y-14061690D01*
X15534524Y-14061690D02*
X15515476Y-14071214D01*
X15515476Y-14071214D02*
X15505953Y-14080738D01*
X15715476Y-14195024D02*
X15696429Y-14185500D01*
X15696429Y-14185500D02*
X15686905Y-14175976D01*
X15686905Y-14175976D02*
X15677381Y-14156928D01*
X15677381Y-14156928D02*
X15677381Y-14099786D01*
X15677381Y-14099786D02*
X15686905Y-14080738D01*
X15686905Y-14080738D02*
X15696429Y-14071214D01*
X15696429Y-14071214D02*
X15715476Y-14061690D01*
X15715476Y-14061690D02*
X15744048Y-14061690D01*
X15744048Y-14061690D02*
X15763096Y-14071214D01*
X15763096Y-14071214D02*
X15772619Y-14080738D01*
X15772619Y-14080738D02*
X15782143Y-14099786D01*
X15782143Y-14099786D02*
X15782143Y-14156928D01*
X15782143Y-14156928D02*
X15772619Y-14175976D01*
X15772619Y-14175976D02*
X15763096Y-14185500D01*
X15763096Y-14185500D02*
X15744048Y-14195024D01*
X15744048Y-14195024D02*
X15715476Y-14195024D01*
X15896429Y-14195024D02*
X15877381Y-14185500D01*
X15877381Y-14185500D02*
X15867857Y-14166452D01*
X15867857Y-14166452D02*
X15867857Y-13995024D01*
X16048810Y-14185500D02*
X16029762Y-14195024D01*
X16029762Y-14195024D02*
X15991667Y-14195024D01*
X15991667Y-14195024D02*
X15972619Y-14185500D01*
X15972619Y-14185500D02*
X15963096Y-14166452D01*
X15963096Y-14166452D02*
X15963096Y-14090262D01*
X15963096Y-14090262D02*
X15972619Y-14071214D01*
X15972619Y-14071214D02*
X15991667Y-14061690D01*
X15991667Y-14061690D02*
X16029762Y-14061690D01*
X16029762Y-14061690D02*
X16048810Y-14071214D01*
X16048810Y-14071214D02*
X16058334Y-14090262D01*
X16058334Y-14090262D02*
X16058334Y-14109309D01*
X16058334Y-14109309D02*
X15963096Y-14128357D01*
X16134524Y-14185500D02*
X16153572Y-14195024D01*
X16153572Y-14195024D02*
X16191667Y-14195024D01*
X16191667Y-14195024D02*
X16210715Y-14185500D01*
X16210715Y-14185500D02*
X16220238Y-14166452D01*
X16220238Y-14166452D02*
X16220238Y-14156928D01*
X16220238Y-14156928D02*
X16210715Y-14137881D01*
X16210715Y-14137881D02*
X16191667Y-14128357D01*
X16191667Y-14128357D02*
X16163096Y-14128357D01*
X16163096Y-14128357D02*
X16144048Y-14118833D01*
X16144048Y-14118833D02*
X16134524Y-14099786D01*
X16134524Y-14099786D02*
X16134524Y-14090262D01*
X16134524Y-14090262D02*
X16144048Y-14071214D01*
X16144048Y-14071214D02*
X16163096Y-14061690D01*
X16163096Y-14061690D02*
X16191667Y-14061690D01*
X16191667Y-14061690D02*
X16210715Y-14071214D01*
X16458334Y-14118833D02*
X16610715Y-14118833D01*
X16534524Y-14195024D02*
X16534524Y-14042643D01*
X16944048Y-14061690D02*
X16944048Y-14195024D01*
X16896429Y-13985500D02*
X16848810Y-14128357D01*
X16848810Y-14128357D02*
X16972620Y-14128357D01*
X17191667Y-14185500D02*
X17210715Y-14195024D01*
X17210715Y-14195024D02*
X17248810Y-14195024D01*
X17248810Y-14195024D02*
X17267858Y-14185500D01*
X17267858Y-14185500D02*
X17277382Y-14166452D01*
X17277382Y-14166452D02*
X17277382Y-14156928D01*
X17277382Y-14156928D02*
X17267858Y-14137881D01*
X17267858Y-14137881D02*
X17248810Y-14128357D01*
X17248810Y-14128357D02*
X17220239Y-14128357D01*
X17220239Y-14128357D02*
X17201191Y-14118833D01*
X17201191Y-14118833D02*
X17191667Y-14099786D01*
X17191667Y-14099786D02*
X17191667Y-14090262D01*
X17191667Y-14090262D02*
X17201191Y-14071214D01*
X17201191Y-14071214D02*
X17220239Y-14061690D01*
X17220239Y-14061690D02*
X17248810Y-14061690D01*
X17248810Y-14061690D02*
X17267858Y-14071214D01*
X17391667Y-14195024D02*
X17372620Y-14185500D01*
X17372620Y-14185500D02*
X17363096Y-14166452D01*
X17363096Y-14166452D02*
X17363096Y-13995024D01*
X17496429Y-14195024D02*
X17477382Y-14185500D01*
X17477382Y-14185500D02*
X17467858Y-14175976D01*
X17467858Y-14175976D02*
X17458334Y-14156928D01*
X17458334Y-14156928D02*
X17458334Y-14099786D01*
X17458334Y-14099786D02*
X17467858Y-14080738D01*
X17467858Y-14080738D02*
X17477382Y-14071214D01*
X17477382Y-14071214D02*
X17496429Y-14061690D01*
X17496429Y-14061690D02*
X17525001Y-14061690D01*
X17525001Y-14061690D02*
X17544048Y-14071214D01*
X17544048Y-14071214D02*
X17553572Y-14080738D01*
X17553572Y-14080738D02*
X17563096Y-14099786D01*
X17563096Y-14099786D02*
X17563096Y-14156928D01*
X17563096Y-14156928D02*
X17553572Y-14175976D01*
X17553572Y-14175976D02*
X17544048Y-14185500D01*
X17544048Y-14185500D02*
X17525001Y-14195024D01*
X17525001Y-14195024D02*
X17496429Y-14195024D01*
X17620239Y-14061690D02*
X17696429Y-14061690D01*
X17648810Y-13995024D02*
X17648810Y-14166452D01*
X17648810Y-14166452D02*
X17658334Y-14185500D01*
X17658334Y-14185500D02*
X17677382Y-14195024D01*
X17677382Y-14195024D02*
X17696429Y-14195024D01*
X17753572Y-14185500D02*
X17772620Y-14195024D01*
X17772620Y-14195024D02*
X17810715Y-14195024D01*
X17810715Y-14195024D02*
X17829763Y-14185500D01*
X17829763Y-14185500D02*
X17839286Y-14166452D01*
X17839286Y-14166452D02*
X17839286Y-14156928D01*
X17839286Y-14156928D02*
X17829763Y-14137881D01*
X17829763Y-14137881D02*
X17810715Y-14128357D01*
X17810715Y-14128357D02*
X17782143Y-14128357D01*
X17782143Y-14128357D02*
X17763096Y-14118833D01*
X17763096Y-14118833D02*
X17753572Y-14099786D01*
X17753572Y-14099786D02*
X17753572Y-14090262D01*
X17753572Y-14090262D02*
X17763096Y-14071214D01*
X17763096Y-14071214D02*
X17782143Y-14061690D01*
X17782143Y-14061690D02*
X17810715Y-14061690D01*
X17810715Y-14061690D02*
X17829763Y-14071214D01*
X17905953Y-14271214D02*
X17915477Y-14261690D01*
X17915477Y-14261690D02*
X17934524Y-14233119D01*
X17934524Y-14233119D02*
X17944048Y-14214071D01*
X17944048Y-14214071D02*
X17953572Y-14185500D01*
X17953572Y-14185500D02*
X17963096Y-14137881D01*
X17963096Y-14137881D02*
X17963096Y-14099786D01*
X17963096Y-14099786D02*
X17953572Y-14052167D01*
X17953572Y-14052167D02*
X17944048Y-14023595D01*
X17944048Y-14023595D02*
X17934524Y-14004548D01*
X17934524Y-14004548D02*
X17915477Y-13975976D01*
X17915477Y-13975976D02*
X17905953Y-13966452D01*
D15*
X11490000Y-14401500D02*
X11525000Y-14366500D01*
X11490000Y-14331500D01*
X11455000Y-14366500D01*
X11490000Y-14401500D01*
D11*
X11810714Y-14259024D02*
X11829762Y-14259024D01*
X11829762Y-14259024D02*
X11848809Y-14268548D01*
X11848809Y-14268548D02*
X11858333Y-14278071D01*
X11858333Y-14278071D02*
X11867857Y-14297119D01*
X11867857Y-14297119D02*
X11877381Y-14335214D01*
X11877381Y-14335214D02*
X11877381Y-14382833D01*
X11877381Y-14382833D02*
X11867857Y-14420928D01*
X11867857Y-14420928D02*
X11858333Y-14439976D01*
X11858333Y-14439976D02*
X11848809Y-14449500D01*
X11848809Y-14449500D02*
X11829762Y-14459024D01*
X11829762Y-14459024D02*
X11810714Y-14459024D01*
X11810714Y-14459024D02*
X11791667Y-14449500D01*
X11791667Y-14449500D02*
X11782143Y-14439976D01*
X11782143Y-14439976D02*
X11772619Y-14420928D01*
X11772619Y-14420928D02*
X11763095Y-14382833D01*
X11763095Y-14382833D02*
X11763095Y-14335214D01*
X11763095Y-14335214D02*
X11772619Y-14297119D01*
X11772619Y-14297119D02*
X11782143Y-14278071D01*
X11782143Y-14278071D02*
X11791667Y-14268548D01*
X11791667Y-14268548D02*
X11810714Y-14259024D01*
X11963095Y-14439976D02*
X11972619Y-14449500D01*
X11972619Y-14449500D02*
X11963095Y-14459024D01*
X11963095Y-14459024D02*
X11953571Y-14449500D01*
X11953571Y-14449500D02*
X11963095Y-14439976D01*
X11963095Y-14439976D02*
X11963095Y-14459024D01*
X12039286Y-14259024D02*
X12172619Y-14259024D01*
X12172619Y-14259024D02*
X12086905Y-14459024D01*
X12286905Y-14259024D02*
X12305952Y-14259024D01*
X12305952Y-14259024D02*
X12325000Y-14268548D01*
X12325000Y-14268548D02*
X12334524Y-14278071D01*
X12334524Y-14278071D02*
X12344048Y-14297119D01*
X12344048Y-14297119D02*
X12353571Y-14335214D01*
X12353571Y-14335214D02*
X12353571Y-14382833D01*
X12353571Y-14382833D02*
X12344048Y-14420928D01*
X12344048Y-14420928D02*
X12334524Y-14439976D01*
X12334524Y-14439976D02*
X12325000Y-14449500D01*
X12325000Y-14449500D02*
X12305952Y-14459024D01*
X12305952Y-14459024D02*
X12286905Y-14459024D01*
X12286905Y-14459024D02*
X12267857Y-14449500D01*
X12267857Y-14449500D02*
X12258333Y-14439976D01*
X12258333Y-14439976D02*
X12248809Y-14420928D01*
X12248809Y-14420928D02*
X12239286Y-14382833D01*
X12239286Y-14382833D02*
X12239286Y-14335214D01*
X12239286Y-14335214D02*
X12248809Y-14297119D01*
X12248809Y-14297119D02*
X12258333Y-14278071D01*
X12258333Y-14278071D02*
X12267857Y-14268548D01*
X12267857Y-14268548D02*
X12286905Y-14259024D01*
X12477381Y-14259024D02*
X12496429Y-14259024D01*
X12496429Y-14259024D02*
X12515476Y-14268548D01*
X12515476Y-14268548D02*
X12525000Y-14278071D01*
X12525000Y-14278071D02*
X12534524Y-14297119D01*
X12534524Y-14297119D02*
X12544048Y-14335214D01*
X12544048Y-14335214D02*
X12544048Y-14382833D01*
X12544048Y-14382833D02*
X12534524Y-14420928D01*
X12534524Y-14420928D02*
X12525000Y-14439976D01*
X12525000Y-14439976D02*
X12515476Y-14449500D01*
X12515476Y-14449500D02*
X12496429Y-14459024D01*
X12496429Y-14459024D02*
X12477381Y-14459024D01*
X12477381Y-14459024D02*
X12458333Y-14449500D01*
X12458333Y-14449500D02*
X12448809Y-14439976D01*
X12448809Y-14439976D02*
X12439286Y-14420928D01*
X12439286Y-14420928D02*
X12429762Y-14382833D01*
X12429762Y-14382833D02*
X12429762Y-14335214D01*
X12429762Y-14335214D02*
X12439286Y-14297119D01*
X12439286Y-14297119D02*
X12448809Y-14278071D01*
X12448809Y-14278071D02*
X12458333Y-14268548D01*
X12458333Y-14268548D02*
X12477381Y-14259024D01*
X12629762Y-14459024D02*
X12629762Y-14325690D01*
X12629762Y-14344738D02*
X12639286Y-14335214D01*
X12639286Y-14335214D02*
X12658333Y-14325690D01*
X12658333Y-14325690D02*
X12686905Y-14325690D01*
X12686905Y-14325690D02*
X12705952Y-14335214D01*
X12705952Y-14335214D02*
X12715476Y-14354262D01*
X12715476Y-14354262D02*
X12715476Y-14459024D01*
X12715476Y-14354262D02*
X12725000Y-14335214D01*
X12725000Y-14335214D02*
X12744048Y-14325690D01*
X12744048Y-14325690D02*
X12772619Y-14325690D01*
X12772619Y-14325690D02*
X12791667Y-14335214D01*
X12791667Y-14335214D02*
X12801190Y-14354262D01*
X12801190Y-14354262D02*
X12801190Y-14459024D01*
X12896429Y-14459024D02*
X12896429Y-14325690D01*
X12896429Y-14344738D02*
X12905952Y-14335214D01*
X12905952Y-14335214D02*
X12925000Y-14325690D01*
X12925000Y-14325690D02*
X12953571Y-14325690D01*
X12953571Y-14325690D02*
X12972619Y-14335214D01*
X12972619Y-14335214D02*
X12982143Y-14354262D01*
X12982143Y-14354262D02*
X12982143Y-14459024D01*
X12982143Y-14354262D02*
X12991667Y-14335214D01*
X12991667Y-14335214D02*
X13010714Y-14325690D01*
X13010714Y-14325690D02*
X13039286Y-14325690D01*
X13039286Y-14325690D02*
X13058333Y-14335214D01*
X13058333Y-14335214D02*
X13067857Y-14354262D01*
X13067857Y-14354262D02*
X13067857Y-14459024D01*
X13458333Y-14249500D02*
X13286905Y-14506643D01*
X13715476Y-14259024D02*
X13734524Y-14259024D01*
X13734524Y-14259024D02*
X13753572Y-14268548D01*
X13753572Y-14268548D02*
X13763095Y-14278071D01*
X13763095Y-14278071D02*
X13772619Y-14297119D01*
X13772619Y-14297119D02*
X13782143Y-14335214D01*
X13782143Y-14335214D02*
X13782143Y-14382833D01*
X13782143Y-14382833D02*
X13772619Y-14420928D01*
X13772619Y-14420928D02*
X13763095Y-14439976D01*
X13763095Y-14439976D02*
X13753572Y-14449500D01*
X13753572Y-14449500D02*
X13734524Y-14459024D01*
X13734524Y-14459024D02*
X13715476Y-14459024D01*
X13715476Y-14459024D02*
X13696429Y-14449500D01*
X13696429Y-14449500D02*
X13686905Y-14439976D01*
X13686905Y-14439976D02*
X13677381Y-14420928D01*
X13677381Y-14420928D02*
X13667857Y-14382833D01*
X13667857Y-14382833D02*
X13667857Y-14335214D01*
X13667857Y-14335214D02*
X13677381Y-14297119D01*
X13677381Y-14297119D02*
X13686905Y-14278071D01*
X13686905Y-14278071D02*
X13696429Y-14268548D01*
X13696429Y-14268548D02*
X13715476Y-14259024D01*
X13867857Y-14439976D02*
X13877381Y-14449500D01*
X13877381Y-14449500D02*
X13867857Y-14459024D01*
X13867857Y-14459024D02*
X13858333Y-14449500D01*
X13858333Y-14449500D02*
X13867857Y-14439976D01*
X13867857Y-14439976D02*
X13867857Y-14459024D01*
X14001191Y-14259024D02*
X14020238Y-14259024D01*
X14020238Y-14259024D02*
X14039286Y-14268548D01*
X14039286Y-14268548D02*
X14048810Y-14278071D01*
X14048810Y-14278071D02*
X14058333Y-14297119D01*
X14058333Y-14297119D02*
X14067857Y-14335214D01*
X14067857Y-14335214D02*
X14067857Y-14382833D01*
X14067857Y-14382833D02*
X14058333Y-14420928D01*
X14058333Y-14420928D02*
X14048810Y-14439976D01*
X14048810Y-14439976D02*
X14039286Y-14449500D01*
X14039286Y-14449500D02*
X14020238Y-14459024D01*
X14020238Y-14459024D02*
X14001191Y-14459024D01*
X14001191Y-14459024D02*
X13982143Y-14449500D01*
X13982143Y-14449500D02*
X13972619Y-14439976D01*
X13972619Y-14439976D02*
X13963095Y-14420928D01*
X13963095Y-14420928D02*
X13953572Y-14382833D01*
X13953572Y-14382833D02*
X13953572Y-14335214D01*
X13953572Y-14335214D02*
X13963095Y-14297119D01*
X13963095Y-14297119D02*
X13972619Y-14278071D01*
X13972619Y-14278071D02*
X13982143Y-14268548D01*
X13982143Y-14268548D02*
X14001191Y-14259024D01*
X14144048Y-14278071D02*
X14153572Y-14268548D01*
X14153572Y-14268548D02*
X14172619Y-14259024D01*
X14172619Y-14259024D02*
X14220238Y-14259024D01*
X14220238Y-14259024D02*
X14239286Y-14268548D01*
X14239286Y-14268548D02*
X14248810Y-14278071D01*
X14248810Y-14278071D02*
X14258333Y-14297119D01*
X14258333Y-14297119D02*
X14258333Y-14316167D01*
X14258333Y-14316167D02*
X14248810Y-14344738D01*
X14248810Y-14344738D02*
X14134524Y-14459024D01*
X14134524Y-14459024D02*
X14258333Y-14459024D01*
X14325000Y-14259024D02*
X14458333Y-14259024D01*
X14458333Y-14259024D02*
X14372619Y-14459024D01*
X14620238Y-14259024D02*
X14582143Y-14259024D01*
X14582143Y-14259024D02*
X14563095Y-14268548D01*
X14563095Y-14268548D02*
X14553572Y-14278071D01*
X14553572Y-14278071D02*
X14534524Y-14306643D01*
X14534524Y-14306643D02*
X14525000Y-14344738D01*
X14525000Y-14344738D02*
X14525000Y-14420928D01*
X14525000Y-14420928D02*
X14534524Y-14439976D01*
X14534524Y-14439976D02*
X14544048Y-14449500D01*
X14544048Y-14449500D02*
X14563095Y-14459024D01*
X14563095Y-14459024D02*
X14601191Y-14459024D01*
X14601191Y-14459024D02*
X14620238Y-14449500D01*
X14620238Y-14449500D02*
X14629762Y-14439976D01*
X14629762Y-14439976D02*
X14639286Y-14420928D01*
X14639286Y-14420928D02*
X14639286Y-14373309D01*
X14639286Y-14373309D02*
X14629762Y-14354262D01*
X14629762Y-14354262D02*
X14620238Y-14344738D01*
X14620238Y-14344738D02*
X14601191Y-14335214D01*
X14601191Y-14335214D02*
X14563095Y-14335214D01*
X14563095Y-14335214D02*
X14544048Y-14344738D01*
X14544048Y-14344738D02*
X14534524Y-14354262D01*
X14534524Y-14354262D02*
X14525000Y-14373309D01*
X14715476Y-14259024D02*
X14715476Y-14297119D01*
X14791667Y-14259024D02*
X14791667Y-14297119D01*
X15086905Y-14535214D02*
X15077381Y-14525690D01*
X15077381Y-14525690D02*
X15058334Y-14497119D01*
X15058334Y-14497119D02*
X15048810Y-14478071D01*
X15048810Y-14478071D02*
X15039286Y-14449500D01*
X15039286Y-14449500D02*
X15029762Y-14401881D01*
X15029762Y-14401881D02*
X15029762Y-14363786D01*
X15029762Y-14363786D02*
X15039286Y-14316167D01*
X15039286Y-14316167D02*
X15048810Y-14287595D01*
X15048810Y-14287595D02*
X15058334Y-14268548D01*
X15058334Y-14268548D02*
X15077381Y-14239976D01*
X15077381Y-14239976D02*
X15086905Y-14230452D01*
X15267857Y-14459024D02*
X15153572Y-14459024D01*
X15210714Y-14459024D02*
X15210714Y-14259024D01*
X15210714Y-14259024D02*
X15191667Y-14287595D01*
X15191667Y-14287595D02*
X15172619Y-14306643D01*
X15172619Y-14306643D02*
X15153572Y-14316167D01*
X15391667Y-14259024D02*
X15410715Y-14259024D01*
X15410715Y-14259024D02*
X15429762Y-14268548D01*
X15429762Y-14268548D02*
X15439286Y-14278071D01*
X15439286Y-14278071D02*
X15448810Y-14297119D01*
X15448810Y-14297119D02*
X15458334Y-14335214D01*
X15458334Y-14335214D02*
X15458334Y-14382833D01*
X15458334Y-14382833D02*
X15448810Y-14420928D01*
X15448810Y-14420928D02*
X15439286Y-14439976D01*
X15439286Y-14439976D02*
X15429762Y-14449500D01*
X15429762Y-14449500D02*
X15410715Y-14459024D01*
X15410715Y-14459024D02*
X15391667Y-14459024D01*
X15391667Y-14459024D02*
X15372619Y-14449500D01*
X15372619Y-14449500D02*
X15363095Y-14439976D01*
X15363095Y-14439976D02*
X15353572Y-14420928D01*
X15353572Y-14420928D02*
X15344048Y-14382833D01*
X15344048Y-14382833D02*
X15344048Y-14335214D01*
X15344048Y-14335214D02*
X15353572Y-14297119D01*
X15353572Y-14297119D02*
X15363095Y-14278071D01*
X15363095Y-14278071D02*
X15372619Y-14268548D01*
X15372619Y-14268548D02*
X15391667Y-14259024D01*
X15696429Y-14459024D02*
X15696429Y-14259024D01*
X15782143Y-14459024D02*
X15782143Y-14354262D01*
X15782143Y-14354262D02*
X15772619Y-14335214D01*
X15772619Y-14335214D02*
X15753572Y-14325690D01*
X15753572Y-14325690D02*
X15725000Y-14325690D01*
X15725000Y-14325690D02*
X15705953Y-14335214D01*
X15705953Y-14335214D02*
X15696429Y-14344738D01*
X15905953Y-14459024D02*
X15886905Y-14449500D01*
X15886905Y-14449500D02*
X15877381Y-14439976D01*
X15877381Y-14439976D02*
X15867857Y-14420928D01*
X15867857Y-14420928D02*
X15867857Y-14363786D01*
X15867857Y-14363786D02*
X15877381Y-14344738D01*
X15877381Y-14344738D02*
X15886905Y-14335214D01*
X15886905Y-14335214D02*
X15905953Y-14325690D01*
X15905953Y-14325690D02*
X15934524Y-14325690D01*
X15934524Y-14325690D02*
X15953572Y-14335214D01*
X15953572Y-14335214D02*
X15963096Y-14344738D01*
X15963096Y-14344738D02*
X15972619Y-14363786D01*
X15972619Y-14363786D02*
X15972619Y-14420928D01*
X15972619Y-14420928D02*
X15963096Y-14439976D01*
X15963096Y-14439976D02*
X15953572Y-14449500D01*
X15953572Y-14449500D02*
X15934524Y-14459024D01*
X15934524Y-14459024D02*
X15905953Y-14459024D01*
X16086905Y-14459024D02*
X16067857Y-14449500D01*
X16067857Y-14449500D02*
X16058334Y-14430452D01*
X16058334Y-14430452D02*
X16058334Y-14259024D01*
X16239286Y-14449500D02*
X16220238Y-14459024D01*
X16220238Y-14459024D02*
X16182143Y-14459024D01*
X16182143Y-14459024D02*
X16163096Y-14449500D01*
X16163096Y-14449500D02*
X16153572Y-14430452D01*
X16153572Y-14430452D02*
X16153572Y-14354262D01*
X16153572Y-14354262D02*
X16163096Y-14335214D01*
X16163096Y-14335214D02*
X16182143Y-14325690D01*
X16182143Y-14325690D02*
X16220238Y-14325690D01*
X16220238Y-14325690D02*
X16239286Y-14335214D01*
X16239286Y-14335214D02*
X16248810Y-14354262D01*
X16248810Y-14354262D02*
X16248810Y-14373309D01*
X16248810Y-14373309D02*
X16153572Y-14392357D01*
X16325000Y-14449500D02*
X16344048Y-14459024D01*
X16344048Y-14459024D02*
X16382143Y-14459024D01*
X16382143Y-14459024D02*
X16401191Y-14449500D01*
X16401191Y-14449500D02*
X16410715Y-14430452D01*
X16410715Y-14430452D02*
X16410715Y-14420928D01*
X16410715Y-14420928D02*
X16401191Y-14401881D01*
X16401191Y-14401881D02*
X16382143Y-14392357D01*
X16382143Y-14392357D02*
X16353572Y-14392357D01*
X16353572Y-14392357D02*
X16334524Y-14382833D01*
X16334524Y-14382833D02*
X16325000Y-14363786D01*
X16325000Y-14363786D02*
X16325000Y-14354262D01*
X16325000Y-14354262D02*
X16334524Y-14335214D01*
X16334524Y-14335214D02*
X16353572Y-14325690D01*
X16353572Y-14325690D02*
X16382143Y-14325690D01*
X16382143Y-14325690D02*
X16401191Y-14335214D01*
X16477381Y-14535214D02*
X16486905Y-14525690D01*
X16486905Y-14525690D02*
X16505953Y-14497119D01*
X16505953Y-14497119D02*
X16515477Y-14478071D01*
X16515477Y-14478071D02*
X16525000Y-14449500D01*
X16525000Y-14449500D02*
X16534524Y-14401881D01*
X16534524Y-14401881D02*
X16534524Y-14363786D01*
X16534524Y-14363786D02*
X16525000Y-14316167D01*
X16525000Y-14316167D02*
X16515477Y-14287595D01*
X16515477Y-14287595D02*
X16505953Y-14268548D01*
X16505953Y-14268548D02*
X16486905Y-14239976D01*
X16486905Y-14239976D02*
X16477381Y-14230452D01*
D16*
X11445000Y-14590500D02*
X11525000Y-14670500D01*
X11525000Y-14590500D02*
X11445000Y-14670500D01*
X11525000Y-14630500D02*
G75*
G03*
X11525000Y-14630500I-40000J0D01*
G01*
D11*
X11810714Y-14523024D02*
X11829762Y-14523024D01*
X11829762Y-14523024D02*
X11848809Y-14532548D01*
X11848809Y-14532548D02*
X11858333Y-14542071D01*
X11858333Y-14542071D02*
X11867857Y-14561119D01*
X11867857Y-14561119D02*
X11877381Y-14599214D01*
X11877381Y-14599214D02*
X11877381Y-14646833D01*
X11877381Y-14646833D02*
X11867857Y-14684928D01*
X11867857Y-14684928D02*
X11858333Y-14703976D01*
X11858333Y-14703976D02*
X11848809Y-14713500D01*
X11848809Y-14713500D02*
X11829762Y-14723024D01*
X11829762Y-14723024D02*
X11810714Y-14723024D01*
X11810714Y-14723024D02*
X11791667Y-14713500D01*
X11791667Y-14713500D02*
X11782143Y-14703976D01*
X11782143Y-14703976D02*
X11772619Y-14684928D01*
X11772619Y-14684928D02*
X11763095Y-14646833D01*
X11763095Y-14646833D02*
X11763095Y-14599214D01*
X11763095Y-14599214D02*
X11772619Y-14561119D01*
X11772619Y-14561119D02*
X11782143Y-14542071D01*
X11782143Y-14542071D02*
X11791667Y-14532548D01*
X11791667Y-14532548D02*
X11810714Y-14523024D01*
X11963095Y-14703976D02*
X11972619Y-14713500D01*
X11972619Y-14713500D02*
X11963095Y-14723024D01*
X11963095Y-14723024D02*
X11953571Y-14713500D01*
X11953571Y-14713500D02*
X11963095Y-14703976D01*
X11963095Y-14703976D02*
X11963095Y-14723024D01*
X12086905Y-14608738D02*
X12067857Y-14599214D01*
X12067857Y-14599214D02*
X12058333Y-14589690D01*
X12058333Y-14589690D02*
X12048809Y-14570643D01*
X12048809Y-14570643D02*
X12048809Y-14561119D01*
X12048809Y-14561119D02*
X12058333Y-14542071D01*
X12058333Y-14542071D02*
X12067857Y-14532548D01*
X12067857Y-14532548D02*
X12086905Y-14523024D01*
X12086905Y-14523024D02*
X12125000Y-14523024D01*
X12125000Y-14523024D02*
X12144048Y-14532548D01*
X12144048Y-14532548D02*
X12153571Y-14542071D01*
X12153571Y-14542071D02*
X12163095Y-14561119D01*
X12163095Y-14561119D02*
X12163095Y-14570643D01*
X12163095Y-14570643D02*
X12153571Y-14589690D01*
X12153571Y-14589690D02*
X12144048Y-14599214D01*
X12144048Y-14599214D02*
X12125000Y-14608738D01*
X12125000Y-14608738D02*
X12086905Y-14608738D01*
X12086905Y-14608738D02*
X12067857Y-14618262D01*
X12067857Y-14618262D02*
X12058333Y-14627786D01*
X12058333Y-14627786D02*
X12048809Y-14646833D01*
X12048809Y-14646833D02*
X12048809Y-14684928D01*
X12048809Y-14684928D02*
X12058333Y-14703976D01*
X12058333Y-14703976D02*
X12067857Y-14713500D01*
X12067857Y-14713500D02*
X12086905Y-14723024D01*
X12086905Y-14723024D02*
X12125000Y-14723024D01*
X12125000Y-14723024D02*
X12144048Y-14713500D01*
X12144048Y-14713500D02*
X12153571Y-14703976D01*
X12153571Y-14703976D02*
X12163095Y-14684928D01*
X12163095Y-14684928D02*
X12163095Y-14646833D01*
X12163095Y-14646833D02*
X12153571Y-14627786D01*
X12153571Y-14627786D02*
X12144048Y-14618262D01*
X12144048Y-14618262D02*
X12125000Y-14608738D01*
X12286905Y-14523024D02*
X12305952Y-14523024D01*
X12305952Y-14523024D02*
X12325000Y-14532548D01*
X12325000Y-14532548D02*
X12334524Y-14542071D01*
X12334524Y-14542071D02*
X12344048Y-14561119D01*
X12344048Y-14561119D02*
X12353571Y-14599214D01*
X12353571Y-14599214D02*
X12353571Y-14646833D01*
X12353571Y-14646833D02*
X12344048Y-14684928D01*
X12344048Y-14684928D02*
X12334524Y-14703976D01*
X12334524Y-14703976D02*
X12325000Y-14713500D01*
X12325000Y-14713500D02*
X12305952Y-14723024D01*
X12305952Y-14723024D02*
X12286905Y-14723024D01*
X12286905Y-14723024D02*
X12267857Y-14713500D01*
X12267857Y-14713500D02*
X12258333Y-14703976D01*
X12258333Y-14703976D02*
X12248809Y-14684928D01*
X12248809Y-14684928D02*
X12239286Y-14646833D01*
X12239286Y-14646833D02*
X12239286Y-14599214D01*
X12239286Y-14599214D02*
X12248809Y-14561119D01*
X12248809Y-14561119D02*
X12258333Y-14542071D01*
X12258333Y-14542071D02*
X12267857Y-14532548D01*
X12267857Y-14532548D02*
X12286905Y-14523024D01*
X12477381Y-14523024D02*
X12496429Y-14523024D01*
X12496429Y-14523024D02*
X12515476Y-14532548D01*
X12515476Y-14532548D02*
X12525000Y-14542071D01*
X12525000Y-14542071D02*
X12534524Y-14561119D01*
X12534524Y-14561119D02*
X12544048Y-14599214D01*
X12544048Y-14599214D02*
X12544048Y-14646833D01*
X12544048Y-14646833D02*
X12534524Y-14684928D01*
X12534524Y-14684928D02*
X12525000Y-14703976D01*
X12525000Y-14703976D02*
X12515476Y-14713500D01*
X12515476Y-14713500D02*
X12496429Y-14723024D01*
X12496429Y-14723024D02*
X12477381Y-14723024D01*
X12477381Y-14723024D02*
X12458333Y-14713500D01*
X12458333Y-14713500D02*
X12448809Y-14703976D01*
X12448809Y-14703976D02*
X12439286Y-14684928D01*
X12439286Y-14684928D02*
X12429762Y-14646833D01*
X12429762Y-14646833D02*
X12429762Y-14599214D01*
X12429762Y-14599214D02*
X12439286Y-14561119D01*
X12439286Y-14561119D02*
X12448809Y-14542071D01*
X12448809Y-14542071D02*
X12458333Y-14532548D01*
X12458333Y-14532548D02*
X12477381Y-14523024D01*
X12629762Y-14723024D02*
X12629762Y-14589690D01*
X12629762Y-14608738D02*
X12639286Y-14599214D01*
X12639286Y-14599214D02*
X12658333Y-14589690D01*
X12658333Y-14589690D02*
X12686905Y-14589690D01*
X12686905Y-14589690D02*
X12705952Y-14599214D01*
X12705952Y-14599214D02*
X12715476Y-14618262D01*
X12715476Y-14618262D02*
X12715476Y-14723024D01*
X12715476Y-14618262D02*
X12725000Y-14599214D01*
X12725000Y-14599214D02*
X12744048Y-14589690D01*
X12744048Y-14589690D02*
X12772619Y-14589690D01*
X12772619Y-14589690D02*
X12791667Y-14599214D01*
X12791667Y-14599214D02*
X12801190Y-14618262D01*
X12801190Y-14618262D02*
X12801190Y-14723024D01*
X12896429Y-14723024D02*
X12896429Y-14589690D01*
X12896429Y-14608738D02*
X12905952Y-14599214D01*
X12905952Y-14599214D02*
X12925000Y-14589690D01*
X12925000Y-14589690D02*
X12953571Y-14589690D01*
X12953571Y-14589690D02*
X12972619Y-14599214D01*
X12972619Y-14599214D02*
X12982143Y-14618262D01*
X12982143Y-14618262D02*
X12982143Y-14723024D01*
X12982143Y-14618262D02*
X12991667Y-14599214D01*
X12991667Y-14599214D02*
X13010714Y-14589690D01*
X13010714Y-14589690D02*
X13039286Y-14589690D01*
X13039286Y-14589690D02*
X13058333Y-14599214D01*
X13058333Y-14599214D02*
X13067857Y-14618262D01*
X13067857Y-14618262D02*
X13067857Y-14723024D01*
X13458333Y-14513500D02*
X13286905Y-14770643D01*
X13715476Y-14523024D02*
X13734524Y-14523024D01*
X13734524Y-14523024D02*
X13753572Y-14532548D01*
X13753572Y-14532548D02*
X13763095Y-14542071D01*
X13763095Y-14542071D02*
X13772619Y-14561119D01*
X13772619Y-14561119D02*
X13782143Y-14599214D01*
X13782143Y-14599214D02*
X13782143Y-14646833D01*
X13782143Y-14646833D02*
X13772619Y-14684928D01*
X13772619Y-14684928D02*
X13763095Y-14703976D01*
X13763095Y-14703976D02*
X13753572Y-14713500D01*
X13753572Y-14713500D02*
X13734524Y-14723024D01*
X13734524Y-14723024D02*
X13715476Y-14723024D01*
X13715476Y-14723024D02*
X13696429Y-14713500D01*
X13696429Y-14713500D02*
X13686905Y-14703976D01*
X13686905Y-14703976D02*
X13677381Y-14684928D01*
X13677381Y-14684928D02*
X13667857Y-14646833D01*
X13667857Y-14646833D02*
X13667857Y-14599214D01*
X13667857Y-14599214D02*
X13677381Y-14561119D01*
X13677381Y-14561119D02*
X13686905Y-14542071D01*
X13686905Y-14542071D02*
X13696429Y-14532548D01*
X13696429Y-14532548D02*
X13715476Y-14523024D01*
X13867857Y-14703976D02*
X13877381Y-14713500D01*
X13877381Y-14713500D02*
X13867857Y-14723024D01*
X13867857Y-14723024D02*
X13858333Y-14713500D01*
X13858333Y-14713500D02*
X13867857Y-14703976D01*
X13867857Y-14703976D02*
X13867857Y-14723024D01*
X14001191Y-14523024D02*
X14020238Y-14523024D01*
X14020238Y-14523024D02*
X14039286Y-14532548D01*
X14039286Y-14532548D02*
X14048810Y-14542071D01*
X14048810Y-14542071D02*
X14058333Y-14561119D01*
X14058333Y-14561119D02*
X14067857Y-14599214D01*
X14067857Y-14599214D02*
X14067857Y-14646833D01*
X14067857Y-14646833D02*
X14058333Y-14684928D01*
X14058333Y-14684928D02*
X14048810Y-14703976D01*
X14048810Y-14703976D02*
X14039286Y-14713500D01*
X14039286Y-14713500D02*
X14020238Y-14723024D01*
X14020238Y-14723024D02*
X14001191Y-14723024D01*
X14001191Y-14723024D02*
X13982143Y-14713500D01*
X13982143Y-14713500D02*
X13972619Y-14703976D01*
X13972619Y-14703976D02*
X13963095Y-14684928D01*
X13963095Y-14684928D02*
X13953572Y-14646833D01*
X13953572Y-14646833D02*
X13953572Y-14599214D01*
X13953572Y-14599214D02*
X13963095Y-14561119D01*
X13963095Y-14561119D02*
X13972619Y-14542071D01*
X13972619Y-14542071D02*
X13982143Y-14532548D01*
X13982143Y-14532548D02*
X14001191Y-14523024D01*
X14134524Y-14523024D02*
X14258333Y-14523024D01*
X14258333Y-14523024D02*
X14191667Y-14599214D01*
X14191667Y-14599214D02*
X14220238Y-14599214D01*
X14220238Y-14599214D02*
X14239286Y-14608738D01*
X14239286Y-14608738D02*
X14248810Y-14618262D01*
X14248810Y-14618262D02*
X14258333Y-14637309D01*
X14258333Y-14637309D02*
X14258333Y-14684928D01*
X14258333Y-14684928D02*
X14248810Y-14703976D01*
X14248810Y-14703976D02*
X14239286Y-14713500D01*
X14239286Y-14713500D02*
X14220238Y-14723024D01*
X14220238Y-14723024D02*
X14163095Y-14723024D01*
X14163095Y-14723024D02*
X14144048Y-14713500D01*
X14144048Y-14713500D02*
X14134524Y-14703976D01*
X14448810Y-14723024D02*
X14334524Y-14723024D01*
X14391667Y-14723024D02*
X14391667Y-14523024D01*
X14391667Y-14523024D02*
X14372619Y-14551595D01*
X14372619Y-14551595D02*
X14353572Y-14570643D01*
X14353572Y-14570643D02*
X14334524Y-14580167D01*
X14629762Y-14523024D02*
X14534524Y-14523024D01*
X14534524Y-14523024D02*
X14525000Y-14618262D01*
X14525000Y-14618262D02*
X14534524Y-14608738D01*
X14534524Y-14608738D02*
X14553572Y-14599214D01*
X14553572Y-14599214D02*
X14601191Y-14599214D01*
X14601191Y-14599214D02*
X14620238Y-14608738D01*
X14620238Y-14608738D02*
X14629762Y-14618262D01*
X14629762Y-14618262D02*
X14639286Y-14637309D01*
X14639286Y-14637309D02*
X14639286Y-14684928D01*
X14639286Y-14684928D02*
X14629762Y-14703976D01*
X14629762Y-14703976D02*
X14620238Y-14713500D01*
X14620238Y-14713500D02*
X14601191Y-14723024D01*
X14601191Y-14723024D02*
X14553572Y-14723024D01*
X14553572Y-14723024D02*
X14534524Y-14713500D01*
X14534524Y-14713500D02*
X14525000Y-14703976D01*
X14715476Y-14523024D02*
X14715476Y-14561119D01*
X14791667Y-14523024D02*
X14791667Y-14561119D01*
X15086905Y-14799214D02*
X15077381Y-14789690D01*
X15077381Y-14789690D02*
X15058334Y-14761119D01*
X15058334Y-14761119D02*
X15048810Y-14742071D01*
X15048810Y-14742071D02*
X15039286Y-14713500D01*
X15039286Y-14713500D02*
X15029762Y-14665881D01*
X15029762Y-14665881D02*
X15029762Y-14627786D01*
X15029762Y-14627786D02*
X15039286Y-14580167D01*
X15039286Y-14580167D02*
X15048810Y-14551595D01*
X15048810Y-14551595D02*
X15058334Y-14532548D01*
X15058334Y-14532548D02*
X15077381Y-14503976D01*
X15077381Y-14503976D02*
X15086905Y-14494452D01*
X15201191Y-14523024D02*
X15220238Y-14523024D01*
X15220238Y-14523024D02*
X15239286Y-14532548D01*
X15239286Y-14532548D02*
X15248810Y-14542071D01*
X15248810Y-14542071D02*
X15258334Y-14561119D01*
X15258334Y-14561119D02*
X15267857Y-14599214D01*
X15267857Y-14599214D02*
X15267857Y-14646833D01*
X15267857Y-14646833D02*
X15258334Y-14684928D01*
X15258334Y-14684928D02*
X15248810Y-14703976D01*
X15248810Y-14703976D02*
X15239286Y-14713500D01*
X15239286Y-14713500D02*
X15220238Y-14723024D01*
X15220238Y-14723024D02*
X15201191Y-14723024D01*
X15201191Y-14723024D02*
X15182143Y-14713500D01*
X15182143Y-14713500D02*
X15172619Y-14703976D01*
X15172619Y-14703976D02*
X15163095Y-14684928D01*
X15163095Y-14684928D02*
X15153572Y-14646833D01*
X15153572Y-14646833D02*
X15153572Y-14599214D01*
X15153572Y-14599214D02*
X15163095Y-14561119D01*
X15163095Y-14561119D02*
X15172619Y-14542071D01*
X15172619Y-14542071D02*
X15182143Y-14532548D01*
X15182143Y-14532548D02*
X15201191Y-14523024D01*
X15505953Y-14723024D02*
X15505953Y-14523024D01*
X15591667Y-14723024D02*
X15591667Y-14618262D01*
X15591667Y-14618262D02*
X15582143Y-14599214D01*
X15582143Y-14599214D02*
X15563096Y-14589690D01*
X15563096Y-14589690D02*
X15534524Y-14589690D01*
X15534524Y-14589690D02*
X15515476Y-14599214D01*
X15515476Y-14599214D02*
X15505953Y-14608738D01*
X15715476Y-14723024D02*
X15696429Y-14713500D01*
X15696429Y-14713500D02*
X15686905Y-14703976D01*
X15686905Y-14703976D02*
X15677381Y-14684928D01*
X15677381Y-14684928D02*
X15677381Y-14627786D01*
X15677381Y-14627786D02*
X15686905Y-14608738D01*
X15686905Y-14608738D02*
X15696429Y-14599214D01*
X15696429Y-14599214D02*
X15715476Y-14589690D01*
X15715476Y-14589690D02*
X15744048Y-14589690D01*
X15744048Y-14589690D02*
X15763096Y-14599214D01*
X15763096Y-14599214D02*
X15772619Y-14608738D01*
X15772619Y-14608738D02*
X15782143Y-14627786D01*
X15782143Y-14627786D02*
X15782143Y-14684928D01*
X15782143Y-14684928D02*
X15772619Y-14703976D01*
X15772619Y-14703976D02*
X15763096Y-14713500D01*
X15763096Y-14713500D02*
X15744048Y-14723024D01*
X15744048Y-14723024D02*
X15715476Y-14723024D01*
X15896429Y-14723024D02*
X15877381Y-14713500D01*
X15877381Y-14713500D02*
X15867857Y-14694452D01*
X15867857Y-14694452D02*
X15867857Y-14523024D01*
X16048810Y-14713500D02*
X16029762Y-14723024D01*
X16029762Y-14723024D02*
X15991667Y-14723024D01*
X15991667Y-14723024D02*
X15972619Y-14713500D01*
X15972619Y-14713500D02*
X15963096Y-14694452D01*
X15963096Y-14694452D02*
X15963096Y-14618262D01*
X15963096Y-14618262D02*
X15972619Y-14599214D01*
X15972619Y-14599214D02*
X15991667Y-14589690D01*
X15991667Y-14589690D02*
X16029762Y-14589690D01*
X16029762Y-14589690D02*
X16048810Y-14599214D01*
X16048810Y-14599214D02*
X16058334Y-14618262D01*
X16058334Y-14618262D02*
X16058334Y-14637309D01*
X16058334Y-14637309D02*
X15963096Y-14656357D01*
X16134524Y-14713500D02*
X16153572Y-14723024D01*
X16153572Y-14723024D02*
X16191667Y-14723024D01*
X16191667Y-14723024D02*
X16210715Y-14713500D01*
X16210715Y-14713500D02*
X16220238Y-14694452D01*
X16220238Y-14694452D02*
X16220238Y-14684928D01*
X16220238Y-14684928D02*
X16210715Y-14665881D01*
X16210715Y-14665881D02*
X16191667Y-14656357D01*
X16191667Y-14656357D02*
X16163096Y-14656357D01*
X16163096Y-14656357D02*
X16144048Y-14646833D01*
X16144048Y-14646833D02*
X16134524Y-14627786D01*
X16134524Y-14627786D02*
X16134524Y-14618262D01*
X16134524Y-14618262D02*
X16144048Y-14599214D01*
X16144048Y-14599214D02*
X16163096Y-14589690D01*
X16163096Y-14589690D02*
X16191667Y-14589690D01*
X16191667Y-14589690D02*
X16210715Y-14599214D01*
X16458334Y-14646833D02*
X16610715Y-14646833D01*
X16534524Y-14723024D02*
X16534524Y-14570643D01*
X16839286Y-14523024D02*
X16963096Y-14523024D01*
X16963096Y-14523024D02*
X16896429Y-14599214D01*
X16896429Y-14599214D02*
X16925001Y-14599214D01*
X16925001Y-14599214D02*
X16944048Y-14608738D01*
X16944048Y-14608738D02*
X16953572Y-14618262D01*
X16953572Y-14618262D02*
X16963096Y-14637309D01*
X16963096Y-14637309D02*
X16963096Y-14684928D01*
X16963096Y-14684928D02*
X16953572Y-14703976D01*
X16953572Y-14703976D02*
X16944048Y-14713500D01*
X16944048Y-14713500D02*
X16925001Y-14723024D01*
X16925001Y-14723024D02*
X16867858Y-14723024D01*
X16867858Y-14723024D02*
X16848810Y-14713500D01*
X16848810Y-14713500D02*
X16839286Y-14703976D01*
X17191667Y-14713500D02*
X17210715Y-14723024D01*
X17210715Y-14723024D02*
X17248810Y-14723024D01*
X17248810Y-14723024D02*
X17267858Y-14713500D01*
X17267858Y-14713500D02*
X17277382Y-14694452D01*
X17277382Y-14694452D02*
X17277382Y-14684928D01*
X17277382Y-14684928D02*
X17267858Y-14665881D01*
X17267858Y-14665881D02*
X17248810Y-14656357D01*
X17248810Y-14656357D02*
X17220239Y-14656357D01*
X17220239Y-14656357D02*
X17201191Y-14646833D01*
X17201191Y-14646833D02*
X17191667Y-14627786D01*
X17191667Y-14627786D02*
X17191667Y-14618262D01*
X17191667Y-14618262D02*
X17201191Y-14599214D01*
X17201191Y-14599214D02*
X17220239Y-14589690D01*
X17220239Y-14589690D02*
X17248810Y-14589690D01*
X17248810Y-14589690D02*
X17267858Y-14599214D01*
X17391667Y-14723024D02*
X17372620Y-14713500D01*
X17372620Y-14713500D02*
X17363096Y-14694452D01*
X17363096Y-14694452D02*
X17363096Y-14523024D01*
X17496429Y-14723024D02*
X17477382Y-14713500D01*
X17477382Y-14713500D02*
X17467858Y-14703976D01*
X17467858Y-14703976D02*
X17458334Y-14684928D01*
X17458334Y-14684928D02*
X17458334Y-14627786D01*
X17458334Y-14627786D02*
X17467858Y-14608738D01*
X17467858Y-14608738D02*
X17477382Y-14599214D01*
X17477382Y-14599214D02*
X17496429Y-14589690D01*
X17496429Y-14589690D02*
X17525001Y-14589690D01*
X17525001Y-14589690D02*
X17544048Y-14599214D01*
X17544048Y-14599214D02*
X17553572Y-14608738D01*
X17553572Y-14608738D02*
X17563096Y-14627786D01*
X17563096Y-14627786D02*
X17563096Y-14684928D01*
X17563096Y-14684928D02*
X17553572Y-14703976D01*
X17553572Y-14703976D02*
X17544048Y-14713500D01*
X17544048Y-14713500D02*
X17525001Y-14723024D01*
X17525001Y-14723024D02*
X17496429Y-14723024D01*
X17620239Y-14589690D02*
X17696429Y-14589690D01*
X17648810Y-14523024D02*
X17648810Y-14694452D01*
X17648810Y-14694452D02*
X17658334Y-14713500D01*
X17658334Y-14713500D02*
X17677382Y-14723024D01*
X17677382Y-14723024D02*
X17696429Y-14723024D01*
X17753572Y-14713500D02*
X17772620Y-14723024D01*
X17772620Y-14723024D02*
X17810715Y-14723024D01*
X17810715Y-14723024D02*
X17829763Y-14713500D01*
X17829763Y-14713500D02*
X17839286Y-14694452D01*
X17839286Y-14694452D02*
X17839286Y-14684928D01*
X17839286Y-14684928D02*
X17829763Y-14665881D01*
X17829763Y-14665881D02*
X17810715Y-14656357D01*
X17810715Y-14656357D02*
X17782143Y-14656357D01*
X17782143Y-14656357D02*
X17763096Y-14646833D01*
X17763096Y-14646833D02*
X17753572Y-14627786D01*
X17753572Y-14627786D02*
X17753572Y-14618262D01*
X17753572Y-14618262D02*
X17763096Y-14599214D01*
X17763096Y-14599214D02*
X17782143Y-14589690D01*
X17782143Y-14589690D02*
X17810715Y-14589690D01*
X17810715Y-14589690D02*
X17829763Y-14599214D01*
X17905953Y-14799214D02*
X17915477Y-14789690D01*
X17915477Y-14789690D02*
X17934524Y-14761119D01*
X17934524Y-14761119D02*
X17944048Y-14742071D01*
X17944048Y-14742071D02*
X17953572Y-14713500D01*
X17953572Y-14713500D02*
X17963096Y-14665881D01*
X17963096Y-14665881D02*
X17963096Y-14627786D01*
X17963096Y-14627786D02*
X17953572Y-14580167D01*
X17953572Y-14580167D02*
X17944048Y-14551595D01*
X17944048Y-14551595D02*
X17934524Y-14532548D01*
X17934524Y-14532548D02*
X17915477Y-14503976D01*
X17915477Y-14503976D02*
X17905953Y-14494452D01*
D10*
X11425000Y-14844500D02*
X11525000Y-14944500D01*
X11525000Y-14844500D02*
X11425000Y-14944500D01*
X11475000Y-14844500D02*
X11475000Y-14944500D01*
X11425000Y-14894500D02*
X11525000Y-14894500D01*
D11*
X11877381Y-14987024D02*
X11763095Y-14987024D01*
X11820238Y-14987024D02*
X11820238Y-14787024D01*
X11820238Y-14787024D02*
X11801190Y-14815595D01*
X11801190Y-14815595D02*
X11782143Y-14834643D01*
X11782143Y-14834643D02*
X11763095Y-14844167D01*
X11963095Y-14967976D02*
X11972619Y-14977500D01*
X11972619Y-14977500D02*
X11963095Y-14987024D01*
X11963095Y-14987024D02*
X11953571Y-14977500D01*
X11953571Y-14977500D02*
X11963095Y-14967976D01*
X11963095Y-14967976D02*
X11963095Y-14987024D01*
X12096428Y-14787024D02*
X12115476Y-14787024D01*
X12115476Y-14787024D02*
X12134524Y-14796548D01*
X12134524Y-14796548D02*
X12144048Y-14806071D01*
X12144048Y-14806071D02*
X12153571Y-14825119D01*
X12153571Y-14825119D02*
X12163095Y-14863214D01*
X12163095Y-14863214D02*
X12163095Y-14910833D01*
X12163095Y-14910833D02*
X12153571Y-14948928D01*
X12153571Y-14948928D02*
X12144048Y-14967976D01*
X12144048Y-14967976D02*
X12134524Y-14977500D01*
X12134524Y-14977500D02*
X12115476Y-14987024D01*
X12115476Y-14987024D02*
X12096428Y-14987024D01*
X12096428Y-14987024D02*
X12077381Y-14977500D01*
X12077381Y-14977500D02*
X12067857Y-14967976D01*
X12067857Y-14967976D02*
X12058333Y-14948928D01*
X12058333Y-14948928D02*
X12048809Y-14910833D01*
X12048809Y-14910833D02*
X12048809Y-14863214D01*
X12048809Y-14863214D02*
X12058333Y-14825119D01*
X12058333Y-14825119D02*
X12067857Y-14806071D01*
X12067857Y-14806071D02*
X12077381Y-14796548D01*
X12077381Y-14796548D02*
X12096428Y-14787024D01*
X12286905Y-14787024D02*
X12305952Y-14787024D01*
X12305952Y-14787024D02*
X12325000Y-14796548D01*
X12325000Y-14796548D02*
X12334524Y-14806071D01*
X12334524Y-14806071D02*
X12344048Y-14825119D01*
X12344048Y-14825119D02*
X12353571Y-14863214D01*
X12353571Y-14863214D02*
X12353571Y-14910833D01*
X12353571Y-14910833D02*
X12344048Y-14948928D01*
X12344048Y-14948928D02*
X12334524Y-14967976D01*
X12334524Y-14967976D02*
X12325000Y-14977500D01*
X12325000Y-14977500D02*
X12305952Y-14987024D01*
X12305952Y-14987024D02*
X12286905Y-14987024D01*
X12286905Y-14987024D02*
X12267857Y-14977500D01*
X12267857Y-14977500D02*
X12258333Y-14967976D01*
X12258333Y-14967976D02*
X12248809Y-14948928D01*
X12248809Y-14948928D02*
X12239286Y-14910833D01*
X12239286Y-14910833D02*
X12239286Y-14863214D01*
X12239286Y-14863214D02*
X12248809Y-14825119D01*
X12248809Y-14825119D02*
X12258333Y-14806071D01*
X12258333Y-14806071D02*
X12267857Y-14796548D01*
X12267857Y-14796548D02*
X12286905Y-14787024D01*
X12477381Y-14787024D02*
X12496429Y-14787024D01*
X12496429Y-14787024D02*
X12515476Y-14796548D01*
X12515476Y-14796548D02*
X12525000Y-14806071D01*
X12525000Y-14806071D02*
X12534524Y-14825119D01*
X12534524Y-14825119D02*
X12544048Y-14863214D01*
X12544048Y-14863214D02*
X12544048Y-14910833D01*
X12544048Y-14910833D02*
X12534524Y-14948928D01*
X12534524Y-14948928D02*
X12525000Y-14967976D01*
X12525000Y-14967976D02*
X12515476Y-14977500D01*
X12515476Y-14977500D02*
X12496429Y-14987024D01*
X12496429Y-14987024D02*
X12477381Y-14987024D01*
X12477381Y-14987024D02*
X12458333Y-14977500D01*
X12458333Y-14977500D02*
X12448809Y-14967976D01*
X12448809Y-14967976D02*
X12439286Y-14948928D01*
X12439286Y-14948928D02*
X12429762Y-14910833D01*
X12429762Y-14910833D02*
X12429762Y-14863214D01*
X12429762Y-14863214D02*
X12439286Y-14825119D01*
X12439286Y-14825119D02*
X12448809Y-14806071D01*
X12448809Y-14806071D02*
X12458333Y-14796548D01*
X12458333Y-14796548D02*
X12477381Y-14787024D01*
X12629762Y-14987024D02*
X12629762Y-14853690D01*
X12629762Y-14872738D02*
X12639286Y-14863214D01*
X12639286Y-14863214D02*
X12658333Y-14853690D01*
X12658333Y-14853690D02*
X12686905Y-14853690D01*
X12686905Y-14853690D02*
X12705952Y-14863214D01*
X12705952Y-14863214D02*
X12715476Y-14882262D01*
X12715476Y-14882262D02*
X12715476Y-14987024D01*
X12715476Y-14882262D02*
X12725000Y-14863214D01*
X12725000Y-14863214D02*
X12744048Y-14853690D01*
X12744048Y-14853690D02*
X12772619Y-14853690D01*
X12772619Y-14853690D02*
X12791667Y-14863214D01*
X12791667Y-14863214D02*
X12801190Y-14882262D01*
X12801190Y-14882262D02*
X12801190Y-14987024D01*
X12896429Y-14987024D02*
X12896429Y-14853690D01*
X12896429Y-14872738D02*
X12905952Y-14863214D01*
X12905952Y-14863214D02*
X12925000Y-14853690D01*
X12925000Y-14853690D02*
X12953571Y-14853690D01*
X12953571Y-14853690D02*
X12972619Y-14863214D01*
X12972619Y-14863214D02*
X12982143Y-14882262D01*
X12982143Y-14882262D02*
X12982143Y-14987024D01*
X12982143Y-14882262D02*
X12991667Y-14863214D01*
X12991667Y-14863214D02*
X13010714Y-14853690D01*
X13010714Y-14853690D02*
X13039286Y-14853690D01*
X13039286Y-14853690D02*
X13058333Y-14863214D01*
X13058333Y-14863214D02*
X13067857Y-14882262D01*
X13067857Y-14882262D02*
X13067857Y-14987024D01*
X13458333Y-14777500D02*
X13286905Y-15034643D01*
X13715476Y-14787024D02*
X13734524Y-14787024D01*
X13734524Y-14787024D02*
X13753572Y-14796548D01*
X13753572Y-14796548D02*
X13763095Y-14806071D01*
X13763095Y-14806071D02*
X13772619Y-14825119D01*
X13772619Y-14825119D02*
X13782143Y-14863214D01*
X13782143Y-14863214D02*
X13782143Y-14910833D01*
X13782143Y-14910833D02*
X13772619Y-14948928D01*
X13772619Y-14948928D02*
X13763095Y-14967976D01*
X13763095Y-14967976D02*
X13753572Y-14977500D01*
X13753572Y-14977500D02*
X13734524Y-14987024D01*
X13734524Y-14987024D02*
X13715476Y-14987024D01*
X13715476Y-14987024D02*
X13696429Y-14977500D01*
X13696429Y-14977500D02*
X13686905Y-14967976D01*
X13686905Y-14967976D02*
X13677381Y-14948928D01*
X13677381Y-14948928D02*
X13667857Y-14910833D01*
X13667857Y-14910833D02*
X13667857Y-14863214D01*
X13667857Y-14863214D02*
X13677381Y-14825119D01*
X13677381Y-14825119D02*
X13686905Y-14806071D01*
X13686905Y-14806071D02*
X13696429Y-14796548D01*
X13696429Y-14796548D02*
X13715476Y-14787024D01*
X13867857Y-14967976D02*
X13877381Y-14977500D01*
X13877381Y-14977500D02*
X13867857Y-14987024D01*
X13867857Y-14987024D02*
X13858333Y-14977500D01*
X13858333Y-14977500D02*
X13867857Y-14967976D01*
X13867857Y-14967976D02*
X13867857Y-14987024D01*
X14001191Y-14787024D02*
X14020238Y-14787024D01*
X14020238Y-14787024D02*
X14039286Y-14796548D01*
X14039286Y-14796548D02*
X14048810Y-14806071D01*
X14048810Y-14806071D02*
X14058333Y-14825119D01*
X14058333Y-14825119D02*
X14067857Y-14863214D01*
X14067857Y-14863214D02*
X14067857Y-14910833D01*
X14067857Y-14910833D02*
X14058333Y-14948928D01*
X14058333Y-14948928D02*
X14048810Y-14967976D01*
X14048810Y-14967976D02*
X14039286Y-14977500D01*
X14039286Y-14977500D02*
X14020238Y-14987024D01*
X14020238Y-14987024D02*
X14001191Y-14987024D01*
X14001191Y-14987024D02*
X13982143Y-14977500D01*
X13982143Y-14977500D02*
X13972619Y-14967976D01*
X13972619Y-14967976D02*
X13963095Y-14948928D01*
X13963095Y-14948928D02*
X13953572Y-14910833D01*
X13953572Y-14910833D02*
X13953572Y-14863214D01*
X13953572Y-14863214D02*
X13963095Y-14825119D01*
X13963095Y-14825119D02*
X13972619Y-14806071D01*
X13972619Y-14806071D02*
X13982143Y-14796548D01*
X13982143Y-14796548D02*
X14001191Y-14787024D01*
X14134524Y-14787024D02*
X14258333Y-14787024D01*
X14258333Y-14787024D02*
X14191667Y-14863214D01*
X14191667Y-14863214D02*
X14220238Y-14863214D01*
X14220238Y-14863214D02*
X14239286Y-14872738D01*
X14239286Y-14872738D02*
X14248810Y-14882262D01*
X14248810Y-14882262D02*
X14258333Y-14901309D01*
X14258333Y-14901309D02*
X14258333Y-14948928D01*
X14258333Y-14948928D02*
X14248810Y-14967976D01*
X14248810Y-14967976D02*
X14239286Y-14977500D01*
X14239286Y-14977500D02*
X14220238Y-14987024D01*
X14220238Y-14987024D02*
X14163095Y-14987024D01*
X14163095Y-14987024D02*
X14144048Y-14977500D01*
X14144048Y-14977500D02*
X14134524Y-14967976D01*
X14353572Y-14987024D02*
X14391667Y-14987024D01*
X14391667Y-14987024D02*
X14410714Y-14977500D01*
X14410714Y-14977500D02*
X14420238Y-14967976D01*
X14420238Y-14967976D02*
X14439286Y-14939405D01*
X14439286Y-14939405D02*
X14448810Y-14901309D01*
X14448810Y-14901309D02*
X14448810Y-14825119D01*
X14448810Y-14825119D02*
X14439286Y-14806071D01*
X14439286Y-14806071D02*
X14429762Y-14796548D01*
X14429762Y-14796548D02*
X14410714Y-14787024D01*
X14410714Y-14787024D02*
X14372619Y-14787024D01*
X14372619Y-14787024D02*
X14353572Y-14796548D01*
X14353572Y-14796548D02*
X14344048Y-14806071D01*
X14344048Y-14806071D02*
X14334524Y-14825119D01*
X14334524Y-14825119D02*
X14334524Y-14872738D01*
X14334524Y-14872738D02*
X14344048Y-14891786D01*
X14344048Y-14891786D02*
X14353572Y-14901309D01*
X14353572Y-14901309D02*
X14372619Y-14910833D01*
X14372619Y-14910833D02*
X14410714Y-14910833D01*
X14410714Y-14910833D02*
X14429762Y-14901309D01*
X14429762Y-14901309D02*
X14439286Y-14891786D01*
X14439286Y-14891786D02*
X14448810Y-14872738D01*
X14620238Y-14853690D02*
X14620238Y-14987024D01*
X14572619Y-14777500D02*
X14525000Y-14920357D01*
X14525000Y-14920357D02*
X14648810Y-14920357D01*
X14715476Y-14787024D02*
X14715476Y-14825119D01*
X14791667Y-14787024D02*
X14791667Y-14825119D01*
X15086905Y-15063214D02*
X15077381Y-15053690D01*
X15077381Y-15053690D02*
X15058334Y-15025119D01*
X15058334Y-15025119D02*
X15048810Y-15006071D01*
X15048810Y-15006071D02*
X15039286Y-14977500D01*
X15039286Y-14977500D02*
X15029762Y-14929881D01*
X15029762Y-14929881D02*
X15029762Y-14891786D01*
X15029762Y-14891786D02*
X15039286Y-14844167D01*
X15039286Y-14844167D02*
X15048810Y-14815595D01*
X15048810Y-14815595D02*
X15058334Y-14796548D01*
X15058334Y-14796548D02*
X15077381Y-14767976D01*
X15077381Y-14767976D02*
X15086905Y-14758452D01*
X15267857Y-14987024D02*
X15153572Y-14987024D01*
X15210714Y-14987024D02*
X15210714Y-14787024D01*
X15210714Y-14787024D02*
X15191667Y-14815595D01*
X15191667Y-14815595D02*
X15172619Y-14834643D01*
X15172619Y-14834643D02*
X15153572Y-14844167D01*
X15448810Y-14787024D02*
X15353572Y-14787024D01*
X15353572Y-14787024D02*
X15344048Y-14882262D01*
X15344048Y-14882262D02*
X15353572Y-14872738D01*
X15353572Y-14872738D02*
X15372619Y-14863214D01*
X15372619Y-14863214D02*
X15420238Y-14863214D01*
X15420238Y-14863214D02*
X15439286Y-14872738D01*
X15439286Y-14872738D02*
X15448810Y-14882262D01*
X15448810Y-14882262D02*
X15458334Y-14901309D01*
X15458334Y-14901309D02*
X15458334Y-14948928D01*
X15458334Y-14948928D02*
X15448810Y-14967976D01*
X15448810Y-14967976D02*
X15439286Y-14977500D01*
X15439286Y-14977500D02*
X15420238Y-14987024D01*
X15420238Y-14987024D02*
X15372619Y-14987024D01*
X15372619Y-14987024D02*
X15353572Y-14977500D01*
X15353572Y-14977500D02*
X15344048Y-14967976D01*
X15696429Y-14987024D02*
X15696429Y-14787024D01*
X15782143Y-14987024D02*
X15782143Y-14882262D01*
X15782143Y-14882262D02*
X15772619Y-14863214D01*
X15772619Y-14863214D02*
X15753572Y-14853690D01*
X15753572Y-14853690D02*
X15725000Y-14853690D01*
X15725000Y-14853690D02*
X15705953Y-14863214D01*
X15705953Y-14863214D02*
X15696429Y-14872738D01*
X15905953Y-14987024D02*
X15886905Y-14977500D01*
X15886905Y-14977500D02*
X15877381Y-14967976D01*
X15877381Y-14967976D02*
X15867857Y-14948928D01*
X15867857Y-14948928D02*
X15867857Y-14891786D01*
X15867857Y-14891786D02*
X15877381Y-14872738D01*
X15877381Y-14872738D02*
X15886905Y-14863214D01*
X15886905Y-14863214D02*
X15905953Y-14853690D01*
X15905953Y-14853690D02*
X15934524Y-14853690D01*
X15934524Y-14853690D02*
X15953572Y-14863214D01*
X15953572Y-14863214D02*
X15963096Y-14872738D01*
X15963096Y-14872738D02*
X15972619Y-14891786D01*
X15972619Y-14891786D02*
X15972619Y-14948928D01*
X15972619Y-14948928D02*
X15963096Y-14967976D01*
X15963096Y-14967976D02*
X15953572Y-14977500D01*
X15953572Y-14977500D02*
X15934524Y-14987024D01*
X15934524Y-14987024D02*
X15905953Y-14987024D01*
X16086905Y-14987024D02*
X16067857Y-14977500D01*
X16067857Y-14977500D02*
X16058334Y-14958452D01*
X16058334Y-14958452D02*
X16058334Y-14787024D01*
X16239286Y-14977500D02*
X16220238Y-14987024D01*
X16220238Y-14987024D02*
X16182143Y-14987024D01*
X16182143Y-14987024D02*
X16163096Y-14977500D01*
X16163096Y-14977500D02*
X16153572Y-14958452D01*
X16153572Y-14958452D02*
X16153572Y-14882262D01*
X16153572Y-14882262D02*
X16163096Y-14863214D01*
X16163096Y-14863214D02*
X16182143Y-14853690D01*
X16182143Y-14853690D02*
X16220238Y-14853690D01*
X16220238Y-14853690D02*
X16239286Y-14863214D01*
X16239286Y-14863214D02*
X16248810Y-14882262D01*
X16248810Y-14882262D02*
X16248810Y-14901309D01*
X16248810Y-14901309D02*
X16153572Y-14920357D01*
X16325000Y-14977500D02*
X16344048Y-14987024D01*
X16344048Y-14987024D02*
X16382143Y-14987024D01*
X16382143Y-14987024D02*
X16401191Y-14977500D01*
X16401191Y-14977500D02*
X16410715Y-14958452D01*
X16410715Y-14958452D02*
X16410715Y-14948928D01*
X16410715Y-14948928D02*
X16401191Y-14929881D01*
X16401191Y-14929881D02*
X16382143Y-14920357D01*
X16382143Y-14920357D02*
X16353572Y-14920357D01*
X16353572Y-14920357D02*
X16334524Y-14910833D01*
X16334524Y-14910833D02*
X16325000Y-14891786D01*
X16325000Y-14891786D02*
X16325000Y-14882262D01*
X16325000Y-14882262D02*
X16334524Y-14863214D01*
X16334524Y-14863214D02*
X16353572Y-14853690D01*
X16353572Y-14853690D02*
X16382143Y-14853690D01*
X16382143Y-14853690D02*
X16401191Y-14863214D01*
X16477381Y-15063214D02*
X16486905Y-15053690D01*
X16486905Y-15053690D02*
X16505953Y-15025119D01*
X16505953Y-15025119D02*
X16515477Y-15006071D01*
X16515477Y-15006071D02*
X16525000Y-14977500D01*
X16525000Y-14977500D02*
X16534524Y-14929881D01*
X16534524Y-14929881D02*
X16534524Y-14891786D01*
X16534524Y-14891786D02*
X16525000Y-14844167D01*
X16525000Y-14844167D02*
X16515477Y-14815595D01*
X16515477Y-14815595D02*
X16505953Y-14796548D01*
X16505953Y-14796548D02*
X16486905Y-14767976D01*
X16486905Y-14767976D02*
X16477381Y-14758452D01*
D17*
X11375000Y-15083500D02*
X11525000Y-15233500D01*
X11525000Y-15083500D02*
X11375000Y-15233500D01*
X11503033Y-15211533D02*
X11503033Y-15105466D01*
X11396966Y-15105466D01*
X11396966Y-15211533D01*
X11503033Y-15211533D01*
D11*
X11877381Y-15251024D02*
X11763095Y-15251024D01*
X11820238Y-15251024D02*
X11820238Y-15051024D01*
X11820238Y-15051024D02*
X11801190Y-15079595D01*
X11801190Y-15079595D02*
X11782143Y-15098643D01*
X11782143Y-15098643D02*
X11763095Y-15108167D01*
X11963095Y-15231976D02*
X11972619Y-15241500D01*
X11972619Y-15241500D02*
X11963095Y-15251024D01*
X11963095Y-15251024D02*
X11953571Y-15241500D01*
X11953571Y-15241500D02*
X11963095Y-15231976D01*
X11963095Y-15231976D02*
X11963095Y-15251024D01*
X12153571Y-15051024D02*
X12058333Y-15051024D01*
X12058333Y-15051024D02*
X12048809Y-15146262D01*
X12048809Y-15146262D02*
X12058333Y-15136738D01*
X12058333Y-15136738D02*
X12077381Y-15127214D01*
X12077381Y-15127214D02*
X12125000Y-15127214D01*
X12125000Y-15127214D02*
X12144048Y-15136738D01*
X12144048Y-15136738D02*
X12153571Y-15146262D01*
X12153571Y-15146262D02*
X12163095Y-15165309D01*
X12163095Y-15165309D02*
X12163095Y-15212928D01*
X12163095Y-15212928D02*
X12153571Y-15231976D01*
X12153571Y-15231976D02*
X12144048Y-15241500D01*
X12144048Y-15241500D02*
X12125000Y-15251024D01*
X12125000Y-15251024D02*
X12077381Y-15251024D01*
X12077381Y-15251024D02*
X12058333Y-15241500D01*
X12058333Y-15241500D02*
X12048809Y-15231976D01*
X12286905Y-15051024D02*
X12305952Y-15051024D01*
X12305952Y-15051024D02*
X12325000Y-15060548D01*
X12325000Y-15060548D02*
X12334524Y-15070071D01*
X12334524Y-15070071D02*
X12344048Y-15089119D01*
X12344048Y-15089119D02*
X12353571Y-15127214D01*
X12353571Y-15127214D02*
X12353571Y-15174833D01*
X12353571Y-15174833D02*
X12344048Y-15212928D01*
X12344048Y-15212928D02*
X12334524Y-15231976D01*
X12334524Y-15231976D02*
X12325000Y-15241500D01*
X12325000Y-15241500D02*
X12305952Y-15251024D01*
X12305952Y-15251024D02*
X12286905Y-15251024D01*
X12286905Y-15251024D02*
X12267857Y-15241500D01*
X12267857Y-15241500D02*
X12258333Y-15231976D01*
X12258333Y-15231976D02*
X12248809Y-15212928D01*
X12248809Y-15212928D02*
X12239286Y-15174833D01*
X12239286Y-15174833D02*
X12239286Y-15127214D01*
X12239286Y-15127214D02*
X12248809Y-15089119D01*
X12248809Y-15089119D02*
X12258333Y-15070071D01*
X12258333Y-15070071D02*
X12267857Y-15060548D01*
X12267857Y-15060548D02*
X12286905Y-15051024D01*
X12477381Y-15051024D02*
X12496429Y-15051024D01*
X12496429Y-15051024D02*
X12515476Y-15060548D01*
X12515476Y-15060548D02*
X12525000Y-15070071D01*
X12525000Y-15070071D02*
X12534524Y-15089119D01*
X12534524Y-15089119D02*
X12544048Y-15127214D01*
X12544048Y-15127214D02*
X12544048Y-15174833D01*
X12544048Y-15174833D02*
X12534524Y-15212928D01*
X12534524Y-15212928D02*
X12525000Y-15231976D01*
X12525000Y-15231976D02*
X12515476Y-15241500D01*
X12515476Y-15241500D02*
X12496429Y-15251024D01*
X12496429Y-15251024D02*
X12477381Y-15251024D01*
X12477381Y-15251024D02*
X12458333Y-15241500D01*
X12458333Y-15241500D02*
X12448809Y-15231976D01*
X12448809Y-15231976D02*
X12439286Y-15212928D01*
X12439286Y-15212928D02*
X12429762Y-15174833D01*
X12429762Y-15174833D02*
X12429762Y-15127214D01*
X12429762Y-15127214D02*
X12439286Y-15089119D01*
X12439286Y-15089119D02*
X12448809Y-15070071D01*
X12448809Y-15070071D02*
X12458333Y-15060548D01*
X12458333Y-15060548D02*
X12477381Y-15051024D01*
X12629762Y-15251024D02*
X12629762Y-15117690D01*
X12629762Y-15136738D02*
X12639286Y-15127214D01*
X12639286Y-15127214D02*
X12658333Y-15117690D01*
X12658333Y-15117690D02*
X12686905Y-15117690D01*
X12686905Y-15117690D02*
X12705952Y-15127214D01*
X12705952Y-15127214D02*
X12715476Y-15146262D01*
X12715476Y-15146262D02*
X12715476Y-15251024D01*
X12715476Y-15146262D02*
X12725000Y-15127214D01*
X12725000Y-15127214D02*
X12744048Y-15117690D01*
X12744048Y-15117690D02*
X12772619Y-15117690D01*
X12772619Y-15117690D02*
X12791667Y-15127214D01*
X12791667Y-15127214D02*
X12801190Y-15146262D01*
X12801190Y-15146262D02*
X12801190Y-15251024D01*
X12896429Y-15251024D02*
X12896429Y-15117690D01*
X12896429Y-15136738D02*
X12905952Y-15127214D01*
X12905952Y-15127214D02*
X12925000Y-15117690D01*
X12925000Y-15117690D02*
X12953571Y-15117690D01*
X12953571Y-15117690D02*
X12972619Y-15127214D01*
X12972619Y-15127214D02*
X12982143Y-15146262D01*
X12982143Y-15146262D02*
X12982143Y-15251024D01*
X12982143Y-15146262D02*
X12991667Y-15127214D01*
X12991667Y-15127214D02*
X13010714Y-15117690D01*
X13010714Y-15117690D02*
X13039286Y-15117690D01*
X13039286Y-15117690D02*
X13058333Y-15127214D01*
X13058333Y-15127214D02*
X13067857Y-15146262D01*
X13067857Y-15146262D02*
X13067857Y-15251024D01*
X13458333Y-15041500D02*
X13286905Y-15298643D01*
X13715476Y-15051024D02*
X13734524Y-15051024D01*
X13734524Y-15051024D02*
X13753572Y-15060548D01*
X13753572Y-15060548D02*
X13763095Y-15070071D01*
X13763095Y-15070071D02*
X13772619Y-15089119D01*
X13772619Y-15089119D02*
X13782143Y-15127214D01*
X13782143Y-15127214D02*
X13782143Y-15174833D01*
X13782143Y-15174833D02*
X13772619Y-15212928D01*
X13772619Y-15212928D02*
X13763095Y-15231976D01*
X13763095Y-15231976D02*
X13753572Y-15241500D01*
X13753572Y-15241500D02*
X13734524Y-15251024D01*
X13734524Y-15251024D02*
X13715476Y-15251024D01*
X13715476Y-15251024D02*
X13696429Y-15241500D01*
X13696429Y-15241500D02*
X13686905Y-15231976D01*
X13686905Y-15231976D02*
X13677381Y-15212928D01*
X13677381Y-15212928D02*
X13667857Y-15174833D01*
X13667857Y-15174833D02*
X13667857Y-15127214D01*
X13667857Y-15127214D02*
X13677381Y-15089119D01*
X13677381Y-15089119D02*
X13686905Y-15070071D01*
X13686905Y-15070071D02*
X13696429Y-15060548D01*
X13696429Y-15060548D02*
X13715476Y-15051024D01*
X13867857Y-15231976D02*
X13877381Y-15241500D01*
X13877381Y-15241500D02*
X13867857Y-15251024D01*
X13867857Y-15251024D02*
X13858333Y-15241500D01*
X13858333Y-15241500D02*
X13867857Y-15231976D01*
X13867857Y-15231976D02*
X13867857Y-15251024D01*
X14001191Y-15051024D02*
X14020238Y-15051024D01*
X14020238Y-15051024D02*
X14039286Y-15060548D01*
X14039286Y-15060548D02*
X14048810Y-15070071D01*
X14048810Y-15070071D02*
X14058333Y-15089119D01*
X14058333Y-15089119D02*
X14067857Y-15127214D01*
X14067857Y-15127214D02*
X14067857Y-15174833D01*
X14067857Y-15174833D02*
X14058333Y-15212928D01*
X14058333Y-15212928D02*
X14048810Y-15231976D01*
X14048810Y-15231976D02*
X14039286Y-15241500D01*
X14039286Y-15241500D02*
X14020238Y-15251024D01*
X14020238Y-15251024D02*
X14001191Y-15251024D01*
X14001191Y-15251024D02*
X13982143Y-15241500D01*
X13982143Y-15241500D02*
X13972619Y-15231976D01*
X13972619Y-15231976D02*
X13963095Y-15212928D01*
X13963095Y-15212928D02*
X13953572Y-15174833D01*
X13953572Y-15174833D02*
X13953572Y-15127214D01*
X13953572Y-15127214D02*
X13963095Y-15089119D01*
X13963095Y-15089119D02*
X13972619Y-15070071D01*
X13972619Y-15070071D02*
X13982143Y-15060548D01*
X13982143Y-15060548D02*
X14001191Y-15051024D01*
X14248810Y-15051024D02*
X14153572Y-15051024D01*
X14153572Y-15051024D02*
X14144048Y-15146262D01*
X14144048Y-15146262D02*
X14153572Y-15136738D01*
X14153572Y-15136738D02*
X14172619Y-15127214D01*
X14172619Y-15127214D02*
X14220238Y-15127214D01*
X14220238Y-15127214D02*
X14239286Y-15136738D01*
X14239286Y-15136738D02*
X14248810Y-15146262D01*
X14248810Y-15146262D02*
X14258333Y-15165309D01*
X14258333Y-15165309D02*
X14258333Y-15212928D01*
X14258333Y-15212928D02*
X14248810Y-15231976D01*
X14248810Y-15231976D02*
X14239286Y-15241500D01*
X14239286Y-15241500D02*
X14220238Y-15251024D01*
X14220238Y-15251024D02*
X14172619Y-15251024D01*
X14172619Y-15251024D02*
X14153572Y-15241500D01*
X14153572Y-15241500D02*
X14144048Y-15231976D01*
X14353572Y-15251024D02*
X14391667Y-15251024D01*
X14391667Y-15251024D02*
X14410714Y-15241500D01*
X14410714Y-15241500D02*
X14420238Y-15231976D01*
X14420238Y-15231976D02*
X14439286Y-15203405D01*
X14439286Y-15203405D02*
X14448810Y-15165309D01*
X14448810Y-15165309D02*
X14448810Y-15089119D01*
X14448810Y-15089119D02*
X14439286Y-15070071D01*
X14439286Y-15070071D02*
X14429762Y-15060548D01*
X14429762Y-15060548D02*
X14410714Y-15051024D01*
X14410714Y-15051024D02*
X14372619Y-15051024D01*
X14372619Y-15051024D02*
X14353572Y-15060548D01*
X14353572Y-15060548D02*
X14344048Y-15070071D01*
X14344048Y-15070071D02*
X14334524Y-15089119D01*
X14334524Y-15089119D02*
X14334524Y-15136738D01*
X14334524Y-15136738D02*
X14344048Y-15155786D01*
X14344048Y-15155786D02*
X14353572Y-15165309D01*
X14353572Y-15165309D02*
X14372619Y-15174833D01*
X14372619Y-15174833D02*
X14410714Y-15174833D01*
X14410714Y-15174833D02*
X14429762Y-15165309D01*
X14429762Y-15165309D02*
X14439286Y-15155786D01*
X14439286Y-15155786D02*
X14448810Y-15136738D01*
X14639286Y-15251024D02*
X14525000Y-15251024D01*
X14582143Y-15251024D02*
X14582143Y-15051024D01*
X14582143Y-15051024D02*
X14563095Y-15079595D01*
X14563095Y-15079595D02*
X14544048Y-15098643D01*
X14544048Y-15098643D02*
X14525000Y-15108167D01*
X14715476Y-15051024D02*
X14715476Y-15089119D01*
X14791667Y-15051024D02*
X14791667Y-15089119D01*
X15086905Y-15327214D02*
X15077381Y-15317690D01*
X15077381Y-15317690D02*
X15058334Y-15289119D01*
X15058334Y-15289119D02*
X15048810Y-15270071D01*
X15048810Y-15270071D02*
X15039286Y-15241500D01*
X15039286Y-15241500D02*
X15029762Y-15193881D01*
X15029762Y-15193881D02*
X15029762Y-15155786D01*
X15029762Y-15155786D02*
X15039286Y-15108167D01*
X15039286Y-15108167D02*
X15048810Y-15079595D01*
X15048810Y-15079595D02*
X15058334Y-15060548D01*
X15058334Y-15060548D02*
X15077381Y-15031976D01*
X15077381Y-15031976D02*
X15086905Y-15022452D01*
X15201191Y-15051024D02*
X15220238Y-15051024D01*
X15220238Y-15051024D02*
X15239286Y-15060548D01*
X15239286Y-15060548D02*
X15248810Y-15070071D01*
X15248810Y-15070071D02*
X15258334Y-15089119D01*
X15258334Y-15089119D02*
X15267857Y-15127214D01*
X15267857Y-15127214D02*
X15267857Y-15174833D01*
X15267857Y-15174833D02*
X15258334Y-15212928D01*
X15258334Y-15212928D02*
X15248810Y-15231976D01*
X15248810Y-15231976D02*
X15239286Y-15241500D01*
X15239286Y-15241500D02*
X15220238Y-15251024D01*
X15220238Y-15251024D02*
X15201191Y-15251024D01*
X15201191Y-15251024D02*
X15182143Y-15241500D01*
X15182143Y-15241500D02*
X15172619Y-15231976D01*
X15172619Y-15231976D02*
X15163095Y-15212928D01*
X15163095Y-15212928D02*
X15153572Y-15174833D01*
X15153572Y-15174833D02*
X15153572Y-15127214D01*
X15153572Y-15127214D02*
X15163095Y-15089119D01*
X15163095Y-15089119D02*
X15172619Y-15070071D01*
X15172619Y-15070071D02*
X15182143Y-15060548D01*
X15182143Y-15060548D02*
X15201191Y-15051024D01*
X15505953Y-15251024D02*
X15505953Y-15051024D01*
X15591667Y-15251024D02*
X15591667Y-15146262D01*
X15591667Y-15146262D02*
X15582143Y-15127214D01*
X15582143Y-15127214D02*
X15563096Y-15117690D01*
X15563096Y-15117690D02*
X15534524Y-15117690D01*
X15534524Y-15117690D02*
X15515476Y-15127214D01*
X15515476Y-15127214D02*
X15505953Y-15136738D01*
X15715476Y-15251024D02*
X15696429Y-15241500D01*
X15696429Y-15241500D02*
X15686905Y-15231976D01*
X15686905Y-15231976D02*
X15677381Y-15212928D01*
X15677381Y-15212928D02*
X15677381Y-15155786D01*
X15677381Y-15155786D02*
X15686905Y-15136738D01*
X15686905Y-15136738D02*
X15696429Y-15127214D01*
X15696429Y-15127214D02*
X15715476Y-15117690D01*
X15715476Y-15117690D02*
X15744048Y-15117690D01*
X15744048Y-15117690D02*
X15763096Y-15127214D01*
X15763096Y-15127214D02*
X15772619Y-15136738D01*
X15772619Y-15136738D02*
X15782143Y-15155786D01*
X15782143Y-15155786D02*
X15782143Y-15212928D01*
X15782143Y-15212928D02*
X15772619Y-15231976D01*
X15772619Y-15231976D02*
X15763096Y-15241500D01*
X15763096Y-15241500D02*
X15744048Y-15251024D01*
X15744048Y-15251024D02*
X15715476Y-15251024D01*
X15896429Y-15251024D02*
X15877381Y-15241500D01*
X15877381Y-15241500D02*
X15867857Y-15222452D01*
X15867857Y-15222452D02*
X15867857Y-15051024D01*
X16048810Y-15241500D02*
X16029762Y-15251024D01*
X16029762Y-15251024D02*
X15991667Y-15251024D01*
X15991667Y-15251024D02*
X15972619Y-15241500D01*
X15972619Y-15241500D02*
X15963096Y-15222452D01*
X15963096Y-15222452D02*
X15963096Y-15146262D01*
X15963096Y-15146262D02*
X15972619Y-15127214D01*
X15972619Y-15127214D02*
X15991667Y-15117690D01*
X15991667Y-15117690D02*
X16029762Y-15117690D01*
X16029762Y-15117690D02*
X16048810Y-15127214D01*
X16048810Y-15127214D02*
X16058334Y-15146262D01*
X16058334Y-15146262D02*
X16058334Y-15165309D01*
X16058334Y-15165309D02*
X15963096Y-15184357D01*
X16134524Y-15241500D02*
X16153572Y-15251024D01*
X16153572Y-15251024D02*
X16191667Y-15251024D01*
X16191667Y-15251024D02*
X16210715Y-15241500D01*
X16210715Y-15241500D02*
X16220238Y-15222452D01*
X16220238Y-15222452D02*
X16220238Y-15212928D01*
X16220238Y-15212928D02*
X16210715Y-15193881D01*
X16210715Y-15193881D02*
X16191667Y-15184357D01*
X16191667Y-15184357D02*
X16163096Y-15184357D01*
X16163096Y-15184357D02*
X16144048Y-15174833D01*
X16144048Y-15174833D02*
X16134524Y-15155786D01*
X16134524Y-15155786D02*
X16134524Y-15146262D01*
X16134524Y-15146262D02*
X16144048Y-15127214D01*
X16144048Y-15127214D02*
X16163096Y-15117690D01*
X16163096Y-15117690D02*
X16191667Y-15117690D01*
X16191667Y-15117690D02*
X16210715Y-15127214D01*
X16458334Y-15174833D02*
X16610715Y-15174833D01*
X16534524Y-15251024D02*
X16534524Y-15098643D01*
X16848810Y-15070071D02*
X16858334Y-15060548D01*
X16858334Y-15060548D02*
X16877381Y-15051024D01*
X16877381Y-15051024D02*
X16925001Y-15051024D01*
X16925001Y-15051024D02*
X16944048Y-15060548D01*
X16944048Y-15060548D02*
X16953572Y-15070071D01*
X16953572Y-15070071D02*
X16963096Y-15089119D01*
X16963096Y-15089119D02*
X16963096Y-15108167D01*
X16963096Y-15108167D02*
X16953572Y-15136738D01*
X16953572Y-15136738D02*
X16839286Y-15251024D01*
X16839286Y-15251024D02*
X16963096Y-15251024D01*
X17191667Y-15241500D02*
X17210715Y-15251024D01*
X17210715Y-15251024D02*
X17248810Y-15251024D01*
X17248810Y-15251024D02*
X17267858Y-15241500D01*
X17267858Y-15241500D02*
X17277382Y-15222452D01*
X17277382Y-15222452D02*
X17277382Y-15212928D01*
X17277382Y-15212928D02*
X17267858Y-15193881D01*
X17267858Y-15193881D02*
X17248810Y-15184357D01*
X17248810Y-15184357D02*
X17220239Y-15184357D01*
X17220239Y-15184357D02*
X17201191Y-15174833D01*
X17201191Y-15174833D02*
X17191667Y-15155786D01*
X17191667Y-15155786D02*
X17191667Y-15146262D01*
X17191667Y-15146262D02*
X17201191Y-15127214D01*
X17201191Y-15127214D02*
X17220239Y-15117690D01*
X17220239Y-15117690D02*
X17248810Y-15117690D01*
X17248810Y-15117690D02*
X17267858Y-15127214D01*
X17391667Y-15251024D02*
X17372620Y-15241500D01*
X17372620Y-15241500D02*
X17363096Y-15222452D01*
X17363096Y-15222452D02*
X17363096Y-15051024D01*
X17496429Y-15251024D02*
X17477382Y-15241500D01*
X17477382Y-15241500D02*
X17467858Y-15231976D01*
X17467858Y-15231976D02*
X17458334Y-15212928D01*
X17458334Y-15212928D02*
X17458334Y-15155786D01*
X17458334Y-15155786D02*
X17467858Y-15136738D01*
X17467858Y-15136738D02*
X17477382Y-15127214D01*
X17477382Y-15127214D02*
X17496429Y-15117690D01*
X17496429Y-15117690D02*
X17525001Y-15117690D01*
X17525001Y-15117690D02*
X17544048Y-15127214D01*
X17544048Y-15127214D02*
X17553572Y-15136738D01*
X17553572Y-15136738D02*
X17563096Y-15155786D01*
X17563096Y-15155786D02*
X17563096Y-15212928D01*
X17563096Y-15212928D02*
X17553572Y-15231976D01*
X17553572Y-15231976D02*
X17544048Y-15241500D01*
X17544048Y-15241500D02*
X17525001Y-15251024D01*
X17525001Y-15251024D02*
X17496429Y-15251024D01*
X17620239Y-15117690D02*
X17696429Y-15117690D01*
X17648810Y-15051024D02*
X17648810Y-15222452D01*
X17648810Y-15222452D02*
X17658334Y-15241500D01*
X17658334Y-15241500D02*
X17677382Y-15251024D01*
X17677382Y-15251024D02*
X17696429Y-15251024D01*
X17753572Y-15241500D02*
X17772620Y-15251024D01*
X17772620Y-15251024D02*
X17810715Y-15251024D01*
X17810715Y-15251024D02*
X17829763Y-15241500D01*
X17829763Y-15241500D02*
X17839286Y-15222452D01*
X17839286Y-15222452D02*
X17839286Y-15212928D01*
X17839286Y-15212928D02*
X17829763Y-15193881D01*
X17829763Y-15193881D02*
X17810715Y-15184357D01*
X17810715Y-15184357D02*
X17782143Y-15184357D01*
X17782143Y-15184357D02*
X17763096Y-15174833D01*
X17763096Y-15174833D02*
X17753572Y-15155786D01*
X17753572Y-15155786D02*
X17753572Y-15146262D01*
X17753572Y-15146262D02*
X17763096Y-15127214D01*
X17763096Y-15127214D02*
X17782143Y-15117690D01*
X17782143Y-15117690D02*
X17810715Y-15117690D01*
X17810715Y-15117690D02*
X17829763Y-15127214D01*
X17905953Y-15327214D02*
X17915477Y-15317690D01*
X17915477Y-15317690D02*
X17934524Y-15289119D01*
X17934524Y-15289119D02*
X17944048Y-15270071D01*
X17944048Y-15270071D02*
X17953572Y-15241500D01*
X17953572Y-15241500D02*
X17963096Y-15193881D01*
X17963096Y-15193881D02*
X17963096Y-15155786D01*
X17963096Y-15155786D02*
X17953572Y-15108167D01*
X17953572Y-15108167D02*
X17944048Y-15079595D01*
X17944048Y-15079595D02*
X17934524Y-15060548D01*
X17934524Y-15060548D02*
X17915477Y-15031976D01*
X17915477Y-15031976D02*
X17905953Y-15022452D01*
X11325000Y-15328500D02*
X11525000Y-15528500D01*
X11525000Y-15328500D02*
X11325000Y-15528500D01*
X11425000Y-15528500D02*
X11525000Y-15428500D01*
X11425000Y-15328500D01*
X11325000Y-15428500D01*
X11425000Y-15528500D01*
X11763095Y-15340071D02*
X11772619Y-15330548D01*
X11772619Y-15330548D02*
X11791667Y-15321024D01*
X11791667Y-15321024D02*
X11839286Y-15321024D01*
X11839286Y-15321024D02*
X11858333Y-15330548D01*
X11858333Y-15330548D02*
X11867857Y-15340071D01*
X11867857Y-15340071D02*
X11877381Y-15359119D01*
X11877381Y-15359119D02*
X11877381Y-15378167D01*
X11877381Y-15378167D02*
X11867857Y-15406738D01*
X11867857Y-15406738D02*
X11753571Y-15521024D01*
X11753571Y-15521024D02*
X11877381Y-15521024D01*
X11963095Y-15501976D02*
X11972619Y-15511500D01*
X11972619Y-15511500D02*
X11963095Y-15521024D01*
X11963095Y-15521024D02*
X11953571Y-15511500D01*
X11953571Y-15511500D02*
X11963095Y-15501976D01*
X11963095Y-15501976D02*
X11963095Y-15521024D01*
X12048809Y-15340071D02*
X12058333Y-15330548D01*
X12058333Y-15330548D02*
X12077381Y-15321024D01*
X12077381Y-15321024D02*
X12125000Y-15321024D01*
X12125000Y-15321024D02*
X12144048Y-15330548D01*
X12144048Y-15330548D02*
X12153571Y-15340071D01*
X12153571Y-15340071D02*
X12163095Y-15359119D01*
X12163095Y-15359119D02*
X12163095Y-15378167D01*
X12163095Y-15378167D02*
X12153571Y-15406738D01*
X12153571Y-15406738D02*
X12039286Y-15521024D01*
X12039286Y-15521024D02*
X12163095Y-15521024D01*
X12286905Y-15321024D02*
X12305952Y-15321024D01*
X12305952Y-15321024D02*
X12325000Y-15330548D01*
X12325000Y-15330548D02*
X12334524Y-15340071D01*
X12334524Y-15340071D02*
X12344048Y-15359119D01*
X12344048Y-15359119D02*
X12353571Y-15397214D01*
X12353571Y-15397214D02*
X12353571Y-15444833D01*
X12353571Y-15444833D02*
X12344048Y-15482928D01*
X12344048Y-15482928D02*
X12334524Y-15501976D01*
X12334524Y-15501976D02*
X12325000Y-15511500D01*
X12325000Y-15511500D02*
X12305952Y-15521024D01*
X12305952Y-15521024D02*
X12286905Y-15521024D01*
X12286905Y-15521024D02*
X12267857Y-15511500D01*
X12267857Y-15511500D02*
X12258333Y-15501976D01*
X12258333Y-15501976D02*
X12248809Y-15482928D01*
X12248809Y-15482928D02*
X12239286Y-15444833D01*
X12239286Y-15444833D02*
X12239286Y-15397214D01*
X12239286Y-15397214D02*
X12248809Y-15359119D01*
X12248809Y-15359119D02*
X12258333Y-15340071D01*
X12258333Y-15340071D02*
X12267857Y-15330548D01*
X12267857Y-15330548D02*
X12286905Y-15321024D01*
X12477381Y-15321024D02*
X12496429Y-15321024D01*
X12496429Y-15321024D02*
X12515476Y-15330548D01*
X12515476Y-15330548D02*
X12525000Y-15340071D01*
X12525000Y-15340071D02*
X12534524Y-15359119D01*
X12534524Y-15359119D02*
X12544048Y-15397214D01*
X12544048Y-15397214D02*
X12544048Y-15444833D01*
X12544048Y-15444833D02*
X12534524Y-15482928D01*
X12534524Y-15482928D02*
X12525000Y-15501976D01*
X12525000Y-15501976D02*
X12515476Y-15511500D01*
X12515476Y-15511500D02*
X12496429Y-15521024D01*
X12496429Y-15521024D02*
X12477381Y-15521024D01*
X12477381Y-15521024D02*
X12458333Y-15511500D01*
X12458333Y-15511500D02*
X12448809Y-15501976D01*
X12448809Y-15501976D02*
X12439286Y-15482928D01*
X12439286Y-15482928D02*
X12429762Y-15444833D01*
X12429762Y-15444833D02*
X12429762Y-15397214D01*
X12429762Y-15397214D02*
X12439286Y-15359119D01*
X12439286Y-15359119D02*
X12448809Y-15340071D01*
X12448809Y-15340071D02*
X12458333Y-15330548D01*
X12458333Y-15330548D02*
X12477381Y-15321024D01*
X12629762Y-15521024D02*
X12629762Y-15387690D01*
X12629762Y-15406738D02*
X12639286Y-15397214D01*
X12639286Y-15397214D02*
X12658333Y-15387690D01*
X12658333Y-15387690D02*
X12686905Y-15387690D01*
X12686905Y-15387690D02*
X12705952Y-15397214D01*
X12705952Y-15397214D02*
X12715476Y-15416262D01*
X12715476Y-15416262D02*
X12715476Y-15521024D01*
X12715476Y-15416262D02*
X12725000Y-15397214D01*
X12725000Y-15397214D02*
X12744048Y-15387690D01*
X12744048Y-15387690D02*
X12772619Y-15387690D01*
X12772619Y-15387690D02*
X12791667Y-15397214D01*
X12791667Y-15397214D02*
X12801190Y-15416262D01*
X12801190Y-15416262D02*
X12801190Y-15521024D01*
X12896429Y-15521024D02*
X12896429Y-15387690D01*
X12896429Y-15406738D02*
X12905952Y-15397214D01*
X12905952Y-15397214D02*
X12925000Y-15387690D01*
X12925000Y-15387690D02*
X12953571Y-15387690D01*
X12953571Y-15387690D02*
X12972619Y-15397214D01*
X12972619Y-15397214D02*
X12982143Y-15416262D01*
X12982143Y-15416262D02*
X12982143Y-15521024D01*
X12982143Y-15416262D02*
X12991667Y-15397214D01*
X12991667Y-15397214D02*
X13010714Y-15387690D01*
X13010714Y-15387690D02*
X13039286Y-15387690D01*
X13039286Y-15387690D02*
X13058333Y-15397214D01*
X13058333Y-15397214D02*
X13067857Y-15416262D01*
X13067857Y-15416262D02*
X13067857Y-15521024D01*
X13458333Y-15311500D02*
X13286905Y-15568643D01*
X13715476Y-15321024D02*
X13734524Y-15321024D01*
X13734524Y-15321024D02*
X13753572Y-15330548D01*
X13753572Y-15330548D02*
X13763095Y-15340071D01*
X13763095Y-15340071D02*
X13772619Y-15359119D01*
X13772619Y-15359119D02*
X13782143Y-15397214D01*
X13782143Y-15397214D02*
X13782143Y-15444833D01*
X13782143Y-15444833D02*
X13772619Y-15482928D01*
X13772619Y-15482928D02*
X13763095Y-15501976D01*
X13763095Y-15501976D02*
X13753572Y-15511500D01*
X13753572Y-15511500D02*
X13734524Y-15521024D01*
X13734524Y-15521024D02*
X13715476Y-15521024D01*
X13715476Y-15521024D02*
X13696429Y-15511500D01*
X13696429Y-15511500D02*
X13686905Y-15501976D01*
X13686905Y-15501976D02*
X13677381Y-15482928D01*
X13677381Y-15482928D02*
X13667857Y-15444833D01*
X13667857Y-15444833D02*
X13667857Y-15397214D01*
X13667857Y-15397214D02*
X13677381Y-15359119D01*
X13677381Y-15359119D02*
X13686905Y-15340071D01*
X13686905Y-15340071D02*
X13696429Y-15330548D01*
X13696429Y-15330548D02*
X13715476Y-15321024D01*
X13867857Y-15501976D02*
X13877381Y-15511500D01*
X13877381Y-15511500D02*
X13867857Y-15521024D01*
X13867857Y-15521024D02*
X13858333Y-15511500D01*
X13858333Y-15511500D02*
X13867857Y-15501976D01*
X13867857Y-15501976D02*
X13867857Y-15521024D01*
X14001191Y-15321024D02*
X14020238Y-15321024D01*
X14020238Y-15321024D02*
X14039286Y-15330548D01*
X14039286Y-15330548D02*
X14048810Y-15340071D01*
X14048810Y-15340071D02*
X14058333Y-15359119D01*
X14058333Y-15359119D02*
X14067857Y-15397214D01*
X14067857Y-15397214D02*
X14067857Y-15444833D01*
X14067857Y-15444833D02*
X14058333Y-15482928D01*
X14058333Y-15482928D02*
X14048810Y-15501976D01*
X14048810Y-15501976D02*
X14039286Y-15511500D01*
X14039286Y-15511500D02*
X14020238Y-15521024D01*
X14020238Y-15521024D02*
X14001191Y-15521024D01*
X14001191Y-15521024D02*
X13982143Y-15511500D01*
X13982143Y-15511500D02*
X13972619Y-15501976D01*
X13972619Y-15501976D02*
X13963095Y-15482928D01*
X13963095Y-15482928D02*
X13953572Y-15444833D01*
X13953572Y-15444833D02*
X13953572Y-15397214D01*
X13953572Y-15397214D02*
X13963095Y-15359119D01*
X13963095Y-15359119D02*
X13972619Y-15340071D01*
X13972619Y-15340071D02*
X13982143Y-15330548D01*
X13982143Y-15330548D02*
X14001191Y-15321024D01*
X14182143Y-15406738D02*
X14163095Y-15397214D01*
X14163095Y-15397214D02*
X14153572Y-15387690D01*
X14153572Y-15387690D02*
X14144048Y-15368643D01*
X14144048Y-15368643D02*
X14144048Y-15359119D01*
X14144048Y-15359119D02*
X14153572Y-15340071D01*
X14153572Y-15340071D02*
X14163095Y-15330548D01*
X14163095Y-15330548D02*
X14182143Y-15321024D01*
X14182143Y-15321024D02*
X14220238Y-15321024D01*
X14220238Y-15321024D02*
X14239286Y-15330548D01*
X14239286Y-15330548D02*
X14248810Y-15340071D01*
X14248810Y-15340071D02*
X14258333Y-15359119D01*
X14258333Y-15359119D02*
X14258333Y-15368643D01*
X14258333Y-15368643D02*
X14248810Y-15387690D01*
X14248810Y-15387690D02*
X14239286Y-15397214D01*
X14239286Y-15397214D02*
X14220238Y-15406738D01*
X14220238Y-15406738D02*
X14182143Y-15406738D01*
X14182143Y-15406738D02*
X14163095Y-15416262D01*
X14163095Y-15416262D02*
X14153572Y-15425786D01*
X14153572Y-15425786D02*
X14144048Y-15444833D01*
X14144048Y-15444833D02*
X14144048Y-15482928D01*
X14144048Y-15482928D02*
X14153572Y-15501976D01*
X14153572Y-15501976D02*
X14163095Y-15511500D01*
X14163095Y-15511500D02*
X14182143Y-15521024D01*
X14182143Y-15521024D02*
X14220238Y-15521024D01*
X14220238Y-15521024D02*
X14239286Y-15511500D01*
X14239286Y-15511500D02*
X14248810Y-15501976D01*
X14248810Y-15501976D02*
X14258333Y-15482928D01*
X14258333Y-15482928D02*
X14258333Y-15444833D01*
X14258333Y-15444833D02*
X14248810Y-15425786D01*
X14248810Y-15425786D02*
X14239286Y-15416262D01*
X14239286Y-15416262D02*
X14220238Y-15406738D01*
X14429762Y-15321024D02*
X14391667Y-15321024D01*
X14391667Y-15321024D02*
X14372619Y-15330548D01*
X14372619Y-15330548D02*
X14363095Y-15340071D01*
X14363095Y-15340071D02*
X14344048Y-15368643D01*
X14344048Y-15368643D02*
X14334524Y-15406738D01*
X14334524Y-15406738D02*
X14334524Y-15482928D01*
X14334524Y-15482928D02*
X14344048Y-15501976D01*
X14344048Y-15501976D02*
X14353572Y-15511500D01*
X14353572Y-15511500D02*
X14372619Y-15521024D01*
X14372619Y-15521024D02*
X14410714Y-15521024D01*
X14410714Y-15521024D02*
X14429762Y-15511500D01*
X14429762Y-15511500D02*
X14439286Y-15501976D01*
X14439286Y-15501976D02*
X14448810Y-15482928D01*
X14448810Y-15482928D02*
X14448810Y-15435309D01*
X14448810Y-15435309D02*
X14439286Y-15416262D01*
X14439286Y-15416262D02*
X14429762Y-15406738D01*
X14429762Y-15406738D02*
X14410714Y-15397214D01*
X14410714Y-15397214D02*
X14372619Y-15397214D01*
X14372619Y-15397214D02*
X14353572Y-15406738D01*
X14353572Y-15406738D02*
X14344048Y-15416262D01*
X14344048Y-15416262D02*
X14334524Y-15435309D01*
X14620238Y-15321024D02*
X14582143Y-15321024D01*
X14582143Y-15321024D02*
X14563095Y-15330548D01*
X14563095Y-15330548D02*
X14553572Y-15340071D01*
X14553572Y-15340071D02*
X14534524Y-15368643D01*
X14534524Y-15368643D02*
X14525000Y-15406738D01*
X14525000Y-15406738D02*
X14525000Y-15482928D01*
X14525000Y-15482928D02*
X14534524Y-15501976D01*
X14534524Y-15501976D02*
X14544048Y-15511500D01*
X14544048Y-15511500D02*
X14563095Y-15521024D01*
X14563095Y-15521024D02*
X14601191Y-15521024D01*
X14601191Y-15521024D02*
X14620238Y-15511500D01*
X14620238Y-15511500D02*
X14629762Y-15501976D01*
X14629762Y-15501976D02*
X14639286Y-15482928D01*
X14639286Y-15482928D02*
X14639286Y-15435309D01*
X14639286Y-15435309D02*
X14629762Y-15416262D01*
X14629762Y-15416262D02*
X14620238Y-15406738D01*
X14620238Y-15406738D02*
X14601191Y-15397214D01*
X14601191Y-15397214D02*
X14563095Y-15397214D01*
X14563095Y-15397214D02*
X14544048Y-15406738D01*
X14544048Y-15406738D02*
X14534524Y-15416262D01*
X14534524Y-15416262D02*
X14525000Y-15435309D01*
X14715476Y-15321024D02*
X14715476Y-15359119D01*
X14791667Y-15321024D02*
X14791667Y-15359119D01*
X15086905Y-15597214D02*
X15077381Y-15587690D01*
X15077381Y-15587690D02*
X15058334Y-15559119D01*
X15058334Y-15559119D02*
X15048810Y-15540071D01*
X15048810Y-15540071D02*
X15039286Y-15511500D01*
X15039286Y-15511500D02*
X15029762Y-15463881D01*
X15029762Y-15463881D02*
X15029762Y-15425786D01*
X15029762Y-15425786D02*
X15039286Y-15378167D01*
X15039286Y-15378167D02*
X15048810Y-15349595D01*
X15048810Y-15349595D02*
X15058334Y-15330548D01*
X15058334Y-15330548D02*
X15077381Y-15301976D01*
X15077381Y-15301976D02*
X15086905Y-15292452D01*
X15144048Y-15321024D02*
X15267857Y-15321024D01*
X15267857Y-15321024D02*
X15201191Y-15397214D01*
X15201191Y-15397214D02*
X15229762Y-15397214D01*
X15229762Y-15397214D02*
X15248810Y-15406738D01*
X15248810Y-15406738D02*
X15258334Y-15416262D01*
X15258334Y-15416262D02*
X15267857Y-15435309D01*
X15267857Y-15435309D02*
X15267857Y-15482928D01*
X15267857Y-15482928D02*
X15258334Y-15501976D01*
X15258334Y-15501976D02*
X15248810Y-15511500D01*
X15248810Y-15511500D02*
X15229762Y-15521024D01*
X15229762Y-15521024D02*
X15172619Y-15521024D01*
X15172619Y-15521024D02*
X15153572Y-15511500D01*
X15153572Y-15511500D02*
X15144048Y-15501976D01*
X15505953Y-15521024D02*
X15505953Y-15321024D01*
X15591667Y-15521024D02*
X15591667Y-15416262D01*
X15591667Y-15416262D02*
X15582143Y-15397214D01*
X15582143Y-15397214D02*
X15563096Y-15387690D01*
X15563096Y-15387690D02*
X15534524Y-15387690D01*
X15534524Y-15387690D02*
X15515476Y-15397214D01*
X15515476Y-15397214D02*
X15505953Y-15406738D01*
X15715476Y-15521024D02*
X15696429Y-15511500D01*
X15696429Y-15511500D02*
X15686905Y-15501976D01*
X15686905Y-15501976D02*
X15677381Y-15482928D01*
X15677381Y-15482928D02*
X15677381Y-15425786D01*
X15677381Y-15425786D02*
X15686905Y-15406738D01*
X15686905Y-15406738D02*
X15696429Y-15397214D01*
X15696429Y-15397214D02*
X15715476Y-15387690D01*
X15715476Y-15387690D02*
X15744048Y-15387690D01*
X15744048Y-15387690D02*
X15763096Y-15397214D01*
X15763096Y-15397214D02*
X15772619Y-15406738D01*
X15772619Y-15406738D02*
X15782143Y-15425786D01*
X15782143Y-15425786D02*
X15782143Y-15482928D01*
X15782143Y-15482928D02*
X15772619Y-15501976D01*
X15772619Y-15501976D02*
X15763096Y-15511500D01*
X15763096Y-15511500D02*
X15744048Y-15521024D01*
X15744048Y-15521024D02*
X15715476Y-15521024D01*
X15896429Y-15521024D02*
X15877381Y-15511500D01*
X15877381Y-15511500D02*
X15867857Y-15492452D01*
X15867857Y-15492452D02*
X15867857Y-15321024D01*
X16048810Y-15511500D02*
X16029762Y-15521024D01*
X16029762Y-15521024D02*
X15991667Y-15521024D01*
X15991667Y-15521024D02*
X15972619Y-15511500D01*
X15972619Y-15511500D02*
X15963096Y-15492452D01*
X15963096Y-15492452D02*
X15963096Y-15416262D01*
X15963096Y-15416262D02*
X15972619Y-15397214D01*
X15972619Y-15397214D02*
X15991667Y-15387690D01*
X15991667Y-15387690D02*
X16029762Y-15387690D01*
X16029762Y-15387690D02*
X16048810Y-15397214D01*
X16048810Y-15397214D02*
X16058334Y-15416262D01*
X16058334Y-15416262D02*
X16058334Y-15435309D01*
X16058334Y-15435309D02*
X15963096Y-15454357D01*
X16134524Y-15511500D02*
X16153572Y-15521024D01*
X16153572Y-15521024D02*
X16191667Y-15521024D01*
X16191667Y-15521024D02*
X16210715Y-15511500D01*
X16210715Y-15511500D02*
X16220238Y-15492452D01*
X16220238Y-15492452D02*
X16220238Y-15482928D01*
X16220238Y-15482928D02*
X16210715Y-15463881D01*
X16210715Y-15463881D02*
X16191667Y-15454357D01*
X16191667Y-15454357D02*
X16163096Y-15454357D01*
X16163096Y-15454357D02*
X16144048Y-15444833D01*
X16144048Y-15444833D02*
X16134524Y-15425786D01*
X16134524Y-15425786D02*
X16134524Y-15416262D01*
X16134524Y-15416262D02*
X16144048Y-15397214D01*
X16144048Y-15397214D02*
X16163096Y-15387690D01*
X16163096Y-15387690D02*
X16191667Y-15387690D01*
X16191667Y-15387690D02*
X16210715Y-15397214D01*
X16286905Y-15597214D02*
X16296429Y-15587690D01*
X16296429Y-15587690D02*
X16315477Y-15559119D01*
X16315477Y-15559119D02*
X16325000Y-15540071D01*
X16325000Y-15540071D02*
X16334524Y-15511500D01*
X16334524Y-15511500D02*
X16344048Y-15463881D01*
X16344048Y-15463881D02*
X16344048Y-15425786D01*
X16344048Y-15425786D02*
X16334524Y-15378167D01*
X16334524Y-15378167D02*
X16325000Y-15349595D01*
X16325000Y-15349595D02*
X16315477Y-15330548D01*
X16315477Y-15330548D02*
X16296429Y-15301976D01*
X16296429Y-15301976D02*
X16286905Y-15292452D01*
M02*
