%TF.GenerationSoftware,KiCad,Pcbnew,7.0.2*%
%TF.CreationDate,2023-07-17T10:41:54+03:00*%
%TF.ProjectId,DeskSmartFan,4465736b-536d-4617-9274-46616e2e6b69,rev?*%
%TF.SameCoordinates,Original*%
%TF.FileFunction,Soldermask,Bot*%
%TF.FilePolarity,Negative*%
%FSLAX46Y46*%
G04 Gerber Fmt 4.6, Leading zero omitted, Abs format (unit mm)*
G04 Created by KiCad (PCBNEW 7.0.2) date 2023-07-17 10:41:54*
%MOMM*%
%LPD*%
G01*
G04 APERTURE LIST*
%ADD10C,0.700000*%
%ADD11C,4.400000*%
%ADD12R,1.700000X1.700000*%
%ADD13O,1.700000X1.700000*%
%ADD14R,2.000000X2.000000*%
%ADD15C,2.000000*%
%ADD16R,2.000000X3.200000*%
%ADD17R,1.000000X1.000000*%
%ADD18O,1.000000X1.000000*%
%ADD19R,4.400000X1.800000*%
%ADD20O,4.000000X1.800000*%
%ADD21O,1.800000X4.000000*%
%ADD22C,0.650000*%
%ADD23O,2.100000X1.000000*%
%ADD24O,1.600000X1.000000*%
G04 APERTURE END LIST*
D10*
%TO.C,REF\u002A\u002A*%
X125490000Y-40655000D03*
X125973274Y-39488274D03*
X125973274Y-41821726D03*
X127140000Y-39005000D03*
D11*
X127140000Y-40655000D03*
D10*
X127140000Y-42305000D03*
X128306726Y-39488274D03*
X128306726Y-41821726D03*
X128790000Y-40655000D03*
%TD*%
D12*
%TO.C,J5*%
X159790000Y-62925000D03*
D13*
X159790000Y-65465000D03*
X159790000Y-68005000D03*
X159790000Y-70545000D03*
%TD*%
D12*
%TO.C,J3*%
X159940000Y-51255000D03*
D13*
X159940000Y-53795000D03*
X159940000Y-56335000D03*
%TD*%
D12*
%TO.C,J4*%
X159870000Y-41015000D03*
D13*
X159870000Y-43555000D03*
X159870000Y-46095000D03*
%TD*%
D14*
%TO.C,SW2*%
X152220000Y-93545000D03*
D15*
X157220000Y-93545000D03*
X154720000Y-93545000D03*
D16*
X149120000Y-86045000D03*
X160320000Y-86045000D03*
D15*
X157220000Y-79045000D03*
X152220000Y-79045000D03*
%TD*%
D10*
%TO.C,REF\u002A\u002A*%
X158490000Y-121655000D03*
X158973274Y-120488274D03*
X158973274Y-122821726D03*
X160140000Y-120005000D03*
D11*
X160140000Y-121655000D03*
D10*
X160140000Y-123305000D03*
X161306726Y-120488274D03*
X161306726Y-122821726D03*
X161790000Y-121655000D03*
%TD*%
D17*
%TO.C,J6*%
X121135000Y-77850000D03*
D18*
X121135000Y-79120000D03*
X122405000Y-77850000D03*
X122405000Y-79120000D03*
X123675000Y-77850000D03*
X123675000Y-79120000D03*
X124945000Y-77850000D03*
X124945000Y-79120000D03*
X126215000Y-77850000D03*
X126215000Y-79120000D03*
%TD*%
D19*
%TO.C,J2*%
X129140000Y-115355000D03*
D20*
X129140000Y-121155000D03*
D21*
X133940000Y-118355000D03*
%TD*%
D10*
%TO.C,REF\u002A\u002A*%
X123650000Y-101600000D03*
X124133274Y-100433274D03*
X124133274Y-102766726D03*
X125300000Y-99950000D03*
D11*
X125300000Y-101600000D03*
D10*
X125300000Y-103250000D03*
X126466726Y-100433274D03*
X126466726Y-102766726D03*
X126950000Y-101600000D03*
%TD*%
D22*
%TO.C,J1*%
X127610000Y-62085000D03*
X127610000Y-67865000D03*
D23*
X128140000Y-60655000D03*
D24*
X123960000Y-60655000D03*
D23*
X128140000Y-69295000D03*
D24*
X123960000Y-69295000D03*
%TD*%
M02*
